<?xml version="1.0" encoding="UTF-8"?>
<!DOCTYPE svg PUBLIC "-//W3C//DTD SVG 1.1//EN" "http://www.w3.org/Graphics/SVG/1.1/DTD/svg11.dtd">
<!-- Creator: CorelDRAW X5 -->
<svg xmlns="http://www.w3.org/2000/svg" xml:space="preserve" width="66.4586mm" height="66.3786mm" style="shape-rendering:geometricPrecision; text-rendering:geometricPrecision; image-rendering:optimizeQuality; fill-rule:evenodd; clip-rule:evenodd"
viewBox="0 0 53214 53150"
 xmlns:xlink="http://www.w3.org/1999/xlink">
 <defs>
  <style type="text/css">
   <![CDATA[
    .fil1 {fill:none;fill-rule:nonzero}
    .fil0 {fill:#FEFEFE;fill-rule:nonzero}
   ]]>
  </style>
  <clipPath id="id0" style="clip-rule:nonzero">
   <rect x="331350" y="-949420" width="22215" height="23424"/>
  </clipPath>
 </defs>
<symbol id="Meta25-25-0" viewBox="331350 -949420 22215 23424">
 <g style="clip-path:url(#id0)">
  <image transform="matrix(78.6403 0 0 82.9209 -2.58003E+007 7.59929E+007)" x="332293" y="-927900" width="282" height="282" xlink:href="laser_engraving1_Images\laser_engraving1_ImgID1.png"/>
 </g>
</symbol>
 <g id="Layer_x0020_1">
  <metadata id="CorelCorpID_0Corel-Layer"/>
  <g id="_219383296">
   <path class="fil0" d="M6170 10948l447 0 -220 -415 -227 415zm-457 407l577 -1021 229 0 585 1021 -267 0 -123 -223 -647 0 -119 223 -237 0zm1718 0l0 -1021 162 0 719 601c24,20 46,39 65,57 19,18 36,36 51,54 -4,-57 -6,-98 -8,-122 -1,-24 -2,-42 -2,-55l0 -536 213 0 0 1021 -162 0 -749 -630c-18,-16 -34,-31 -47,-44 -14,-13 -26,-26 -38,-39 3,31 6,61 7,89 2,28 2,52 2,73l0 551 -213 0 0 0zm2005 0l0 -457 -530 -564 317 0 350 392 352 -392 279 0 -528 558 0 462 -240 0 0 0z"/>
   <path class="fil0" d="M5908 13425l0 -1021 1032 0 0 179 -795 0 0 269 430 0 0 186 -430 0 0 387 -238 0zm1305 -779c0,-93 18,-156 52,-190 35,-34 102,-51 201,-51l751 0c99,0 166,17 201,51 35,34 52,97 52,190l0 538c0,93 -18,157 -52,190 -35,34 -102,51 -201,51l-751 0c-99,0 -166,-17 -201,-51 -35,-34 -52,-97 -52,-190l0 -538zm237 587l783 0 0 -646 -783 0 0 646zm2287 -652l-534 0 0 284 534 0c41,0 69,-6 84,-18 15,-12 23,-33 23,-63l0 -123c0,-30 -8,-51 -23,-62 -15,-12 -43,-18 -84,-18zm-768 844l0 -1021 873 0c81,0 140,16 176,47 36,31 54,82 54,151l0 240c0,69 -18,119 -54,150 -37,32 -95,47 -176,47l-133 0 471 385 -341 0 -411 -385 -225 0 0 385 -234 0 0 0zm1583 0l0 -1021 192 0 481 617 470 -617 190 0 0 1021 -220 0 0 -630c0,-12 1,-28 2,-47 2,-19 4,-39 6,-63 -13,26 -24,48 -34,65 -10,17 -18,31 -26,42l-383 510 -47 0 -384 -512c-14,-19 -26,-38 -36,-55 -10,-17 -18,-34 -25,-49 2,21 4,41 5,58 1,18 1,34 1,51l0 630 -192 0 0 0zm2094 -407l447 0 -220 -415 -227 415zm-457 407l577 -1021 229 0 585 1021 -267 0 -123 -223 -647 0 -119 223 -237 0zm2061 -838l0 838 -238 0 0 -838 -468 0 0 -183 1176 0 0 183 -470 0 0 0z"/>
   <path class="fil0" d="M6170 15088l447 0 -220 -415 -227 415zm-457 407l577 -1021 229 0 585 1021 -267 0 -123 -223 -647 0 -119 223 -237 0zm1718 0l0 -1021 162 0 719 601c24,20 46,39 65,57 19,18 36,36 51,54 -4,-57 -6,-98 -8,-122 -1,-24 -2,-42 -2,-55l0 -536 213 0 0 1021 -162 0 -749 -630c-18,-16 -34,-31 -47,-44 -14,-13 -26,-26 -38,-39 3,31 6,61 7,89 2,28 2,52 2,73l0 551 -213 0 0 0zm1958 -192l307 0c163,0 279,-25 347,-76 68,-51 102,-135 102,-252 0,-104 -28,-183 -85,-237 -57,-54 -140,-81 -251,-81l-421 0 0 646 0 0zm-238 192l0 -1021 657 0c187,0 331,44 432,131 100,88 151,212 151,373 0,95 -20,181 -59,257 -39,76 -95,136 -166,180 -44,28 -100,48 -165,60 -66,13 -151,19 -253,19l-596 0zm3325 -842l-668 0 0 219 636 0c100,0 167,17 202,51 35,34 53,98 53,190l0 140c0,93 -18,156 -53,190 -35,34 -102,51 -202,51l-630 0c-100,0 -167,-17 -202,-51 -35,-34 -53,-97 -53,-190l0 -28 210 -44 0 121 721 0 0 -233 -636 0c-99,0 -166,-17 -201,-51 -35,-34 -52,-97 -52,-190l0 -113c0,-93 18,-156 52,-190 35,-34 102,-51 201,-51l579 0c96,0 162,16 198,49 37,33 55,91 55,175l0 21 -210 49 0 -116 0 0zm715 842l0 -1021 238 0 0 396 741 0 0 -396 240 0 0 1021 -240 0 0 -439 -741 0 0 439 -238 0zm2001 -407l447 0 -220 -415 -227 415zm-457 407l577 -1021 229 0 585 1021 -267 0 -123 -223 -647 0 -119 223 -237 0zm2487 -844l-534 0 0 271 534 0c41,0 69,-6 84,-18 15,-12 23,-33 23,-63l0 -109c0,-30 -8,-51 -23,-62 -15,-12 -43,-18 -84,-18l0 0zm-768 844l0 -1021 873 0c81,0 140,16 176,47 36,31 54,82 54,151l0 228c0,69 -18,119 -54,150 -37,31 -95,47 -176,47l-639 0 0 398 -234 0zm1469 0l0 -1021 1045 0 0 174 -807 0 0 228 471 0 0 174 -471 0 0 253 817 0 0 192 -1055 0 0 0z"/>
   <path class="fil0" d="M11354 24270c152,0 296,64 400,168l0 0c104,104 168,240 168,400 0,152 -64,296 -168,400l0 0c-104,104 -240,168 -400,168 -152,0 -296,-64 -400,-168l0 0c-104,-104 -168,-240 -168,-400 0,-152 64,-296 168,-400l0 0c40,-40 80,-72 136,-96l-4876 -6566 -96 -128 160 0 6910 16 0 160 -6758 -16 4804 6478c32,-8 72,-8 112,-8l8 -8 0 0zm288 280c-72,-72 -176,-120 -288,-120 -112,0 -216,48 -288,120 -72,72 -120,176 -120,288 0,112 48,216 120,288 72,72 176,120 288,120 112,0 216,-48 288,-120 72,-72 120,-176 120,-288 0,-112 -48,-216 -120,-288z"/>
   <polygon class="fil1" points="0,53150 53214,53150 53214,0 0,0 "/>
  </g>
 </g>
</svg>
