<?xml version="1.0" encoding="UTF-8"?>
<!DOCTYPE svg PUBLIC "-//W3C//DTD SVG 1.1//EN" "http://www.w3.org/Graphics/SVG/1.1/DTD/svg11.dtd">
<!-- Creator: CorelDRAW X5 -->
<svg xmlns="http://www.w3.org/2000/svg" xml:space="preserve" width="66.4586mm" height="66.3786mm" style="shape-rendering:geometricPrecision; text-rendering:geometricPrecision; image-rendering:optimizeQuality; fill-rule:evenodd; clip-rule:evenodd"
viewBox="0 0 532260 531619"
 xmlns:xlink="http://www.w3.org/1999/xlink">
 <defs>
  <style type="text/css">
   <![CDATA[
    .fil2 {fill:none;fill-rule:nonzero}
    .fil0 {fill:#FEFEFE;fill-rule:nonzero}
    .fil1 {fill:#FEFEFE;fill-rule:nonzero}
   ]]>
  </style>
 </defs>
 <g id="Layer_x0020_1">
  <metadata id="CorelCorpID_0Corel-Layer"/>
  <path class="fil0" d="M181393 150329l0 -8021 8111 0 0 1404 -6244 0 0 2110 3377 0 0 1463 -3377 0 0 3043 -1868 0zm10424 0l0 -8021 1868 0 0 6511 6016 0 0 1510 -7884 0zm12400 -3201l3512 0 -1730 -3264 -1782 3264zm-3590 3201l4537 -8021 1797 0 4600 8021 -2095 0 -963 -1751 -5084 0 -933 1751 -1859 0zm16195 -6587l0 6587 -1867 0 0 -6587 -3681 0 0 -1434 9244 0 0 1434 -3696 0zm11828 464c0,-730 137,-1228 409,-1497 275,-267 800,-401 1580,-401l5899 0c780,0 1305,135 1580,401 272,269 409,766 409,1497l0 4227c0,733 -138,1233 -409,1497 -275,267 -800,399 -1580,399l-5899 0c-780,0 -1305,-132 -1580,-399 -272,-264 -409,-764 -409,-1497l0 -4227zm1868 4613l6151 0 0 -5077 -6151 0 0 5077zm17977 -5123l-4198 0 0 2233 4198 0c324,0 544,-46 663,-140 119,-93 179,-259 179,-497l0 -966c0,-233 -60,-396 -179,-489 -119,-94 -340,-140 -663,-140zm-6035 6633l0 -8021 6860 0c638,0 1099,122 1386,368 285,246 428,642 428,1186l0 1885c0,541 -143,935 -428,1181 -287,248 -748,373 -1386,373l-1046 0 3701 3027 -2678 0 -3232 -3027 -1768 0 0 3027 -1836 0zm18477 0l0 -8021 8111 0 0 1404 -6244 0 0 2110 3377 0 0 1463 -3377 0 0 3043 -1868 0zm10424 0l0 -8021 1868 0 0 6511 6016 0 0 1510 -7884 0zm12400 -3201l3512 0 -1730 -3264 -1782 3264zm-3590 3201l4537 -8021 1797 0 4600 8021 -2095 0 -963 -1751 -5084 0 -933 1751 -1859 0zm15669 0l-4636 -8021 2131 0 3248 5798 3095 -5798 1860 0 -4408 8021 -1289 0zm7710 -6123c0,-730 137,-1228 409,-1497 275,-267 800,-401 1580,-401l5899 0c780,0 1305,135 1580,401 272,269 409,766 409,1497l0 4227c0,733 -138,1233 -409,1497 -275,267 -800,399 -1580,399l-5899 0c-780,0 -1305,-132 -1580,-399 -272,-264 -409,-764 -409,-1497l0 -4227zm1868 4613l6151 0 0 -5077 -6151 0 0 5077zm17977 -5123l-4198 0 0 2233 4198 0c324,0 544,-46 663,-140 119,-93 179,-259 179,-497l0 -966c0,-233 -60,-396 -179,-489 -119,-94 -340,-140 -663,-140zm-6035 6633l0 -8021 6860 0c638,0 1099,122 1386,368 285,246 428,642 428,1186l0 1885c0,541 -143,935 -428,1181 -287,248 -748,373 -1386,373l-1046 0 3701 3027 -2678 0 -3232 -3027 -1768 0 0 3027 -1836 0zm18477 0l0 -8021 8212 0 0 1365 -6345 0 0 1792 3703 0 0 1365 -3703 0 0 1989 6420 0 0 1510 -8288 0zm11715 0l0 -8021 1274 0 5649 4727c191,158 360,305 507,445 148,139 280,282 402,427 -29,-450 -50,-769 -60,-955 -10,-187 -15,-332 -15,-432l0 -4211 1675 0 0 8021 -1274 0 -5890 -4954c-142,-127 -267,-241 -372,-342 -107,-101 -205,-205 -296,-311 23,246 44,481 57,702 13,220 18,409 18,573l0 4333 -1675 0zm21051 -6587l-5827 0 0 5077 5827 0 0 -1784 -3051 0 0 -1366 4864 0 0 2761c0,735 -137,1235 -409,1499 -274,267 -800,399 -1577,399l-5532 0c-780,0 -1305,-132 -1580,-399 -272,-264 -409,-764 -409,-1499l0 -4225c0,-730 137,-1228 409,-1497 275,-267 800,-401 1580,-401l5532 0c766,0 1293,132 1570,393 277,264 416,741 416,1430l0 182 -1812 326 0 -896zm11792 -46l-4198 0 0 2233 4198 0c324,0 544,-46 663,-140 119,-93 179,-259 179,-497l0 -966c0,-233 -60,-396 -179,-489 -119,-94 -340,-140 -663,-140zm-6035 6633l0 -8021 6860 0c638,0 1099,122 1386,368 285,246 428,642 428,1186l0 1885c0,541 -143,935 -428,1181 -287,248 -748,373 -1386,373l-1046 0 3701 3027 -2678 0 -3232 -3027 -1768 0 0 3027 -1836 0zm13963 -3201l3512 0 -1730 -3264 -1782 3264zm-3590 3201l4537 -8021 1797 0 4600 8021 -2095 0 -963 -1751 -5084 0 -933 1751 -1859 0zm15669 0l-4636 -8021 2131 0 3248 5798 3095 -5798 1860 0 -4408 8021 -1289 0zm7876 0l0 -8021 1868 0 0 8021 -1868 0zm5950 0l0 -8021 1274 0 5649 4727c191,158 360,305 507,445 148,139 280,282 402,427 -29,-450 -50,-769 -60,-955 -10,-187 -15,-332 -15,-432l0 -4211 1675 0 0 8021 -1274 0 -5890 -4954c-142,-127 -267,-241 -372,-342 -107,-101 -205,-205 -296,-311 23,246 44,481 57,702 13,220 18,409 18,573l0 4333 -1675 0zm21051 -6587l-5827 0 0 5077 5827 0 0 -1784 -3051 0 0 -1366 4864 0 0 2761c0,735 -137,1235 -409,1499 -274,267 -800,399 -1577,399l-5532 0c-780,0 -1305,-132 -1580,-399 -272,-264 -409,-764 -409,-1499l0 -4225c0,-730 137,-1228 409,-1497 275,-267 800,-401 1580,-401l5532 0c766,0 1293,132 1570,393 277,264 416,741 416,1430l0 182 -1812 326 0 -896z"/>
 </g>
 <g id="Layer_x0020_1_0">
  <metadata id="CorelCorpID_1Corel-Layer"/>
  <path class="fil1" d="M272697 323953c1522,240 2803,1121 3604,2323 801,1201 1201,2723 961,4245 -240,1522 -1121,2803 -2323,3604 -1201,801 -2723,1201 -4245,961 -1522,-240 -2803,-1121 -3604,-2323 -801,-1201 -1201,-2723 -961,-4245 240,-1522 1121,-2803 2323,-3604 240,-160 481,-320 801,-481l-63909 -152326 -481 -1121 1201 0 184681 0 0 1602 -183480 0 63509 151365c641,-80 1281,-80 1922,0zm2323 3204c-561,-881 -1522,-1442 -2643,-1682 -1121,-160 -2162,80 -3043,641 -881,561 -1442,1522 -1682,2643 -160,1121 80,2162 641,3043 561,881 1522,1442 2643,1682 1121,160 2162,-80 3043,-641 881,-561 1442,-1522 1682,-2643 160,-1121 -80,-2162 -641,-3043z"/>
  <polygon class="fil2" points="0,531619 532260,531619 532260,0 0,0 "/>
 </g>
</svg>
