<?xml version="1.0" encoding="UTF-8"?>
<!DOCTYPE svg PUBLIC "-//W3C//DTD SVG 1.1//EN" "http://www.w3.org/Graphics/SVG/1.1/DTD/svg11.dtd">
<!-- Creator: CorelDRAW X5 -->
<svg xmlns="http://www.w3.org/2000/svg" xml:space="preserve" width="66.4586mm" height="66.3786mm" style="shape-rendering:geometricPrecision; text-rendering:geometricPrecision; image-rendering:optimizeQuality; fill-rule:evenodd; clip-rule:evenodd"
viewBox="0 0 532260 531619"
 xmlns:xlink="http://www.w3.org/1999/xlink">
 <defs>
  <style type="text/css">
   <![CDATA[
    .fil2 {fill:none;fill-rule:nonzero}
    .fil0 {fill:#FEFEFE;fill-rule:nonzero}
    .fil1 {fill:#FEFEFE;fill-rule:nonzero}
   ]]>
  </style>
 </defs>
 <g id="Layer_x0020_1">
  <metadata id="CorelCorpID_0Corel-Layer"/>
  <path class="fil0" d="M332503 187377l-5343 0 0 2841 5343 0c412,0 692,-59 844,-178 151,-119 227,-329 227,-633l0 -1229c0,-297 -76,-505 -227,-623 -152,-119 -432,-178 -844,-178zm-7681 8441l0 -10208 8732 0c811,0 1398,155 1764,468 362,313 544,818 544,1510l0 2399c0,690 -182,1190 -544,1503 -366,316 -953,475 -1764,475l-1332 0 4710 3853 -3408 0 -4113 -3853 -2251 0 0 3853 -2338 0zm15858 0l0 -10208 10452 0 0 1737 -8075 0 0 2281 4713 0 0 1737 -4713 0 0 2532 8171 0 0 1921 -10549 0zm23773 -8422l-6682 0 0 2192 6362 0c999,0 1674,171 2024,511 352,343 527,976 527,1905l0 1401c0,927 -175,1559 -527,1902 -350,340 -1025,511 -2024,511l-6303 0c-999,0 -1674,-171 -2024,-511 -352,-343 -527,-975 -527,-1902l0 -280 2096 -436 0 1207 7213 0 0 -2327 -6362 0c-992,0 -1661,-171 -2010,-511 -346,-343 -521,-975 -521,-1905l0 -1127c0,-930 175,-1563 521,-1905 349,-340 1019,-511 2010,-511l5792 0c959,0 1621,165 1984,491 366,330 547,913 547,1750l0 211 -2096 494 0 -1160zm7155 8422l0 -10208 2377 0 0 10208 -2377 0zm16435 -8422l-6682 0 0 2192 6362 0c999,0 1674,171 2024,511 352,343 527,976 527,1905l0 1401c0,927 -175,1559 -527,1902 -350,340 -1025,511 -2024,511l-6303 0c-999,0 -1674,-171 -2024,-511 -352,-343 -527,-975 -527,-1902l0 -280 2096 -436 0 1207 7213 0 0 -2327 -6362 0c-992,0 -1661,-171 -2010,-511 -346,-343 -521,-975 -521,-1905l0 -1127c0,-930 175,-1563 521,-1905 349,-340 1019,-511 2010,-511l5792 0c959,0 1621,165 1984,491 366,330 547,913 547,1750l0 211 -2096 494 0 -1160zm11908 40l0 8382 -2376 0 0 -8382 -4684 0 0 -1826 11763 0 0 1826 -4704 0zm8883 4308l4470 0 -2202 -4153 -2268 4153zm-4568 4074l5775 -10208 2287 0 5854 10208 -2666 0 -1226 -2228 -6470 0 -1187 2228 -2367 0zm17180 0l0 -10208 1622 0 7189 6015c244,201 458,389 646,567 187,178 356,359 511,544 -37,-573 -63,-979 -76,-1217 -14,-237 -20,-422 -20,-550l0 -5360 2133 0 0 10208 -1622 0 -7496 -6305c-181,-162 -340,-307 -475,-436 -135,-128 -260,-260 -376,-395 30,313 56,613 73,893 16,280 23,521 23,728l0 5515 -2133 0zm25776 -8382l-6402 0 0 6461 6402 0 0 -2192 2377 491 0 1209c0,933 -175,1569 -528,1905 -349,340 -1019,508 -2004,508l-6092 0c-992,0 -1661,-168 -2011,-508 -346,-336 -521,-972 -521,-1905l0 -5379c0,-930 175,-1563 521,-1905 350,-340 1019,-511 2011,-511l6092 0c985,0 1655,171 2004,511 352,343 528,975 528,1905l0 965 -2377 376 0 -1932zm7271 8382l0 -10208 10452 0 0 1737 -8075 0 0 2281 4713 0 0 1737 -4713 0 0 2532 8171 0 0 1921 -10549 0z"/>
  <path class="fil0" d="M324822 216522l0 -10208 10324 0 0 1786 -7947 0 0 2687 4298 0 0 1862 -4298 0 0 3873 -2377 0zm13057 -7792c0,-930 175,-1563 521,-1905 350,-340 1019,-511 2011,-511l7508 0c992,0 1662,171 2011,511 346,343 521,975 521,1905l0 5379c0,933 -175,1569 -521,1905 -349,340 -1019,508 -2011,508l-7508 0c-992,0 -1661,-168 -2011,-508 -346,-336 -521,-972 -521,-1905l0 -5379zm2376 5871l7829 0 0 -6461 -7829 0 0 6461zm22879 -6520l-5343 0 0 2841 5343 0c412,0 692,-59 844,-178 151,-119 227,-329 227,-633l0 -1229c0,-297 -76,-505 -227,-623 -152,-119 -432,-178 -844,-178zm-7681 8441l0 -10208 8732 0c811,0 1398,155 1764,468 362,313 544,818 544,1510l0 2399c0,690 -182,1190 -544,1503 -366,316 -953,475 -1764,475l-1332 0 4710 3853 -3408 0 -4113 -3853 -2251 0 0 3853 -2338 0zm25892 -1921l3072 0c1635,0 2792,-254 3474,-762 682,-511 1025,-1352 1025,-2522 0,-1044 -284,-1832 -851,-2370 -567,-537 -1405,-807 -2512,-807l-4209 0 0 6461zm-2377 1921l0 -10208 6570 0c1872,0 3312,438 4322,1312 1005,877 1510,2119 1510,3728 0,955 -198,1812 -590,2574 -392,765 -946,1365 -1661,1803 -442,277 -996,478 -1655,603 -660,126 -1506,188 -2535,188l-5960 0zm19026 -4074l4470 0 -2202 -4153 -2268 4153zm-4568 4074l5775 -10208 2287 0 5854 10208 -2666 0 -1226 -2228 -6470 0 -1187 2228 -2367 0zm17180 0l0 -10208 1921 0 4809 6170 4704 -6170 1902 0 0 10208 -2202 0 0 -6305c0,-123 6,-277 22,-465 17,-187 40,-395 63,-626 -129,264 -241,481 -336,650 -96,171 -185,313 -260,422l-3834 5099 -475 0 -3843 -5119c-142,-194 -264,-376 -363,-547 -99,-168 -182,-336 -247,-494 20,211 36,405 46,577 10,175 13,343 13,505l0 6305 -1921 0zm20947 -4074l4470 0 -2202 -4153 -2268 4153zm-4568 4074l5775 -10208 2287 0 5854 10208 -2666 0 -1226 -2228 -6470 0 -1187 2228 -2367 0zm26436 -8382l-7417 0 0 6461 7417 0 0 -2271 -3884 0 0 -1737 6191 0 0 3514c0,936 -175,1572 -521,1909 -349,340 -1018,508 -2007,508l-7041 0c-992,0 -1661,-168 -2011,-508 -346,-336 -521,-972 -521,-1909l0 -5376c0,-930 175,-1563 521,-1905 350,-340 1019,-511 2011,-511l7041 0c975,0 1645,168 1997,501 352,336 531,943 531,1820l0 231 -2307 416 0 -1140zm7327 8382l0 -10208 10452 0 0 1737 -8075 0 0 2281 4713 0 0 1737 -4713 0 0 2532 8171 0 0 1921 -10549 0z"/>
 </g>
 <g id="Layer_x0020_1_0">
  <metadata id="CorelCorpID_1Corel-Layer"/>
  <path class="fil1" d="M422861 374168c-561,-881 -1522,-1442 -2643,-1682 -1121,-160 -2162,80 -3043,641 -881,561 -1442,1522 -1682,2643 -160,1121 80,2162 641,3043 561,881 1522,1442 2643,1682 1121,160 2162,-80 3043,-641 881,-561 1442,-1522 1682,-2643 160,-1121 -80,-2162 -641,-3043zm-2323 -3204c1522,240 2803,1121 3604,2323 801,1201 1201,2723 961,4245 -240,1522 -1121,2803 -2323,3604 -1201,801 -2723,1201 -4245,961 -1522,-240 -2803,-1121 -3604,-2323 -801,-1201 -1201,-2723 -961,-4245 240,-1522 1121,-2803 2323,-3604 721,-481 1522,-801 2403,-961l51096 -125737 -138551 0 0 -1602 139752 0 1201 0 -481 1121 -51256 126218 80 0z"/>
  <polygon class="fil2" points="0,531619 532260,531619 532260,0 0,0 "/>
 </g>
</svg>
