<?xml version="1.0" encoding="UTF-8"?>
<!DOCTYPE svg PUBLIC "-//W3C//DTD SVG 1.1//EN" "http://www.w3.org/Graphics/SVG/1.1/DTD/svg11.dtd">
<!-- Creator: CorelDRAW X5 -->
<svg xmlns="http://www.w3.org/2000/svg" xml:space="preserve" width="66.4586mm" height="66.3786mm" style="shape-rendering:geometricPrecision; text-rendering:geometricPrecision; image-rendering:optimizeQuality; fill-rule:evenodd; clip-rule:evenodd"
viewBox="0 0 532260 531619"
 xmlns:xlink="http://www.w3.org/1999/xlink">
 <defs>
  <style type="text/css">
   <![CDATA[
    .fil2 {fill:none;fill-rule:nonzero}
    .fil0 {fill:#FEFEFE;fill-rule:nonzero}
    .fil1 {fill:#FEFEFE;fill-rule:nonzero}
   ]]>
  </style>
 </defs>
 <g id="Layer_x0020_1">
  <metadata id="CorelCorpID_0Corel-Layer"/>
  <path class="fil0" d="M106334 88657l0 -8021 8212 0 0 1365 -6345 0 0 1792 3703 0 0 1365 -3703 0 0 1989 6420 0 0 1510 -8288 0zm11715 0l0 -8021 1274 0 5649 4727c191,158 360,305 507,445 148,139 280,282 402,427 -29,-450 -50,-769 -60,-955 -10,-187 -15,-332 -15,-432l0 -4211 1675 0 0 8021 -1274 0 -5890 -4954c-142,-127 -267,-241 -372,-342 -107,-101 -205,-205 -296,-311 23,246 44,481 57,702 13,220 18,409 18,573l0 4333 -1675 0zm21051 -6587l-5827 0 0 5077 5827 0 0 -1784 -3051 0 0 -1366 4864 0 0 2761c0,735 -137,1235 -409,1499 -274,267 -800,399 -1577,399l-5532 0c-780,0 -1305,-132 -1580,-399 -272,-264 -409,-764 -409,-1499l0 -4225c0,-730 137,-1228 409,-1497 275,-267 800,-401 1580,-401l5532 0c766,0 1293,132 1570,393 277,264 416,741 416,1430l0 182 -1812 326 0 -896zm11792 -46l-4198 0 0 2233 4198 0c324,0 544,-46 663,-140 119,-93 179,-259 179,-497l0 -966c0,-233 -60,-396 -179,-489 -119,-94 -340,-140 -663,-140zm-6035 6633l0 -8021 6860 0c638,0 1099,122 1386,368 285,246 428,642 428,1186l0 1885c0,541 -143,935 -428,1181 -287,248 -748,373 -1386,373l-1046 0 3701 3027 -2678 0 -3232 -3027 -1768 0 0 3027 -1836 0zm13963 -3201l3512 0 -1730 -3264 -1782 3264zm-3590 3201l4537 -8021 1797 0 4600 8021 -2095 0 -963 -1751 -5084 0 -933 1751 -1859 0zm15669 0l-4636 -8021 2131 0 3248 5798 3095 -5798 1860 0 -4408 8021 -1289 0zm7876 0l0 -8021 1868 0 0 8021 -1868 0zm5950 0l0 -8021 1274 0 5649 4727c191,158 360,305 507,445 148,139 280,282 402,427 -29,-450 -50,-769 -60,-955 -10,-187 -15,-332 -15,-432l0 -4211 1675 0 0 8021 -1274 0 -5890 -4954c-142,-127 -267,-241 -372,-342 -107,-101 -205,-205 -296,-311 23,246 44,481 57,702 13,220 18,409 18,573l0 4333 -1675 0zm21051 -6587l-5827 0 0 5077 5827 0 0 -1784 -3051 0 0 -1366 4864 0 0 2761c0,735 -137,1235 -409,1499 -274,267 -800,399 -1577,399l-5532 0c-780,0 -1305,-132 -1580,-399 -272,-264 -409,-764 -409,-1499l0 -4225c0,-730 137,-1228 409,-1497 275,-267 800,-401 1580,-401l5532 0c766,0 1293,132 1570,393 277,264 416,741 416,1430l0 182 -1812 326 0 -896zm12121 -1205c0,-930 175,-1563 521,-1905 350,-340 1019,-511 2011,-511l7508 0c992,0 1662,171 2011,511 346,343 521,975 521,1905l0 5379c0,933 -175,1569 -521,1905 -349,340 -1019,508 -2011,508l-7508 0c-992,0 -1661,-168 -2011,-508 -346,-336 -521,-972 -521,-1905l0 -5379zm2376 5871l7829 0 0 -6461 -7829 0 0 6461zm15179 1921l0 -10208 1622 0 7189 6015c244,201 458,389 646,567 187,178 356,359 511,544 -37,-573 -63,-979 -76,-1217 -14,-237 -20,-422 -20,-550l0 -5360 2133 0 0 10208 -1622 0 -7496 -6305c-181,-162 -340,-307 -475,-436 -135,-128 -260,-260 -376,-395 30,313 56,613 73,893 16,280 23,521 23,728l0 5515 -2133 0zm24866 0l0 -10208 10452 0 0 1737 -8075 0 0 2281 4713 0 0 1737 -4713 0 0 2532 8171 0 0 1921 -10549 0zm18376 0l-5900 -10208 2713 0 4133 7380 3939 -7380 2367 0 -5610 10208 -1642 0zm10024 0l0 -10208 10452 0 0 1737 -8075 0 0 2281 4713 0 0 1737 -4713 0 0 2532 8171 0 0 1921 -10549 0zm22609 -8441l-5343 0 0 2841 5343 0c412,0 692,-59 844,-178 151,-119 227,-329 227,-633l0 -1229c0,-297 -76,-505 -227,-623 -152,-119 -432,-178 -844,-178zm-7681 8441l0 -10208 8732 0c811,0 1398,155 1764,468 362,313 544,818 544,1510l0 2399c0,690 -182,1190 -544,1503 -366,316 -953,475 -1764,475l-1332 0 4710 3853 -3408 0 -4113 -3853 -2251 0 0 3853 -2338 0zm18360 0l0 -4568 -5300 -5640 3168 0 3504 3922 3517 -3922 2792 0 -5283 5584 0 4624 -2397 0zm18077 0l0 -10208 1921 0 4809 6170 4704 -6170 1902 0 0 10208 -2202 0 0 -6305c0,-123 6,-277 22,-465 17,-187 40,-395 63,-626 -129,264 -241,481 -336,650 -96,171 -185,313 -260,422l-3834 5099 -475 0 -3843 -5119c-142,-194 -264,-376 -363,-547 -99,-168 -182,-336 -247,-494 20,211 36,405 46,577 10,175 13,343 13,505l0 6305 -1921 0zm20947 -4074l4470 0 -2202 -4153 -2268 4153zm-4568 4074l5775 -10208 2287 0 5854 10208 -2666 0 -1226 -2228 -6470 0 -1187 2228 -2367 0zm20611 -8382l0 8382 -2376 0 0 -8382 -4684 0 0 -1826 11763 0 0 1826 -4704 0zm7608 8382l0 -10208 10452 0 0 1737 -8075 0 0 2281 4713 0 0 1737 -4713 0 0 2532 8171 0 0 1921 -10549 0zm22609 -8441l-5343 0 0 2841 5343 0c412,0 692,-59 844,-178 151,-119 227,-329 227,-633l0 -1229c0,-297 -76,-505 -227,-623 -152,-119 -432,-178 -844,-178zm-7681 8441l0 -10208 8732 0c811,0 1398,155 1764,468 362,313 544,818 544,1510l0 2399c0,690 -182,1190 -544,1503 -366,316 -953,475 -1764,475l-1332 0 4710 3853 -3408 0 -4113 -3853 -2251 0 0 3853 -2338 0zm15858 0l0 -10208 2377 0 0 10208 -2377 0zm10208 -4074l4470 0 -2202 -4153 -2268 4153zm-4568 4074l5775 -10208 2287 0 5854 10208 -2666 0 -1226 -2228 -6470 0 -1187 2228 -2367 0zm17199 0l0 -10208 2377 0 0 8287 7657 0 0 1921 -10034 0z"/>
 </g>
 <g id="Layer_x0020_1_0">
  <metadata id="CorelCorpID_1Corel-Layer"/>
  <path class="fil1" d="M213993 309377c1522,0 2963,641 4004,1682l0 0c1041,1041 1682,2403 1682,4004 0,1522 -641,2963 -1682,4004l0 0c-1041,1041 -2403,1682 -4004,1682 -1522,0 -2963,-641 -4004,-1682l0 0c-1041,-1041 -1682,-2403 -1682,-4004 0,-1522 641,-2963 1682,-4004l0 0c160,-160 240,-240 400,-320l-84012 -199498 -481 -1121 1201 0 298886 160 0 1602 -297684 -160 83451 198216c721,-320 1442,-481 2242,-481l0 -80zm-1602 1922l80 240 -1362 561 0 0c-721,721 -1201,1762 -1201,2883 0,1121 481,2162 1201,2883 721,721 1762,1201 2883,1201 1121,0 2162,-481 2883,-1201 721,-721 1201,-1762 1201,-2883 0,-1121 -481,-2162 -1201,-2883 -721,-721 -1762,-1201 -2883,-1201 -561,0 -1121,80 -1602,320l0 80z"/>
  <polygon class="fil2" points="0,531619 532260,531619 532260,0 0,0 "/>
 </g>
</svg>
