<?xml version="1.0" encoding="UTF-8"?>
<!DOCTYPE svg PUBLIC "-//W3C//DTD SVG 1.1//EN" "http://www.w3.org/Graphics/SVG/1.1/DTD/svg11.dtd">
<!-- Creator: CorelDRAW X5 -->
<svg xmlns="http://www.w3.org/2000/svg" xml:space="preserve" width="28mm" height="30mm" style="shape-rendering:geometricPrecision; text-rendering:geometricPrecision; image-rendering:optimizeQuality; fill-rule:evenodd; clip-rule:evenodd"
viewBox="0 0 2800 3000"
 xmlns:xlink="http://www.w3.org/1999/xlink">
 <defs>
  <style type="text/css">
   <![CDATA[
    .fil0 {fill:#2B2A29}
   ]]>
  </style>
 </defs>
 <g id="Layer_x0020_1">
  <metadata id="CorelCorpID_0Corel-Layer"/>
  <path id="brain.svg" class="fil0" d="M601 2081l24 -49c164,0 148,-46 201,-28 32,10 35,30 85,39 45,8 68,1 95,-23 -258,0 -221,-156 -180,-205 51,-62 51,7 70,-66 -153,35 -111,168 -111,234 -232,111 -450,-65 -347,-261 86,-164 224,-110 299,-108 -25,-35 -43,-24 -94,-41 -168,-55 -190,-228 -120,-321 110,-145 211,-39 251,-94 -51,-4 -67,-13 -136,-13 0,-144 -1,-234 109,-273 257,-92 84,50 187,126 -7,-84 -41,-180 70,-263 39,-30 100,-47 149,-43 210,19 175,277 175,380 -37,18 -87,29 -125,15 -68,-24 -143,-89 -119,-171 15,-52 68,-57 47,-78 -36,-36 -154,188 40,256 154,55 154,-51 159,62 3,57 0,129 -1,187 0,181 -197,241 -309,122 36,-49 83,-46 88,-135 6,-97 -23,-108 -38,-173l-24 0c5,62 38,55 38,148 1,119 -105,170 -202,127 -62,-28 -61,-47 -107,-78 4,51 8,42 43,68 132,98 94,-19 219,89 111,95 234,-3 293,-34l0 654c-51,-4 -57,-30 -112,-33 -123,-6 -197,104 -179,187l8 18c16,-67 14,-116 70,-152 46,-31 104,-42 157,-13 71,38 58,67 57,166 -2,203 -219,279 -371,148 -148,-128 7,-272 13,-296 -84,45 -99,83 -99,209 -71,-17 -39,13 -118,-17 -132,-49 -153,-79 -153,-267l-1 -1zm0 0c-67,38 5,194 34,225 63,69 126,70 251,70 37,78 78,158 222,161 128,3 207,-62 239,-157 14,-44 8,-734 8,-756 0,-163 21,-646 -5,-772 -23,-108 -98,-179 -207,-186 -42,-3 -119,23 -148,44 -48,35 -57,63 -84,113 -303,0 -296,150 -296,345 -136,11 -197,200 -116,326 41,63 62,31 78,94 -220,51 -221,300 -119,390 30,27 50,32 88,47 73,29 18,-22 55,56l0 1zm1072 -1134c0,130 -246,200 -246,99 0,-129 -19,-224 57,-300 129,-127 400,-33 337,238l24 0c5,-60 13,-32 13,-136 233,0 259,100 259,259 0,50 -38,32 -102,46 -4,1 -16,4 -19,5 -26,8 -9,0 -26,11 33,7 224,-28 284,110 47,109 -4,251 -150,295 -50,15 -60,3 -85,38 22,-1 180,-54 273,72 110,148 6,283 -74,313 -84,31 -174,6 -261,-14 8,-94 84,-137 -99,-234 19,68 32,16 78,83 46,67 -4,138 -33,160 -41,30 -87,29 -156,29 18,25 -4,24 62,24 89,0 98,-50 154,-41l167 41c22,22 56,242 -101,294 -295,98 -57,-132 -245,-183 26,97 62,-12 62,197 0,93 -127,160 -173,160l-86 0c-74,0 -160,-98 -160,-173 0,-72 -26,-222 111,-222 102,0 160,67 160,173l24 0c0,-190 -126,-185 -222,-185 -48,0 -2,19 -74,24l0 -654c62,33 138,121 276,41 57,-32 26,-46 94,-54 46,-5 155,1 185,-111 -57,38 -73,89 -176,93 -85,3 -144,-59 -144,-167 0,-54 -2,3 11,-26 8,-18 5,-9 15,-36 21,-56 18,-35 12,-48 -7,-3 -3,-30 -31,29 -19,39 -52,213 56,243 -9,109 -170,106 -238,40 -88,-84 -57,-152 -57,-374 100,0 67,19 148,-12 145,-54 154,-250 37,-260 22,32 62,57 62,111l0 2zm-272 -62l0 1442c0,133 138,209 173,209 84,0 141,6 212,-47 50,-37 57,-61 84,-113 115,0 191,-12 250,-71 29,-29 44,-62 46,-114 3,-52 3,-115 -13,-148 45,-21 84,-18 139,-70 89,-84 89,-239 -3,-325 -32,-30 -67,-51 -111,-62 22,-81 111,-44 111,-234 0,-54 -18,-97 -46,-127 -113,-123 -105,22 -114,-218 -6,-148 -142,-185 -284,-185 -96,-181 -261,-202 -380,-95 -35,31 -65,95 -65,157l0 2zm-173 875c0,99 -74,119 -160,99 15,38 47,45 116,17 110,-45 93,-235 -66,-239 3,2 6,2 7,6 6,20 105,28 105,117l-1 0zm456 123l0 -24c-109,29 -173,-38 -173,-99 0,-21 27,-57 42,-69 31,-27 45,-21 69,-54 -33,3 -52,8 -80,30 -2,2 -5,4 -7,6 -67,64 -48,162 25,198 54,27 62,13 123,12zm-428 -1401l0 0c-7,-7 -7,-18 -1,-24l180 -188 -11 -1c-16,-1 -33,-1 -51,-1 -369,0 -702,149 -944,391 -241,241 -391,575 -391,944 0,11 0,19 0,24 1,38 -39,39 -40,1 0,0 0,0 0,0 0,-11 0,-19 0,-24 0,-380 154,-723 402,-972 249,-249 592,-402 972,-402 16,0 34,0 52,1l6 0 -186 -177c-7,-7 -7,-18 -1,-24l0 0c7,-7 18,-7 24,-1l219 210 0 0 0 0c7,7 7,18 1,24l0 0 0 0 -209 219c-7,7 -18,7 -24,1l0 1zm1145 1577l0 0c9,-3 19,3 21,12l74 250 6 -9c8,-14 17,-28 26,-44 183,-320 219,-683 130,-1013 -89,-330 -304,-625 -624,-808 -9,-5 -16,-9 -21,-12 -34,-18 -14,-53 19,-35 0,0 0,0 0,0 9,5 17,9 22,12 329,189 551,493 643,832 92,339 55,714 -134,1043 -8,14 -17,29 -27,45l-3 5 246 -73c9,-3 19,3 21,12l0 0c3,9 -3,19 -12,21l-291 86 -1 0 0 0c-9,3 -19,-3 -21,-12l0 0 0 -1 -86 -291c-3,-9 3,-19 12,-21l1 1zm-1937 208l0 0c-3,9 -12,15 -20,13l-253 -60 5 10c8,13 16,29 24,44 186,318 484,531 814,617 331,86 693,46 1011,-140 9,-5 16,-9 20,-12 32,-20 53,13 21,34 0,0 0,0 0,0 -9,6 -17,10 -21,13 -327,191 -702,233 -1042,144 -340,-89 -647,-308 -838,-635 -8,-14 -17,-30 -25,-46l-3 -5 -59 250c-3,9 -12,15 -20,13l0 0c-9,-3 -15,-12 -13,-20l70 -295 0 0 0 0c3,-9 12,-15 20,-13l0 0 0 0 295 70c9,3 15,12 13,20l0 -1z"/>
 </g>
</svg>
