<?xml version="1.0" encoding="UTF-8"?>
<!DOCTYPE svg PUBLIC "-//W3C//DTD SVG 1.1//EN" "http://www.w3.org/Graphics/SVG/1.1/DTD/svg11.dtd">
<!-- Creator: CorelDRAW X5 -->
<svg xmlns="http://www.w3.org/2000/svg" xml:space="preserve" width="24mm" height="24mm" style="shape-rendering:geometricPrecision; text-rendering:geometricPrecision; image-rendering:optimizeQuality; fill-rule:evenodd; clip-rule:evenodd"
viewBox="0 0 2400 2400"
 xmlns:xlink="http://www.w3.org/1999/xlink">
 <defs>
  <style type="text/css">
   <![CDATA[
    .fil1 {fill:#727271}
    .fil0 {fill:#222222}
    .fil2 {fill:#727271;fill-rule:nonzero}
   ]]>
  </style>
 </defs>
 <g id="Layer_x0020_1">
  <metadata id="CorelCorpID_0Corel-Layer"/>
  <g id="_495676544">
   <circle class="fil0" cx="1200" cy="1200" r="1181"/>
   <g>
    <path class="fil1" d="M1143 795c-3,2 -1,0 -2,3 -14,1 -8,3 -13,4 -4,1 -11,1 -14,4 -2,1 -3,2 -6,3 -10,3 -6,4 -12,6 -9,3 -6,5 -11,6 -7,2 -2,1 -5,4 -1,1 -4,2 -6,3 -3,1 -3,1 -4,3 -2,2 -4,3 -7,4 -3,2 -1,0 -2,2 -4,5 -5,2 -7,7 -1,1 -1,2 -2,2 -2,1 0,0 -2,1 -3,1 -2,3 -4,5 -2,2 -2,0 -4,2 -2,3 0,3 -6,6 0,0 0,0 -1,0 -1,3 -1,3 -3,5 -4,2 -3,4 -6,8 -2,3 0,0 -2,2 -3,2 -2,4 -3,6 -3,3 -2,-2 -4,5 -2,4 -2,3 -4,5 -1,1 -2,5 -3,6 -2,5 0,3 -4,4 0,5 -1,4 -2,7 -2,6 0,3 -4,5 0,3 -2,12 -4,14 -1,2 -2,0 -3,4 -1,3 -2,13 -3,15 -2,3 -1,-3 -3,4 -1,5 -2,24 -3,26l-1 2c-2,4 -3,49 -1,56 1,5 0,1 2,3 2,3 2,13 3,17 1,3 1,5 1,8 1,8 1,3 3,6 0,0 3,14 3,16 3,4 2,-2 4,5 1,3 1,4 2,7 2,6 3,4 6,12 2,6 0,2 3,5 3,2 2,3 3,6 2,4 1,1 2,2 3,2 3,8 6,10 2,1 0,-1 1,1 2,2 1,5 4,7 3,2 1,-1 3,3 3,5 4,3 8,10 2,3 1,2 3,4 2,2 3,4 5,6 3,2 3,3 5,5l7 4c3,2 0,0 3,3 3,3 4,2 6,4 2,3 -1,2 6,4 3,1 2,0 3,2l2 3c1,1 1,2 2,3 3,2 8,3 9,4 4,4 1,2 9,5 8,3 -3,1 11,6 2,1 2,1 5,1 4,5 -1,2 8,5 2,0 4,1 6,1 4,2 0,1 4,3 4,2 13,2 18,3 5,1 1,0 4,3 9,0 17,2 26,2 18,1 34,1 52,0 7,-1 14,-2 21,-2 4,-4 -1,-2 9,-4 4,-1 7,-1 11,-2 2,-1 -1,-2 3,-3 3,-1 9,-1 13,-3 4,-2 -2,-2 9,-5 6,-2 3,-1 5,-3 3,-3 8,-4 11,-4 1,-6 4,-3 10,-7 4,-3 1,-5 9,-8 6,-2 3,-4 7,-5 4,-2 4,-4 7,-6 11,-7 5,-5 9,-8 6,-4 2,-3 6,-6 5,-4 4,-7 7,-9 1,-1 1,0 3,-2 2,-2 1,-4 3,-5 3,-2 2,0 4,-5 1,-2 1,-3 3,-4 2,-1 4,-7 4,-10 7,-1 2,-4 6,-8 4,-4 0,3 5,-10l1 -2c0,0 0,0 0,0 0,0 0,0 0,0 1,-1 2,-4 3,-7 1,-2 1,-5 2,-6 2,-6 1,0 4,-4 0,-4 1,-4 2,-7 1,-3 1,-6 1,-9l3 -1 3 -27c1,-5 3,-1 3,-15 0,-7 1,-38 -1,-44 -2,-4 -2,0 -3,-9 0,-7 -2,-15 -3,-22 -4,-2 -3,1 -3,-5 0,-3 -1,-5 -2,-8 -3,-13 -1,2 -5,-13 -3,-11 -4,-7 -6,-12 -3,-12 -4,-6 -6,-12 -2,-6 -2,-6 -5,-8l-2 -3c-3,-7 -2,-2 -4,-5 -2,-2 1,-3 -3,-6 -3,-2 -3,-2 -5,-7 -1,-2 -1,-2 -3,-4 -4,-2 -2,-3 -4,-5 -2,-2 -3,0 -5,-4 -2,-4 -2,-1 -5,-4 -2,-2 -1,-2 -2,-3 -1,-1 -1,-1 -3,-2 -4,-2 -2,-2 -4,-5 -1,-1 -4,-2 -5,-4 -2,-2 -2,-3 -5,-4 -7,-3 -4,-4 -11,-7 -4,-2 -1,-2 -5,-4 -3,-2 -4,0 -6,-3 -2,-3 -1,-2 -5,-4 -3,-1 -5,-1 -6,-3 -2,-2 1,-1 -2,-2 -6,-3 -9,-2 -11,-5 -1,-1 -3,-2 -5,-2 -11,-2 -11,-1 -12,-5l-10 -1c-2,-4 -1,-3 -9,-4 -4,-1 -7,-1 -12,-2 -3,0 -10,0 -12,-1 -4,-1 -1,-3 -11,-3 -10,0 -20,0 -30,0 -6,0 -2,2 -15,3 -4,0 -8,0 -11,1 -3,1 -8,1 -11,1zm-44 -82l-11 3c-4,1 -1,3 -9,5 -13,3 -4,3 -15,7 -7,2 -4,2 -6,3 -2,2 0,1 -3,2 -3,1 -3,1 -7,2 -1,2 -1,2 -2,4 -4,1 -3,0 -5,2l-4 3c0,0 -1,1 -1,1 -2,2 1,-1 -1,1 -1,1 -1,1 -2,1 -4,1 -2,-1 -4,3 -2,3 -5,3 -8,6 -1,1 0,1 -2,1 -2,1 -5,2 -7,4 -3,2 0,2 -6,5l-2 1c-2,2 0,2 -3,4 -1,1 -1,0 -2,1 -2,2 0,0 -2,2 -3,4 -1,1 -4,3 -4,2 -1,2 -3,4 -2,3 -1,0 -4,3 -3,2 -1,2 -3,4 -2,2 -2,0 -4,3 -2,3 1,2 -3,4 -2,1 -2,0 -3,3 -1,2 -1,3 -2,5l-2 1c-1,1 0,0 -2,2 -1,2 -1,1 -1,2 -2,3 -3,2 -5,6 -2,4 1,2 -3,4 -4,2 -1,-1 -3,4 -1,3 -4,3 -5,5 0,0 -1,3 -1,3 -4,8 -4,4 -6,8 -1,2 0,3 -2,5 -1,2 -2,1 -3,4 0,1 0,2 -2,3 -4,3 -2,1 -4,7 -2,6 -2,2 -4,5 -1,2 -1,3 -2,5 -1,3 -1,2 -1,6 -6,2 -2,3 -6,12 -1,4 -2,1 -3,4 -2,4 -2,9 -3,13 -5,3 -2,0 -4,8 -1,4 -2,7 -2,11 -6,2 -1,2 -6,23 0,2 -1,3 -2,4 -3,4 -2,11 -3,16 -1,9 -1,30 -2,36 -1,3 0,1 -1,2 0,0 0,0 -1,2 -1,4 0,10 1,12l1 2c0,1 0,1 0,2 0,1 0,3 0,4 0,6 2,45 4,49 3,3 2,4 3,10 0,2 2,14 3,15 2,2 2,-1 3,6 0,2 2,9 3,11 2,3 2,-1 4,9 1,2 0,2 1,4 2,6 2,0 4,6 4,14 3,6 6,13 1,3 2,7 4,10 2,2 2,1 4,5 0,1 1,3 1,3 2,3 1,0 2,2 2,2 0,0 2,3 2,4 0,0 3,3l1 1 2 5c3,7 0,1 4,5 3,3 2,7 5,9 2,2 2,3 4,5 2,3 1,0 3,2 2,2 1,3 5,6 2,1 1,2 3,4 1,1 2,1 3,2 3,2 3,6 8,7 0,3 2,5 4,7 2,2 6,4 8,6 2,2 1,3 5,5 2,1 3,4 5,5 1,0 1,0 2,1 3,2 0,3 6,5 2,1 3,2 4,3 0,0 0,0 0,1 1,2 4,1 6,4 2,3 2,1 5,4 -2,2 -1,1 -3,2 0,0 0,0 0,0 0,0 0,0 0,0 -2,2 -4,2 -8,4 -6,2 -3,1 -6,3 -2,2 -4,2 -7,3 -5,2 -3,1 -6,4 -2,3 -4,1 -6,3 -3,2 -1,1 -2,2 -2,2 0,0 -3,2 -1,1 -2,1 -3,1 -1,0 -2,1 -3,1 -4,3 2,2 -4,4 -11,4 -5,4 -10,7 -2,1 -2,0 -3,1 -4,2 -1,0 -2,2 -2,2 -2,2 -5,3 -3,1 -3,2 -5,4 -2,3 -2,2 -5,3 -3,2 0,0 -2,2 -2,2 -6,3 -8,5 -3,2 -3,6 -5,7 0,0 -1,0 -2,1 -3,1 -5,2 -6,5 -2,3 -5,3 -7,6 -3,5 -4,1 -6,6 -2,3 -2,3 -5,3 -1,4 0,4 -4,6 -2,1 -1,0 -2,2 -1,2 1,1 -2,3 -2,1 -1,0 -3,2 -2,2 -1,3 -4,5 -2,1 -1,1 -3,3 -3,5 -2,1 -5,5 -2,3 -1,3 -4,5 -3,2 -4,7 -6,9 -3,2 -1,-1 -5,5 -1,2 -1,1 -3,3 -4,3 0,3 -4,6 -3,2 -1,0 -3,2l-2 4c-2,5 -1,4 -4,5 -3,2 -2,4 -4,7 -3,3 -1,0 -4,6 -1,3 -2,4 -4,6 -3,2 -2,4 -3,7 0,0 0,0 -1,0 0,1 -2,0 -3,2 -2,3 -2,8 -5,10 -2,1 -1,-2 -3,5l-1 4c-2,5 -2,1 -4,6 -1,4 -2,6 -4,9 0,0 0,0 0,0 -2,2 -1,3 -2,5 -2,2 -1,-1 -2,2 -2,3 -1,6 -3,10 -2,4 -2,-1 -5,8 -1,3 -2,6 -2,9 -7,1 -2,10 -7,15 -3,3 -1,-1 -3,8 -1,3 -1,6 -2,10 -4,2 -3,0 -5,14 -1,3 0,7 -3,9 -2,2 -2,8 -3,13 -3,19 -3,6 -4,17 -1,6 -2,13 -2,19 0,13 -1,25 2,37 1,4 0,2 2,4 4,3 1,4 6,7 2,1 1,2 3,4 2,2 3,1 5,3 3,2 -1,1 3,3 7,4 27,4 36,2 3,0 3,-1 6,-2 5,-1 2,-1 4,-3 2,-2 3,-1 5,-3 2,-2 1,-2 4,-4 2,-1 2,-2 3,-4 1,-4 0,-2 4,-3 2,-11 3,-17 3,-29 4,0 3,-1 3,-8 0,-5 2,-22 3,-26 1,-3 2,-1 3,-3 2,-4 1,-19 5,-21 1,-1 1,0 2,-2 1,-1 3,-14 3,-16 3,-2 2,1 3,-3 2,-6 0,-10 6,-13 1,-12 3,-11 5,-13 2,-2 2,-7 4,-10 2,-2 2,-1 3,-4 1,-3 2,-7 4,-9 3,-3 2,-2 5,-8 2,-5 0,-1 3,-3 2,-2 1,-4 5,-8 2,-2 3,-6 4,-9 2,-3 1,1 4,-3 2,-3 1,-4 4,-5 2,-1 1,0 2,-2 0,0 2,-4 2,-4 2,-5 3,-1 5,-5 1,-1 0,-1 1,-2 2,-3 3,-2 4,-3 2,-1 1,-4 4,-5l2 -1c1,-1 1,-2 3,-3 2,-2 2,0 4,-3 4,-6 3,-1 6,-7 2,-4 0,-1 3,-3 3,-2 1,-1 3,-4 3,-4 5,0 6,-7 3,-1 4,0 6,-3 3,-5 0,-1 5,-4 3,-2 2,-3 5,-5 11,-6 5,-6 11,-8 5,-2 2,-2 6,-4 4,-2 7,-5 11,-7 7,-3 2,-1 5,-4 2,-2 8,-3 10,-5 2,-2 -1,-1 6,-3 5,-2 0,-2 9,-6 2,-1 2,0 3,-1 5,-2 -1,-2 9,-5 3,-1 5,0 6,-4 4,0 8,-2 11,-3 6,-2 0,-4 20,-6 3,-5 -2,-2 8,-4 3,-1 6,-2 11,-2 3,-5 -2,-2 10,-4 5,-1 9,-2 14,-2 3,-3 -1,-2 4,-3 2,0 5,0 7,0 2,0 2,0 3,-1 3,-2 5,-2 8,-2 10,-1 20,-2 29,-2l37 0c4,0 31,2 35,3 4,1 0,0 2,2 2,2 7,1 10,2 4,1 3,1 5,3 7,0 13,2 20,3 3,1 2,1 4,4 4,0 13,2 16,3 4,1 1,0 3,3 21,4 13,5 20,7 1,0 9,2 10,3 2,1 0,0 2,1 2,2 -2,0 2,2 3,1 8,2 10,3 2,2 -1,2 4,3 2,1 3,1 5,2 6,2 1,0 4,3 2,2 2,1 5,2 4,1 2,2 4,3 2,2 7,3 9,4 3,2 -1,1 3,3 2,1 3,0 5,2 4,3 1,2 8,6 5,2 1,0 4,3 2,3 1,1 4,2 4,2 2,2 3,4 2,2 6,3 8,5 2,2 0,2 4,3 7,4 2,4 7,6 4,2 1,-1 4,3l4 3c5,3 0,4 8,6 1,3 0,3 3,5 4,3 1,-2 4,4 2,3 3,2 4,4 3,3 0,2 4,4 4,2 2,3 4,5 1,1 3,1 4,3 2,4 -1,2 3,5 3,2 2,1 3,5 2,6 0,2 3,4 4,2 2,2 3,5 3,5 1,-3 7,9 1,3 0,1 2,2 5,4 3,5 5,7 3,3 1,-2 4,5 1,2 2,3 2,7 5,1 4,3 6,9 2,5 3,2 5,10 3,10 3,0 7,15 1,4 0,1 2,3 1,1 1,0 2,4 3,14 4,7 6,16 4,21 4,6 6,17 1,7 2,13 3,20 5,4 2,5 4,14 1,6 1,11 2,17l1 4c2,3 0,-2 2,3 2,7 0,20 3,25 3,3 2,-1 4,3 1,3 0,3 3,5 2,1 2,2 4,4 2,2 3,1 5,3 3,2 -1,3 10,5 13,2 26,1 38,-2 2,-4 -1,-2 4,-4 4,-2 2,-2 5,-4 2,-2 3,0 4,-4 2,-6 1,-2 4,-5 5,-10 2,-65 -1,-72 -1,-3 -3,-3 -3,-6l-2 -16c0,-6 0,-3 -3,-6 -1,-2 -2,-13 -3,-17 -2,-5 -1,0 -3,-4 0,0 -2,-10 -2,-11 -2,-10 -2,-2 -4,-9 -3,-10 0,-8 -5,-14 -2,-2 -1,-2 -2,-5 -4,-14 -5,-2 -8,-19 -1,-1 -2,-1 -4,-1 0,-7 -1,-4 -3,-6 -1,-2 -3,-8 -4,-10 -2,-2 -1,1 -2,-3 -1,-3 -2,-5 -2,-8 -1,-1 -2,-1 -4,-1 0,-5 0,-3 -2,-6 -2,-5 0,-2 -3,-4 -3,-2 -2,-2 -3,-5 -1,-1 -1,-1 -2,-2 -2,-2 -1,1 -3,-2 -2,-3 -3,-7 -5,-9 -3,-2 -2,-4 -4,-6 -3,-4 -2,2 -4,-4 -1,-3 -3,-3 -5,-6 -2,-3 -3,-6 -5,-7 0,0 -1,0 -2,-2 -2,-2 -1,-2 -2,-3 -2,-3 -3,-1 -5,-6 -1,-3 0,-1 -3,-3 -2,-1 -2,-2 -3,-4 -1,-2 -3,-2 -5,-3 -1,-2 -1,-4 -3,-5 -5,-3 -1,2 -4,-4 -1,-2 -4,-3 -5,-4 -1,-2 -1,-3 -3,-4 -4,-2 -2,1 -4,-3 -1,-2 1,-1 -2,-2 -2,-2 -1,0 -3,-1 -4,-2 0,-2 -3,-4 -3,-2 -3,1 -5,-3 -1,-2 -1,-2 -4,-4l-2 -2c-2,-3 -1,-2 -4,-4 -2,-1 -8,-6 -9,-7 -2,-3 -4,-2 -6,-5 -3,-3 1,-2 -4,-4 -10,-3 -3,-4 -10,-6 -2,-1 -5,-2 -6,-3 -1,-1 0,0 -1,-1 -1,-1 0,-1 -2,-2 -2,-1 -4,-1 -5,-3 -1,-2 0,-1 -2,-2 0,0 -3,-1 -3,-1 -1,0 -5,-2 -5,-2 -2,-2 1,-2 -4,-3 -10,-3 -6,-4 -10,-6 -2,-1 -4,-1 -6,-2 -4,-3 2,-1 -4,-3 -3,-1 -4,-1 -6,-2 -3,-1 -2,-2 -4,-3 0,0 -6,-2 -6,-2l-3 -1c-2,-1 -5,-4 -6,-5 2,-2 2,-1 3,-2 1,-1 1,-2 2,-3 2,-2 4,-1 6,-4 3,-4 5,-2 7,-6 0,0 0,0 0,-1 1,-2 3,-1 5,-3 3,-2 1,-1 2,-3 1,-1 4,-2 6,-5 1,-1 0,0 1,-1 8,-7 3,-1 11,-11 2,-2 3,-1 5,-4 2,-2 1,-2 2,-3 1,-2 1,0 3,-2 2,-2 2,-4 3,-5 2,-2 3,-1 4,-4 3,-6 3,-1 5,-6 1,-2 2,-4 3,-5 4,-3 2,-6 5,-9 4,-5 1,2 6,-10 1,-2 1,-2 2,-2 2,-1 1,-3 3,-5 3,-3 0,2 5,-8 1,-2 1,-3 3,-4 4,-4 2,-5 4,-8 2,-3 2,1 4,-9 1,-2 1,-3 1,-5 2,-6 4,-2 6,-13 2,-8 3,2 6,-19 1,-8 2,3 6,-20 1,-8 -1,-5 3,-10 3,-4 4,-42 5,-52 1,-7 2,3 3,-12 0,-4 1,-5 -2,-5 0,-4 -2,-53 -4,-58 0,-1 -2,-1 -2,-2 -2,-4 -1,-18 -3,-22 -2,-3 -2,0 -3,-4 0,-1 0,-3 -1,-4 0,-2 -2,-11 -3,-13 -1,-3 -3,1 -5,-15 -1,-1 -2,-1 -4,-1 0,-12 -4,-10 -7,-18 -1,-2 -1,-5 -3,-6 -2,-2 -3,0 -5,-11 -3,-1 -2,1 -3,-2 -1,-1 0,-1 -1,-2 -2,-4 -2,0 -4,-5 -6,-13 -4,-4 -7,-11 -3,-6 -3,-3 -5,-7 -4,-7 -5,-6 -8,-12 -3,-6 -2,3 -6,-8 -2,-5 -3,-1 -6,-6 -2,-4 1,-1 -2,-3 -3,-2 -3,-4 -6,-6 -3,-2 -3,-4 -6,-6 -2,-1 -3,-2 -5,-4 -1,-1 0,-1 -2,-2 -2,-1 -2,0 -4,-2l-2 -3c-2,-2 -6,-3 -8,-5 -1,-2 0,-2 -3,-3 -2,-1 -3,-1 -4,-2 -3,-2 1,-1 -3,-3 -4,-2 -5,0 -6,-6 -7,0 -10,-5 -11,-6 -2,-2 -3,-1 -6,-3 -2,-1 -1,-1 -2,-2 -2,-2 -6,-3 -9,-4 -5,-2 0,-3 -11,-6 -5,-2 -2,-1 -4,-4l-14 -3c-2,-5 0,-3 -6,-4 -2,-1 -6,-1 -9,-2 -5,-1 0,-3 -16,-6 -1,0 -3,0 -4,-1 -2,-1 -2,-2 -3,-2 -2,-1 -15,-3 -18,-3 -5,0 -6,1 -7,-3l-38 -3c-22,-1 -44,1 -66,2 -2,0 -4,0 -5,1l-1 1c-6,4 -16,2 -23,4 -4,2 -1,3 -7,4l-11 2c-5,1 -1,-1 -4,3z"/>
    <path class="fil2" d="M1198 448c217,0 413,88 555,230 142,142 230,338 230,555 0,217 -88,413 -230,555 -142,142 -338,230 -555,230 -217,0 -413,-88 -555,-230 -142,-142 -230,-338 -230,-555 0,-217 88,-413 230,-555 142,-142 338,-230 555,-230zm475 309c-122,-122 -290,-197 -475,-197 -186,0 -354,75 -475,197 -122,122 -197,290 -197,475 0,186 75,354 197,475 122,122 290,197 475,197 186,0 354,-75 475,-197 122,-122 197,-290 197,-475 0,-186 -75,-354 -197,-475z"/>
   </g>
  </g>
 </g>
</svg>
