<?xml version="1.0" encoding="UTF-8"?>
<!DOCTYPE svg PUBLIC "-//W3C//DTD SVG 1.1//EN" "http://www.w3.org/Graphics/SVG/1.1/DTD/svg11.dtd">
<!-- Creator: CorelDRAW X5 -->
<svg xmlns="http://www.w3.org/2000/svg" xml:space="preserve" width="40mm" height="40mm" style="shape-rendering:geometricPrecision; text-rendering:geometricPrecision; image-rendering:optimizeQuality; fill-rule:evenodd; clip-rule:evenodd"
viewBox="0 0 4000 4000"
 xmlns:xlink="http://www.w3.org/1999/xlink">
 <defs>
  <style type="text/css">
   <![CDATA[
    .fil2 {fill:#B2B3B3}
    .fil1 {fill:#CAC9C9}
    .fil0 {fill:#EAEAEA}
   ]]>
  </style>
 </defs>
 <g id="Layer_x0020_1">
  <metadata id="CorelCorpID_0Corel-Layer"/>
  <path class="fil0" d="M65523 26769l-11 51 252 -20c310,-105 447,-437 320,-657 -151,-261 -433,-322 -518,-237 -87,87 24,606 -42,863z"/>
  <path class="fil1" d="M55000 27637c-5,69 -24,37 124,95l78 32c-62,66 -48,62 -72,167l49 -85c71,-138 182,-266 347,-296 164,-31 29,7 153,-76l-33 -87c-27,-43 -28,-34 -67,-59 -257,-171 -14,-180 -267,-186 -132,-3 -104,-26 -217,-32 -34,36 -53,66 -103,72l-44 -6c-53,-2 -50,26 -6,133 37,-54 13,-21 57,-67l92 -81c173,37 84,39 295,21l120 142c126,168 197,108 -4,173 -110,36 -44,12 -127,64 -28,-97 -20,-158 -112,-270 -126,-9 -204,12 -272,84 -69,73 -126,212 10,262z"/>
  <path class="fil1" d="M66457 34284l320 0c40,-83 56,-39 49,-139 202,27 224,-131 152,-281 -162,-33 -304,42 -228,208 -151,0 -72,-14 -170,82 -70,70 -55,33 -125,129z"/>
  <path class="fil0" d="M55000 27637c151,74 131,75 301,4 7,-74 46,-284 -157,-299 -236,-18 -159,156 -145,295z"/>
  <path class="fil2" d="M877 1974c0,-47 7,-84 10,-127 1,-14 11,-73 16,-86 3,-10 4,-18 6,-28 2,-11 6,-16 8,-27l15 -52c6,-11 4,-15 8,-25 2,-6 3,-5 6,-12l10 -25c2,-4 2,-7 4,-12l20 -47c2,-6 3,-5 6,-11 2,-5 2,-8 5,-13 3,-6 4,-4 7,-11 4,-11 11,-23 17,-34l12 -21c8,-14 15,-30 25,-43 5,-6 8,-12 13,-20 14,-22 40,-60 57,-78 5,-5 3,-4 8,-10 8,-11 48,-55 55,-62 22,-22 61,-64 88,-83l37 -31c15,-12 47,-33 58,-43 9,-7 50,-30 61,-39l22 -13c14,-8 52,-28 66,-34 5,-2 7,-4 11,-6 4,-2 9,-3 13,-5 6,-3 6,-4 11,-6 4,-2 7,-2 12,-4 4,-2 7,-4 12,-6 4,-2 9,-2 14,-4 9,-4 66,-26 74,-27 24,-5 54,-17 81,-21 12,-2 15,-4 26,-7 9,-2 19,-2 30,-4 10,-2 17,-5 27,-6 20,-3 40,-3 61,-7 53,-9 108,-5 160,-5 14,0 114,10 127,13 10,2 17,5 28,6 28,4 34,8 58,11 12,2 16,4 26,8 12,4 43,11 54,14 6,2 7,4 12,6 5,2 10,2 14,3 10,3 15,7 24,9 11,3 13,7 25,10 17,5 31,15 48,21 9,3 58,28 68,34 4,3 6,4 12,6l43 26c3,2 8,4 11,6 5,3 4,4 10,7 14,8 47,31 60,42 5,4 1,1 5,4l5 4c14,9 26,19 39,30 6,5 11,11 17,16 11,9 22,18 33,29l3 4c4,4 5,4 10,8l25 25c4,4 5,6 8,10l5 4c2,2 2,2 4,5l25 28c20,23 28,33 47,57l5 5c12,14 20,29 31,43l21 31c5,8 28,46 31,53 8,18 22,38 30,56l16 35c8,13 25,66 29,74 3,6 15,42 17,52 2,9 6,14 8,25 2,12 4,16 7,28 3,9 3,19 5,28 3,11 6,16 7,28 1,11 2,20 4,29 6,23 6,37 8,60 2,20 7,41 7,61 3,132 0,163 -20,290 -2,11 -5,17 -7,26 -2,11 -2,20 -6,29 -4,11 -5,15 -7,26 -2,11 -7,16 -9,27 -3,14 -5,14 -9,25 -2,6 -2,9 -3,14l-51 121 -12 22c-4,6 -4,6 -6,11 -4,10 -13,23 -19,32 -3,5 -2,6 -6,12 -3,5 -3,5 -6,11 -6,11 -50,77 -55,82 -3,4 -4,5 -7,9 -4,5 -4,3 -8,10 -3,5 -4,5 -8,10 -6,7 -12,17 -19,23l-12 14c-10,11 -16,22 -27,32l-20 22c-11,12 -25,23 -36,34l-9 8c-14,15 -35,28 -49,42 -11,11 -23,18 -36,28l-70 49c-6,4 -4,4 -10,7 -5,3 -6,3 -11,6l-20 13c-6,3 -7,2 -12,6 -8,6 -14,8 -21,13 -9,6 -25,12 -35,18 -10,6 -24,13 -35,16 -14,5 -59,27 -72,30l-50 18c-9,3 -17,3 -27,8 -10,4 -17,4 -27,6 -12,3 -14,6 -28,8 -12,2 -16,3 -27,7 -10,3 -19,3 -30,5 -11,2 -18,5 -27,6 -20,4 -42,3 -62,7 -51,9 -175,9 -225,0 -21,-4 -41,-3 -62,-7 -10,-2 -17,-5 -28,-7 -11,-1 -21,-2 -29,-4 -16,-5 -72,-17 -81,-21 -11,-5 -14,-4 -26,-8 -9,-3 -13,-6 -24,-9l-63 -23c-10,-6 -40,-17 -46,-20l-45 -23c-4,-2 -7,-3 -11,-5 -7,-3 -4,-3 -11,-7 -4,-2 -8,-3 -12,-6 -16,-11 -37,-22 -53,-33 -23,-17 -48,-29 -69,-48 -7,-6 -13,-10 -19,-14 -15,-10 -49,-41 -65,-54 -15,-13 -29,-27 -42,-40 -9,-9 -15,-18 -25,-27 -11,-10 -22,-25 -32,-37 -5,-6 -12,-12 -16,-18 -8,-12 -26,-35 -37,-47l-60 -92c-2,-4 -3,-7 -5,-11 -7,-10 -14,-22 -19,-34 -4,-11 -12,-21 -17,-32 -2,-4 -2,-8 -5,-12 -8,-14 -19,-42 -21,-47 -4,-8 -5,-16 -9,-24 -5,-9 -5,-16 -9,-26 -6,-13 -5,-11 -9,-25 -2,-6 -4,-8 -6,-12l-22 -78c-2,-12 -2,-18 -6,-29 -7,-17 -6,-38 -11,-56 -3,-10 -3,-18 -4,-29 -8,-85 -10,-92 -10,-178zm-106 -9c0,49 0,91 5,140 3,27 2,40 8,68 5,28 3,29 11,63 2,10 3,22 5,32 3,11 6,17 8,31 2,15 6,17 8,28 3,12 4,18 8,29 5,12 13,46 18,57l26 66c2,6 4,9 6,13 3,6 3,8 5,14 2,7 4,6 7,13 2,4 2,7 5,13 3,5 4,5 7,13 3,8 2,5 6,11 6,10 11,26 19,37l56 93c4,7 11,15 16,22 15,21 30,43 48,63l25 31c21,27 59,63 82,87 19,20 40,34 60,53 22,21 49,39 73,57l33 23c15,9 30,21 45,29 6,3 7,2 13,7 11,8 25,13 36,21l75 37c5,2 6,4 11,6 5,2 10,3 14,5 10,6 16,6 26,11 15,8 82,30 82,30 9,4 101,29 116,33 9,2 22,3 32,5 37,8 40,6 65,11 11,2 19,4 31,5 24,2 85,7 105,7l68 0c25,0 116,-8 136,-12 23,-5 36,-4 63,-11 10,-3 22,-3 32,-5 12,-3 16,-6 31,-8 7,-1 53,-14 58,-16 9,-4 47,-13 58,-18 8,-4 18,-6 27,-10l66 -27c7,-3 6,-4 13,-7 4,-2 8,-2 13,-5 5,-2 7,-5 12,-7 8,-3 5,-1 12,-6 6,-5 6,-3 13,-6 5,-2 6,-4 11,-7 6,-3 8,-2 13,-6l24 -15c5,-3 7,-3 12,-6l22 -14c23,-13 47,-29 68,-45l21 -16c7,-5 5,-4 11,-9l42 -34c16,-13 34,-28 49,-42 2,-2 1,-2 4,-5l25 -24c14,-13 41,-43 53,-57l75 -94c3,-4 5,-7 8,-11 5,-6 12,-15 16,-21l50 -80c3,-5 3,-8 7,-13 4,-5 4,-4 6,-11 3,-9 3,-6 7,-12 2,-4 3,-8 5,-12 3,-5 5,-4 7,-12 4,-11 7,-15 12,-27 2,-6 4,-6 6,-11 2,-4 3,-10 5,-14 8,-16 8,-20 11,-26 5,-9 7,-19 11,-26 11,-19 21,-61 29,-84 10,-28 16,-60 24,-88 3,-9 3,-21 5,-32 2,-11 5,-19 7,-30 1,-11 2,-24 4,-34 7,-36 7,-65 10,-101 1,-7 0,-12 1,-19 0,-7 2,-12 2,-16l0 -70c0,-6 -2,-9 -2,-15l-3 -55c-1,-10 -1,-24 -2,-35 -1,-12 -3,-21 -5,-32 -5,-26 -3,-34 -11,-65 -3,-10 -3,-23 -5,-32 -2,-6 -3,-8 -5,-14 -1,-5 -2,-11 -3,-17 -2,-13 -6,-17 -8,-28 -1,-6 -1,-10 -3,-16 -3,-11 -6,-17 -9,-28 -2,-8 -2,-8 -5,-14 -6,-13 -11,-42 -19,-56 -4,-7 -3,-7 -5,-14 -2,-7 -3,-8 -6,-13 -3,-6 -3,-9 -5,-14 -3,-6 -4,-6 -7,-12 -3,-6 -2,-8 -5,-14 -7,-11 -12,-25 -18,-38 -3,-7 -4,-5 -7,-12l-12 -25c-3,-8 -4,-6 -7,-12 -4,-7 -2,-7 -7,-13 -4,-6 -4,-7 -7,-12 -8,-15 -20,-32 -29,-47l-54 -77 -43 -52c-5,-7 -11,-13 -17,-20l-37 -40c-31,-35 -74,-68 -109,-98l-86 -65c-17,-10 -69,-45 -83,-51 -13,-6 -24,-14 -37,-20 -11,-5 -27,-15 -38,-20l-53 -23c-5,-2 -9,-4 -13,-6 -5,-2 -10,-3 -15,-4 -10,-3 -5,-4 -26,-11 -6,-2 -7,-4 -13,-6 -14,-5 -8,-1 -28,-9 -4,-2 -11,-3 -16,-4 -12,-2 -16,-7 -29,-9 -11,-2 -18,-6 -28,-9 -13,-3 -19,-2 -32,-7 -10,-4 -19,-4 -31,-6 -11,-2 -19,-5 -31,-7 -10,-2 -22,-2 -33,-4 -12,-2 -21,-4 -32,-6 -22,-3 -48,-3 -70,-5 -26,-2 -47,-3 -74,-3 -49,0 -95,3 -143,7 -21,2 -42,7 -65,9 -12,1 -20,5 -30,7 -11,2 -23,3 -33,5 -12,3 -15,5 -29,7 -8,1 -57,17 -74,21 -8,2 -8,3 -14,6 -12,6 -40,11 -56,20 -5,3 -9,3 -14,5 -6,2 -8,4 -13,6 -6,2 -10,2 -14,5 -12,6 -27,14 -38,18l-26 12c-6,4 -3,3 -11,7 -8,3 -7,2 -13,6 -5,4 -7,3 -13,6 -6,3 -5,4 -12,8 -7,3 -5,1 -11,6l-59 36c-7,4 -4,4 -11,8l-77 55c-23,18 -71,58 -92,80l-38 38c-5,4 -4,5 -9,10 -3,3 -5,6 -9,9l-109 137c-3,6 -5,6 -8,11 -14,24 -30,46 -42,70l-14 24c-5,7 -41,80 -44,89 -3,9 -6,11 -11,27 -2,7 -4,6 -6,11 -2,4 -3,10 -5,15 -2,5 -4,8 -6,13l-14 43c-3,11 -5,10 -10,29 -4,14 -15,45 -18,59 -2,12 -3,18 -7,30l-13 63c-2,12 -2,23 -4,35 -6,38 -5,31 -8,68 -2,22 -6,50 -6,72zm1216 -496c-14,2 -10,1 -22,10 -24,18 -18,49 -18,82 0,121 1,247 0,367 0,12 -1,19 -14,20 -40,3 -91,0 -132,0 -42,0 -275,-2 -298,2 -16,3 -32,20 -35,32 -2,9 -2,21 -1,30 2,17 17,32 28,37 17,7 170,4 196,4l233 0c12,0 20,-2 23,11 2,10 0,371 0,400 0,28 -2,35 13,54 12,15 32,17 51,15 17,-2 34,-22 36,-29 6,-18 3,-172 3,-197 0,-76 -1,-158 0,-234 0,-28 21,-19 79,-19 56,0 341,2 364,-2 27,-5 42,-32 37,-62 -2,-15 -15,-31 -28,-37 -18,-7 -170,-4 -196,-4l-233 0c-31,0 -23,-10 -23,-78 0,-53 2,-346 -1,-365 -2,-12 -5,-14 -12,-21 -14,-15 -30,-18 -51,-14z"/>
 </g>
</svg>
