<?xml version="1.0" encoding="UTF-8"?>
<!DOCTYPE svg PUBLIC "-//W3C//DTD SVG 1.1//EN" "http://www.w3.org/Graphics/SVG/1.1/DTD/svg11.dtd">
<!-- Creator: CorelDRAW X5 -->
<svg xmlns="http://www.w3.org/2000/svg" xml:space="preserve" width="40mm" height="40mm" style="shape-rendering:geometricPrecision; text-rendering:geometricPrecision; image-rendering:optimizeQuality; fill-rule:evenodd; clip-rule:evenodd"
viewBox="0 0 4000 4000"
 xmlns:xlink="http://www.w3.org/1999/xlink">
 <defs>
  <style type="text/css">
   <![CDATA[
    .fil1 {fill:#CAC9C9}
    .fil0 {fill:#EAEAEA}
    .fil2 {fill:#B2B3B3;fill-rule:nonzero}
    .fil3 {fill:url(#id0)}
   ]]>
  </style>
  <linearGradient id="id0" gradientUnits="userSpaceOnUse" x1="3131.18" y1="2000" x2="868.84" y2="2000">
   <stop offset="0" style="stop-color:#FF0113"/>
   <stop offset="1" style="stop-color:#F116AD"/>
  </linearGradient>
 </defs>
 <g id="Layer_x0020_1">
  <metadata id="CorelCorpID_0Corel-Layer"/>
  <path class="fil0" d="M65523 26769l-11 51 252 -20c310,-105 447,-437 320,-657 -151,-261 -433,-322 -518,-237 -87,87 24,606 -42,863z"/>
  <path class="fil1" d="M55000 27637c-5,69 -24,37 124,95l78 32c-62,66 -48,62 -72,167l49 -85c71,-138 182,-266 347,-296 164,-31 29,7 153,-76l-33 -87c-27,-43 -28,-34 -67,-59 -257,-171 -14,-180 -267,-186 -132,-3 -104,-26 -217,-32 -34,36 -53,66 -103,72l-44 -6c-53,-2 -50,26 -6,133 37,-54 13,-21 57,-67l92 -81c173,37 84,39 295,21l120 142c126,168 197,108 -4,173 -110,36 -44,12 -127,64 -28,-97 -20,-158 -112,-270 -126,-9 -204,12 -272,84 -69,73 -126,212 10,262z"/>
  <path class="fil1" d="M66457 34284l320 0c40,-83 56,-39 49,-139 202,27 224,-131 152,-281 -162,-33 -304,42 -228,208 -151,0 -72,-14 -170,82 -70,70 -55,33 -125,129z"/>
  <path class="fil0" d="M55000 27637c151,74 131,75 301,4 7,-74 46,-284 -157,-299 -236,-18 -159,156 -145,295z"/>
  <g id="_504753072">
   <path class="fil2" d="M2000 238c-152,-1 -277,76 -392,148 -23,14 -45,28 -73,44l0 0 -888 511 0 0c-27,16 -43,27 -57,38l0 0c-14,11 -27,25 -49,47 -139,141 -138,273 -138,492 0,32 0,65 0,100 -1,77 -1,156 -1,236 0,80 0,162 1,243l0 0c0,47 -1,97 -1,148 0,50 0,101 1,152l0 1 0 10c0,55 0,13 0,67 -1,272 -1,349 160,521 17,18 133,89 279,176 283,167 676,388 720,413 25,14 52,30 79,47 109,66 219,132 358,130l1 0c138,2 249,-64 358,-130 27,-16 55,-33 79,-47 44,-25 437,-245 720,-413 147,-87 262,-158 279,-176 161,-172 161,-249 160,-521 0,-54 0,-12 0,-67l0 -10 0 -1c1,-51 1,-102 1,-152 0,-50 0,-100 -1,-148l0 0c0,-82 1,-163 1,-243 0,-80 0,-159 -1,-236 0,-35 0,-69 0,-100 1,-218 1,-351 -138,-492 -22,-22 -35,-36 -49,-47 -13,-11 -29,-21 -57,-38l0 0 -888 -511 0 0c-27,-16 -50,-30 -73,-44 -115,-72 -240,-149 -392,-148l-1 0zm-445 63c127,-79 264,-164 445,-163 181,-1 319,84 445,163 25,16 51,32 70,43l0 0 888 511 1 0c32,19 51,32 69,47 18,15 33,30 57,55 167,170 167,318 166,561 0,31 0,65 0,100 1,77 1,156 1,237 0,80 0,162 -1,243 0,47 1,97 1,148 0,51 0,103 -1,153l0 0 0 10c0,69 0,71 0,68 1,302 1,388 -187,589 -25,27 -148,103 -301,194 -285,168 -678,389 -722,414 -28,16 -53,30 -77,45 -121,73 -243,146 -409,144 -166,2 -289,-71 -409,-144 -25,-15 -49,-29 -77,-45 -44,-25 -437,-245 -722,-414 -153,-91 -276,-168 -301,-194 -188,-201 -188,-287 -187,-589 0,3 0,1 0,-68l0 -10 0 0c-1,-50 -1,-102 -1,-153 0,-51 0,-101 1,-148 0,-81 -1,-163 -1,-243 0,-81 0,-160 1,-237 0,-35 0,-68 0,-100 -1,-244 -1,-392 166,-561 24,-25 39,-40 57,-54l0 0c18,-15 37,-27 70,-47l1 0 888 -511 0 0c20,-11 45,-27 70,-43z"/>
   <path class="fil3" d="M2504 1089c-15,49 -7,631 -7,793 -40,-8 -99,-86 -126,-111 -43,-41 -80,-82 -122,-123 -41,-41 -76,-78 -118,-119 -186,-185 -102,-149 -563,296 -24,24 -35,49 -71,58 -2,-143 12,-741 -9,-791 -43,-17 -289,130 -340,159 -241,135 -279,109 -279,249l0 981c0,185 -14,130 250,296 319,201 237,180 478,-61 63,-63 367,-394 401,-417 32,21 479,495 514,532 125,133 126,96 328,-27l242 -149c35,-23 43,-41 45,-92 11,-345 -2,-707 0,-1055 1,-141 -22,-122 -274,-254l-254 -137c-37,-20 -54,-38 -95,-28z"/>
  </g>
 </g>
</svg>
