<?xml version="1.0" encoding="UTF-8"?>
<!DOCTYPE svg PUBLIC "-//W3C//DTD SVG 1.1//EN" "http://www.w3.org/Graphics/SVG/1.1/DTD/svg11.dtd">
<!-- Creator: CorelDRAW X5 -->
<svg xmlns="http://www.w3.org/2000/svg" xml:space="preserve" width="40.7mm" height="40.34mm" style="shape-rendering:geometricPrecision; text-rendering:geometricPrecision; image-rendering:optimizeQuality; fill-rule:evenodd; clip-rule:evenodd"
viewBox="0 0 2550 2527"
 xmlns:xlink="http://www.w3.org/1999/xlink">
 <defs>
  <style type="text/css">
   <![CDATA[
    .str0 {stroke:#EBECEC;stroke-width:11.0512}
    .fil0 {fill:none}
    .fil1 {fill:#EBECEC;fill-rule:nonzero}
   ]]>
  </style>
  <clipPath id="id0" style="clip-rule:nonzero">
   <rect x="-203574" y="88949" width="1738" height="1833"/>
  </clipPath>
 </defs>
<symbol id="Meta25-25-0" viewBox="-203574 88949 1738 1833">
 <g style="clip-path:url(#id0)">
  <image transform="matrix(78.6403 0 0 82.9209 1.57997E+007 -7.42644E+006)" x="-203500" y="90633" width="22" height="22" xlink:href="about_Images\about_ImgID1.png"/>
 </g>
</symbol>
 <g id="Layer_x0020_1">
  <metadata id="CorelCorpID_0Corel-Layer"/>
  <g id="_431909608">
   <polygon class="fil0" points="2550,0 0,0 0,2527 2550,2527 "/>
   <path class="fil1 str0" d="M1268 692c21,0 39,7 54,22 15,15 22,33 22,54 0,21 -7,39 -22,54 -15,15 -33,22 -54,22 -21,0 -39,-7 -54,-22 -15,-15 -22,-33 -22,-54 0,-21 7,-39 22,-54 15,-15 33,-22 54,-22zm73 220l0 309c0,27 4,45 12,53 8,8 24,12 47,13l0 15 -263 0 0 -15c22,-1 38,-6 48,-15 7,-6 10,-23 10,-51l0 -228c0,-27 -4,-45 -12,-53 -8,-8 -23,-12 -46,-13l0 -15 204 0zm-444 -475l725 0c59,0 113,24 152,63 39,39 63,93 63,152l0 725c0,59 -24,113 -63,152 -39,39 -93,63 -152,63l-725 0c-59,0 -113,-24 -152,-63 -39,-39 -63,-93 -63,-152l0 -725c0,-59 24,-113 63,-152 39,-39 93,-63 152,-63zm732 39l-738 0c-46,0 -89,19 -120,49 -31,31 -49,73 -49,120l0 738c0,46 19,89 49,120 31,31 73,49 120,49l738 0c46,0 89,-19 120,-49 31,-31 49,-73 49,-120l0 -738c0,-46 -19,-89 -49,-120 -31,-31 -73,-49 -120,-49zm-1414 1353l0 232 175 0 0 -232 40 0 0 206c0,25 -4,42 -12,51 -8,9 -23,13 -44,13l-142 0c-22,0 -37,-5 -45,-13 -8,-9 -12,-26 -12,-50l0 -206 40 0zm106 -45l0 -48 36 0 0 48 -36 0zm-73 0l0 -48 36 0 0 48 -36 0zm327 214l0 67 114 0c8,0 14,-2 18,-5 3,-4 5,-10 5,-19l0 -17c0,-9 -2,-16 -5,-19 -3,-4 -9,-6 -17,-6l-114 0zm135 -50l0 -21c0,-7 -2,-11 -5,-14 -3,-3 -9,-4 -17,-4l-114 0 0 57 114 0c9,0 14,-1 17,-4 3,-3 4,-7 4,-14zm-173 150l0 -221 167 0c15,0 26,3 33,10 7,7 10,18 10,33l0 25c0,12 -3,21 -8,27 -6,6 -14,10 -26,11 12,1 20,6 27,13 6,7 9,17 9,30l0 28c0,15 -5,25 -14,33 -9,7 -24,11 -43,11l-154 0zm294 0l0 -221 199 0 0 33 -161 0 0 57 97 0 0 33 -97 0 0 66 163 0 0 32 -200 0zm413 -189l-105 0 0 71 105 0c8,0 14,-2 17,-5 3,-3 4,-9 4,-18l0 -26c0,-8 -2,-14 -5,-17 -3,-3 -9,-5 -17,-5zm-142 189l0 -221 159 0c15,0 25,3 32,10 6,7 10,18 10,33l0 49c0,15 -3,26 -10,32 -6,7 -17,10 -32,10l-26 0 87 87 -50 0 -79 -87 -54 0 0 87 -37 0zm496 -221l0 188 144 0 0 -188 38 0 0 169c0,20 -3,34 -10,41 -7,7 -20,11 -38,11l-122 0c-19,0 -32,-4 -38,-11 -7,-7 -10,-21 -10,-41l0 -169 37 0zm305 44c1,6 2,13 2,20 0,7 1,13 1,20l0 137 -34 0 0 -221 28 0 145 145c4,4 8,9 12,13 4,5 8,11 11,17 -1,-7 -2,-13 -2,-20 -1,-7 -1,-14 -1,-21l0 -134 34 0 0 221 -25 0 -148 -147c-5,-5 -10,-11 -13,-15 -4,-5 -7,-10 -10,-15zm462 -11l-138 0 0 57 127 0c18,0 31,4 38,11 7,7 10,21 10,41l0 27c0,20 -3,34 -10,41 -7,7 -19,11 -38,11l-120 0c-19,0 -32,-4 -38,-11 -7,-7 -10,-21 -10,-41l0 -6 34 -8 0 33 149 0 0 -62 -127 0c-19,0 -31,-4 -38,-11 -7,-7 -10,-21 -10,-41l0 -21c0,-20 3,-34 10,-42 7,-7 19,-11 38,-11l110 0c18,0 31,4 38,11 7,7 10,20 10,38l0 5 -34 8 0 -29z"/>
  </g>
 </g>
</svg>
