<?xml version="1.0" encoding="UTF-8"?>
<!DOCTYPE svg PUBLIC "-//W3C//DTD SVG 1.1//EN" "http://www.w3.org/Graphics/SVG/1.1/DTD/svg11.dtd">
<!-- Creator: CorelDRAW X5 -->
<svg xmlns="http://www.w3.org/2000/svg" xml:space="preserve" width="41mm" height="41mm" style="shape-rendering:geometricPrecision; text-rendering:geometricPrecision; image-rendering:optimizeQuality; fill-rule:evenodd; clip-rule:evenodd"
viewBox="0 0 4100 4100"
 xmlns:xlink="http://www.w3.org/1999/xlink">
 <defs>
  <style type="text/css">
   <![CDATA[
    .fil0 {fill:none}
    .fil1 {fill:#EBECEC}
   ]]>
  </style>
 </defs>
 <g id="Layer_x0020_1">
  <metadata id="CorelCorpID_0Corel-Layer"/>
  <g id="_655859424">
   <polygon class="fil0" points="4085,33 15,33 15,4067 4085,4067 "/>
   <path class="fil1" d="M1422 686l1158 0c94,0 180,39 243,101 62,62 101,148 101,243l0 1158c0,94 -39,180 -101,243 -62,62 -148,101 -243,101l-1158 0c-94,0 -180,-39 -243,-101 -62,-62 -101,-148 -101,-243l0 -1158c0,-94 39,-180 101,-243 62,-62 148,-101 243,-101zm1168 63l-1178 0c-74,0 -142,30 -191,79 -49,49 -79,116 -79,191l0 1178c0,74 30,142 79,191 49,49 116,79 191,79l1178 0c74,0 142,-30 191,-79 49,-49 79,-116 79,-191l0 -1178c0,-74 -30,-142 -79,-191 -49,-49 -116,-79 -191,-79zm-213 1028l-132 -15c-32,-4 -63,7 -85,30l-96 96c-147,-75 -267,-195 -342,-342l96 -96c22,-22 33,-54 30,-85l-15 -131c-6,-52 -50,-92 -103,-92l-90 0c-59,0 -107,49 -104,107 28,443 382,797 825,825 59,4 107,-45 107,-104l0 -90c1,-52 -39,-97 -92,-102l1 -1zm1332 1331l0 306 -87 0 0 -306 -171 0 0 -67 430 0 0 67 -172 0zm-721 306l0 -373 87 0 0 155 207 -155 126 0 -247 176 277 197 -139 0 -223 -164 0 164 -87 0 -1 0zm-628 0l211 -373 84 0 214 373 -97 0 -45 -81 -236 0 -43 81 -86 0 -2 0zm167 -149l163 0 -80 -152 -83 152zm-324 -157l0 306 -87 0 0 -306 -171 0 0 -67 430 0 0 67 -172 0zm-802 306l0 -373 59 0 262 220c9,7 17,14 24,21 7,7 13,13 19,20 -1,-21 -2,-36 -3,-44 0,-9 -1,-15 -1,-20l0 -196 78 0 0 373 -59 0 -274 -230c-7,-6 -12,-11 -17,-16 -5,-5 -10,-10 -14,-14 1,11 2,22 3,33 1,10 1,19 1,27l0 201 -78 0 0 -2zm-554 -70l286 0 0 -236 -286 0 0 236zm-87 -214c0,-34 6,-57 19,-70 13,-12 37,-19 73,-19l274 0c36,0 61,6 73,19 13,13 19,36 19,70l0 196c0,34 -6,57 -19,70 -13,12 -37,19 -73,19l-274 0c-36,0 -61,-6 -73,-19 -13,-12 -19,-36 -19,-70l0 -196zm-540 284l0 -373 87 0 0 155 207 -155 126 0 -247 176 277 197 -139 0 -223 -164 0 164 -87 0 -1 0z"/>
  </g>
 </g>
</svg>
