<?xml version="1.0" encoding="UTF-8"?>
<!DOCTYPE svg PUBLIC "-//W3C//DTD SVG 1.1//EN" "http://www.w3.org/Graphics/SVG/1.1/DTD/svg11.dtd">
<!-- Creator: CorelDRAW X5 -->
<svg xmlns="http://www.w3.org/2000/svg" xml:space="preserve" width="71mm" height="28mm" style="shape-rendering:geometricPrecision; text-rendering:geometricPrecision; image-rendering:optimizeQuality; fill-rule:evenodd; clip-rule:evenodd"
viewBox="0 0 331645 130789"
 xmlns:xlink="http://www.w3.org/1999/xlink">
 <defs>
  <style type="text/css">
   <![CDATA[
    .str0 {stroke:#00A0E3;stroke-width:355.934}
    .fil1 {fill:none}
    .fil2 {fill:#0087EB}
    .fil0 {fill:#00A0E3;fill-rule:nonzero}
   ]]>
  </style>
  <clipPath id="id0" style="clip-rule:nonzero">
   <rect x="349496" y="4634951" width="129595" height="136649"/>
  </clipPath>
 </defs>
<symbol id="Meta25-25-0" viewBox="349496 4634951 129595 136649">
 <g style="clip-path:url(#id0)">
  <image transform="matrix(78.6403 0 0 82.9209 -2.75678E+007 -3.90109E+008)" x="355000" y="4760490" width="1648" height="1648" xlink:href="Mail_Images\Mail_ImgID1.png"/>
 </g>
</symbol>
 <g id="Layer_x0020_1">
  <metadata id="CorelCorpID_0Corel-Layer"/>
  <g id="_281386192">
   <g>
    <path class="fil0 str0" d="M16448 93353c0,-501 -172,-888 -525,-1160 -348,-272 -811,-472 -1384,-596 -573,-129 -1222,-191 -1957,-191 -731,0 -1475,0 -2239,0 -759,0 -1504,-28 -2234,-91 -735,-62 -1384,-191 -1957,-387 -577,-191 -1036,-472 -1384,-835 -354,-363 -525,-864 -525,-1494 0,-654 171,-1188 525,-1604 348,-416 807,-750 1375,-993 568,-248 1213,-415 1928,-511 721,-95 1451,-143 2196,-143 1222,0 2358,100 3413,301 1055,200 2034,539 2936,1016 95,43 157,105 191,172 33,72 52,143 62,220 0,120 -38,225 -110,320 -77,95 -158,138 -253,138 -57,0 -95,-9 -110,-28 -792,-401 -1690,-721 -2692,-955 -1002,-239 -2129,-358 -3380,-358 -635,0 -1250,38 -1847,119 -596,81 -1127,215 -1585,401 -463,186 -831,434 -1112,745 -282,305 -420,697 -420,1160 0,477 177,845 525,1098 348,258 811,448 1385,568 573,119 1227,177 1957,177 730,0 1480,0 2238,0 759,0 1504,33 2239,105 731,71 1385,205 1957,411 573,200 1036,491 1385,873 348,382 525,888 525,1527 0,573 -177,1060 -535,1451 -353,396 -826,716 -1413,954 -587,239 -1265,411 -2033,520 -768,110 -1561,163 -2382,163 -506,0 -1051,0 -1633,0 -582,0 -1165,-43 -1747,-134 -582,-91 -1141,-229 -1676,-415 -540,-182 -1007,-440 -1408,-759 -129,-105 -196,-229 -196,-372 0,-120 33,-229 105,-320 72,-86 158,-134 258,-134 77,0 134,19 167,57 391,282 816,511 1270,683 449,177 926,310 1432,411 501,95 1031,143 1580,143 549,0 1117,0 1704,0 702,0 1375,-33 2024,-105 645,-71 1222,-196 1718,-367 501,-172 897,-406 1198,-692 296,-286 444,-649 444,-1088zm5652 -148c0,449 114,826 343,1136 229,305 544,559 955,754 411,196 897,339 1466,425 563,91 1179,134 1852,134 821,0 1547,-57 2181,-171 635,-115 1188,-258 1661,-434 477,-172 879,-363 1203,-568 330,-210 597,-410 812,-601l0 -2769c-931,-148 -1895,-287 -2893,-420 -998,-129 -2005,-196 -3022,-196 -716,0 -1361,43 -1924,124 -563,86 -1041,229 -1432,434 -391,205 -692,482 -897,835 -206,348 -305,788 -305,1318zm5943 -7031c-893,0 -1661,24 -2292,71 -635,43 -1179,105 -1633,181 -448,72 -831,153 -1136,234 -310,86 -582,167 -811,253 -114,0 -215,-57 -310,-167 -91,-114 -139,-234 -139,-363 0,-124 57,-210 167,-267 76,-38 248,-95 525,-181 272,-86 663,-172 1160,-258 501,-91 1117,-167 1862,-234 740,-62 1613,-95 2620,-95 477,0 945,28 1413,91 468,62 907,172 1322,329 415,157 802,377 1160,659 358,277 668,640 922,1084 257,439 458,979 611,1609 148,625 224,1365 224,2215l0 4029c0,110 -5,224 -14,334 -9,115 -38,220 -76,315 -43,100 -100,177 -177,239 -77,62 -177,91 -311,91 -210,0 -358,-95 -439,-291 -76,-196 -119,-440 -119,-735l0 -955c-186,229 -430,473 -726,721 -300,249 -678,477 -1131,688 -458,205 -1002,377 -1637,511 -635,134 -1384,200 -2253,200 -812,0 -1570,-62 -2286,-181 -711,-119 -1332,-310 -1857,-568 -530,-258 -945,-592 -1246,-1002 -305,-411 -454,-907 -454,-1490 0,-678 139,-1236 425,-1685 286,-449 678,-811 1184,-1084 501,-272 1093,-463 1766,-573 678,-110 1408,-167 2191,-167 587,0 1174,0 1766,0 592,0 1155,48 1685,139 534,95 1021,210 1461,343 444,139 816,301 1112,487 0,-969 -124,-1747 -377,-2335 -253,-587 -587,-1045 -1007,-1375 -420,-325 -902,-544 -1446,-654 -544,-110 -1112,-162 -1699,-162zm11074 9189c0,272 -33,501 -95,692 -67,191 -215,286 -449,286 -138,0 -248,-24 -325,-77 -71,-52 -129,-124 -167,-210 -34,-91 -57,-191 -67,-301 -10,-114 -14,-234 -14,-363l0 -13624c0,-138 5,-272 14,-391 9,-119 33,-224 76,-315 43,-91 100,-163 181,-215 77,-57 186,-86 330,-86 110,0 200,28 272,86 71,52 124,129 162,220 34,96 57,200 67,315 9,119 14,239 14,358l0 13624zm10616 -9189c-869,0 -1638,71 -2311,224 -668,148 -1241,387 -1709,721 -473,329 -840,754 -1098,1279 -263,520 -410,1160 -448,1914l10544 0 0 -754c0,-468 -86,-907 -257,-1317 -177,-406 -459,-769 -850,-1074 -391,-310 -902,-549 -1537,-725 -635,-181 -1413,-267 -2334,-267zm-731 9480c888,0 1661,-57 2325,-167 659,-110 1231,-249 1704,-406 477,-157 864,-320 1170,-487 301,-172 540,-311 706,-420 57,-19 91,-28 110,-28 105,0 201,48 287,148 91,95 134,200 134,310 0,105 -48,191 -139,253 -86,86 -263,215 -539,391 -277,177 -668,358 -1184,540 -511,181 -1145,343 -1900,482 -754,138 -1652,210 -2683,210 -1084,0 -2000,-134 -2759,-405 -754,-272 -1370,-649 -1843,-1131 -477,-487 -821,-1069 -1036,-1747 -215,-682 -320,-1427 -320,-2238 0,-1084 172,-1981 516,-2702 343,-716 816,-1293 1418,-1723 601,-434 1313,-740 2129,-916 811,-177 1694,-267 2635,-267 1938,0 3389,368 4353,1098 969,735 1451,1781 1451,3146 0,129 -9,267 -28,425 -19,158 -43,305 -77,449 -33,143 -71,263 -114,363 -43,95 -81,143 -119,143l-4110 0 -6936 0c19,855 134,1576 344,2167 210,596 516,1079 921,1446 406,372 907,645 1504,817 597,167 1289,253 2081,253zm22015 -2300c0,-501 -172,-888 -525,-1160 -348,-272 -811,-472 -1384,-596 -573,-129 -1222,-191 -1957,-191 -731,0 -1475,0 -2239,0 -759,0 -1504,-28 -2234,-91 -735,-62 -1384,-191 -1957,-387 -577,-191 -1036,-472 -1384,-835 -354,-363 -525,-864 -525,-1494 0,-654 171,-1188 525,-1604 348,-416 807,-750 1375,-993 568,-248 1213,-415 1928,-511 721,-95 1451,-143 2196,-143 1222,0 2358,100 3413,301 1055,200 2034,539 2936,1016 95,43 157,105 191,172 33,72 52,143 62,220 0,120 -38,225 -110,320 -77,95 -158,138 -253,138 -57,0 -95,-9 -110,-28 -792,-401 -1690,-721 -2692,-955 -1002,-239 -2129,-358 -3380,-358 -635,0 -1250,38 -1847,119 -596,81 -1127,215 -1585,401 -463,186 -831,434 -1112,745 -282,305 -420,697 -420,1160 0,477 177,845 525,1098 348,258 811,448 1385,568 573,119 1227,177 1957,177 730,0 1480,0 2238,0 759,0 1504,33 2239,105 731,71 1385,205 1957,411 573,200 1036,491 1385,873 348,382 525,888 525,1527 0,573 -177,1060 -535,1451 -353,396 -826,716 -1413,954 -587,239 -1265,411 -2033,520 -768,110 -1561,163 -2382,163 -506,0 -1051,0 -1633,0 -582,0 -1165,-43 -1747,-134 -582,-91 -1141,-229 -1676,-415 -540,-182 -1007,-440 -1408,-759 -129,-105 -196,-229 -196,-372 0,-120 33,-229 105,-320 72,-86 158,-134 258,-134 77,0 134,19 167,57 391,282 816,511 1270,683 449,177 926,310 1432,411 501,95 1031,143 1580,143 549,0 1117,0 1704,0 702,0 1375,-33 2024,-105 645,-71 1222,-196 1718,-367 501,-172 897,-406 1198,-692 296,-286 444,-649 444,-1088zm17414 3661c-525,243 -1165,468 -1924,678 -759,210 -1676,315 -2750,315 -1585,0 -2945,-182 -4091,-544 -1141,-363 -2081,-893 -2816,-1580 -735,-692 -1279,-1537 -1628,-2535 -353,-997 -525,-2129 -525,-3399 0,-1184 205,-2267 616,-3251 411,-983 1002,-1833 1781,-2540 778,-706 1733,-1260 2854,-1652 1122,-391 2401,-587 3838,-587 2535,0 4439,540 5714,1619 1275,1074 1910,2673 1910,4793 0,969 -67,1847 -206,2635 -134,788 -334,1461 -606,2015 -272,554 -606,983 -1008,1289 -401,301 -869,454 -1399,454 -511,0 -912,-158 -1203,-468 -286,-310 -434,-792 -434,-1441 -157,186 -353,377 -587,577 -234,201 -511,377 -840,540 -325,163 -702,296 -1131,406 -430,105 -912,157 -1456,157 -792,0 -1461,-110 -2009,-334 -554,-225 -998,-525 -1336,-902 -344,-377 -587,-811 -745,-1308 -153,-491 -229,-1007 -229,-1537 0,-959 172,-1776 511,-2444 339,-673 778,-1217 1313,-1637 539,-420 1136,-721 1799,-907 664,-186 1313,-282 1957,-282 449,0 845,38 1198,110 348,72 649,163 907,272 258,110 473,229 645,358 171,129 310,253 410,368 48,-272 105,-477 167,-616 67,-143 177,-215 325,-215 157,0 286,67 382,191 100,124 148,358 148,692 0,57 0,162 -5,315 -5,153 -19,425 -43,812 -24,386 -57,921 -105,1599 -48,682 -114,1575 -196,2687 -9,120 -24,268 -33,434 -14,167 -24,344 -24,530 0,148 9,296 28,439 19,148 52,272 95,387 48,110 120,200 210,272 95,72 210,105 353,105 315,0 602,-124 859,-377 258,-253 472,-616 659,-1093 181,-472 320,-1059 415,-1747 100,-692 148,-1480 148,-2363 0,-3705 -2187,-5557 -6559,-5557 -1260,0 -2382,177 -3375,525 -993,348 -1833,840 -2520,1470 -683,625 -1208,1385 -1570,2272 -363,883 -549,1862 -549,2936 0,1131 143,2139 430,3036 282,897 745,1652 1375,2272 635,621 1461,1098 2478,1427 1017,329 2263,497 3733,497 979,0 1828,-96 2554,-287 721,-191 1336,-396 1838,-620 67,-38 143,-57 239,-57 110,0 196,34 253,100 52,62 81,143 81,234 0,86 -24,172 -77,263 -52,86 -134,153 -243,200zm-1537 -10163c-368,-181 -802,-358 -1317,-530 -511,-172 -1074,-258 -1690,-258 -563,0 -1112,86 -1652,253 -540,167 -1026,425 -1461,769 -434,344 -783,783 -1050,1313 -267,530 -396,1160 -396,1890 0,1098 258,1919 783,2468 520,544 1356,817 2501,817 468,0 897,-53 1293,-153 396,-100 754,-225 1069,-377 320,-153 587,-305 811,-468 225,-163 401,-305 530,-434l267 -263 310 -5027zm14106 9628c-1284,0 -2372,-129 -3255,-386 -888,-253 -1604,-621 -2148,-1098 -544,-473 -940,-1050 -1179,-1732 -243,-678 -368,-1451 -368,-2306 0,-988 138,-1833 415,-2540 272,-702 697,-1284 1270,-1742 578,-454 1299,-793 2167,-1007 873,-215 1904,-320 3098,-320 1193,0 2229,105 3098,320 873,214 1594,554 2167,1007 578,458 998,1041 1275,1742 277,706 411,1551 411,2540 0,854 -120,1627 -363,2306 -239,682 -635,1260 -1179,1732 -549,477 -1260,845 -2148,1098 -888,257 -1971,386 -3260,386zm0 -826c850,0 1580,-62 2196,-186 616,-129 1141,-301 1576,-525 434,-225 783,-487 1050,-783 263,-301 473,-625 630,-974 153,-348 253,-711 305,-1088 52,-382 76,-759 76,-1141 0,-869 -110,-1604 -334,-2210 -224,-606 -573,-1103 -1050,-1484 -477,-382 -1084,-659 -1819,-831 -735,-172 -1613,-258 -2630,-258 -1022,0 -1904,86 -2635,258 -730,172 -1336,448 -1809,831 -477,382 -826,878 -1050,1484 -224,606 -334,1342 -334,2210 0,382 24,759 76,1141 52,377 153,740 305,1088 157,348 363,673 630,974 267,296 616,558 1050,783 434,224 959,396 1570,525 616,124 1351,186 2196,186zm12364 -9819l5107 0c139,0 243,34 315,105 67,71 105,148 105,229 0,86 -38,162 -115,234 -71,72 -177,105 -305,105l-5107 0 0 9146c0,301 -53,487 -158,568 -110,81 -243,119 -401,119 -129,0 -253,-38 -377,-119 -120,-81 -182,-268 -182,-568l0 -9146 -1231 0c-129,0 -229,-33 -291,-105 -67,-71 -100,-148 -100,-234 0,-81 33,-158 100,-229 62,-71 163,-105 291,-105l1246 0 0 -902c0,-754 76,-1389 229,-1900 158,-515 373,-930 659,-1241 286,-310 625,-534 1026,-673 401,-139 854,-210 1360,-210 277,0 544,0 797,0 248,0 501,19 759,62 258,43 530,100 811,172 286,71 597,162 931,277 286,96 434,244 434,444 0,76 -38,153 -114,234 -72,81 -182,119 -320,119 -110,0 -200,-19 -267,-52 -501,-182 -988,-301 -1461,-368 -468,-62 -931,-96 -1375,-96 -368,0 -692,38 -988,120 -296,76 -544,234 -750,468 -205,234 -358,559 -468,983 -105,425 -162,974 -162,1657l0 907zm9471 9623c0,124 -5,239 -14,344 -9,110 -28,200 -62,282 -33,77 -86,143 -162,186 -71,48 -181,71 -320,71 -263,0 -420,-81 -477,-239 -52,-157 -81,-372 -81,-645l0 -8974c0,-234 33,-434 95,-602 67,-167 229,-253 492,-253 234,0 382,86 439,253 62,167 91,358 91,573l0 9003zm-1299 -12993c0,-214 67,-391 210,-539 138,-143 315,-215 530,-215 215,0 396,71 544,215 153,148 225,325 225,539 0,215 -72,391 -225,520 -148,129 -329,196 -544,196 -215,0 -391,-67 -530,-196 -143,-129 -210,-305 -210,-520zm12517 3709c-1074,0 -1986,86 -2740,267 -759,177 -1375,458 -1857,845 -477,387 -831,883 -1055,1489 -224,606 -334,1332 -334,2182 0,854 124,1584 372,2181 243,596 616,1079 1117,1451 497,377 1122,644 1867,811 745,172 1618,253 2616,253 449,0 902,-33 1365,-95 458,-67 902,-148 1317,-248 420,-96 807,-206 1165,-330 353,-119 639,-234 864,-348 143,-48 239,-67 296,-67 119,0 215,34 286,105 67,67 105,153 105,258 0,71 -24,153 -71,229 -48,81 -120,148 -225,205 -821,420 -1666,711 -2544,873 -878,163 -1723,243 -2544,243 -1065,0 -2029,-86 -2903,-253 -873,-167 -1618,-458 -2239,-879 -620,-420 -1102,-983 -1446,-1694 -344,-707 -516,-1609 -516,-2697 0,-1084 157,-1981 473,-2702 320,-716 778,-1293 1385,-1723 606,-434 1351,-740 2234,-916 879,-177 1886,-267 3012,-267 821,0 1666,81 2544,243 879,163 1724,454 2544,873 105,57 177,124 225,206 48,76 71,157 71,229 0,105 -38,191 -105,258 -71,71 -167,105 -286,105 -57,0 -153,-24 -296,-67 -224,-115 -511,-229 -864,-353 -358,-120 -745,-229 -1165,-325 -415,-100 -859,-182 -1317,-249 -463,-62 -912,-95 -1351,-95zm15256 14015c959,0 1761,-105 2406,-315 639,-210 1155,-554 1542,-1036 386,-477 663,-1117 826,-1914 162,-797 243,-1781 243,-2960 -100,387 -268,721 -501,993 -234,272 -511,506 -831,692 -325,191 -673,339 -1051,454 -377,114 -764,200 -1155,263 -391,62 -773,91 -1150,91 -382,0 -725,0 -1045,0 -1007,0 -1852,-91 -2544,-272 -687,-182 -1250,-487 -1676,-922 -429,-429 -740,-1002 -930,-1709 -191,-707 -286,-1585 -286,-2635l0 -4287c0,-120 5,-239 14,-363 10,-119 29,-224 67,-320 38,-91 91,-167 163,-229 71,-62 172,-91 301,-91 138,0 248,28 320,91 77,62 134,138 167,229 38,95 62,200 71,324 10,120 14,244 14,363l0 4296c0,912 57,1671 177,2277 114,606 329,1093 649,1456 315,363 759,621 1322,768 563,148 1289,225 2172,225 535,0 1103,-38 1709,-110 606,-77 1179,-210 1728,-406 544,-196 1022,-468 1437,-811 415,-348 702,-793 859,-1346l0 -6349c0,-119 9,-243 24,-363 14,-124 38,-229 76,-324 38,-91 91,-167 163,-229 67,-62 157,-91 272,-91 139,0 249,28 320,91 77,62 134,138 177,229 43,95 67,200 77,324 9,120 14,244 14,363l0 6869c0,1432 -114,2630 -343,3594 -229,959 -587,1728 -1084,2315 -492,582 -1127,993 -1900,1236 -778,243 -1713,363 -2812,363 -783,0 -1446,-43 -1981,-124 -534,-86 -988,-191 -1356,-315 -368,-129 -673,-268 -916,-430 -243,-157 -454,-305 -630,-444 -71,-76 -110,-167 -110,-267 0,-129 33,-239 105,-329 67,-86 177,-134 329,-134 71,0 153,28 234,86 181,129 386,263 625,396 239,138 525,258 864,363 344,110 745,200 1203,267 463,71 1008,105 1633,105z"/>
    <path class="fil0 str0" d="M172079 95334c0,119 -10,243 -29,362 -19,124 -52,229 -91,325 -43,91 -100,167 -177,229 -77,62 -167,91 -282,91 -138,0 -243,-28 -315,-91 -67,-62 -120,-139 -158,-229 -38,-95 -57,-200 -62,-325 -5,-119 -9,-243 -9,-362l0 -4841c0,-725 -52,-1360 -162,-1900 -105,-544 -315,-993 -625,-1351 -315,-358 -750,-625 -1303,-802 -554,-181 -1279,-267 -2172,-267 -554,0 -1136,43 -1752,134 -616,86 -1203,239 -1761,458 -559,220 -1050,511 -1480,878 -430,363 -731,817 -897,1370l0 6320c0,119 -5,243 -14,362 -10,124 -34,229 -67,325 -38,91 -91,167 -163,229 -71,62 -162,91 -272,91 -134,0 -239,-28 -315,-91 -81,-62 -138,-139 -181,-229 -43,-95 -71,-200 -86,-325 -14,-119 -19,-243 -19,-362l0 -9060c0,-157 34,-305 96,-444 67,-134 229,-200 491,-200 234,0 377,62 439,191 62,124 91,277 91,453l0 1761c263,-596 625,-1079 1093,-1437 463,-358 974,-630 1532,-811 554,-181 1117,-301 1690,-353 573,-57 1098,-86 1575,-86 1007,0 1852,86 2535,258 687,172 1241,458 1666,859 425,401 726,931 907,1590 181,659 277,1470 277,2439l0 4841zm5046 -2129c0,449 114,826 343,1136 229,305 544,559 955,754 411,196 897,339 1466,425 563,91 1179,134 1852,134 821,0 1547,-57 2181,-171 635,-115 1188,-258 1661,-434 477,-172 879,-363 1203,-568 330,-210 597,-410 812,-601l0 -2769c-931,-148 -1895,-287 -2893,-420 -998,-129 -2005,-196 -3022,-196 -716,0 -1361,43 -1924,124 -563,86 -1041,229 -1432,434 -391,205 -692,482 -897,835 -206,348 -305,788 -305,1318zm5943 -7031c-893,0 -1661,24 -2292,71 -635,43 -1179,105 -1633,181 -448,72 -831,153 -1136,234 -310,86 -582,167 -811,253 -114,0 -215,-57 -310,-167 -91,-114 -139,-234 -139,-363 0,-124 57,-210 167,-267 76,-38 248,-95 525,-181 272,-86 663,-172 1160,-258 501,-91 1117,-167 1862,-234 740,-62 1613,-95 2620,-95 477,0 945,28 1413,91 468,62 907,172 1322,329 415,157 802,377 1160,659 358,277 668,640 922,1084 257,439 458,979 611,1609 148,625 224,1365 224,2215l0 4029c0,110 -5,224 -14,334 -9,115 -38,220 -76,315 -43,100 -100,177 -177,239 -77,62 -177,91 -311,91 -210,0 -358,-95 -439,-291 -76,-196 -119,-440 -119,-735l0 -955c-186,229 -430,473 -726,721 -300,249 -678,477 -1131,688 -458,205 -1002,377 -1637,511 -635,134 -1384,200 -2253,200 -812,0 -1570,-62 -2286,-181 -711,-119 -1332,-310 -1857,-568 -530,-258 -945,-592 -1246,-1002 -305,-411 -454,-907 -454,-1490 0,-678 139,-1236 425,-1685 286,-449 678,-811 1184,-1084 501,-272 1093,-463 1766,-573 678,-110 1408,-167 2191,-167 587,0 1174,0 1766,0 592,0 1155,48 1685,139 534,95 1021,210 1461,343 444,139 816,301 1112,487 0,-969 -124,-1747 -377,-2335 -253,-587 -587,-1045 -1007,-1375 -420,-325 -902,-544 -1446,-654 -544,-110 -1112,-162 -1699,-162zm16769 138c-1112,0 -2062,81 -2850,243 -788,163 -1432,430 -1933,797 -506,368 -873,854 -1108,1451 -234,596 -348,1322 -348,2181 0,854 96,1585 291,2181 196,597 515,1079 959,1447 444,367 1026,635 1747,797 725,163 1613,243 2663,243 487,0 974,-24 1466,-76 487,-48 969,-134 1446,-248 473,-115 931,-258 1370,-434 439,-172 850,-382 1232,-630l0 -5151c-67,-272 -186,-568 -358,-893 -172,-325 -444,-630 -811,-916 -368,-282 -854,-520 -1461,-711 -606,-186 -1375,-282 -2306,-282zm-368 13805c768,0 1470,-67 2119,-200 649,-138 1208,-344 1681,-625 468,-277 840,-635 1102,-1065 268,-434 401,-955 401,-1556l0 -1661c-401,277 -831,511 -1289,702 -458,186 -926,339 -1403,449 -482,110 -964,191 -1456,243 -487,52 -964,76 -1418,76 -1065,0 -2009,-81 -2840,-243 -831,-162 -1532,-454 -2110,-859 -582,-411 -1021,-974 -1322,-1685 -305,-716 -454,-1618 -454,-2706 0,-1093 172,-2000 516,-2721 343,-725 835,-1303 1470,-1733 630,-434 1394,-740 2286,-916 888,-177 1881,-267 2969,-267 959,0 1752,95 2372,286 620,186 1117,420 1494,697 377,282 654,582 826,916 172,329 291,630 358,902 0,-177 -10,-377 -24,-606 -14,-229 -19,-458 -19,-683 0,-334 28,-620 91,-869 62,-243 191,-362 396,-362 143,0 253,28 339,91 81,57 148,134 200,229 52,91 86,196 105,315 19,114 28,229 28,344l0 10053c0,1475 -559,2582 -1671,3322 -1112,740 -2697,1112 -4750,1112 -668,0 -1270,-33 -1795,-100 -525,-62 -993,-148 -1399,-258 -405,-105 -768,-229 -1084,-368 -320,-143 -601,-282 -854,-420 -100,-29 -224,-100 -362,-220 -139,-115 -210,-253 -210,-411 0,-177 62,-305 191,-377 124,-77 215,-115 272,-115 81,0 181,34 291,91 114,62 243,134 386,210 143,81 305,167 482,253 177,91 373,162 587,220 391,129 869,248 1427,353 559,110 1246,162 2067,162zm19104 -14435c105,29 181,86 224,163 48,81 71,167 71,258 0,124 -38,234 -119,339 -81,100 -196,153 -358,153 -43,0 -71,0 -81,-5 -9,-5 -38,-14 -85,-24 -363,-100 -711,-182 -1041,-234 -329,-57 -692,-86 -1084,-86 -549,0 -1074,57 -1575,167 -497,114 -950,282 -1356,511 -405,229 -759,520 -1055,873 -301,358 -520,774 -673,1246l0 6334c0,239 -34,458 -96,663 -67,200 -214,301 -448,301 -129,0 -234,-28 -315,-86 -81,-52 -138,-129 -177,-220 -33,-95 -57,-200 -67,-315 -9,-119 -14,-238 -14,-358l0 -8950c0,-215 38,-396 110,-554 76,-153 248,-229 520,-229 205,0 339,76 396,234 62,157 91,353 91,592l0 1709c153,-596 411,-1084 778,-1451 368,-373 778,-659 1231,-859 449,-200 916,-334 1389,-406 477,-67 897,-100 1260,-100 353,0 659,9 916,33 253,24 477,53 664,86 186,34 348,67 487,105 143,38 277,77 406,110zm9523 10798c-1284,0 -2372,-129 -3255,-386 -888,-253 -1604,-621 -2148,-1098 -544,-473 -940,-1050 -1179,-1732 -243,-678 -368,-1451 -368,-2306 0,-988 138,-1833 415,-2540 272,-702 697,-1284 1270,-1742 578,-454 1299,-793 2167,-1007 873,-215 1904,-320 3098,-320 1193,0 2229,105 3098,320 873,214 1594,554 2167,1007 578,458 998,1041 1275,1742 277,706 411,1551 411,2540 0,854 -120,1627 -363,2306 -239,682 -635,1260 -1179,1732 -549,477 -1260,845 -2148,1098 -888,257 -1971,386 -3260,386zm0 -826c850,0 1580,-62 2196,-186 616,-129 1141,-301 1576,-525 434,-225 783,-487 1050,-783 263,-301 473,-625 630,-974 153,-348 253,-711 305,-1088 52,-382 76,-759 76,-1141 0,-869 -110,-1604 -334,-2210 -224,-606 -573,-1103 -1050,-1484 -477,-382 -1084,-659 -1819,-831 -735,-172 -1613,-258 -2630,-258 -1022,0 -1904,86 -2635,258 -730,172 -1336,448 -1809,831 -477,382 -826,878 -1050,1484 -224,606 -334,1342 -334,2210 0,382 24,759 76,1141 52,377 153,740 305,1088 157,348 363,673 630,974 267,296 616,558 1050,783 434,224 959,396 1570,525 616,124 1351,186 2196,186zm21791 -1265c-196,229 -444,468 -750,711 -301,248 -673,468 -1117,673 -444,205 -964,372 -1561,506 -596,134 -1284,200 -2067,200 -998,0 -1852,-95 -2554,-286 -702,-191 -1279,-491 -1728,-897 -449,-401 -774,-921 -979,-1551 -206,-625 -305,-1385 -305,-2272l0 -4835c0,-119 5,-243 19,-363 14,-124 38,-229 77,-324 38,-91 95,-167 167,-229 76,-62 171,-91 296,-91 139,0 249,28 320,91 76,62 129,138 162,229 34,95 53,200 62,324 10,120 14,244 14,363l0 4835c0,783 67,1442 196,1972 129,534 363,959 692,1289 329,325 783,559 1356,707 573,143 1308,214 2205,214 649,0 1256,-52 1809,-162 554,-114 1060,-253 1518,-420 458,-172 869,-363 1232,-573 362,-210 678,-420 950,-620l0 -7237c0,-124 5,-243 14,-368 9,-119 28,-229 62,-320 33,-96 86,-172 153,-234 71,-62 167,-91 286,-91 143,0 253,28 329,91 81,62 143,138 182,229 43,95 67,200 76,324 9,120 14,244 14,363l0 8726c0,120 -5,239 -19,358 -14,115 -38,220 -77,315 -38,91 -91,167 -162,220 -67,57 -163,86 -272,86 -263,0 -425,-86 -496,-258 -72,-167 -105,-368 -105,-587l0 -124 0 -983zm12993 -9003c835,0 1633,86 2382,257 750,172 1408,468 1972,883 563,420 1012,979 1341,1676 334,697 497,1570 497,2620 0,1041 -134,1919 -411,2640 -277,721 -678,1303 -1203,1747 -525,449 -1174,768 -1943,969 -768,200 -1647,300 -2635,300 -759,0 -1451,-48 -2086,-138 -635,-95 -1208,-210 -1728,-353 -516,-143 -979,-305 -1389,-482 -411,-177 -774,-348 -1093,-511l-29 5079c0,124 0,238 -5,358 -5,114 -24,220 -62,315 -38,91 -91,167 -162,220 -72,57 -177,85 -315,85 -138,0 -243,-28 -315,-91 -67,-62 -124,-138 -163,-239 -33,-95 -57,-210 -62,-334 -5,-129 -5,-258 -5,-401l0 -13676c0,-301 57,-487 167,-568 110,-81 234,-119 363,-119 157,0 286,43 377,124 95,81 143,282 143,592l0 1933c110,-415 301,-778 573,-1088 267,-310 587,-577 950,-802 363,-220 759,-401 1179,-544 425,-143 854,-257 1289,-334 434,-81 854,-119 1265,-119 411,0 778,0 1108,0zm0 792c-563,0 -1174,43 -1833,124 -664,81 -1299,229 -1905,444 -606,210 -1141,506 -1609,883 -463,382 -783,873 -950,1484l0 5289c401,143 835,296 1293,444 463,153 955,287 1475,406 525,119 1079,220 1666,291 587,72 1208,110 1862,110 893,0 1661,-95 2296,-282 640,-186 1170,-477 1585,-873 411,-391 716,-897 907,-1508 191,-611 286,-1336 286,-2186 0,-874 -134,-1614 -396,-2210 -268,-592 -630,-1069 -1088,-1422 -454,-354 -993,-606 -1613,-764 -621,-153 -1279,-229 -1976,-229zm9213 9432c0,-267 86,-487 248,-654 163,-167 377,-253 649,-253 253,0 468,86 649,253 181,167 272,387 272,654 0,263 -91,473 -272,630 -182,158 -396,239 -649,239 -272,0 -487,-81 -649,-239 -162,-157 -248,-367 -248,-630zm11848 -9437c-1074,0 -1986,86 -2740,267 -759,177 -1375,458 -1857,845 -477,387 -831,883 -1055,1489 -224,606 -334,1332 -334,2182 0,854 124,1584 372,2181 243,596 616,1079 1117,1451 497,377 1122,644 1867,811 745,172 1618,253 2616,253 449,0 902,-33 1365,-95 458,-67 902,-148 1317,-248 420,-96 807,-206 1165,-330 353,-119 639,-234 864,-348 143,-48 239,-67 296,-67 119,0 215,34 286,105 67,67 105,153 105,258 0,71 -24,153 -71,229 -48,81 -120,148 -225,205 -821,420 -1666,711 -2544,873 -878,163 -1723,243 -2544,243 -1065,0 -2029,-86 -2903,-253 -873,-167 -1618,-458 -2239,-879 -620,-420 -1102,-983 -1446,-1694 -344,-707 -516,-1609 -516,-2697 0,-1084 157,-1981 473,-2702 320,-716 778,-1293 1385,-1723 606,-434 1351,-740 2234,-916 879,-177 1886,-267 3012,-267 821,0 1666,81 2544,243 879,163 1724,454 2544,873 105,57 177,124 225,206 48,76 71,157 71,229 0,105 -38,191 -105,258 -71,71 -167,105 -286,105 -57,0 -153,-24 -296,-67 -224,-115 -511,-229 -864,-353 -358,-120 -745,-229 -1165,-325 -415,-100 -859,-182 -1317,-249 -463,-62 -912,-95 -1351,-95zm15714 10306c-1284,0 -2372,-129 -3255,-386 -888,-253 -1604,-621 -2148,-1098 -544,-473 -940,-1050 -1179,-1732 -243,-678 -368,-1451 -368,-2306 0,-988 138,-1833 415,-2540 272,-702 697,-1284 1270,-1742 578,-454 1299,-793 2167,-1007 873,-215 1904,-320 3098,-320 1193,0 2229,105 3098,320 873,214 1594,554 2167,1007 578,458 998,1041 1275,1742 277,706 411,1551 411,2540 0,854 -120,1627 -363,2306 -239,682 -635,1260 -1179,1732 -549,477 -1260,845 -2148,1098 -888,257 -1971,386 -3260,386zm0 -826c850,0 1580,-62 2196,-186 616,-129 1141,-301 1576,-525 434,-225 783,-487 1050,-783 263,-301 473,-625 630,-974 153,-348 253,-711 305,-1088 52,-382 76,-759 76,-1141 0,-869 -110,-1604 -334,-2210 -224,-606 -573,-1103 -1050,-1484 -477,-382 -1084,-659 -1819,-831 -735,-172 -1613,-258 -2630,-258 -1022,0 -1904,86 -2635,258 -730,172 -1336,448 -1809,831 -477,382 -826,878 -1050,1484 -224,606 -334,1342 -334,2210 0,382 24,759 76,1141 52,377 153,740 305,1088 157,348 363,673 630,974 267,296 616,558 1050,783 434,224 959,396 1570,525 616,124 1351,186 2196,186zm28293 -6153c0,-645 -52,-1179 -157,-1609 -110,-430 -272,-769 -491,-1026 -220,-258 -492,-434 -817,-540 -329,-100 -716,-153 -1160,-153 -1193,0 -2187,243 -2974,725 -788,487 -1441,1150 -1967,2000l0 6717c0,167 -14,296 -48,391 -34,91 -77,162 -134,215 -52,52 -114,85 -171,100 -62,14 -120,19 -177,19 -67,0 -134,-5 -200,-14 -71,-9 -134,-38 -191,-86 -57,-43 -100,-114 -138,-214 -38,-96 -57,-234 -57,-411l0 -6717c0,-850 -196,-1513 -592,-2000 -396,-482 -1036,-725 -1909,-725 -664,0 -1279,76 -1847,224 -568,148 -1074,348 -1518,602 -444,248 -811,549 -1112,888 -296,339 -501,697 -616,1069l0 6659c0,325 -53,525 -158,606 -110,81 -220,119 -329,119 -67,0 -138,-5 -210,-14 -77,-9 -143,-38 -206,-86 -57,-43 -110,-114 -153,-214 -43,-96 -62,-234 -62,-411l0 -9299c0,-300 62,-491 182,-568 119,-81 253,-119 391,-119 157,0 286,38 386,119 96,77 143,268 143,563l0 1723c153,-420 387,-797 706,-1136 325,-334 707,-616 1146,-845 444,-229 940,-405 1489,-525 554,-119 1131,-181 1738,-181 707,0 1279,95 1714,286 430,191 768,425 1012,702 244,272 411,559 511,859 95,296 172,554 215,768 172,-291 396,-587 678,-897 286,-305 635,-587 1050,-845 415,-258 902,-468 1461,-630 563,-162 1198,-243 1919,-243 1284,0 2234,329 2849,988 616,654 926,1709 926,3165l0 6115c0,167 -19,296 -57,391 -38,91 -81,162 -134,215 -52,52 -110,85 -172,100 -67,14 -129,19 -186,19 -72,0 -143,-5 -206,-14 -67,-9 -129,-38 -186,-86 -53,-43 -100,-114 -129,-214 -34,-96 -53,-234 -53,-411l0 -6115z"/>
   </g>
   <polygon class="fil1" points="0,130789 331645,130789 331645,0 0,0 "/>
   <path class="fil2" d="M182568 29568l-33585 0c-2289,0 -4157,1868 -4157,4204l0 25177c0,2289 1868,4204 4204,4204l33585 0c2289,0 4204,-1868 4204,-4204l0 -25177c0,-2289 -1868,-4204 -4204,-4204l0 0 -47 0zm-841 8922l-14854 9295c-654,420 -1541,420 -2242,0l-14854 -9295c-514,-327 -841,-888 -841,-1495 0,-1401 1541,-2242 2709,-1495l14060 8782 14060 -8782c1214,-747 2709,93 2709,1495 0,607 -327,1168 -841,1495l0 0 93 0z"/>
  </g>
 </g>
</svg>
