<?xml version="1.0" encoding="UTF-8"?>
<!DOCTYPE svg PUBLIC "-//W3C//DTD SVG 1.1//EN" "http://www.w3.org/Graphics/SVG/1.1/DTD/svg11.dtd">
<!-- Creator: CorelDRAW X5 -->
<svg xmlns="http://www.w3.org/2000/svg" xml:space="preserve" width="66.4586mm" height="66.3786mm" style="shape-rendering:geometricPrecision; text-rendering:geometricPrecision; image-rendering:optimizeQuality; fill-rule:evenodd; clip-rule:evenodd"
viewBox="0 0 695739 694901"
 xmlns:xlink="http://www.w3.org/1999/xlink">
 <defs>
  <style type="text/css">
   <![CDATA[
    .fil1 {fill:none}
    .fil0 {fill:#FEFEFE;fill-rule:nonzero}
    .fil2 {fill:#FEFEFE;fill-rule:nonzero}
   ]]>
  </style>
 </defs>
 <g id="Layer_x0020_1">
  <metadata id="CorelCorpID_0Corel-Layer"/>
  <path class="fil0" d="M71716 370082l0 -13343 13495 0 0 2335 -10388 0 0 3512 5619 0 0 2434 -5619 0 0 5063 -3107 0zm20450 -13343l0 10832 8845 0 0 -10832 3094 0 0 10189c0,1220 -228,2051 -680,2491 -456,444 -1332,664 -2628,664l-8428 0c-1288,0 -2163,-220 -2619,-664 -461,-440 -690,-1271 -690,-2491l0 -10189 3107 0zm18767 13343l0 -13343 3107 0 0 10832 10009 0 0 2511 -13116 0zm17661 0l0 -13343 3107 0 0 10832 10009 0 0 2511 -13116 0zm25730 -8610l-6574 0 0 6636 6574 0 0 -2252 2440 505 0 1243c0,958 -179,1611 -541,1957 -359,349 -1046,521 -2058,521l-6256 0c-1020,0 -1706,-173 -2065,-521 -356,-345 -535,-999 -535,-1957l0 -5525c0,-955 179,-1605 535,-1957 359,-349 1046,-524 2065,-524l6256 0c1012,0 1699,176 2058,524 362,352 541,1002 541,1957l0 992 -2440 385 0 -1984zm7252 606c0,-955 179,-1605 535,-1957 359,-349 1046,-524 2065,-524l7711 0c1020,0 1706,176 2065,524 355,352 535,1002 535,1957l0 5525c0,958 -180,1611 -535,1957 -359,349 -1046,521 -2065,521l-7711 0c-1020,0 -1706,-173 -2065,-521 -356,-345 -535,-999 -535,-1957l0 -5525zm2441 6030l8040 0 0 -6636 -8040 0 0 6636zm15610 1973l0 -10484 2441 0 0 8511 7864 0 0 1973 -10305 0zm13304 -8003c0,-955 179,-1605 535,-1957 359,-349 1046,-524 2065,-524l7711 0c1020,0 1706,176 2065,524 355,352 535,1002 535,1957l0 5525c0,958 -180,1611 -535,1957 -359,349 -1046,521 -2065,521l-7711 0c-1020,0 -1706,-173 -2065,-521 -356,-345 -535,-999 -535,-1957l0 -5525zm2441 6030l8040 0 0 -6636 -8040 0 0 6636zm23498 -6697l-5488 0 0 2919 5488 0c423,0 711,-61 867,-183 155,-121 233,-338 233,-650l0 -1263c0,-305 -79,-518 -233,-640 -156,-122 -444,-183 -867,-183zm-7888 8670l0 -10484 8968 0c833,0 1436,159 1811,481 373,321 559,840 559,1550l0 2464c0,708 -186,1223 -559,1544 -375,325 -978,488 -1811,488l-1367 0 4838 3957 -3501 0 -4225 -3957 -2312 0 0 3957 -2400 0z"/>
 </g>
 <g id="Layer_x0020_1_0">
  <metadata id="CorelCorpID_1Corel-Layer"/>
  <polygon class="fil1" points="0,694901 695739,694901 695739,0 0,0 "/>
  <path class="fil2" d="M184769 487415c1989,0 3769,838 5025,2094l0 0c1256,1256 2094,3036 2094,5025 0,1989 -838,3769 -2094,5025l0 0c-1256,1256 -3036,2094 -5025,2094 -1989,0 -3769,-838 -5025,-2094l0 0c-1256,-1256 -2094,-3036 -2094,-5025 0,-1989 838,-3769 2094,-5025l0 0c1256,-1256 3036,-2094 5025,-2094zm3559 3455c-942,-942 -2198,-1466 -3559,-1466 -1361,0 -2722,523 -3559,1466 -942,942 -1466,2198 -1466,3559 0,1361 523,2722 1466,3559 942,942 2198,1466 3559,1466 1361,0 2722,-523 3559,-1466 942,-942 1466,-2198 1466,-3559 0,-1361 -523,-2722 -1466,-3559zm-5863 -1256l-77676 -108454 -1152 -1570 1989 0 86575 209 0 1989 -84690 -209 76525 106884 -1570 1152z"/>
 </g>
</svg>
