<?xml version="1.0" encoding="UTF-8"?>
<!DOCTYPE svg PUBLIC "-//W3C//DTD SVG 1.1//EN" "http://www.w3.org/Graphics/SVG/1.1/DTD/svg11.dtd">
<!-- Creator: CorelDRAW X5 -->
<svg xmlns="http://www.w3.org/2000/svg" xml:space="preserve" width="66.4586mm" height="66.3786mm" style="shape-rendering:geometricPrecision; text-rendering:geometricPrecision; image-rendering:optimizeQuality; fill-rule:evenodd; clip-rule:evenodd"
viewBox="0 0 695739 694901"
 xmlns:xlink="http://www.w3.org/1999/xlink">
 <defs>
  <style type="text/css">
   <![CDATA[
    .fil1 {fill:none}
    .fil0 {fill:#FEFEFE;fill-rule:nonzero}
    .fil2 {fill:#FEFEFE;fill-rule:nonzero}
   ]]>
  </style>
 </defs>
 <g id="Layer_x0020_1">
  <metadata id="CorelCorpID_0Corel-Layer"/>
  <g id="_222780760">
   <path class="fil0" d="M494973 323872l-7183 0 0 6830 7183 0 0 -2323 2688 543 0 1289c0,990 -199,1671 -595,2037 -393,366 -1151,548 -2271,548l-6829 0c-1103,0 -1853,-181 -2246,-543 -396,-361 -595,-1043 -595,-2041l0 -5769c0,-996 195,-1672 586,-2034 393,-362 1142,-542 2254,-542l6829 0c1129,0 1888,180 2279,542 393,362 586,1039 586,2034l0 1059 -2688 393 0 -2022zm9466 6830l8811 0 0 -6830 -8811 0 0 6830zm-2663 -6260c0,-996 195,-1672 582,-2034 387,-362 1137,-542 2258,-542l8458 0c1129,0 1882,180 2265,542 384,362 574,1039 574,2034l0 5769c0,999 -194,1680 -586,2041 -392,362 -1142,543 -2253,543l-8458 0c-1121,0 -1871,-181 -2258,-543 -387,-361 -582,-1043 -582,-2041l0 -5769zm18742 8354l0 -10930 1832 0 9276 7255 0 -7255 2412 0 0 10930 -1844 0 -9251 -7372 0 7372 -2426 0zm23517 0l-6614 -10930 3016 0 4637 7927 4364 -7927 2766 0 -6338 10930 -1831 0zm11218 0l0 -10930 11728 0 0 1929 -9039 0 0 2383 5265 0 0 1883 -5265 0 0 2688 9177 0 0 2047 -11866 0zm14589 0l5403 -5605 -5501 -5325 3571 0 3676 3532 3460 -3532 3077 0 -4985 5010 6148 5920 -3649 0 -4189 -4089 -3851 4089 -3158 0zm17622 0l0 -10930 2650 0 0 10930 -2650 0zm14038 -8975l0 8975 -2662 0 0 -8975 -5278 0 0 -1956 13231 0 0 1956 -5291 0zm12861 8975l0 -4912 -5971 -6018 3597 0 3900 4075 3951 -4075 3132 0 -5945 5971 0 4959 -2663 0z"/>
   <path class="fil0" d="M538924 355366l0 -10484 10735 0 0 1784 -8293 0 0 2343 4841 0 0 1784 -4841 0 0 2600 8392 0 0 1973 -10833 0zm15333 0l0 -10484 10603 0 0 1835 -8161 0 0 2759 4414 0 0 1913 -4414 0 0 3978 -2441 0zm13626 0l0 -10484 10603 0 0 1835 -8161 0 0 2759 4414 0 0 1913 -4414 0 0 3978 -2441 0zm13626 0l0 -10484 10735 0 0 1784 -8293 0 0 2343 4841 0 0 1784 -4841 0 0 2600 8392 0 0 1973 -10833 0zm24132 -8610l-6574 0 0 6636 6574 0 0 -2252 2440 505 0 1243c0,958 -179,1611 -541,1957 -359,349 -1046,521 -2058,521l-6256 0c-1020,0 -1706,-173 -2065,-521 -356,-345 -535,-999 -535,-1957l0 -5525c0,-955 179,-1605 535,-1957 359,-349 1046,-524 2065,-524l6256 0c1012,0 1699,176 2058,524 362,352 541,1002 541,1957l0 992 -2440 385 0 -1984zm12350 0l0 8610 -2440 0 0 -8610 -4811 0 0 -1875 12083 0 0 1875 -4831 0z"/>
  </g>
 </g>
 <g id="Layer_x0020_1_0">
  <metadata id="CorelCorpID_1Corel-Layer"/>
  <polygon class="fil1" points="0,694901 695739,694901 695739,0 0,0 "/>
  <path class="fil2" d="M556403 462082c1675,419 3141,1466 4083,2827 1047,1466 1466,3350 1152,5339 -314,1884 -1466,3559 -2931,4606 -1466,1047 -3350,1466 -5339,1152 -1884,-314 -3559,-1466 -4606,-2931 -1047,-1466 -1466,-3350 -1152,-5339 314,-1884 1466,-3559 2931,-4606 942,-733 2198,-1152 3350,-1256l64172 -86051 -173045 0 0 -1989 177022 0 -1152 1570 -64591 86679 106 0zm-1361 1780l-105 105 -105 -105c-1152,0 -2198,314 -3036,942 -1047,733 -1884,1884 -2094,3245 -209,1361 105,2722 838,3769 733,1047 1884,1884 3245,2094 1361,209 2722,-105 3769,-838 1047,-733 1884,-1884 2094,-3245 209,-1361 -105,-2722 -838,-3769 -733,-1047 -1884,-1884 -3245,-2094 -209,0 -314,-105 -523,-105z"/>
 </g>
</svg>
