<?xml version="1.0" encoding="UTF-8"?>
<!DOCTYPE svg PUBLIC "-//W3C//DTD SVG 1.1//EN" "http://www.w3.org/Graphics/SVG/1.1/DTD/svg11.dtd">
<!-- Creator: CorelDRAW X5 -->
<svg xmlns="http://www.w3.org/2000/svg" xml:space="preserve" width="66.4586mm" height="66.3786mm" style="shape-rendering:geometricPrecision; text-rendering:geometricPrecision; image-rendering:optimizeQuality; fill-rule:evenodd; clip-rule:evenodd"
viewBox="0 0 695739 694901"
 xmlns:xlink="http://www.w3.org/1999/xlink">
 <defs>
  <style type="text/css">
   <![CDATA[
    .fil1 {fill:none}
    .fil0 {fill:#FEFEFE;fill-rule:nonzero}
    .fil2 {fill:#FEFEFE;fill-rule:nonzero}
   ]]>
  </style>
 </defs>
 <g id="Layer_x0020_1">
  <metadata id="CorelCorpID_0Corel-Layer"/>
  <path class="fil0" d="M337900 234182l-6984 0 0 3713 6984 0c538,0 905,-77 1103,-232 198,-155 297,-430 297,-827l0 -1607c0,-388 -99,-660 -297,-814 -199,-155 -565,-232 -1103,-232zm-10040 11034l0 -13343 11414 0c1059,0 1827,202 2305,611 473,409 711,1069 711,1973l0 3136c0,901 -238,1556 -711,1965 -478,414 -1246,621 -2305,621l-1741 0 6157 5037 -4454 0 -5377 -5037 -2943 0 0 5037 -3056 0zm20728 0l0 -13343 13663 0 0 2271 -10556 0 0 2982 6161 0 0 2271 -6161 0 0 3309 10681 0 0 2511 -13788 0zm31074 -11009l-8734 0 0 2865 8316 0c1305,0 2188,224 2645,668 461,448 689,1276 689,2491l0 1831c0,1211 -228,2038 -689,2486 -457,444 -1340,668 -2645,668l-8239 0c-1305,0 -2188,-224 -2645,-668 -461,-448 -689,-1275 -689,-2486l0 -365 2740 -570 0 1578 9428 0 0 -3042 -8316 0c-1296,0 -2171,-224 -2628,-668 -452,-448 -682,-1275 -682,-2491l0 -1473c0,-1215 229,-2042 682,-2491 456,-444 1332,-668 2628,-668l7571 0c1253,0 2119,216 2593,642 478,431 715,1193 715,2287l0 276 -2740 646 0 -1517zm9353 11009l0 -13343 3107 0 0 13343 -3107 0zm21483 -11009l-8734 0 0 2865 8316 0c1305,0 2188,224 2645,668 461,448 689,1276 689,2491l0 1831c0,1211 -228,2038 -689,2486 -457,444 -1340,668 -2645,668l-8239 0c-1305,0 -2188,-224 -2645,-668 -461,-448 -689,-1275 -689,-2486l0 -365 2740 -570 0 1578 9428 0 0 -3042 -8316 0c-1296,0 -2171,-224 -2628,-668 -452,-448 -682,-1275 -682,-2491l0 -1473c0,-1215 229,-2042 682,-2491 456,-444 1332,-668 2628,-668l7571 0c1253,0 2119,216 2593,642 478,431 715,1193 715,2287l0 276 -2740 646 0 -1517zm15566 52l0 10957 -3106 0 0 -10957 -6122 0 0 -2387 15377 0 0 2387 -6148 0zm11612 5631l5843 0 -2878 -5429 -2965 5429zm-5971 5325l7549 -13343 2990 0 7652 13343 -3485 0 -1603 -2912 -8458 0 -1551 2912 -3094 0zm22457 0l0 -13343 2120 0 9397 7863c319,263 599,509 845,741 245,232 465,469 668,711 -48,-750 -83,-1280 -99,-1590 -18,-310 -26,-552 -26,-719l0 -7006 2788 0 0 13343 -2120 0 -9798 -8242c-237,-211 -444,-401 -621,-570 -176,-168 -340,-340 -491,-516 39,409 73,801 95,1167 21,366 30,680 30,952l0 7209 -2788 0zm33693 -10957l-8368 0 0 8445 8368 0 0 -2865 3107 642 0 1581c0,1220 -229,2051 -690,2491 -456,444 -1332,664 -2619,664l-7963 0c-1297,0 -2171,-220 -2629,-664 -452,-440 -680,-1271 -680,-2491l0 -7031c0,-1215 228,-2042 680,-2491 457,-444 1332,-668 2629,-668l7963 0c1288,0 2163,224 2619,668 461,448 690,1275 690,2491l0 1261 -3107 492 0 -2525zm9505 10957l0 -13343 13663 0 0 2271 -10556 0 0 2982 6161 0 0 2271 -6161 0 0 3309 10681 0 0 2511 -13788 0zm-165347 13961l0 8610 -2440 0 0 -8610 -4811 0 0 -1875 12083 0 0 1875 -4831 0zm7597 606c0,-955 179,-1605 535,-1957 359,-349 1046,-524 2065,-524l7711 0c1020,0 1706,176 2065,524 355,352 535,1002 535,1957l0 5525c0,958 -180,1611 -535,1957 -359,349 -1046,521 -2065,521l-7711 0c-1020,0 -1706,-173 -2065,-521 -356,-345 -535,-999 -535,-1957l0 -5525zm2441 6030l8040 0 0 -6636 -8040 0 0 6636zm25915 -8511l0 8511 6950 0 0 -8511 2431 0 0 8007c0,958 -180,1611 -535,1957 -359,349 -1047,521 -2065,521l-6621 0c-1012,0 -1700,-173 -2059,-521 -362,-345 -541,-999 -541,-1957l0 -8007 2441 0zm18288 10484l-6060 -10484 2786 0 4246 7579 4045 -7579 2431 0 -5762 10484 -1685 0zm26047 -8670l-5488 0 0 2919 5488 0c423,0 711,-61 867,-183 155,-121 233,-338 233,-650l0 -1263c0,-305 -79,-518 -233,-640 -156,-122 -444,-183 -867,-183zm-7888 8670l0 -10484 8968 0c833,0 1436,159 1811,481 373,321 559,840 559,1550l0 2464c0,708 -186,1223 -559,1544 -375,325 -978,488 -1811,488l-1367 0 4838 3957 -3501 0 -4225 -3957 -2312 0 0 3957 -2400 0zm18251 -4184l4591 0 -2261 -4266 -2329 4266zm-4692 4184l5931 -10484 2349 0 6013 10484 -2739 0 -1259 -2288 -6646 0 -1220 2288 -2430 0zm20106 -1973l3154 0c1679,0 2868,-261 3569,-782 700,-526 1053,-1388 1053,-2590 0,-1073 -291,-1882 -874,-2434 -582,-552 -1442,-830 -2580,-830l-4323 0 0 6636zm-2441 1973l0 -10484 6747 0c1923,0 3402,450 4439,1347 1032,900 1550,2176 1550,3828 0,982 -203,1862 -606,2644 -403,785 -972,1402 -1706,1852 -453,285 -1023,491 -1699,620 -677,129 -1547,193 -2604,193l-6121 0zm17209 0l0 -10484 2441 0 0 10484 -2441 0zm10486 -4184l4591 0 -2261 -4266 -2329 4266zm-4692 4184l5931 -10484 2349 0 6013 10484 -2739 0 -1259 -2288 -6646 0 -1220 2288 -2430 0zm21169 -8610l0 8610 -2440 0 0 -8610 -4811 0 0 -1875 12083 0 0 1875 -4831 0zm7814 8610l0 -10484 2441 0 0 10484 -2441 0zm7580 -8003c0,-955 179,-1605 535,-1957 359,-349 1046,-524 2065,-524l7711 0c1020,0 1706,176 2065,524 355,352 535,1002 535,1957l0 5525c0,958 -180,1611 -535,1957 -359,349 -1046,521 -2065,521l-7711 0c-1020,0 -1706,-173 -2065,-521 -356,-345 -535,-999 -535,-1957l0 -5525zm2441 6030l8040 0 0 -6636 -8040 0 0 6636zm15590 1973l0 -10484 1666 0 7384 6179c250,206 470,399 663,582 194,182 366,369 526,558 -38,-588 -65,-1005 -79,-1249 -14,-244 -20,-433 -20,-565l0 -5504 2190 0 0 10484 -1666 0 -7699 -6476c-185,-166 -349,-315 -487,-447 -139,-132 -268,-268 -386,-406 30,321 58,629 74,917 17,288 24,535 24,749l0 5664 -2190 0z"/>
 </g>
 <g id="Layer_x0020_1_0">
  <metadata id="CorelCorpID_1Corel-Layer"/>
  <polygon class="fil1" points="0,694901 695739,694901 695739,0 0,0 "/>
  <path class="fil2" d="M365352 396339c1884,314 3559,1466 4606,2931 1047,1466 1466,3350 1152,5339 -314,1884 -1466,3559 -2931,4606 -1466,1047 -3350,1466 -5339,1152 -1884,-314 -3559,-1466 -4606,-2931 -1047,-1466 -1466,-3350 -1152,-5339 314,-1884 1466,-3559 2931,-4606 628,-419 1256,-733 1989,-942l-48888 -115573 -628 -1361 1466 0 231354 0 0 1989 -229889 0 48469 114631c419,0 838,0 1256,105l209 0zm2931 4083c-733,-1047 -1884,-1884 -3245,-2094 -1361,-209 -2722,105 -3769,838 -1047,733 -1884,1884 -2094,3245 -209,1361 105,2722 838,3769 733,1047 1884,1884 3245,2094 1361,209 2722,-105 3769,-838 1047,-733 1884,-1884 2094,-3245 209,-1361 -105,-2722 -838,-3769z"/>
 </g>
</svg>
