<?xml version="1.0" encoding="UTF-8"?>
<!DOCTYPE svg PUBLIC "-//W3C//DTD SVG 1.1//EN" "http://www.w3.org/Graphics/SVG/1.1/DTD/svg11.dtd">
<!-- Creator: CorelDRAW X5 -->
<svg xmlns="http://www.w3.org/2000/svg" xml:space="preserve" width="66.4586mm" height="66.3786mm" style="shape-rendering:geometricPrecision; text-rendering:geometricPrecision; image-rendering:optimizeQuality; fill-rule:evenodd; clip-rule:evenodd"
viewBox="0 0 695739 694901"
 xmlns:xlink="http://www.w3.org/1999/xlink">
 <defs>
  <style type="text/css">
   <![CDATA[
    .fil1 {fill:none}
    .fil0 {fill:#FEFEFE;fill-rule:nonzero}
    .fil2 {fill:#FEFEFE;fill-rule:nonzero}
   ]]>
  </style>
 </defs>
 <g id="Layer_x0020_1">
  <metadata id="CorelCorpID_0Corel-Layer"/>
  <path class="fil0" d="M169937 137408l-5488 0 0 2779 5488 0c423,0 711,-61 867,-182 155,-122 233,-339 233,-650l0 -1124c0,-305 -79,-518 -233,-640 -156,-122 -444,-183 -867,-183zm-7888 8670l0 -10484 8968 0c833,0 1436,159 1811,481 373,321 559,840 559,1550l0 2343c0,708 -186,1222 -559,1544 -375,321 -978,481 -1811,481l-6567 0 0 4086 -2400 0zm22984 -8670l-5488 0 0 2919 5488 0c423,0 711,-61 867,-183 155,-121 233,-338 233,-650l0 -1263c0,-305 -79,-518 -233,-640 -156,-122 -444,-183 -867,-183zm-7888 8670l0 -10484 8968 0c833,0 1436,159 1811,481 373,321 559,840 559,1550l0 2464c0,708 -186,1223 -559,1544 -375,325 -978,488 -1811,488l-1367 0 4838 3957 -3501 0 -4225 -3957 -2312 0 0 3957 -2400 0zm16287 0l0 -10484 2441 0 0 10484 -2441 0zm7777 0l0 -10484 1666 0 7384 6179c250,206 470,399 663,582 194,182 366,369 526,558 -38,-588 -65,-1005 -79,-1249 -14,-244 -20,-433 -20,-565l0 -5504 2190 0 0 10484 -1666 0 -7699 -6476c-185,-166 -349,-315 -487,-447 -139,-132 -268,-268 -386,-406 30,321 58,629 74,917 17,288 24,535 24,749l0 5664 -2190 0zm22556 -8610l0 8610 -2440 0 0 -8610 -4811 0 0 -1875 12083 0 0 1875 -4831 0zm18277 -1576c0,-1215 228,-2042 680,-2491 457,-444 1332,-668 2629,-668l9814 0c1297,0 2172,224 2629,668 452,448 680,1275 680,2491l0 7031c0,1220 -228,2051 -680,2491 -456,444 -1332,664 -2629,664l-9814 0c-1297,0 -2171,-220 -2629,-664 -452,-440 -680,-1271 -680,-2491l0 -7031zm3106 7674l10233 0 0 -8445 -10233 0 0 8445zm19841 2511l0 -13343 2120 0 9397 7863c319,263 599,509 845,741 245,232 465,469 668,711 -48,-750 -83,-1280 -99,-1590 -18,-310 -26,-552 -26,-719l0 -7006 2788 0 0 13343 -2120 0 -9798 -8242c-237,-211 -444,-401 -621,-570 -176,-168 -340,-340 -491,-516 39,409 73,801 95,1167 21,366 30,680 30,952l0 7209 -2788 0zm32503 0l0 -13343 13663 0 0 2271 -10556 0 0 2982 6161 0 0 2271 -6161 0 0 3309 10681 0 0 2511 -13788 0zm24021 0l-7712 -13343 3547 0 5403 9647 5149 -9647 3094 0 -7333 13343 -2146 0zm13103 0l0 -13343 13663 0 0 2271 -10556 0 0 2982 6161 0 0 2271 -6161 0 0 3309 10681 0 0 2511 -13788 0zm29553 -11034l-6984 0 0 3713 6984 0c538,0 905,-77 1103,-232 198,-155 297,-430 297,-827l0 -1607c0,-388 -99,-660 -297,-814 -199,-155 -565,-232 -1103,-232zm-10040 11034l0 -13343 11414 0c1059,0 1827,202 2305,611 473,409 711,1069 711,1973l0 3136c0,901 -238,1556 -711,1965 -478,414 -1246,621 -2305,621l-1741 0 6157 5037 -4454 0 -5377 -5037 -2943 0 0 5037 -3056 0zm23999 0l0 -5971 -6928 -7372 4141 0 4580 5127 4597 -5127 3649 0 -6906 7299 0 6045 -3133 0zm23629 0l0 -13343 2511 0 6286 8065 6148 -8065 2486 0 0 13343 -2878 0 0 -8242c0,-160 8,-362 29,-608 22,-245 52,-516 83,-819 -169,345 -315,629 -440,849 -126,224 -242,409 -340,552l-5011 6665 -621 0 -5023 -6692c-185,-253 -345,-491 -474,-715 -130,-220 -238,-440 -323,-646 26,275 47,530 61,754 13,228 17,448 17,660l0 8242 -2511 0zm27381 -5325l5843 0 -2878 -5429 -2965 5429zm-5971 5325l7549 -13343 2990 0 7652 13343 -3485 0 -1603 -2912 -8458 0 -1551 2912 -3094 0zm26941 -10957l0 10957 -3106 0 0 -10957 -6122 0 0 -2387 15377 0 0 2387 -6148 0zm9944 10957l0 -13343 13663 0 0 2271 -10556 0 0 2982 6161 0 0 2271 -6161 0 0 3309 10681 0 0 2511 -13788 0zm29553 -11034l-6984 0 0 3713 6984 0c538,0 905,-77 1103,-232 198,-155 297,-430 297,-827l0 -1607c0,-388 -99,-660 -297,-814 -199,-155 -565,-232 -1103,-232zm-10040 11034l0 -13343 11414 0c1059,0 1827,202 2305,611 473,409 711,1069 711,1973l0 3136c0,901 -238,1556 -711,1965 -478,414 -1246,621 -2305,621l-1741 0 6157 5037 -4454 0 -5377 -5037 -2943 0 0 5037 -3056 0zm20728 0l0 -13343 3107 0 0 13343 -3107 0zm13343 -5325l5843 0 -2878 -5429 -2965 5429zm-5971 5325l7549 -13343 2990 0 7652 13343 -3485 0 -1603 -2912 -8458 0 -1551 2912 -3094 0zm22482 0l0 -13343 3107 0 0 10832 10009 0 0 2511 -13116 0z"/>
 </g>
 <g id="Layer_x0020_1_0">
  <metadata id="CorelCorpID_1Corel-Layer"/>
  <polygon class="fil1" points="0,694901 695739,694901 695739,0 0,0 "/>
  <path class="fil2" d="M229889 367551c1989,0 3769,838 5025,2094l0 0c1256,1256 2094,3036 2094,5025 0,1989 -838,3769 -2094,5025l0 0c-1256,1256 -3036,2094 -5025,2094 -1989,0 -3769,-838 -5025,-2094l0 0c-1256,-1256 -2094,-3036 -2094,-5025 0,-1989 838,-3769 2094,-5025l0 0c628,-628 1361,-1152 2094,-1466l-65952 -194401 -419 -1361 1361 0 347241 209 0 1989 -345880 -209 65533 193144c314,0 628,-105 942,-105l105 105zm3559 3455c-942,-942 -2198,-1466 -3559,-1466 -1361,0 -2722,523 -3559,1466 -942,942 -1466,2198 -1466,3559 0,1361 523,2722 1466,3559 942,942 2198,1466 3559,1466 1361,0 2722,-523 3559,-1466 942,-942 1466,-2198 1466,-3559 0,-1361 -523,-2722 -1466,-3559z"/>
 </g>
</svg>
