<?xml version="1.0" encoding="UTF-8"?>
<!DOCTYPE svg PUBLIC "-//W3C//DTD SVG 1.1//EN" "http://www.w3.org/Graphics/SVG/1.1/DTD/svg11.dtd">
<!-- Creator: CorelDRAW X5 -->
<svg xmlns="http://www.w3.org/2000/svg" xml:space="preserve" width="44mm" height="19mm" style="shape-rendering:geometricPrecision; text-rendering:geometricPrecision; image-rendering:optimizeQuality; fill-rule:evenodd; clip-rule:evenodd"
viewBox="0 0 4400 1900"
 xmlns:xlink="http://www.w3.org/1999/xlink">
 <defs>
  <style type="text/css">
   <![CDATA[
    .str1 {stroke:#FEFEFE;stroke-width:17.64;stroke-opacity:0.380392}
    .str0 {stroke:#FEFEFE;stroke-width:17.64}
    .str2 {stroke:#FFED00;stroke-width:52.92}
    .fil0 {fill:none}
    .fil2 {fill:#727271;fill-rule:nonzero}
    .fil3 {fill:#9D9E9E;fill-rule:nonzero}
    .fil1 {fill:#2B2A29;fill-opacity:0.380392}
   ]]>
  </style>
 </defs>
 <g id="Layer_x0020_1">
  <metadata id="CorelCorpID_0Corel-Layer"/>
  <g id="_517194784">
   <rect class="fil0 str0" x="32" y="49" width="4337" height="1802" rx="365" ry="365"/>
   <path class="fil1 str1" d="M397 49l3606 0c201,0 365,164 365,365l0 1072c0,201 -164,365 -365,365l-3606 0c-201,0 -365,-164 -365,-365l0 -1072c0,-201 164,-365 365,-365z"/>
   <g>
    <path class="fil2" d="M3808 674l0 0 -5 -157c-252,196 -424,340 -757,598l0 226 746 -650c10,-6 13,-9 16,-16z"/>
    <path class="fil3" d="M3037 1103c252,-202 508,-400 752,-592l-1729 0 -15 6 0 -3 -1170 589c723,0 1435,0 2161,0z"/>
    <path class="fil2" d="M844 1118l0 229 27 0 2160 0 0 -229c-729,0 -1458,0 -2188,0z"/>
   </g>
   <line class="fil0 str2" x1="876" y1="1103" x2="2061" y2= "511" />
   <line class="fil0 str0" x1="1014" y1="1103" x2="322" y2= "1103" />
   <line class="fil0 str0" x1="2030" y1="522" x2="1552" y2= "522" />
   <line class="fil0 str0" x1="1859" y1="451" x2="391" y2= "1155" />
  </g>
 </g>
</svg>
