<?xml version="1.0" encoding="UTF-8"?>
<!DOCTYPE svg PUBLIC "-//W3C//DTD SVG 1.1//EN" "http://www.w3.org/Graphics/SVG/1.1/DTD/svg11.dtd">
<!-- Creator: CorelDRAW X5 -->
<svg xmlns="http://www.w3.org/2000/svg" xml:space="preserve" width="44mm" height="19mm" style="shape-rendering:geometricPrecision; text-rendering:geometricPrecision; image-rendering:optimizeQuality; fill-rule:evenodd; clip-rule:evenodd"
viewBox="0 0 4400 1900"
 xmlns:xlink="http://www.w3.org/1999/xlink">
 <defs>
  <style type="text/css">
   <![CDATA[
    .str1 {stroke:#2B2A29;stroke-width:7.62}
    .str0 {stroke:#FEFEFE;stroke-width:17.64;stroke-opacity:0.380392}
    .str2 {stroke:#FEFEFE;stroke-width:17.64}
    .fil3 {fill:none}
    .fil1 {fill:#727271;fill-rule:nonzero}
    .fil2 {fill:#9D9E9E;fill-rule:nonzero}
    .fil0 {fill:#2B2A29;fill-opacity:0.380392}
   ]]>
  </style>
 </defs>
 <g id="Layer_x0020_1">
  <metadata id="CorelCorpID_0Corel-Layer"/>
  <g id="_521353056">
   <path class="fil0 str0" d="M397 49l3606 0c201,0 365,164 365,365l0 1072c0,201 -164,365 -365,365l-3606 0c-201,0 -365,-164 -365,-365l0 -1072c0,-201 164,-365 365,-365z"/>
   <g>
    <path class="fil1 str1" d="M3203 1169l0 0 0 -108 -192 120 0 0 -106 66 0 0 -196 122 0 155 484 -343c7,-4 9,-6 11,-11z"/>
    <path class="fil2 str1" d="M2702 1361l206 -128 0 0 16 -10 0 0 267 -166 -1187 0 -10 4 0 -2 -776 302c496,0 985,0 1483,0z"/>
    <path class="fil1 str1" d="M1197 1371l0 157 19 0 1483 0 0 -157c-500,0 -1001,0 -1501,0z"/>
    <path class="fil1 str1" d="M3203 826l0 0 0 -108 -192 120 0 0 -106 66 0 0 -196 122 0 155 484 -343c7,-4 9,-6 11,-11z"/>
    <path class="fil2 str1" d="M2702 1018l206 -128 0 0 16 -10 0 0 267 -166 -1187 0 -10 4 0 -2 -776 302c496,0 985,0 1483,0z"/>
    <path class="fil1 str1" d="M1197 1028l0 157 19 0 1483 0 0 -157c-500,0 -1001,0 -1501,0z"/>
    <path class="fil1 str1" d="M3203 484l0 0 0 -108 -192 120 0 0 -106 66 0 0 -196 122 0 155 484 -343c7,-4 9,-6 11,-11z"/>
    <path class="fil2 str1" d="M2702 676l206 -128 0 0 16 -10 0 0 267 -166 -1187 0 -10 4 0 -2 -776 302c496,0 985,0 1483,0z"/>
    <path class="fil1 str1" d="M1197 686l0 157 19 0 1483 0 0 -157c-500,0 -1001,0 -1501,0z"/>
   </g>
   <rect class="fil3 str2" x="32" y="49" width="4337" height="1802" rx="365" ry="365"/>
  </g>
 </g>
</svg>
