<?xml version="1.0" encoding="UTF-8"?>
<!DOCTYPE svg PUBLIC "-//W3C//DTD SVG 1.1//EN" "http://www.w3.org/Graphics/SVG/1.1/DTD/svg11.dtd">
<!-- Creator: CorelDRAW X5 -->
<svg xmlns="http://www.w3.org/2000/svg" xml:space="preserve" width="71mm" height="28mm" style="shape-rendering:geometricPrecision; text-rendering:geometricPrecision; image-rendering:optimizeQuality; fill-rule:evenodd; clip-rule:evenodd"
viewBox="0 0 7100 2800"
 xmlns:xlink="http://www.w3.org/1999/xlink">
 <defs>
  <style type="text/css">
   <![CDATA[
    .str0 {stroke:#FEFEFE;stroke-width:7.62}
    .fil3 {fill:none}
    .fil1 {fill:none;fill-rule:nonzero}
    .fil2 {fill:#FEFEFE}
    .fil0 {fill:#FEFEFE;fill-rule:nonzero}
   ]]>
  </style>
 </defs>
 <g id="Layer_x0020_1">
  <metadata id="CorelCorpID_0Corel-Layer"/>
  <g id="_504753400">
   <path class="fil0" d="M2390 1787c0,32 -2,58 -6,81 -4,22 -11,40 -21,54 -10,14 -24,24 -42,30 -18,6 -40,9 -68,9 -12,0 -24,-1 -37,-3 -13,-2 -24,-4 -35,-7 -10,-3 -19,-6 -26,-10 -7,-4 -10,-7 -10,-11 0,-2 1,-4 3,-6 2,-2 5,-2 8,-2 2,0 4,0 7,1 3,1 6,2 9,3 3,1 7,2 10,3 3,1 6,2 10,2 8,2 18,4 28,5 10,2 21,2 32,2 18,0 34,-1 48,-4 14,-3 26,-9 35,-19 10,-10 17,-25 22,-44 5,-19 8,-46 8,-79 -3,2 -8,3 -13,5 -5,2 -12,3 -19,5 -8,1 -17,2 -28,3 -11,1 -24,1 -39,1 -22,0 -42,-1 -59,-4 -17,-3 -31,-8 -42,-15 -11,-7 -20,-17 -26,-30 -6,-13 -9,-29 -9,-49 0,-12 2,-24 7,-36 5,-12 12,-22 22,-31 10,-9 24,-16 41,-21 17,-5 37,-8 62,-8 23,0 43,3 59,9 16,6 29,16 39,29 10,14 17,32 22,54 4,22 7,50 7,82zm-23 -9c0,-27 -2,-50 -5,-69 -4,-19 -9,-33 -18,-44 -8,-11 -19,-19 -32,-24 -13,-5 -30,-7 -49,-7 -21,0 -39,2 -52,7 -14,4 -25,10 -33,17 -8,7 -14,15 -17,25 -3,9 -5,19 -5,29 0,17 2,31 7,40 5,10 12,18 21,23 9,5 21,9 35,10 14,2 31,2 50,2 13,0 24,0 34,0 10,0 19,-1 27,-1 8,-1 15,-2 21,-3 6,-1 12,-2 17,-4z"/>
   <path id="1" class="fil0" d="M2506 1783c-4,0 -6,-1 -8,-3 -2,-2 -3,-4 -3,-7 0,-2 1,-5 3,-7 2,-2 4,-3 8,-3l43 0c19,0 35,-2 48,-6 13,-4 23,-9 31,-15 8,-6 13,-13 16,-21 3,-8 5,-16 5,-24 0,-8 -1,-15 -4,-23 -2,-8 -7,-15 -14,-21 -7,-6 -16,-11 -28,-15 -12,-4 -28,-6 -47,-6 -11,0 -22,1 -33,2 -11,2 -21,3 -29,5 -9,2 -16,4 -21,5 -5,1 -8,2 -8,3 -4,1 -6,1 -8,1 -3,0 -6,-1 -8,-2 -2,-1 -3,-3 -3,-6 0,-4 3,-8 10,-11 7,-4 16,-7 26,-10 11,-3 22,-5 35,-7 12,-2 24,-2 36,-2 24,0 44,2 59,8 15,5 27,12 36,20 9,8 15,17 18,28 3,10 5,21 5,31 0,7 -1,15 -4,23 -2,8 -7,15 -13,23 -6,7 -14,13 -25,19 -10,5 -24,9 -39,10 16,2 30,6 41,11 11,5 20,12 27,19 7,8 12,17 15,27 3,10 5,21 5,33 0,14 -2,27 -6,39 -4,12 -11,23 -21,32 -10,9 -22,16 -39,21 -16,5 -36,8 -60,8 -12,0 -24,-1 -37,-3 -13,-2 -24,-4 -35,-7 -10,-3 -19,-6 -26,-10 -7,-4 -10,-7 -10,-11 0,-2 1,-4 3,-6 2,-2 5,-2 8,-2 2,0 4,0 7,1 3,1 6,2 9,3 3,1 7,2 10,3 3,1 7,2 10,2 8,2 18,4 28,5 10,2 21,2 32,2 21,0 38,-2 51,-6 14,-4 24,-9 32,-16 8,-7 14,-15 17,-25 3,-10 5,-21 5,-32 0,-10 -2,-20 -5,-29 -3,-9 -9,-18 -17,-25 -8,-7 -19,-13 -34,-17 -14,-4 -32,-7 -53,-7l-43 0z"/>
   <path id="12" class="fil0" d="M2850 1799c3,0 5,1 6,4 1,2 2,5 2,8 0,2 -1,5 -2,7 -1,2 -3,4 -6,4l-108 0c-3,0 -5,-1 -6,-4 -1,-2 -2,-5 -2,-7 0,-3 1,-5 2,-8 1,-3 3,-4 6,-4l108 0z"/>
   <path id="123" class="fil0" d="M2981 1934c0,3 0,5 0,8 0,2 0,5 -1,7 -1,2 -2,4 -3,5 -1,1 -3,2 -6,2 -3,0 -5,-1 -7,-2 -1,-1 -3,-3 -3,-5 -1,-2 -1,-4 -1,-7 0,-3 0,-5 0,-8l0 -294 -47 0c-2,0 -4,0 -6,0 -2,0 -4,0 -6,-1 -2,-1 -3,-1 -5,-3 -1,-1 -2,-3 -2,-5 0,-3 1,-5 2,-7 1,-2 3,-3 5,-4 2,-1 4,-1 6,-1 2,0 4,0 6,0l58 0c3,0 5,1 7,2 1,1 2,3 3,5 1,2 1,4 1,7 0,3 0,5 0,7l0 294z"/>
   <path id="1234" class="fil0" d="M3118 1934c0,3 0,5 0,8 0,2 0,5 -1,7 -1,2 -2,4 -3,5 -1,1 -3,2 -6,2 -3,0 -5,-1 -7,-2 -1,-1 -3,-3 -3,-5 -1,-2 -1,-4 -1,-7 0,-3 0,-5 0,-8l0 -294 -47 0c-2,0 -4,0 -6,0 -2,0 -4,0 -6,-1 -2,-1 -3,-1 -5,-3 -1,-1 -2,-3 -2,-5 0,-3 1,-5 2,-7 1,-2 3,-3 5,-4 2,-1 4,-1 6,-1 2,0 4,0 6,0l58 0c3,0 5,1 7,2 1,1 2,3 3,5 1,2 1,4 1,7 0,3 0,5 0,7l0 294z"/>
   <path id="12345" class="fil0" d="M3475 1840c0,4 -2,7 -7,8 -5,1 -11,2 -18,2 -3,0 -6,0 -9,0 -3,0 -7,0 -10,0l-44 0 0 84c0,3 0,5 0,8 0,2 -1,5 -1,7 -1,2 -2,4 -3,5 -1,1 -3,2 -6,2 -3,0 -5,-1 -7,-2 -2,-1 -3,-3 -3,-5 -1,-2 -1,-4 -1,-7 0,-3 0,-5 0,-8l0 -84 -153 0c-5,0 -10,-1 -13,-2 -3,-1 -5,-3 -7,-5 -1,-2 -2,-4 -2,-7 0,-3 0,-5 0,-8l0 -190c0,-2 0,-5 0,-7 0,-2 1,-5 1,-7 1,-2 2,-4 3,-5 2,-1 4,-2 7,-2 3,0 5,1 6,2 1,1 2,3 3,5 1,2 1,4 1,6 0,2 0,5 0,7l0 190 153 0 0 -189c0,-3 0,-5 0,-8 0,-2 0,-5 1,-7 1,-2 2,-4 3,-5 1,-1 4,-2 7,-2 3,0 5,1 6,2 1,1 2,3 3,5 1,2 1,4 1,7 0,3 0,5 0,8l0 189 66 0c3,0 6,0 9,0 3,0 5,0 7,1 2,1 3,2 4,3 1,1 2,4 2,7z"/>
   <path id="123456" class="fil0" d="M3610 1786l71 -28 0 -117c0,-6 1,-11 2,-15 1,-4 4,-6 10,-6 5,0 8,2 8,6 1,4 1,9 1,15l0 108 110 -45 6 19 -116 48 0 164 220 0c3,0 6,0 8,0 2,0 5,0 7,1 2,1 4,2 5,3 1,1 2,3 2,6 0,3 -1,5 -2,6 -1,1 -3,3 -5,3 -2,1 -4,1 -7,1 -3,0 -5,0 -8,0l-230 0c-3,0 -5,0 -7,0 -2,0 -3,-1 -4,-2 -1,-1 -1,-3 -1,-6 0,-3 0,-7 0,-13l0 -155 -64 25 -6 -19z"/>
   <path id="1234567" class="fil0" d="M4141 1959c-28,0 -51,-3 -70,-8 -19,-5 -35,-13 -46,-24 -12,-10 -20,-23 -25,-37 -5,-15 -8,-31 -8,-50 0,-21 3,-40 9,-55 6,-15 15,-28 27,-38 12,-10 28,-17 47,-22 19,-5 41,-7 67,-7 26,0 48,2 67,7 19,5 34,12 47,22 12,10 22,22 28,38 6,15 9,34 9,55 0,18 -3,35 -8,50 -5,15 -14,27 -25,37 -12,10 -27,18 -46,24 -19,6 -43,8 -70,8zm0 -18c18,0 34,-1 47,-4 13,-3 25,-7 34,-11 9,-5 17,-11 23,-17 6,-7 10,-14 14,-21 3,-8 5,-15 7,-24 1,-8 2,-16 2,-25 0,-19 -2,-35 -7,-48 -5,-13 -12,-24 -23,-32 -10,-8 -23,-14 -39,-18 -16,-4 -35,-6 -57,-6 -22,0 -41,2 -57,6 -16,4 -29,10 -39,18 -10,8 -18,19 -23,32 -5,13 -7,29 -7,48 0,8 1,16 2,25 1,8 3,16 7,24 3,8 8,15 14,21 6,6 13,12 23,17 9,5 21,9 34,11 13,3 29,4 47,4zm26 -371c2,-2 5,-3 8,-3 2,0 4,1 7,2 2,1 4,3 6,4 2,2 3,4 5,6 1,2 2,4 2,7 0,3 -1,6 -5,8l-88 72c-2,1 -3,2 -5,2 -2,0 -4,-1 -6,-2 -2,-2 -2,-3 -2,-6 0,-2 1,-4 2,-5l76 -83z"/>
   <path id="12345678" class="fil0" d="M4499 1958c-18,0 -35,-2 -51,-6 -16,-4 -30,-10 -43,-19 -12,-9 -22,-21 -29,-36 -7,-15 -11,-34 -11,-57 0,-22 3,-41 9,-57 6,-16 15,-28 26,-38 11,-10 25,-17 42,-21 17,-4 36,-7 57,-7 21,0 40,1 55,4 15,2 28,6 39,9 11,4 19,8 26,13 7,4 12,9 16,12l0 -116c0,-3 0,-5 0,-8 0,-3 1,-5 1,-7 1,-2 2,-4 4,-5 2,-1 4,-2 7,-2 3,0 5,1 7,2 2,1 3,3 4,4 1,2 1,4 2,6 0,2 0,5 0,8l0 299c0,6 -1,11 -4,13 -2,2 -5,3 -8,3 -4,0 -6,-1 -9,-3 -2,-2 -4,-6 -4,-13l0 -42c-2,9 -6,17 -12,23 -6,6 -12,12 -20,17 -8,4 -16,8 -25,11 -9,3 -19,5 -28,7 -9,2 -18,2 -27,2 -9,0 -17,0 -23,0zm0 -17c12,0 25,-1 40,-3 14,-2 28,-5 41,-9 13,-4 25,-11 35,-18 10,-8 17,-18 21,-31l0 -109c-5,-4 -11,-7 -18,-11 -7,-4 -16,-8 -27,-11 -11,-4 -24,-6 -39,-9 -15,-2 -32,-3 -53,-3 -19,0 -36,2 -50,6 -14,4 -25,10 -34,19 -9,9 -15,19 -20,33 -4,13 -6,29 -6,47 0,19 3,35 9,48 6,13 14,23 23,31 10,8 22,13 35,17 13,3 28,5 43,5z"/>
   <path id="123456789" class="fil0" d="M4753 1956c-3,0 -6,-1 -9,-4 -2,-3 -4,-6 -4,-10 0,-5 3,-10 8,-15l207 -183 -195 0c-3,0 -6,0 -8,0 -3,0 -5,0 -7,-1 -2,-1 -4,-2 -5,-3 -1,-1 -2,-3 -2,-6 0,-3 1,-5 2,-7 1,-1 3,-2 5,-3 2,-1 4,-1 7,-1 3,0 5,0 8,0l213 0c5,0 9,1 11,4 3,2 4,6 4,9 0,5 -2,10 -7,14l-208 184 198 0c3,0 6,0 8,0 3,0 5,0 7,1 2,1 4,2 5,3 1,2 2,4 2,7 0,2 -1,4 -2,6 -1,1 -3,2 -5,3 -2,1 -4,1 -7,1 -3,0 -5,0 -8,0l-216 0zm136 -386c2,-2 5,-3 8,-3 2,0 4,1 7,2 2,1 4,3 6,4 2,2 3,4 5,6 1,2 2,4 2,7 0,3 -1,6 -5,8l-88 72c-2,1 -3,2 -5,2 -2,0 -4,-1 -6,-2 -2,-2 -2,-3 -2,-6 0,-2 1,-4 2,-5l76 -83z"/>
   <path id="12345678910" class="fil0" d="M1116 2511c-4,5 -10,10 -16,15 -6,5 -15,10 -24,15 -10,4 -21,8 -34,11 -13,3 -28,4 -45,4 -22,0 -40,-2 -55,-6 -15,-4 -28,-11 -37,-19 -10,-9 -17,-20 -21,-34 -4,-14 -7,-30 -7,-49l0 -104c0,-3 0,-5 0,-8 0,-3 1,-5 2,-7 1,-2 2,-4 4,-5 2,-1 4,-2 6,-2 3,0 5,1 7,2 2,1 3,3 4,5 1,2 1,4 1,7 0,3 0,5 0,8l0 104c0,17 1,31 4,43 3,12 8,21 15,28 7,7 17,12 29,15 12,3 28,5 48,5 14,0 27,-1 39,-4 12,-2 23,-5 33,-9 10,-4 19,-8 27,-12 8,-5 15,-9 21,-13l0 -156c0,-3 0,-5 0,-8 0,-3 1,-5 1,-7 1,-2 2,-4 3,-5 2,-1 4,-2 6,-2 3,0 5,1 7,2 2,1 3,3 4,5 1,2 1,4 2,7 0,3 0,5 0,8l0 188c0,3 0,5 0,8 0,2 -1,5 -2,7 -1,2 -2,4 -4,5 -1,1 -4,2 -6,2 -6,0 -9,-2 -11,-6 -2,-4 -2,-8 -2,-13l0 -3 0 -21z"/>
   <path id="1234567891011" class="fil0" d="M1261 2532c0,6 -1,11 -2,15 -1,4 -5,6 -10,6 -3,0 -5,-1 -7,-2 -2,-1 -3,-3 -4,-5 -1,-2 -1,-4 -1,-6 0,-2 0,-5 0,-8l0 -294c0,-3 0,-6 0,-8 0,-3 1,-5 2,-7 1,-2 2,-4 4,-5 2,-1 4,-2 7,-2 2,0 4,1 6,2 2,1 3,3 4,5 1,2 1,4 1,7 0,3 0,5 0,8l0 294z"/>
   <path id="123456789101112" class="fil0" d="M1337 2538c0,-6 2,-11 5,-14 4,-4 8,-5 14,-5 5,0 10,2 14,5 4,4 6,8 6,14 0,6 -2,10 -6,14 -4,3 -9,5 -14,5 -6,0 -11,-2 -14,-5 -4,-3 -5,-8 -5,-14z"/>
   <path id="12345678910111213" class="fil0" d="M1891 2336c0,19 -2,34 -7,47 -5,13 -11,23 -19,32 -8,8 -18,15 -29,19 -11,5 -24,8 -38,10 -14,2 -28,3 -44,3 -16,0 -32,0 -48,0l-90 0 0 83c0,6 -1,11 -2,16 -2,5 -5,7 -9,7 -6,0 -10,-2 -11,-7 -2,-5 -3,-10 -3,-16l0 -302c0,-3 0,-5 1,-7 1,-1 1,-2 3,-3 1,-1 3,-1 5,-1 2,0 4,0 7,0l100 0c18,0 36,0 52,0 16,0 31,2 45,5 14,3 26,7 37,13 11,5 20,13 28,22 8,9 13,20 17,33 4,13 6,28 6,46zm-26 0c0,-21 -3,-38 -9,-51 -6,-13 -16,-23 -29,-31 -13,-7 -29,-12 -49,-15 -20,-3 -44,-4 -71,-4l-90 0 0 193 90 0c27,0 51,-1 71,-3 20,-2 37,-6 49,-12 13,-6 23,-16 29,-28 6,-12 9,-29 9,-50z"/>
   <path id="1234567891011121314" class="fil0" d="M2127 2323c2,1 4,2 5,4 1,2 2,4 2,6 0,3 -1,5 -3,7 -2,2 -4,3 -8,3 -1,0 -2,0 -2,0 0,0 -1,0 -2,-1 -8,-2 -15,-4 -22,-5 -7,-1 -15,-2 -23,-2 -12,0 -23,1 -34,4 -11,2 -21,6 -29,11 -9,5 -16,11 -23,19 -7,8 -11,17 -15,27l0 137c0,5 -1,10 -2,14 -1,4 -5,7 -10,7 -3,0 -5,-1 -7,-2 -2,-1 -3,-3 -4,-5 -1,-2 -1,-4 -1,-7 0,-3 0,-5 0,-8l0 -193c0,-5 1,-9 2,-12 2,-3 5,-5 11,-5 4,0 7,2 9,5 1,3 2,8 2,13l0 37c3,-13 9,-23 17,-31 8,-8 17,-14 27,-19 10,-4 20,-7 30,-9 10,-1 19,-2 27,-2 8,0 14,0 20,1 5,1 10,1 14,2 4,1 8,1 11,2 3,1 6,2 9,2z"/>
   <path id="123456789101112131415" class="fil0" d="M2191 2553c-3,0 -6,-1 -9,-4 -2,-3 -4,-6 -4,-10 0,-5 3,-10 8,-15l207 -183 -195 0c-3,0 -6,0 -8,0 -3,0 -5,0 -7,-1 -2,-1 -4,-2 -5,-3 -1,-1 -2,-3 -2,-6 0,-3 1,-5 2,-7 1,-1 3,-2 5,-3 2,-1 4,-1 7,-1 3,0 5,0 8,0l213 0c5,0 9,1 11,4 3,2 4,6 4,9 0,5 -2,10 -7,14l-208 184 198 0c3,0 6,0 8,0 3,0 5,0 7,1 2,1 4,2 5,3 1,2 2,4 2,7 0,2 -1,4 -2,6 -1,1 -3,2 -5,3 -2,1 -4,1 -7,1 -3,0 -5,0 -8,0l-216 0z"/>
   <path id="12345678910111213141516" class="fil0" d="M2639 2334c-19,0 -35,2 -50,5 -14,3 -27,8 -37,16 -10,7 -18,16 -24,28 -6,11 -9,25 -10,41l228 0 0 -16c0,-10 -2,-20 -6,-28 -4,-9 -10,-17 -18,-23 -8,-7 -19,-12 -33,-16 -14,-4 -31,-6 -50,-6zm-16 205c19,0 36,-1 50,-4 14,-2 27,-5 37,-9 10,-3 19,-7 25,-11 7,-4 12,-7 15,-9 1,0 2,-1 2,-1 2,0 4,1 6,3 2,2 3,4 3,7 0,2 -1,4 -3,5 -2,2 -6,5 -12,8 -6,4 -14,8 -26,12 -11,4 -25,7 -41,10 -16,3 -36,5 -58,5 -23,0 -43,-3 -60,-9 -16,-6 -30,-14 -40,-24 -10,-11 -18,-23 -22,-38 -5,-15 -7,-31 -7,-48 0,-23 4,-43 11,-58 7,-15 18,-28 31,-37 13,-9 28,-16 46,-20 18,-4 37,-6 57,-6 42,0 73,8 94,24 21,16 31,38 31,68 0,3 0,6 -1,9 0,3 -1,7 -2,10 -1,3 -2,6 -2,8 -1,2 -2,3 -3,3l-89 0 -150 0c0,18 3,34 7,47 5,13 11,23 20,31 9,8 20,14 32,18 13,4 28,5 45,5zm109 -2c-7,8 -12,17 -16,25 -4,8 -5,16 -5,22 0,8 2,14 5,17 4,3 7,5 10,5 4,0 8,-1 12,-3 4,-2 7,-4 10,-6l3 3c-3,7 -9,13 -16,17 -7,4 -15,6 -22,6 -3,0 -7,-1 -10,-2 -3,-1 -6,-3 -9,-5 -3,-2 -5,-5 -7,-9 -2,-4 -3,-8 -3,-13 0,-10 4,-19 11,-29 7,-9 17,-19 28,-28l9 0z"/>
   <path id="1234567891011121314151617" class="fil0" d="M2970 2556c-18,0 -35,-2 -51,-6 -16,-4 -30,-10 -43,-19 -12,-9 -22,-21 -29,-36 -7,-15 -11,-34 -11,-57 0,-22 3,-41 9,-57 6,-16 15,-28 26,-38 11,-10 25,-17 42,-21 17,-4 36,-7 57,-7 21,0 40,1 55,4 15,2 28,6 39,9 11,4 19,8 26,13 7,4 12,9 16,12l0 -116c0,-3 0,-5 0,-8 0,-3 1,-5 1,-7 1,-2 2,-4 4,-5 2,-1 4,-2 7,-2 3,0 5,1 7,2 2,1 3,3 4,4 1,2 1,4 2,6 0,2 0,5 0,8l0 299c0,6 -1,11 -4,13 -2,2 -5,3 -8,3 -4,0 -6,-1 -9,-3 -2,-2 -4,-6 -4,-13l0 -42c-2,9 -6,17 -12,23 -6,6 -12,12 -20,17 -8,4 -16,8 -25,11 -9,3 -19,5 -28,7 -9,2 -18,2 -27,2 -9,0 -17,0 -23,0zm0 -17c12,0 25,-1 40,-3 14,-2 28,-5 41,-9 13,-4 25,-11 35,-18 10,-8 17,-18 21,-31l0 -109c-5,-4 -11,-7 -18,-11 -7,-4 -16,-8 -27,-11 -11,-4 -24,-6 -39,-9 -15,-2 -32,-3 -53,-3 -19,0 -36,2 -50,6 -14,4 -25,10 -34,19 -9,9 -15,19 -20,33 -4,13 -6,29 -6,47 0,19 3,35 9,48 6,13 14,23 23,31 10,8 22,13 35,17 13,3 28,5 43,5z"/>
   <path id="123456789101112131415161718" class="fil0" d="M3223 2553c-3,0 -6,-1 -9,-4 -2,-3 -4,-6 -4,-10 0,-5 3,-10 8,-15l207 -183 -195 0c-3,0 -6,0 -8,0 -3,0 -5,0 -7,-1 -2,-1 -4,-2 -5,-3 -1,-1 -2,-3 -2,-6 0,-3 1,-5 2,-7 1,-1 3,-2 5,-3 2,-1 4,-1 7,-1 3,0 5,0 8,0l213 0c5,0 9,1 11,4 3,2 4,6 4,9 0,5 -2,10 -7,14l-208 184 198 0c3,0 6,0 8,0 3,0 5,0 7,1 2,1 4,2 5,3 1,2 2,4 2,7 0,2 -1,4 -2,6 -1,1 -3,2 -5,3 -2,1 -4,1 -7,1 -3,0 -5,0 -8,0l-216 0z"/>
   <path id="12345678910111213141516171819" class="fil0" d="M3554 2486c0,10 2,18 7,25 5,7 12,12 21,16 9,4 19,7 32,9 12,2 25,3 40,3 18,0 33,-1 47,-4 14,-2 26,-6 36,-9 10,-4 19,-8 26,-12 7,-5 13,-9 18,-13l0 -60c-20,-3 -41,-6 -62,-9 -22,-3 -43,-4 -65,-4 -15,0 -29,1 -42,3 -12,2 -22,5 -31,9 -8,4 -15,10 -19,18 -4,8 -7,17 -7,28zm128 -152c-19,0 -36,1 -50,2 -14,1 -25,2 -35,4 -10,2 -18,3 -25,5 -7,2 -13,4 -18,5 -2,0 -5,-1 -7,-4 -2,-2 -3,-5 -3,-8 0,-3 1,-5 4,-6 2,-1 5,-2 11,-4 6,-2 14,-4 25,-6 11,-2 24,-4 40,-5 16,-1 35,-2 57,-2 10,0 20,1 31,2 10,1 20,4 29,7 9,3 17,8 25,14 8,6 14,14 20,23 6,9 10,21 13,35 3,14 5,29 5,48l0 87c0,2 0,5 0,7 0,2 -1,5 -2,7 -1,2 -2,4 -4,5 -2,1 -4,2 -7,2 -5,0 -8,-2 -9,-6 -2,-4 -3,-9 -3,-16l0 -21c-4,5 -9,10 -16,16 -7,5 -15,10 -24,15 -10,4 -22,8 -35,11 -14,3 -30,4 -49,4 -18,0 -34,-1 -49,-4 -15,-3 -29,-7 -40,-12 -11,-6 -20,-13 -27,-22 -7,-9 -10,-20 -10,-32 0,-15 3,-27 9,-36 6,-10 15,-18 26,-23 11,-6 24,-10 38,-12 15,-2 30,-4 47,-4 13,0 25,0 38,0 13,0 25,1 36,3 12,2 22,5 32,7 10,3 18,7 24,11 0,-21 -3,-38 -8,-50 -5,-13 -13,-23 -22,-30 -9,-7 -19,-12 -31,-14 -12,-2 -24,-4 -37,-4z"/>
   <path id="1234567891011121314151617181920" class="fil0" d="M3922 2532c0,6 -1,11 -2,15 -1,4 -5,6 -10,6 -3,0 -5,-1 -7,-2 -2,-1 -3,-3 -4,-5 -1,-2 -1,-4 -1,-6 0,-2 0,-5 0,-8l0 -294c0,-3 0,-6 0,-8 0,-3 1,-5 2,-7 1,-2 2,-4 4,-5 2,-1 4,-2 7,-2 2,0 4,1 6,2 2,1 3,3 4,5 1,2 1,4 1,7 0,3 0,5 0,8l0 294z"/>
   <path id="123456789101112131415161718192021" class="fil0" d="M4286 2532c0,3 0,5 -1,8 0,3 -1,5 -2,7 -1,2 -2,4 -4,5 -2,1 -4,2 -6,2 -3,0 -5,-1 -7,-2 -1,-1 -3,-3 -3,-5 -1,-2 -1,-4 -1,-7 0,-3 0,-5 0,-8l0 -105c0,-16 -1,-29 -4,-41 -2,-12 -7,-21 -14,-29 -7,-8 -16,-14 -28,-17 -12,-4 -28,-6 -47,-6 -12,0 -25,1 -38,3 -13,2 -26,5 -38,10 -12,5 -23,11 -32,19 -9,8 -16,18 -19,30l0 137c0,3 0,5 0,8 0,3 -1,5 -1,7 -1,2 -2,4 -4,5 -2,1 -4,2 -6,2 -3,0 -5,-1 -7,-2 -2,-1 -3,-3 -4,-5 -1,-2 -2,-4 -2,-7 0,-3 0,-5 0,-8l0 -196c0,-3 1,-7 2,-10 1,-3 5,-4 11,-4 5,0 8,1 9,4 1,3 2,6 2,10l0 38c6,-13 14,-23 24,-31 10,-8 21,-14 33,-18 12,-4 24,-7 37,-8 12,-1 24,-2 34,-2 22,0 40,2 55,6 15,4 27,10 36,19 9,9 16,20 20,34 4,14 6,32 6,53l0 105z"/>
   <path id="12345678910111213141516171819202122" class="fil0" d="M4406 2534c0,3 0,5 0,7 0,2 -1,4 -1,6 -1,2 -2,3 -4,4 -2,1 -4,2 -7,2 -6,0 -9,-2 -10,-5 -1,-3 -2,-8 -2,-14l0 -194c0,-5 1,-9 2,-13 1,-4 5,-5 11,-5 5,0 8,2 9,5 1,4 2,8 2,12l0 194zm-28 -281c0,-5 1,-8 5,-12 3,-3 7,-5 11,-5 5,0 9,2 12,5 3,3 5,7 5,12 0,5 -2,8 -5,11 -3,3 -7,4 -12,4 -5,0 -8,-1 -11,-4 -3,-3 -5,-7 -5,-11z"/>
   <path id="1234567891011121314151617181920212223" class="fil0" d="M4523 2486c0,10 2,18 7,25 5,7 12,12 21,16 9,4 19,7 32,9 12,2 25,3 40,3 18,0 33,-1 47,-4 14,-2 26,-6 36,-9 10,-4 19,-8 26,-12 7,-5 13,-9 18,-13l0 -60c-20,-3 -41,-6 -62,-9 -22,-3 -43,-4 -65,-4 -15,0 -29,1 -42,3 -12,2 -22,5 -31,9 -8,4 -15,10 -19,18 -4,8 -7,17 -7,28zm128 -152c-19,0 -36,1 -50,2 -14,1 -25,2 -35,4 -10,2 -18,3 -25,5 -7,2 -13,4 -18,5 -2,0 -5,-1 -7,-4 -2,-2 -3,-5 -3,-8 0,-3 1,-5 4,-6 2,-1 5,-2 11,-4 6,-2 14,-4 25,-6 11,-2 24,-4 40,-5 16,-1 35,-2 57,-2 10,0 20,1 31,2 10,1 20,4 29,7 9,3 17,8 25,14 8,6 14,14 20,23 6,9 10,21 13,35 3,14 5,29 5,48l0 87c0,2 0,5 0,7 0,2 -1,5 -2,7 -1,2 -2,4 -4,5 -2,1 -4,2 -7,2 -5,0 -8,-2 -9,-6 -2,-4 -3,-9 -3,-16l0 -21c-4,5 -9,10 -16,16 -7,5 -15,10 -24,15 -10,4 -22,8 -35,11 -14,3 -30,4 -49,4 -18,0 -34,-1 -49,-4 -15,-3 -29,-7 -40,-12 -11,-6 -20,-13 -27,-22 -7,-9 -10,-20 -10,-32 0,-15 3,-27 9,-36 6,-10 15,-18 26,-23 11,-6 24,-10 38,-12 15,-2 30,-4 47,-4 13,0 25,0 38,0 13,0 25,1 36,3 12,2 22,5 32,7 10,3 18,7 24,11 0,-21 -3,-38 -8,-50 -5,-13 -13,-23 -22,-30 -9,-7 -19,-12 -31,-14 -12,-2 -24,-4 -37,-4z"/>
   <path id="123456789101112131415161718192021222324" class="fil0" d="M5134 2532c0,3 0,5 -1,8 0,3 -1,5 -2,7 -1,2 -2,4 -4,5 -2,1 -4,2 -6,2 -3,0 -5,-1 -7,-2 -1,-1 -3,-3 -3,-5 -1,-2 -1,-4 -1,-7 0,-3 0,-5 0,-8l0 -105c0,-16 -1,-29 -4,-41 -2,-12 -7,-21 -14,-29 -7,-8 -16,-14 -28,-17 -12,-4 -28,-6 -47,-6 -12,0 -25,1 -38,3 -13,2 -26,5 -38,10 -12,5 -23,11 -32,19 -9,8 -16,18 -19,30l0 137c0,3 0,5 0,8 0,3 -1,5 -1,7 -1,2 -2,4 -4,5 -2,1 -4,2 -6,2 -3,0 -5,-1 -7,-2 -2,-1 -3,-3 -4,-5 -1,-2 -2,-4 -2,-7 0,-3 0,-5 0,-8l0 -196c0,-3 1,-7 2,-10 1,-3 5,-4 11,-4 5,0 8,1 9,4 1,3 2,6 2,10l0 38c6,-13 14,-23 24,-31 10,-8 21,-14 33,-18 12,-4 24,-7 37,-8 12,-1 24,-2 34,-2 22,0 40,2 55,6 15,4 27,10 36,19 9,9 16,20 20,34 4,14 6,32 6,53l0 105z"/>
   <path id="12345678910111213141516171819202122232425" class="fil0" d="M5243 2486c0,10 2,18 7,25 5,7 12,12 21,16 9,4 19,7 32,9 12,2 25,3 40,3 18,0 33,-1 47,-4 14,-2 26,-6 36,-9 10,-4 19,-8 26,-12 7,-5 13,-9 18,-13l0 -60c-20,-3 -41,-6 -62,-9 -22,-3 -43,-4 -65,-4 -15,0 -29,1 -42,3 -12,2 -22,5 -31,9 -8,4 -15,10 -19,18 -4,8 -7,17 -7,28zm128 -152c-19,0 -36,1 -50,2 -14,1 -25,2 -35,4 -10,2 -18,3 -25,5 -7,2 -13,4 -18,5 -2,0 -5,-1 -7,-4 -2,-2 -3,-5 -3,-8 0,-3 1,-5 4,-6 2,-1 5,-2 11,-4 6,-2 14,-4 25,-6 11,-2 24,-4 40,-5 16,-1 35,-2 57,-2 10,0 20,1 31,2 10,1 20,4 29,7 9,3 17,8 25,14 8,6 14,14 20,23 6,9 10,21 13,35 3,14 5,29 5,48l0 87c0,2 0,5 0,7 0,2 -1,5 -2,7 -1,2 -2,4 -4,5 -2,1 -4,2 -7,2 -5,0 -8,-2 -9,-6 -2,-4 -3,-9 -3,-16l0 -21c-4,5 -9,10 -16,16 -7,5 -15,10 -24,15 -10,4 -22,8 -35,11 -14,3 -30,4 -49,4 -18,0 -34,-1 -49,-4 -15,-3 -29,-7 -40,-12 -11,-6 -20,-13 -27,-22 -7,-9 -10,-20 -10,-32 0,-15 3,-27 9,-36 6,-10 15,-18 26,-23 11,-6 24,-10 38,-12 15,-2 30,-4 47,-4 13,0 25,0 38,0 13,0 25,1 36,3 12,2 22,5 32,7 10,3 18,7 24,11 0,-21 -3,-38 -8,-50 -5,-13 -13,-23 -22,-30 -9,-7 -19,-12 -31,-14 -12,-2 -24,-4 -37,-4z"/>
   <path id="1234567891011121314151617181920212223242526" class="fil0" d="M5958 2385c0,32 -2,58 -6,81 -4,22 -11,40 -21,54 -10,14 -24,24 -42,30 -18,6 -40,9 -68,9 -12,0 -24,-1 -37,-3 -13,-2 -24,-4 -35,-7 -10,-3 -19,-6 -26,-10 -7,-4 -10,-7 -10,-11 0,-2 1,-4 3,-6 2,-2 5,-2 8,-2 2,0 4,0 7,1 3,1 6,2 9,3 3,1 7,2 10,3 3,1 6,2 10,2 8,2 18,4 28,5 10,2 21,2 32,2 18,0 34,-1 48,-4 14,-3 26,-9 35,-19 10,-10 17,-25 22,-44 5,-19 8,-46 8,-79 -3,2 -8,3 -13,5 -5,2 -12,3 -19,5 -8,1 -17,2 -28,3 -11,1 -24,1 -39,1 -22,0 -42,-1 -59,-4 -17,-3 -31,-8 -42,-15 -11,-7 -20,-17 -26,-30 -6,-13 -9,-29 -9,-49 0,-12 2,-24 7,-36 5,-12 12,-22 22,-31 10,-9 24,-16 41,-21 17,-5 37,-8 62,-8 23,0 43,3 59,9 16,6 29,16 39,29 10,14 17,32 22,54 4,22 7,50 7,82zm-23 -9c0,-27 -2,-50 -5,-69 -4,-19 -9,-33 -18,-44 -8,-11 -19,-19 -32,-24 -13,-5 -30,-7 -49,-7 -21,0 -39,2 -52,7 -14,4 -25,10 -33,17 -8,7 -14,15 -17,25 -3,9 -5,19 -5,29 0,17 2,31 7,40 5,10 12,18 21,23 9,5 21,9 35,10 14,2 31,2 50,2 13,0 24,0 34,0 10,0 19,-1 27,-1 8,-1 15,-2 21,-3 6,-1 12,-2 17,-4z"/>
   <path id="123456789101112131415161718192021222324252627" class="fil0" d="M6267 2385c0,32 -2,58 -6,81 -4,22 -11,40 -21,54 -10,14 -24,24 -42,30 -18,6 -40,9 -68,9 -12,0 -24,-1 -37,-3 -13,-2 -24,-4 -35,-7 -10,-3 -19,-6 -26,-10 -7,-4 -10,-7 -10,-11 0,-2 1,-4 3,-6 2,-2 5,-2 8,-2 2,0 4,0 7,1 3,1 6,2 9,3 3,1 7,2 10,3 3,1 6,2 10,2 8,2 18,4 28,5 10,2 21,2 32,2 18,0 34,-1 48,-4 14,-3 26,-9 35,-19 10,-10 17,-25 22,-44 5,-19 8,-46 8,-79 -3,2 -8,3 -13,5 -5,2 -12,3 -19,5 -8,1 -17,2 -28,3 -11,1 -24,1 -39,1 -22,0 -42,-1 -59,-4 -17,-3 -31,-8 -42,-15 -11,-7 -20,-17 -26,-30 -6,-13 -9,-29 -9,-49 0,-12 2,-24 7,-36 5,-12 12,-22 22,-31 10,-9 24,-16 41,-21 17,-5 37,-8 62,-8 23,0 43,3 59,9 16,6 29,16 39,29 10,14 17,32 22,54 4,22 7,50 7,82zm-23 -9c0,-27 -2,-50 -5,-69 -4,-19 -9,-33 -18,-44 -8,-11 -19,-19 -32,-24 -13,-5 -30,-7 -49,-7 -21,0 -39,2 -52,7 -14,4 -25,10 -33,17 -8,7 -14,15 -17,25 -3,9 -5,19 -5,29 0,17 2,31 7,40 5,10 12,18 21,23 9,5 21,9 35,10 14,2 31,2 50,2 13,0 24,0 34,0 10,0 19,-1 27,-1 8,-1 15,-2 21,-3 6,-1 12,-2 17,-4z"/>
   <path id="12345678910111213141516171819202122232425262728" class="fil1 str0" d="M2390 1787c0,32 -2,58 -6,81 -4,22 -11,40 -21,54 -10,14 -24,24 -42,30 -18,6 -40,9 -68,9 -12,0 -24,-1 -37,-3 -13,-2 -24,-4 -35,-7 -10,-3 -19,-6 -26,-10 -7,-4 -10,-7 -10,-11 0,-2 1,-4 3,-6 2,-2 5,-2 8,-2 2,0 4,0 7,1 3,1 6,2 9,3 3,1 7,2 10,3 3,1 6,2 10,2 8,2 18,4 28,5 10,2 21,2 32,2 18,0 34,-1 48,-4 14,-3 26,-9 35,-19 10,-10 17,-25 22,-44 5,-19 8,-46 8,-79 -3,2 -8,3 -13,5 -5,2 -12,3 -19,5 -8,1 -17,2 -28,3 -11,1 -24,1 -39,1 -22,0 -42,-1 -59,-4 -17,-3 -31,-8 -42,-15 -11,-7 -20,-17 -26,-30 -6,-13 -9,-29 -9,-49 0,-12 2,-24 7,-36 5,-12 12,-22 22,-31 10,-9 24,-16 41,-21 17,-5 37,-8 62,-8 23,0 43,3 59,9 16,6 29,16 39,29 10,14 17,32 22,54 4,22 7,50 7,82zm-23 -9c0,-27 -2,-50 -5,-69 -4,-19 -9,-33 -18,-44 -8,-11 -19,-19 -32,-24 -13,-5 -30,-7 -49,-7 -21,0 -39,2 -52,7 -14,4 -25,10 -33,17 -8,7 -14,15 -17,25 -3,9 -5,19 -5,29 0,17 2,31 7,40 5,10 12,18 21,23 9,5 21,9 35,10 14,2 31,2 50,2 13,0 24,0 34,0 10,0 19,-1 27,-1 8,-1 15,-2 21,-3 6,-1 12,-2 17,-4z"/>
   <path id="1234567891011121314151617181920212223242526272829" class="fil1 str0" d="M2506 1783c-4,0 -6,-1 -8,-3 -2,-2 -3,-4 -3,-7 0,-2 1,-5 3,-7 2,-2 4,-3 8,-3l43 0c19,0 35,-2 48,-6 13,-4 23,-9 31,-15 8,-6 13,-13 16,-21 3,-8 5,-16 5,-24 0,-8 -1,-15 -4,-23 -2,-8 -7,-15 -14,-21 -7,-6 -16,-11 -28,-15 -12,-4 -28,-6 -47,-6 -11,0 -22,1 -33,2 -11,2 -21,3 -29,5 -9,2 -16,4 -21,5 -5,1 -8,2 -8,3 -4,1 -6,1 -8,1 -3,0 -6,-1 -8,-2 -2,-1 -3,-3 -3,-6 0,-4 3,-8 10,-11 7,-4 16,-7 26,-10 11,-3 22,-5 35,-7 12,-2 24,-2 36,-2 24,0 44,2 59,8 15,5 27,12 36,20 9,8 15,17 18,28 3,10 5,21 5,31 0,7 -1,15 -4,23 -2,8 -7,15 -13,23 -6,7 -14,13 -25,19 -10,5 -24,9 -39,10 16,2 30,6 41,11 11,5 20,12 27,19 7,8 12,17 15,27 3,10 5,21 5,33 0,14 -2,27 -6,39 -4,12 -11,23 -21,32 -10,9 -22,16 -39,21 -16,5 -36,8 -60,8 -12,0 -24,-1 -37,-3 -13,-2 -24,-4 -35,-7 -10,-3 -19,-6 -26,-10 -7,-4 -10,-7 -10,-11 0,-2 1,-4 3,-6 2,-2 5,-2 8,-2 2,0 4,0 7,1 3,1 6,2 9,3 3,1 7,2 10,3 3,1 7,2 10,2 8,2 18,4 28,5 10,2 21,2 32,2 21,0 38,-2 51,-6 14,-4 24,-9 32,-16 8,-7 14,-15 17,-25 3,-10 5,-21 5,-32 0,-10 -2,-20 -5,-29 -3,-9 -9,-18 -17,-25 -8,-7 -19,-13 -34,-17 -14,-4 -32,-7 -53,-7l-43 0z"/>
   <path id="123456789101112131415161718192021222324252627282930" class="fil1 str0" d="M2850 1799c3,0 5,1 6,4 1,2 2,5 2,8 0,2 -1,5 -2,7 -1,2 -3,4 -6,4l-108 0c-3,0 -5,-1 -6,-4 -1,-2 -2,-5 -2,-7 0,-3 1,-5 2,-8 1,-3 3,-4 6,-4l108 0z"/>
   <path id="12345678910111213141516171819202122232425262728293031" class="fil1 str0" d="M2981 1934c0,3 0,5 0,8 0,2 0,5 -1,7 -1,2 -2,4 -3,5 -1,1 -3,2 -6,2 -3,0 -5,-1 -7,-2 -1,-1 -3,-3 -3,-5 -1,-2 -1,-4 -1,-7 0,-3 0,-5 0,-8l0 -294 -47 0c-2,0 -4,0 -6,0 -2,0 -4,0 -6,-1 -2,-1 -3,-1 -5,-3 -1,-1 -2,-3 -2,-5 0,-3 1,-5 2,-7 1,-2 3,-3 5,-4 2,-1 4,-1 6,-1 2,0 4,0 6,0l58 0c3,0 5,1 7,2 1,1 2,3 3,5 1,2 1,4 1,7 0,3 0,5 0,7l0 294z"/>
   <path id="1234567891011121314151617181920212223242526272829303132" class="fil1 str0" d="M3118 1934c0,3 0,5 0,8 0,2 0,5 -1,7 -1,2 -2,4 -3,5 -1,1 -3,2 -6,2 -3,0 -5,-1 -7,-2 -1,-1 -3,-3 -3,-5 -1,-2 -1,-4 -1,-7 0,-3 0,-5 0,-8l0 -294 -47 0c-2,0 -4,0 -6,0 -2,0 -4,0 -6,-1 -2,-1 -3,-1 -5,-3 -1,-1 -2,-3 -2,-5 0,-3 1,-5 2,-7 1,-2 3,-3 5,-4 2,-1 4,-1 6,-1 2,0 4,0 6,0l58 0c3,0 5,1 7,2 1,1 2,3 3,5 1,2 1,4 1,7 0,3 0,5 0,7l0 294z"/>
   <path id="123456789101112131415161718192021222324252627282930313233" class="fil1 str0" d="M3475 1840c0,4 -2,7 -7,8 -5,1 -11,2 -18,2 -3,0 -6,0 -9,0 -3,0 -7,0 -10,0l-44 0 0 84c0,3 0,5 0,8 0,2 -1,5 -1,7 -1,2 -2,4 -3,5 -1,1 -3,2 -6,2 -3,0 -5,-1 -7,-2 -2,-1 -3,-3 -3,-5 -1,-2 -1,-4 -1,-7 0,-3 0,-5 0,-8l0 -84 -153 0c-5,0 -10,-1 -13,-2 -3,-1 -5,-3 -7,-5 -1,-2 -2,-4 -2,-7 0,-3 0,-5 0,-8l0 -190c0,-2 0,-5 0,-7 0,-2 1,-5 1,-7 1,-2 2,-4 3,-5 2,-1 4,-2 7,-2 3,0 5,1 6,2 1,1 2,3 3,5 1,2 1,4 1,6 0,2 0,5 0,7l0 190 153 0 0 -189c0,-3 0,-5 0,-8 0,-2 0,-5 1,-7 1,-2 2,-4 3,-5 1,-1 4,-2 7,-2 3,0 5,1 6,2 1,1 2,3 3,5 1,2 1,4 1,7 0,3 0,5 0,8l0 189 66 0c3,0 6,0 9,0 3,0 5,0 7,1 2,1 3,2 4,3 1,1 2,4 2,7z"/>
   <path id="12345678910111213141516171819202122232425262728293031323334" class="fil1 str0" d="M3610 1786l71 -28 0 -117c0,-6 1,-11 2,-15 1,-4 4,-6 10,-6 5,0 8,2 8,6 1,4 1,9 1,15l0 108 110 -45 6 19 -116 48 0 164 220 0c3,0 6,0 8,0 2,0 5,0 7,1 2,1 4,2 5,3 1,1 2,3 2,6 0,3 -1,5 -2,6 -1,1 -3,3 -5,3 -2,1 -4,1 -7,1 -3,0 -5,0 -8,0l-230 0c-3,0 -5,0 -7,0 -2,0 -3,-1 -4,-2 -1,-1 -1,-3 -1,-6 0,-3 0,-7 0,-13l0 -155 -64 25 -6 -19z"/>
   <path id="1234567891011121314151617181920212223242526272829303132333435" class="fil1 str0" d="M4141 1959c-28,0 -51,-3 -70,-8 -19,-5 -35,-13 -46,-24 -12,-10 -20,-23 -25,-37 -5,-15 -8,-31 -8,-50 0,-21 3,-40 9,-55 6,-15 15,-28 27,-38 12,-10 28,-17 47,-22 19,-5 41,-7 67,-7 26,0 48,2 67,7 19,5 34,12 47,22 12,10 22,22 28,38 6,15 9,34 9,55 0,18 -3,35 -8,50 -5,15 -14,27 -25,37 -12,10 -27,18 -46,24 -19,6 -43,8 -70,8zm0 -18c18,0 34,-1 47,-4 13,-3 25,-7 34,-11 9,-5 17,-11 23,-17 6,-7 10,-14 14,-21 3,-8 5,-15 7,-24 1,-8 2,-16 2,-25 0,-19 -2,-35 -7,-48 -5,-13 -12,-24 -23,-32 -10,-8 -23,-14 -39,-18 -16,-4 -35,-6 -57,-6 -22,0 -41,2 -57,6 -16,4 -29,10 -39,18 -10,8 -18,19 -23,32 -5,13 -7,29 -7,48 0,8 1,16 2,25 1,8 3,16 7,24 3,8 8,15 14,21 6,6 13,12 23,17 9,5 21,9 34,11 13,3 29,4 47,4zm26 -371c2,-2 5,-3 8,-3 2,0 4,1 7,2 2,1 4,3 6,4 2,2 3,4 5,6 1,2 2,4 2,7 0,3 -1,6 -5,8l-88 72c-2,1 -3,2 -5,2 -2,0 -4,-1 -6,-2 -2,-2 -2,-3 -2,-6 0,-2 1,-4 2,-5l76 -83z"/>
   <path id="123456789101112131415161718192021222324252627282930313233343536" class="fil1 str0" d="M4499 1958c-18,0 -35,-2 -51,-6 -16,-4 -30,-10 -43,-19 -12,-9 -22,-21 -29,-36 -7,-15 -11,-34 -11,-57 0,-22 3,-41 9,-57 6,-16 15,-28 26,-38 11,-10 25,-17 42,-21 17,-4 36,-7 57,-7 21,0 40,1 55,4 15,2 28,6 39,9 11,4 19,8 26,13 7,4 12,9 16,12l0 -116c0,-3 0,-5 0,-8 0,-3 1,-5 1,-7 1,-2 2,-4 4,-5 2,-1 4,-2 7,-2 3,0 5,1 7,2 2,1 3,3 4,4 1,2 1,4 2,6 0,2 0,5 0,8l0 299c0,6 -1,11 -4,13 -2,2 -5,3 -8,3 -4,0 -6,-1 -9,-3 -2,-2 -4,-6 -4,-13l0 -42c-2,9 -6,17 -12,23 -6,6 -12,12 -20,17 -8,4 -16,8 -25,11 -9,3 -19,5 -28,7 -9,2 -18,2 -27,2 -9,0 -17,0 -23,0zm0 -17c12,0 25,-1 40,-3 14,-2 28,-5 41,-9 13,-4 25,-11 35,-18 10,-8 17,-18 21,-31l0 -109c-5,-4 -11,-7 -18,-11 -7,-4 -16,-8 -27,-11 -11,-4 -24,-6 -39,-9 -15,-2 -32,-3 -53,-3 -19,0 -36,2 -50,6 -14,4 -25,10 -34,19 -9,9 -15,19 -20,33 -4,13 -6,29 -6,47 0,19 3,35 9,48 6,13 14,23 23,31 10,8 22,13 35,17 13,3 28,5 43,5z"/>
   <path id="12345678910111213141516171819202122232425262728293031323334353637" class="fil1 str0" d="M4753 1956c-3,0 -6,-1 -9,-4 -2,-3 -4,-6 -4,-10 0,-5 3,-10 8,-15l207 -183 -195 0c-3,0 -6,0 -8,0 -3,0 -5,0 -7,-1 -2,-1 -4,-2 -5,-3 -1,-1 -2,-3 -2,-6 0,-3 1,-5 2,-7 1,-1 3,-2 5,-3 2,-1 4,-1 7,-1 3,0 5,0 8,0l213 0c5,0 9,1 11,4 3,2 4,6 4,9 0,5 -2,10 -7,14l-208 184 198 0c3,0 6,0 8,0 3,0 5,0 7,1 2,1 4,2 5,3 1,2 2,4 2,7 0,2 -1,4 -2,6 -1,1 -3,2 -5,3 -2,1 -4,1 -7,1 -3,0 -5,0 -8,0l-216 0zm136 -386c2,-2 5,-3 8,-3 2,0 4,1 7,2 2,1 4,3 6,4 2,2 3,4 5,6 1,2 2,4 2,7 0,3 -1,6 -5,8l-88 72c-2,1 -3,2 -5,2 -2,0 -4,-1 -6,-2 -2,-2 -2,-3 -2,-6 0,-2 1,-4 2,-5l76 -83z"/>
   <path id="1234567891011121314151617181920212223242526272829303132333435363738" class="fil1 str0" d="M1116 2511c-4,5 -10,10 -16,15 -6,5 -15,10 -24,15 -10,4 -21,8 -34,11 -13,3 -28,4 -45,4 -22,0 -40,-2 -55,-6 -15,-4 -28,-11 -37,-19 -10,-9 -17,-20 -21,-34 -4,-14 -7,-30 -7,-49l0 -104c0,-3 0,-5 0,-8 0,-3 1,-5 2,-7 1,-2 2,-4 4,-5 2,-1 4,-2 6,-2 3,0 5,1 7,2 2,1 3,3 4,5 1,2 1,4 1,7 0,3 0,5 0,8l0 104c0,17 1,31 4,43 3,12 8,21 15,28 7,7 17,12 29,15 12,3 28,5 48,5 14,0 27,-1 39,-4 12,-2 23,-5 33,-9 10,-4 19,-8 27,-12 8,-5 15,-9 21,-13l0 -156c0,-3 0,-5 0,-8 0,-3 1,-5 1,-7 1,-2 2,-4 3,-5 2,-1 4,-2 6,-2 3,0 5,1 7,2 2,1 3,3 4,5 1,2 1,4 2,7 0,3 0,5 0,8l0 188c0,3 0,5 0,8 0,2 -1,5 -2,7 -1,2 -2,4 -4,5 -1,1 -4,2 -6,2 -6,0 -9,-2 -11,-6 -2,-4 -2,-8 -2,-13l0 -3 0 -21z"/>
   <path id="123456789101112131415161718192021222324252627282930313233343536373839" class="fil1 str0" d="M1261 2532c0,6 -1,11 -2,15 -1,4 -5,6 -10,6 -3,0 -5,-1 -7,-2 -2,-1 -3,-3 -4,-5 -1,-2 -1,-4 -1,-6 0,-2 0,-5 0,-8l0 -294c0,-3 0,-6 0,-8 0,-3 1,-5 2,-7 1,-2 2,-4 4,-5 2,-1 4,-2 7,-2 2,0 4,1 6,2 2,1 3,3 4,5 1,2 1,4 1,7 0,3 0,5 0,8l0 294z"/>
   <path id="12345678910111213141516171819202122232425262728293031323334353637383940" class="fil1 str0" d="M1337 2538c0,-6 2,-11 5,-14 4,-4 8,-5 14,-5 5,0 10,2 14,5 4,4 6,8 6,14 0,6 -2,10 -6,14 -4,3 -9,5 -14,5 -6,0 -11,-2 -14,-5 -4,-3 -5,-8 -5,-14z"/>
   <path id="1234567891011121314151617181920212223242526272829303132333435363738394041" class="fil1 str0" d="M1891 2336c0,19 -2,34 -7,47 -5,13 -11,23 -19,32 -8,8 -18,15 -29,19 -11,5 -24,8 -38,10 -14,2 -28,3 -44,3 -16,0 -32,0 -48,0l-90 0 0 83c0,6 -1,11 -2,16 -2,5 -5,7 -9,7 -6,0 -10,-2 -11,-7 -2,-5 -3,-10 -3,-16l0 -302c0,-3 0,-5 1,-7 1,-1 1,-2 3,-3 1,-1 3,-1 5,-1 2,0 4,0 7,0l100 0c18,0 36,0 52,0 16,0 31,2 45,5 14,3 26,7 37,13 11,5 20,13 28,22 8,9 13,20 17,33 4,13 6,28 6,46zm-26 0c0,-21 -3,-38 -9,-51 -6,-13 -16,-23 -29,-31 -13,-7 -29,-12 -49,-15 -20,-3 -44,-4 -71,-4l-90 0 0 193 90 0c27,0 51,-1 71,-3 20,-2 37,-6 49,-12 13,-6 23,-16 29,-28 6,-12 9,-29 9,-50z"/>
   <path id="123456789101112131415161718192021222324252627282930313233343536373839404142" class="fil1 str0" d="M2127 2323c2,1 4,2 5,4 1,2 2,4 2,6 0,3 -1,5 -3,7 -2,2 -4,3 -8,3 -1,0 -2,0 -2,0 0,0 -1,0 -2,-1 -8,-2 -15,-4 -22,-5 -7,-1 -15,-2 -23,-2 -12,0 -23,1 -34,4 -11,2 -21,6 -29,11 -9,5 -16,11 -23,19 -7,8 -11,17 -15,27l0 137c0,5 -1,10 -2,14 -1,4 -5,7 -10,7 -3,0 -5,-1 -7,-2 -2,-1 -3,-3 -4,-5 -1,-2 -1,-4 -1,-7 0,-3 0,-5 0,-8l0 -193c0,-5 1,-9 2,-12 2,-3 5,-5 11,-5 4,0 7,2 9,5 1,3 2,8 2,13l0 37c3,-13 9,-23 17,-31 8,-8 17,-14 27,-19 10,-4 20,-7 30,-9 10,-1 19,-2 27,-2 8,0 14,0 20,1 5,1 10,1 14,2 4,1 8,1 11,2 3,1 6,2 9,2z"/>
   <path id="12345678910111213141516171819202122232425262728293031323334353637383940414243" class="fil1 str0" d="M2191 2553c-3,0 -6,-1 -9,-4 -2,-3 -4,-6 -4,-10 0,-5 3,-10 8,-15l207 -183 -195 0c-3,0 -6,0 -8,0 -3,0 -5,0 -7,-1 -2,-1 -4,-2 -5,-3 -1,-1 -2,-3 -2,-6 0,-3 1,-5 2,-7 1,-1 3,-2 5,-3 2,-1 4,-1 7,-1 3,0 5,0 8,0l213 0c5,0 9,1 11,4 3,2 4,6 4,9 0,5 -2,10 -7,14l-208 184 198 0c3,0 6,0 8,0 3,0 5,0 7,1 2,1 4,2 5,3 1,2 2,4 2,7 0,2 -1,4 -2,6 -1,1 -3,2 -5,3 -2,1 -4,1 -7,1 -3,0 -5,0 -8,0l-216 0z"/>
   <path id="1234567891011121314151617181920212223242526272829303132333435363738394041424344" class="fil1 str0" d="M2639 2334c-19,0 -35,2 -50,5 -14,3 -27,8 -37,16 -10,7 -18,16 -24,28 -6,11 -9,25 -10,41l228 0 0 -16c0,-10 -2,-20 -6,-28 -4,-9 -10,-17 -18,-23 -8,-7 -19,-12 -33,-16 -14,-4 -31,-6 -50,-6zm-16 205c19,0 36,-1 50,-4 14,-2 27,-5 37,-9 10,-3 19,-7 25,-11 7,-4 12,-7 15,-9 1,0 2,-1 2,-1 2,0 4,1 6,3 2,2 3,4 3,7 0,2 -1,4 -3,5 -2,2 -6,5 -12,8 -6,4 -14,8 -26,12 -11,4 -25,7 -41,10 -16,3 -36,5 -58,5 -23,0 -43,-3 -60,-9 -16,-6 -30,-14 -40,-24 -10,-11 -18,-23 -22,-38 -5,-15 -7,-31 -7,-48 0,-23 4,-43 11,-58 7,-15 18,-28 31,-37 13,-9 28,-16 46,-20 18,-4 37,-6 57,-6 42,0 73,8 94,24 21,16 31,38 31,68 0,3 0,6 -1,9 0,3 -1,7 -2,10 -1,3 -2,6 -2,8 -1,2 -2,3 -3,3l-89 0 -150 0c0,18 3,34 7,47 5,13 11,23 20,31 9,8 20,14 32,18 13,4 28,5 45,5zm109 -2c-7,8 -12,17 -16,25 -4,8 -5,16 -5,22 0,8 2,14 5,17 4,3 7,5 10,5 4,0 8,-1 12,-3 4,-2 7,-4 10,-6l3 3c-3,7 -9,13 -16,17 -7,4 -15,6 -22,6 -3,0 -7,-1 -10,-2 -3,-1 -6,-3 -9,-5 -3,-2 -5,-5 -7,-9 -2,-4 -3,-8 -3,-13 0,-10 4,-19 11,-29 7,-9 17,-19 28,-28l9 0z"/>
   <path id="123456789101112131415161718192021222324252627282930313233343536373839404142434445" class="fil1 str0" d="M2970 2556c-18,0 -35,-2 -51,-6 -16,-4 -30,-10 -43,-19 -12,-9 -22,-21 -29,-36 -7,-15 -11,-34 -11,-57 0,-22 3,-41 9,-57 6,-16 15,-28 26,-38 11,-10 25,-17 42,-21 17,-4 36,-7 57,-7 21,0 40,1 55,4 15,2 28,6 39,9 11,4 19,8 26,13 7,4 12,9 16,12l0 -116c0,-3 0,-5 0,-8 0,-3 1,-5 1,-7 1,-2 2,-4 4,-5 2,-1 4,-2 7,-2 3,0 5,1 7,2 2,1 3,3 4,4 1,2 1,4 2,6 0,2 0,5 0,8l0 299c0,6 -1,11 -4,13 -2,2 -5,3 -8,3 -4,0 -6,-1 -9,-3 -2,-2 -4,-6 -4,-13l0 -42c-2,9 -6,17 -12,23 -6,6 -12,12 -20,17 -8,4 -16,8 -25,11 -9,3 -19,5 -28,7 -9,2 -18,2 -27,2 -9,0 -17,0 -23,0zm0 -17c12,0 25,-1 40,-3 14,-2 28,-5 41,-9 13,-4 25,-11 35,-18 10,-8 17,-18 21,-31l0 -109c-5,-4 -11,-7 -18,-11 -7,-4 -16,-8 -27,-11 -11,-4 -24,-6 -39,-9 -15,-2 -32,-3 -53,-3 -19,0 -36,2 -50,6 -14,4 -25,10 -34,19 -9,9 -15,19 -20,33 -4,13 -6,29 -6,47 0,19 3,35 9,48 6,13 14,23 23,31 10,8 22,13 35,17 13,3 28,5 43,5z"/>
   <path id="12345678910111213141516171819202122232425262728293031323334353637383940414243444546" class="fil1 str0" d="M3223 2553c-3,0 -6,-1 -9,-4 -2,-3 -4,-6 -4,-10 0,-5 3,-10 8,-15l207 -183 -195 0c-3,0 -6,0 -8,0 -3,0 -5,0 -7,-1 -2,-1 -4,-2 -5,-3 -1,-1 -2,-3 -2,-6 0,-3 1,-5 2,-7 1,-1 3,-2 5,-3 2,-1 4,-1 7,-1 3,0 5,0 8,0l213 0c5,0 9,1 11,4 3,2 4,6 4,9 0,5 -2,10 -7,14l-208 184 198 0c3,0 6,0 8,0 3,0 5,0 7,1 2,1 4,2 5,3 1,2 2,4 2,7 0,2 -1,4 -2,6 -1,1 -3,2 -5,3 -2,1 -4,1 -7,1 -3,0 -5,0 -8,0l-216 0z"/>
   <path id="1234567891011121314151617181920212223242526272829303132333435363738394041424344454647" class="fil1 str0" d="M3554 2486c0,10 2,18 7,25 5,7 12,12 21,16 9,4 19,7 32,9 12,2 25,3 40,3 18,0 33,-1 47,-4 14,-2 26,-6 36,-9 10,-4 19,-8 26,-12 7,-5 13,-9 18,-13l0 -60c-20,-3 -41,-6 -62,-9 -22,-3 -43,-4 -65,-4 -15,0 -29,1 -42,3 -12,2 -22,5 -31,9 -8,4 -15,10 -19,18 -4,8 -7,17 -7,28zm128 -152c-19,0 -36,1 -50,2 -14,1 -25,2 -35,4 -10,2 -18,3 -25,5 -7,2 -13,4 -18,5 -2,0 -5,-1 -7,-4 -2,-2 -3,-5 -3,-8 0,-3 1,-5 4,-6 2,-1 5,-2 11,-4 6,-2 14,-4 25,-6 11,-2 24,-4 40,-5 16,-1 35,-2 57,-2 10,0 20,1 31,2 10,1 20,4 29,7 9,3 17,8 25,14 8,6 14,14 20,23 6,9 10,21 13,35 3,14 5,29 5,48l0 87c0,2 0,5 0,7 0,2 -1,5 -2,7 -1,2 -2,4 -4,5 -2,1 -4,2 -7,2 -5,0 -8,-2 -9,-6 -2,-4 -3,-9 -3,-16l0 -21c-4,5 -9,10 -16,16 -7,5 -15,10 -24,15 -10,4 -22,8 -35,11 -14,3 -30,4 -49,4 -18,0 -34,-1 -49,-4 -15,-3 -29,-7 -40,-12 -11,-6 -20,-13 -27,-22 -7,-9 -10,-20 -10,-32 0,-15 3,-27 9,-36 6,-10 15,-18 26,-23 11,-6 24,-10 38,-12 15,-2 30,-4 47,-4 13,0 25,0 38,0 13,0 25,1 36,3 12,2 22,5 32,7 10,3 18,7 24,11 0,-21 -3,-38 -8,-50 -5,-13 -13,-23 -22,-30 -9,-7 -19,-12 -31,-14 -12,-2 -24,-4 -37,-4z"/>
   <path id="123456789101112131415161718192021222324252627282930313233343536373839404142434445464748" class="fil1 str0" d="M3922 2532c0,6 -1,11 -2,15 -1,4 -5,6 -10,6 -3,0 -5,-1 -7,-2 -2,-1 -3,-3 -4,-5 -1,-2 -1,-4 -1,-6 0,-2 0,-5 0,-8l0 -294c0,-3 0,-6 0,-8 0,-3 1,-5 2,-7 1,-2 2,-4 4,-5 2,-1 4,-2 7,-2 2,0 4,1 6,2 2,1 3,3 4,5 1,2 1,4 1,7 0,3 0,5 0,8l0 294z"/>
   <path id="12345678910111213141516171819202122232425262728293031323334353637383940414243444546474849" class="fil1 str0" d="M4286 2532c0,3 0,5 -1,8 0,3 -1,5 -2,7 -1,2 -2,4 -4,5 -2,1 -4,2 -6,2 -3,0 -5,-1 -7,-2 -1,-1 -3,-3 -3,-5 -1,-2 -1,-4 -1,-7 0,-3 0,-5 0,-8l0 -105c0,-16 -1,-29 -4,-41 -2,-12 -7,-21 -14,-29 -7,-8 -16,-14 -28,-17 -12,-4 -28,-6 -47,-6 -12,0 -25,1 -38,3 -13,2 -26,5 -38,10 -12,5 -23,11 -32,19 -9,8 -16,18 -19,30l0 137c0,3 0,5 0,8 0,3 -1,5 -1,7 -1,2 -2,4 -4,5 -2,1 -4,2 -6,2 -3,0 -5,-1 -7,-2 -2,-1 -3,-3 -4,-5 -1,-2 -2,-4 -2,-7 0,-3 0,-5 0,-8l0 -196c0,-3 1,-7 2,-10 1,-3 5,-4 11,-4 5,0 8,1 9,4 1,3 2,6 2,10l0 38c6,-13 14,-23 24,-31 10,-8 21,-14 33,-18 12,-4 24,-7 37,-8 12,-1 24,-2 34,-2 22,0 40,2 55,6 15,4 27,10 36,19 9,9 16,20 20,34 4,14 6,32 6,53l0 105z"/>
   <path id="1234567891011121314151617181920212223242526272829303132333435363738394041424344454647484950" class="fil1 str0" d="M4406 2534c0,3 0,5 0,7 0,2 -1,4 -1,6 -1,2 -2,3 -4,4 -2,1 -4,2 -7,2 -6,0 -9,-2 -10,-5 -1,-3 -2,-8 -2,-14l0 -194c0,-5 1,-9 2,-13 1,-4 5,-5 11,-5 5,0 8,2 9,5 1,4 2,8 2,12l0 194zm-28 -281c0,-5 1,-8 5,-12 3,-3 7,-5 11,-5 5,0 9,2 12,5 3,3 5,7 5,12 0,5 -2,8 -5,11 -3,3 -7,4 -12,4 -5,0 -8,-1 -11,-4 -3,-3 -5,-7 -5,-11z"/>
   <path id="123456789101112131415161718192021222324252627282930313233343536373839404142434445464748495051" class="fil1 str0" d="M4523 2486c0,10 2,18 7,25 5,7 12,12 21,16 9,4 19,7 32,9 12,2 25,3 40,3 18,0 33,-1 47,-4 14,-2 26,-6 36,-9 10,-4 19,-8 26,-12 7,-5 13,-9 18,-13l0 -60c-20,-3 -41,-6 -62,-9 -22,-3 -43,-4 -65,-4 -15,0 -29,1 -42,3 -12,2 -22,5 -31,9 -8,4 -15,10 -19,18 -4,8 -7,17 -7,28zm128 -152c-19,0 -36,1 -50,2 -14,1 -25,2 -35,4 -10,2 -18,3 -25,5 -7,2 -13,4 -18,5 -2,0 -5,-1 -7,-4 -2,-2 -3,-5 -3,-8 0,-3 1,-5 4,-6 2,-1 5,-2 11,-4 6,-2 14,-4 25,-6 11,-2 24,-4 40,-5 16,-1 35,-2 57,-2 10,0 20,1 31,2 10,1 20,4 29,7 9,3 17,8 25,14 8,6 14,14 20,23 6,9 10,21 13,35 3,14 5,29 5,48l0 87c0,2 0,5 0,7 0,2 -1,5 -2,7 -1,2 -2,4 -4,5 -2,1 -4,2 -7,2 -5,0 -8,-2 -9,-6 -2,-4 -3,-9 -3,-16l0 -21c-4,5 -9,10 -16,16 -7,5 -15,10 -24,15 -10,4 -22,8 -35,11 -14,3 -30,4 -49,4 -18,0 -34,-1 -49,-4 -15,-3 -29,-7 -40,-12 -11,-6 -20,-13 -27,-22 -7,-9 -10,-20 -10,-32 0,-15 3,-27 9,-36 6,-10 15,-18 26,-23 11,-6 24,-10 38,-12 15,-2 30,-4 47,-4 13,0 25,0 38,0 13,0 25,1 36,3 12,2 22,5 32,7 10,3 18,7 24,11 0,-21 -3,-38 -8,-50 -5,-13 -13,-23 -22,-30 -9,-7 -19,-12 -31,-14 -12,-2 -24,-4 -37,-4z"/>
   <path id="12345678910111213141516171819202122232425262728293031323334353637383940414243444546474849505152" class="fil1 str0" d="M5134 2532c0,3 0,5 -1,8 0,3 -1,5 -2,7 -1,2 -2,4 -4,5 -2,1 -4,2 -6,2 -3,0 -5,-1 -7,-2 -1,-1 -3,-3 -3,-5 -1,-2 -1,-4 -1,-7 0,-3 0,-5 0,-8l0 -105c0,-16 -1,-29 -4,-41 -2,-12 -7,-21 -14,-29 -7,-8 -16,-14 -28,-17 -12,-4 -28,-6 -47,-6 -12,0 -25,1 -38,3 -13,2 -26,5 -38,10 -12,5 -23,11 -32,19 -9,8 -16,18 -19,30l0 137c0,3 0,5 0,8 0,3 -1,5 -1,7 -1,2 -2,4 -4,5 -2,1 -4,2 -6,2 -3,0 -5,-1 -7,-2 -2,-1 -3,-3 -4,-5 -1,-2 -2,-4 -2,-7 0,-3 0,-5 0,-8l0 -196c0,-3 1,-7 2,-10 1,-3 5,-4 11,-4 5,0 8,1 9,4 1,3 2,6 2,10l0 38c6,-13 14,-23 24,-31 10,-8 21,-14 33,-18 12,-4 24,-7 37,-8 12,-1 24,-2 34,-2 22,0 40,2 55,6 15,4 27,10 36,19 9,9 16,20 20,34 4,14 6,32 6,53l0 105z"/>
   <path id="1234567891011121314151617181920212223242526272829303132333435363738394041424344454647484950515253" class="fil1 str0" d="M5243 2486c0,10 2,18 7,25 5,7 12,12 21,16 9,4 19,7 32,9 12,2 25,3 40,3 18,0 33,-1 47,-4 14,-2 26,-6 36,-9 10,-4 19,-8 26,-12 7,-5 13,-9 18,-13l0 -60c-20,-3 -41,-6 -62,-9 -22,-3 -43,-4 -65,-4 -15,0 -29,1 -42,3 -12,2 -22,5 -31,9 -8,4 -15,10 -19,18 -4,8 -7,17 -7,28zm128 -152c-19,0 -36,1 -50,2 -14,1 -25,2 -35,4 -10,2 -18,3 -25,5 -7,2 -13,4 -18,5 -2,0 -5,-1 -7,-4 -2,-2 -3,-5 -3,-8 0,-3 1,-5 4,-6 2,-1 5,-2 11,-4 6,-2 14,-4 25,-6 11,-2 24,-4 40,-5 16,-1 35,-2 57,-2 10,0 20,1 31,2 10,1 20,4 29,7 9,3 17,8 25,14 8,6 14,14 20,23 6,9 10,21 13,35 3,14 5,29 5,48l0 87c0,2 0,5 0,7 0,2 -1,5 -2,7 -1,2 -2,4 -4,5 -2,1 -4,2 -7,2 -5,0 -8,-2 -9,-6 -2,-4 -3,-9 -3,-16l0 -21c-4,5 -9,10 -16,16 -7,5 -15,10 -24,15 -10,4 -22,8 -35,11 -14,3 -30,4 -49,4 -18,0 -34,-1 -49,-4 -15,-3 -29,-7 -40,-12 -11,-6 -20,-13 -27,-22 -7,-9 -10,-20 -10,-32 0,-15 3,-27 9,-36 6,-10 15,-18 26,-23 11,-6 24,-10 38,-12 15,-2 30,-4 47,-4 13,0 25,0 38,0 13,0 25,1 36,3 12,2 22,5 32,7 10,3 18,7 24,11 0,-21 -3,-38 -8,-50 -5,-13 -13,-23 -22,-30 -9,-7 -19,-12 -31,-14 -12,-2 -24,-4 -37,-4z"/>
   <path id="123456789101112131415161718192021222324252627282930313233343536373839404142434445464748495051525354" class="fil1 str0" d="M5958 2385c0,32 -2,58 -6,81 -4,22 -11,40 -21,54 -10,14 -24,24 -42,30 -18,6 -40,9 -68,9 -12,0 -24,-1 -37,-3 -13,-2 -24,-4 -35,-7 -10,-3 -19,-6 -26,-10 -7,-4 -10,-7 -10,-11 0,-2 1,-4 3,-6 2,-2 5,-2 8,-2 2,0 4,0 7,1 3,1 6,2 9,3 3,1 7,2 10,3 3,1 6,2 10,2 8,2 18,4 28,5 10,2 21,2 32,2 18,0 34,-1 48,-4 14,-3 26,-9 35,-19 10,-10 17,-25 22,-44 5,-19 8,-46 8,-79 -3,2 -8,3 -13,5 -5,2 -12,3 -19,5 -8,1 -17,2 -28,3 -11,1 -24,1 -39,1 -22,0 -42,-1 -59,-4 -17,-3 -31,-8 -42,-15 -11,-7 -20,-17 -26,-30 -6,-13 -9,-29 -9,-49 0,-12 2,-24 7,-36 5,-12 12,-22 22,-31 10,-9 24,-16 41,-21 17,-5 37,-8 62,-8 23,0 43,3 59,9 16,6 29,16 39,29 10,14 17,32 22,54 4,22 7,50 7,82zm-23 -9c0,-27 -2,-50 -5,-69 -4,-19 -9,-33 -18,-44 -8,-11 -19,-19 -32,-24 -13,-5 -30,-7 -49,-7 -21,0 -39,2 -52,7 -14,4 -25,10 -33,17 -8,7 -14,15 -17,25 -3,9 -5,19 -5,29 0,17 2,31 7,40 5,10 12,18 21,23 9,5 21,9 35,10 14,2 31,2 50,2 13,0 24,0 34,0 10,0 19,-1 27,-1 8,-1 15,-2 21,-3 6,-1 12,-2 17,-4z"/>
   <path id="12345678910111213141516171819202122232425262728293031323334353637383940414243444546474849505152535455" class="fil1 str0" d="M6267 2385c0,32 -2,58 -6,81 -4,22 -11,40 -21,54 -10,14 -24,24 -42,30 -18,6 -40,9 -68,9 -12,0 -24,-1 -37,-3 -13,-2 -24,-4 -35,-7 -10,-3 -19,-6 -26,-10 -7,-4 -10,-7 -10,-11 0,-2 1,-4 3,-6 2,-2 5,-2 8,-2 2,0 4,0 7,1 3,1 6,2 9,3 3,1 7,2 10,3 3,1 6,2 10,2 8,2 18,4 28,5 10,2 21,2 32,2 18,0 34,-1 48,-4 14,-3 26,-9 35,-19 10,-10 17,-25 22,-44 5,-19 8,-46 8,-79 -3,2 -8,3 -13,5 -5,2 -12,3 -19,5 -8,1 -17,2 -28,3 -11,1 -24,1 -39,1 -22,0 -42,-1 -59,-4 -17,-3 -31,-8 -42,-15 -11,-7 -20,-17 -26,-30 -6,-13 -9,-29 -9,-49 0,-12 2,-24 7,-36 5,-12 12,-22 22,-31 10,-9 24,-16 41,-21 17,-5 37,-8 62,-8 23,0 43,3 59,9 16,6 29,16 39,29 10,14 17,32 22,54 4,22 7,50 7,82zm-23 -9c0,-27 -2,-50 -5,-69 -4,-19 -9,-33 -18,-44 -8,-11 -19,-19 -32,-24 -13,-5 -30,-7 -49,-7 -21,0 -39,2 -52,7 -14,4 -25,10 -33,17 -8,7 -14,15 -17,25 -3,9 -5,19 -5,29 0,17 2,31 7,40 5,10 12,18 21,23 9,5 21,9 35,10 14,2 31,2 50,2 13,0 24,0 34,0 10,0 19,-1 27,-1 8,-1 15,-2 21,-3 6,-1 12,-2 17,-4z"/>
   <path class="fil2" d="M3550 492c-99,0 -180,80 -180,180 0,99 80,180 180,180 99,0 180,-80 180,-180 0,-99 -80,-180 -180,-180zm402 135c-21,-187 -169,-336 -357,-357l0 -93 -90 0 0 93c-187,21 -336,169 -357,357l-93 0 0 90 93 0c21,187 169,336 357,357l0 93 90 0 0 -93c187,-21 336,-169 357,-357l93 0 0 -90 -93 0zm-402 359c-174,0 -314,-141 -314,-314 0,-174 141,-314 314,-314 174,0 314,141 314,314 0,174 -141,314 -314,314z"/>
  </g>
  <rect class="fil3" width="7100" height="2800"/>
 </g>
</svg>
