<?xml version="1.0" encoding="UTF-8"?>
<!DOCTYPE svg PUBLIC "-//W3C//DTD SVG 1.1//EN" "http://www.w3.org/Graphics/SVG/1.1/DTD/svg11.dtd">
<!-- Creator: CorelDRAW X5 -->
<svg xmlns="http://www.w3.org/2000/svg" xml:space="preserve" width="71mm" height="28mm" style="shape-rendering:geometricPrecision; text-rendering:geometricPrecision; image-rendering:optimizeQuality; fill-rule:evenodd; clip-rule:evenodd"
viewBox="0 0 7100 2800"
 xmlns:xlink="http://www.w3.org/1999/xlink">
 <defs>
  <style type="text/css">
   <![CDATA[
    .str0 {stroke:#FEFEFE;stroke-width:7.62}
    .fil1 {fill:none}
    .fil0 {fill:#FEFEFE;fill-rule:nonzero}
   ]]>
  </style>
 </defs>
 <g id="Layer_x0020_1">
  <metadata id="CorelCorpID_0Corel-Layer"/>
  <path class="fil0 str0" d="M2120 1341c0,37 -5,68 -16,95 -11,27 -28,50 -50,68 -23,18 -51,31 -86,40 -35,9 -76,13 -123,13 -47,0 -88,-4 -123,-13 -35,-9 -63,-22 -86,-40 -23,-18 -39,-41 -50,-68 -11,-27 -16,-59 -16,-95 0,-36 5,-68 16,-95 11,-27 27,-50 50,-68 22,-18 51,-31 86,-40 35,-9 76,-13 123,-13 47,0 88,4 123,13 35,9 63,22 86,40 23,18 39,41 50,68 11,27 16,59 16,95zm-518 0c0,35 5,65 15,89 10,24 25,44 45,59 20,15 45,26 76,33 30,7 66,10 107,10 41,0 77,-3 107,-10 30,-7 56,-18 76,-33 20,-15 35,-35 45,-59 10,-24 15,-54 15,-89 0,-35 -5,-64 -15,-89 -10,-24 -25,-44 -45,-60 -20,-15 -46,-26 -76,-33 -31,-7 -66,-10 -107,-10 -41,0 -77,3 -107,10 -30,7 -56,18 -76,33 -20,15 -35,35 -45,60 -10,24 -15,54 -15,89zm663 -73l137 0c4,0 7,1 8,3 2,2 3,4 3,6 0,2 -1,4 -3,6 -2,2 -5,3 -8,3l-137 0 0 245c0,8 -1,13 -4,15 -3,2 -7,3 -11,3 -3,0 -7,-1 -10,-3 -3,-2 -5,-7 -5,-15l0 -245 -33 0c-3,0 -6,-1 -8,-3 -2,-2 -3,-4 -3,-6 0,-2 1,-4 3,-6 2,-2 4,-3 8,-3l33 0 0 -24c0,-20 2,-37 6,-51 4,-14 10,-25 18,-33 8,-8 17,-14 27,-18 11,-4 23,-6 36,-6 7,0 15,0 21,0 7,0 13,1 20,2 7,1 14,3 22,5 8,2 16,4 25,7 8,3 12,7 12,12 0,2 -1,4 -3,6 -2,2 -5,3 -9,3 -3,0 -5,-1 -7,-1 -13,-5 -26,-8 -39,-10 -13,-2 -25,-3 -37,-3 -10,0 -19,1 -26,3 -8,2 -15,6 -20,13 -6,6 -10,15 -13,26 -3,11 -4,26 -4,44l0 24zm254 258c0,3 0,6 0,9 0,3 -1,5 -2,8 -1,2 -2,4 -4,5 -2,1 -5,2 -9,2 -7,0 -11,-2 -13,-6 -1,-4 -2,-10 -2,-17l0 -240c0,-6 1,-12 3,-16 2,-4 6,-7 13,-7 6,0 10,2 12,7 2,4 2,10 2,15l0 241zm-35 -348c0,-6 2,-10 6,-14 4,-4 8,-6 14,-6 6,0 11,2 15,6 4,4 6,9 6,14 0,6 -2,10 -6,14 -4,3 -9,5 -15,5 -6,0 -10,-2 -14,-5 -4,-3 -6,-8 -6,-14zm335 99c-29,0 -53,2 -73,7 -20,5 -37,12 -50,23 -13,10 -22,24 -28,40 -6,16 -9,36 -9,58 0,23 3,42 10,58 7,16 16,29 30,39 13,10 30,17 50,22 20,5 43,7 70,7 12,0 24,-1 37,-3 12,-2 24,-4 35,-7 11,-3 22,-6 31,-9 9,-3 17,-6 23,-9 4,-1 6,-2 8,-2 3,0 6,1 8,3 2,2 3,4 3,7 0,2 -1,4 -2,6 -1,2 -3,4 -6,6 -22,11 -45,19 -68,23 -24,4 -46,7 -68,7 -29,0 -54,-2 -78,-7 -23,-4 -43,-12 -60,-24 -17,-11 -30,-26 -39,-45 -9,-19 -14,-43 -14,-72 0,-29 4,-53 13,-72 9,-19 21,-35 37,-46 16,-12 36,-20 60,-25 24,-5 50,-7 81,-7 22,0 45,2 68,7 24,4 46,12 68,23 3,2 5,3 6,6 1,2 2,4 2,6 0,3 -1,5 -3,7 -2,2 -4,3 -8,3 -2,0 -4,-1 -8,-2 -6,-3 -14,-6 -23,-9 -10,-3 -20,-6 -31,-9 -11,-3 -23,-5 -35,-7 -12,-2 -24,-3 -36,-3zm409 375c26,0 47,-3 64,-8 17,-6 31,-15 41,-28 10,-13 18,-30 22,-51 4,-21 7,-48 7,-79 -3,10 -7,19 -13,27 -6,7 -14,14 -22,19 -9,5 -18,9 -28,12 -10,3 -20,5 -31,7 -10,2 -21,2 -31,2 -10,0 -19,0 -28,0 -27,0 -50,-2 -68,-7 -18,-5 -33,-13 -45,-25 -12,-12 -20,-27 -25,-46 -5,-19 -8,-42 -8,-71l0 -115c0,-3 0,-6 0,-10 0,-3 1,-6 2,-9 1,-2 2,-4 4,-6 2,-2 5,-2 8,-2 4,0 7,1 9,2 2,2 4,4 4,6 1,3 2,5 2,9 0,3 0,7 0,10l0 115c0,24 2,45 5,61 3,16 9,29 17,39 8,10 20,17 35,21 15,4 35,6 58,6 14,0 30,-1 46,-3 16,-2 32,-6 46,-11 15,-5 27,-13 38,-22 11,-9 19,-21 23,-36l0 -170c0,-3 0,-7 1,-10 0,-3 1,-6 2,-9 1,-2 2,-4 4,-6 2,-2 4,-2 7,-2 4,0 7,1 9,2 2,2 4,4 5,6 1,3 2,5 2,9 0,3 0,7 0,10l0 184c0,38 -3,70 -9,96 -6,26 -16,46 -29,62 -13,16 -30,27 -51,33 -21,7 -46,10 -75,10 -21,0 -39,-1 -53,-3 -14,-2 -26,-5 -36,-8 -10,-3 -18,-7 -25,-12 -7,-4 -12,-8 -17,-12 -2,-2 -3,-4 -3,-7 0,-3 1,-6 3,-9 2,-2 5,-4 9,-4 2,0 4,1 6,2 5,3 10,7 17,11 6,4 14,7 23,10 9,3 20,5 32,7 12,2 27,3 44,3zm610 -130c0,3 0,7 -1,10 -1,3 -1,6 -2,9 -1,2 -3,4 -5,6 -2,2 -4,2 -8,2 -4,0 -7,-1 -8,-2 -2,-2 -3,-4 -4,-6 -1,-3 -2,-5 -2,-9 0,-3 0,-7 0,-10l0 -130c0,-19 -1,-36 -4,-51 -3,-15 -8,-27 -17,-36 -8,-10 -20,-17 -35,-21 -15,-5 -34,-7 -58,-7 -15,0 -30,1 -47,4 -16,2 -32,6 -47,12 -15,6 -28,14 -40,24 -12,10 -20,22 -24,37l0 169c0,3 0,7 0,10 0,3 -1,6 -2,9 -1,2 -2,4 -4,6 -2,2 -4,2 -7,2 -4,0 -6,-1 -8,-2 -2,-2 -4,-4 -5,-6 -1,-3 -2,-5 -2,-9 0,-3 -1,-7 -1,-10l0 -243c0,-4 1,-8 3,-12 2,-4 6,-5 13,-5 6,0 10,2 12,5 2,3 2,7 2,12l0 47c7,-16 17,-29 29,-38 12,-10 26,-17 41,-22 15,-5 30,-8 45,-9 15,-2 29,-2 42,-2 27,0 50,2 68,7 18,5 33,12 45,23 11,11 19,25 24,43 5,18 7,39 7,65l0 130zm135 -57c0,12 3,22 9,30 6,8 15,15 26,20 11,5 24,9 39,11 15,2 32,4 50,4 22,0 41,-2 58,-5 17,-3 32,-7 44,-12 13,-5 24,-10 32,-15 9,-6 16,-11 22,-16l0 -74c-25,-4 -51,-8 -77,-11 -27,-3 -54,-5 -81,-5 -19,0 -36,1 -52,3 -15,2 -28,6 -38,12 -10,6 -19,13 -24,22 -6,9 -8,21 -8,35zm159 -188c-24,0 -44,1 -61,2 -17,1 -32,3 -44,5 -12,2 -22,4 -30,6 -8,2 -16,4 -22,7 -3,0 -6,-2 -8,-4 -2,-3 -4,-6 -4,-10 0,-3 2,-6 4,-7 2,-1 7,-3 14,-5 7,-2 18,-5 31,-7 13,-2 30,-4 50,-6 20,-2 43,-3 70,-3 13,0 25,1 38,2 13,2 24,5 35,9 11,4 21,10 31,18 10,7 18,17 25,29 7,12 12,26 16,43 4,17 6,37 6,59l0 108c0,3 0,6 0,9 0,3 -1,6 -2,8 -1,3 -3,5 -5,6 -2,2 -5,2 -8,2 -6,0 -10,-3 -12,-8 -2,-5 -3,-12 -3,-20l0 -26c-5,6 -12,13 -19,19 -8,7 -18,13 -30,18 -12,6 -27,10 -44,14 -17,4 -37,5 -60,5 -22,0 -42,-2 -61,-5 -19,-3 -36,-8 -50,-15 -14,-7 -25,-16 -33,-27 -8,-11 -12,-24 -12,-40 0,-18 4,-33 11,-45 8,-12 18,-22 32,-29 13,-7 29,-12 47,-15 18,-3 38,-4 59,-4 16,0 31,0 47,0 16,0 31,1 45,4 14,3 27,6 39,9 12,4 22,8 30,13 0,-26 -3,-47 -10,-63 -7,-16 -16,-28 -27,-37 -11,-9 -24,-15 -39,-18 -15,-3 -30,-4 -46,-4zm750 192c0,-13 -5,-24 -14,-31 -9,-7 -22,-13 -37,-16 -15,-3 -33,-5 -52,-5 -20,0 -40,0 -60,0 -20,0 -40,-1 -60,-2 -20,-2 -37,-5 -52,-10 -15,-5 -28,-13 -37,-22 -9,-10 -14,-23 -14,-40 0,-18 5,-32 14,-43 9,-11 22,-20 37,-27 15,-7 32,-11 52,-14 19,-3 39,-4 59,-4 33,0 63,3 91,8 28,5 54,14 79,27 3,1 4,3 5,5 1,2 1,4 2,6 0,3 -1,6 -3,9 -2,3 -4,4 -7,4 -2,0 -3,0 -3,-1 -21,-11 -45,-19 -72,-26 -27,-6 -57,-10 -91,-10 -17,0 -33,1 -49,3 -16,2 -30,6 -42,11 -12,5 -22,12 -30,20 -8,8 -11,19 -11,31 0,13 5,23 14,29 9,7 22,12 37,15 15,3 33,5 52,5 20,0 40,0 60,0 20,0 40,1 60,3 20,2 37,6 52,11 15,5 28,13 37,23 9,10 14,24 14,41 0,15 -5,28 -14,39 -9,11 -22,19 -38,26 -16,6 -34,11 -54,14 -21,3 -42,4 -64,4 -14,0 -28,0 -44,0 -16,0 -31,-1 -47,-4 -16,-2 -31,-6 -45,-11 -14,-5 -27,-12 -38,-20 -3,-3 -5,-6 -5,-10 0,-3 1,-6 3,-9 2,-2 4,-4 7,-4 2,0 4,1 4,2 10,8 22,14 34,18 12,5 25,8 38,11 13,3 28,4 42,4 15,0 30,0 46,0 19,0 37,-1 54,-3 17,-2 33,-5 46,-10 13,-5 24,-11 32,-19 8,-8 12,-17 12,-29zm106 60c0,-7 2,-13 7,-18 4,-4 10,-7 17,-7 7,0 13,2 17,7 5,4 7,10 7,18 0,7 -2,13 -7,17 -5,4 -11,6 -17,6 -7,0 -13,-2 -17,-6 -4,-4 -7,-10 -7,-17zm317 -253c-29,0 -53,2 -73,7 -20,5 -37,12 -50,23 -13,10 -22,24 -28,40 -6,16 -9,36 -9,58 0,23 3,42 10,58 7,16 16,29 30,39 13,10 30,17 50,22 20,5 43,7 70,7 12,0 24,-1 37,-3 12,-2 24,-4 35,-7 11,-3 22,-6 31,-9 9,-3 17,-6 23,-9 4,-1 6,-2 8,-2 3,0 6,1 8,3 2,2 3,4 3,7 0,2 -1,4 -2,6 -1,2 -3,4 -6,6 -22,11 -45,19 -68,23 -24,4 -46,7 -68,7 -29,0 -54,-2 -78,-7 -23,-4 -43,-12 -60,-24 -17,-11 -30,-26 -39,-45 -9,-19 -14,-43 -14,-72 0,-29 4,-53 13,-72 9,-19 21,-35 37,-46 16,-12 36,-20 60,-25 24,-5 50,-7 81,-7 22,0 45,2 68,7 24,4 46,12 68,23 3,2 5,3 6,6 1,2 2,4 2,6 0,3 -1,5 -3,7 -2,2 -4,3 -8,3 -2,0 -4,-1 -8,-2 -6,-3 -14,-6 -23,-9 -10,-3 -20,-6 -31,-9 -11,-3 -23,-5 -35,-7 -12,-2 -24,-3 -36,-3zm223 253c0,-7 2,-13 7,-18 4,-4 10,-7 17,-7 7,0 13,2 17,7 5,4 7,10 7,18 0,7 -2,13 -7,17 -5,4 -11,6 -17,6 -7,0 -13,-2 -17,-6 -4,-4 -7,-10 -7,-17z"/>
  <rect class="fil1" width="7100" height="2800"/>
 </g>
</svg>
