<?xml version="1.0" encoding="UTF-8"?>
<!DOCTYPE svg PUBLIC "-//W3C//DTD SVG 1.1//EN" "http://www.w3.org/Graphics/SVG/1.1/DTD/svg11.dtd">
<!-- Creator: CorelDRAW X5 -->
<svg xmlns="http://www.w3.org/2000/svg" xml:space="preserve" width="71mm" height="28mm" style="shape-rendering:geometricPrecision; text-rendering:geometricPrecision; image-rendering:optimizeQuality; fill-rule:evenodd; clip-rule:evenodd"
viewBox="0 0 7100 2800"
 xmlns:xlink="http://www.w3.org/1999/xlink">
 <defs>
  <style type="text/css">
   <![CDATA[
    .str0 {stroke:#FEFEFE;stroke-width:7.62}
    .fil3 {fill:none}
    .fil1 {fill:none;fill-rule:nonzero}
    .fil2 {fill:#FEFEFE}
    .fil0 {fill:#FEFEFE;fill-rule:nonzero}
   ]]>
  </style>
 </defs>
 <g id="Layer_x0020_1">
  <metadata id="CorelCorpID_0Corel-Layer"/>
  <g id="_197949304">
   <path class="fil0" d="M1701 1983c3,0 5,1 7,2 2,2 2,3 2,5 0,2 -1,4 -2,5 -2,2 -4,2 -7,2l-100 0 0 128c0,15 2,27 5,36 3,9 7,16 12,21 5,5 11,8 18,10 7,2 14,3 22,3 10,0 19,-2 28,-5 9,-3 20,-8 32,-15 2,-1 5,-2 7,-2 3,0 5,1 6,2 2,2 2,3 2,6 0,4 -2,7 -7,10 -8,5 -16,8 -22,11 -7,3 -13,5 -18,7 -6,2 -11,3 -16,3 -5,1 -11,1 -17,1 -11,0 -21,-2 -30,-5 -9,-3 -18,-8 -25,-15 -7,-7 -12,-16 -16,-27 -4,-11 -6,-25 -6,-41l0 -128 -27 0c-3,0 -5,-1 -6,-2 -1,-2 -2,-3 -2,-5 0,-2 1,-3 2,-5 1,-2 4,-2 6,-2l27 0 0 -75c0,-6 1,-11 4,-12 3,-2 5,-3 8,-3 3,0 6,1 9,3 2,2 3,6 3,12l0 75 100 0z"/>
   <path id="1" class="fil0" d="M1917 1990c-19,0 -35,2 -50,5 -14,3 -27,8 -37,16 -10,7 -18,16 -24,28 -6,11 -9,25 -10,41l228 0 0 -16c0,-10 -2,-20 -6,-28 -4,-9 -10,-17 -18,-23 -8,-7 -19,-12 -33,-16 -14,-4 -31,-6 -50,-6zm-16 205c19,0 36,-1 50,-4 14,-2 27,-5 37,-9 10,-3 19,-7 25,-11 7,-4 12,-7 15,-9 1,0 2,-1 2,-1 2,0 4,1 6,3 2,2 3,4 3,7 0,2 -1,4 -3,5 -2,2 -6,5 -12,8 -6,4 -14,8 -26,12 -11,4 -25,7 -41,10 -16,3 -36,5 -58,5 -23,0 -43,-3 -60,-9 -16,-6 -30,-14 -40,-24 -10,-11 -18,-23 -22,-38 -5,-15 -7,-31 -7,-48 0,-23 4,-43 11,-58 7,-15 18,-28 31,-37 13,-9 28,-16 46,-20 18,-4 37,-6 57,-6 42,0 73,8 94,24 21,16 31,38 31,68 0,3 0,6 -1,9 0,3 -1,7 -2,10 -1,3 -2,6 -2,8 -1,2 -2,3 -3,3l-89 0 -150 0c0,18 3,34 7,47 5,13 11,23 20,31 9,8 20,14 32,18 13,4 28,5 45,5z"/>
   <path id="12" class="fil0" d="M2150 2189c0,6 -1,11 -2,15 -1,4 -5,6 -10,6 -3,0 -5,-1 -7,-2 -2,-1 -3,-3 -4,-5 -1,-2 -1,-4 -1,-6 0,-2 0,-5 0,-8l0 -294c0,-3 0,-6 0,-8 0,-3 1,-5 2,-7 1,-2 2,-4 4,-5 2,-1 4,-2 7,-2 2,0 4,1 6,2 2,1 3,3 4,5 1,2 1,4 1,7 0,3 0,5 0,8l0 294z"/>
   <path id="123" class="fil0" d="M2226 2194c0,-6 2,-11 5,-14 4,-4 8,-5 14,-5 5,0 10,2 14,5 4,4 6,8 6,14 0,6 -2,10 -6,14 -4,3 -9,5 -14,5 -6,0 -11,-2 -14,-5 -4,-3 -5,-8 -5,-14z"/>
   <path id="1234" class="fil0" d="M2747 2095c0,4 -2,7 -7,8 -5,1 -11,2 -18,2 -3,0 -6,0 -9,0 -3,0 -7,0 -10,0l-44 0 0 84c0,3 0,5 0,8 0,2 -1,5 -1,7 -1,2 -2,4 -3,5 -1,1 -3,2 -6,2 -3,0 -5,-1 -7,-2 -2,-1 -3,-3 -3,-5 -1,-2 -1,-4 -1,-7 0,-3 0,-5 0,-8l0 -84 -153 0c-5,0 -10,-1 -13,-2 -3,-1 -5,-3 -7,-5 -1,-2 -2,-4 -2,-7 0,-3 0,-5 0,-8l0 -190c0,-2 0,-5 0,-7 0,-2 1,-5 1,-7 1,-2 2,-4 3,-5 2,-1 4,-2 7,-2 3,0 5,1 6,2 1,1 2,3 3,5 1,2 1,4 1,6 0,2 0,5 0,7l0 190 153 0 0 -189c0,-3 0,-5 0,-8 0,-2 0,-5 1,-7 1,-2 2,-4 3,-5 1,-1 4,-2 7,-2 3,0 5,1 6,2 1,1 2,3 3,5 1,2 1,4 1,7 0,3 0,5 0,8l0 189 66 0c3,0 6,0 9,0 3,0 5,0 7,1 2,1 3,2 4,3 1,1 2,4 2,7z"/>
   <path id="12345" class="fil0" d="M2886 1888c-18,0 -34,2 -49,5 -15,3 -28,7 -39,10 -4,1 -6,2 -8,2 -3,0 -6,-1 -8,-2 -2,-1 -3,-3 -3,-6 0,-4 4,-8 11,-11 7,-4 16,-7 26,-10 11,-3 22,-5 35,-7 12,-2 24,-2 36,-2 22,0 41,2 57,7 16,4 29,11 39,19 10,8 17,18 22,30 5,12 7,24 7,38 0,17 -3,32 -9,44 -6,12 -14,23 -24,31 -10,9 -21,17 -34,23 -13,6 -26,13 -39,18 -13,6 -26,12 -39,18 -13,6 -24,13 -34,22 -10,8 -18,18 -24,30 -6,11 -9,25 -9,41l181 0c5,0 8,1 10,3 2,2 3,5 3,8 0,3 -1,5 -3,8 -2,2 -6,3 -10,3l-191 0c-6,0 -9,-2 -10,-5 -1,-3 -2,-9 -2,-17 0,-18 3,-33 9,-46 6,-13 14,-24 24,-34 10,-10 21,-18 34,-25 13,-7 26,-14 39,-20 13,-6 26,-12 39,-19 13,-6 24,-13 34,-21 10,-8 18,-17 24,-27 6,-10 9,-22 9,-37 0,-13 -2,-24 -7,-34 -5,-9 -11,-17 -20,-23 -9,-6 -19,-10 -32,-13 -12,-3 -27,-4 -42,-4z"/>
   <path id="123456" class="fil0" d="M3304 1888c-18,0 -34,2 -49,5 -15,3 -28,7 -39,10 -4,1 -6,2 -8,2 -3,0 -6,-1 -8,-2 -2,-1 -3,-3 -3,-6 0,-4 4,-8 11,-11 7,-4 16,-7 26,-10 11,-3 22,-5 35,-7 12,-2 24,-2 36,-2 22,0 41,2 57,7 16,4 29,11 39,19 10,8 17,18 22,30 5,12 7,24 7,38 0,17 -3,32 -9,44 -6,12 -14,23 -24,31 -10,9 -21,17 -34,23 -13,6 -26,13 -39,18 -13,6 -26,12 -39,18 -13,6 -24,13 -34,22 -10,8 -18,18 -24,30 -6,11 -9,25 -9,41l181 0c5,0 8,1 10,3 2,2 3,5 3,8 0,3 -1,5 -3,8 -2,2 -6,3 -10,3l-191 0c-6,0 -9,-2 -10,-5 -1,-3 -2,-9 -2,-17 0,-18 3,-33 9,-46 6,-13 14,-24 24,-34 10,-10 21,-18 34,-25 13,-7 26,-14 39,-20 13,-6 26,-12 39,-19 13,-6 24,-13 34,-21 10,-8 18,-17 24,-27 6,-10 9,-22 9,-37 0,-13 -2,-24 -7,-34 -5,-9 -11,-17 -20,-23 -9,-6 -19,-10 -32,-13 -12,-3 -27,-4 -42,-4z"/>
   <path id="1234567" class="fil0" d="M3581 2201c17,0 30,-2 42,-7 11,-4 20,-11 27,-18 7,-8 12,-18 15,-29 3,-11 4,-23 4,-37 0,-11 -1,-21 -4,-29 -3,-8 -8,-15 -14,-20 -7,-5 -16,-9 -27,-11 -11,-2 -25,-4 -42,-4l-75 0c-3,0 -6,0 -9,0 -3,0 -6,-1 -8,-2 -2,-1 -4,-3 -6,-5 -2,-2 -2,-6 -2,-10 0,-3 0,-4 0,-5l12 -126c0,-2 0,-5 1,-7 0,-2 1,-5 2,-7 1,-2 4,-4 6,-5 3,-1 7,-2 13,-2l132 0c4,0 7,1 9,3 2,2 3,5 3,7 0,3 -1,5 -3,7 -2,2 -5,3 -9,3l-132 0 -12 126 78 0c17,0 32,1 45,4 14,3 25,8 35,14 10,7 17,15 22,26 5,11 8,24 8,40 0,21 -3,38 -8,52 -5,14 -13,25 -22,34 -10,9 -21,15 -35,19 -14,4 -29,6 -45,6 -12,0 -24,-1 -37,-3 -13,-2 -24,-4 -35,-7 -10,-3 -19,-6 -25,-10 -7,-4 -10,-7 -10,-11 0,-2 1,-4 3,-6 2,-2 5,-2 8,-2 2,0 4,0 7,1 3,1 6,2 9,3 3,1 6,2 10,3 3,1 7,2 9,2 8,2 18,4 28,5 10,2 21,2 32,2z"/>
   <path id="12345678" class="fil0" d="M3799 2038c-4,0 -6,-1 -8,-3 -2,-2 -3,-4 -3,-7 0,-2 1,-5 3,-7 2,-2 4,-3 8,-3l43 0c19,0 35,-2 48,-6 13,-4 23,-9 31,-15 8,-6 13,-13 16,-21 3,-8 5,-16 5,-24 0,-8 -1,-15 -4,-23 -2,-8 -7,-15 -14,-21 -7,-6 -16,-11 -28,-15 -12,-4 -28,-6 -47,-6 -11,0 -22,1 -33,2 -11,2 -21,3 -29,5 -9,2 -16,4 -21,5 -5,1 -8,2 -8,3 -4,1 -6,1 -8,1 -3,0 -6,-1 -8,-2 -2,-1 -3,-3 -3,-6 0,-4 3,-8 10,-11 7,-4 16,-7 26,-10 11,-3 22,-5 35,-7 12,-2 24,-2 36,-2 24,0 44,2 59,8 15,5 27,12 36,20 9,8 15,17 18,28 3,10 5,21 5,31 0,7 -1,15 -4,23 -2,8 -7,15 -13,23 -6,7 -14,13 -25,19 -10,5 -24,9 -39,10 16,2 30,6 41,11 11,5 20,12 27,19 7,8 12,17 15,27 3,10 5,21 5,33 0,14 -2,27 -6,39 -4,12 -11,23 -21,32 -10,9 -22,16 -39,21 -16,5 -36,8 -60,8 -12,0 -24,-1 -37,-3 -13,-2 -24,-4 -35,-7 -10,-3 -19,-6 -26,-10 -7,-4 -10,-7 -10,-11 0,-2 1,-4 3,-6 2,-2 5,-2 8,-2 2,0 4,0 7,1 3,1 6,2 9,3 3,1 7,2 10,3 3,1 7,2 10,2 8,2 18,4 28,5 10,2 21,2 32,2 21,0 38,-2 51,-6 14,-4 24,-9 32,-16 8,-7 14,-15 17,-25 3,-10 5,-21 5,-32 0,-10 -2,-20 -5,-29 -3,-9 -9,-18 -17,-25 -8,-7 -19,-13 -34,-17 -14,-4 -32,-7 -53,-7l-43 0z"/>
   <path id="123456789" class="fil0" d="M4142 2053c3,0 5,1 6,4 1,2 2,5 2,8 0,2 -1,5 -2,7 -1,2 -3,4 -6,4l-108 0c-3,0 -5,-1 -6,-4 -1,-2 -2,-5 -2,-7 0,-3 1,-5 2,-8 1,-3 3,-4 6,-4l108 0z"/>
   <path id="12345678910" class="fil0" d="M4449 2042c0,-26 -2,-49 -5,-68 -3,-19 -9,-36 -17,-48 -8,-13 -19,-22 -34,-29 -14,-6 -32,-9 -54,-9 -22,0 -40,3 -54,9 -14,6 -25,16 -34,29 -8,13 -14,29 -17,48 -3,19 -5,42 -5,68 0,26 2,49 5,69 3,19 9,35 17,48 8,13 19,22 34,29 14,6 32,9 54,9 22,0 40,-3 54,-9 14,-6 25,-16 34,-29 8,-13 14,-29 17,-48 3,-19 5,-42 5,-69zm-242 0c0,-26 2,-50 5,-72 4,-22 10,-40 20,-55 10,-15 23,-27 40,-35 17,-8 39,-13 67,-13 27,0 50,4 67,13 17,8 31,20 40,35 10,15 16,34 20,55 4,22 5,45 5,72 0,26 -2,50 -5,72 -4,21 -10,40 -20,55 -10,15 -23,27 -40,35 -17,8 -40,13 -67,13 -27,0 -50,-4 -67,-13 -17,-8 -31,-20 -40,-35 -10,-15 -16,-34 -20,-55 -4,-21 -5,-45 -5,-72z"/>
   <path id="1234567891011" class="fil0" d="M4769 2042c0,-26 -2,-49 -5,-68 -3,-19 -9,-36 -17,-48 -8,-13 -19,-22 -34,-29 -14,-6 -32,-9 -54,-9 -22,0 -40,3 -54,9 -14,6 -25,16 -34,29 -8,13 -14,29 -17,48 -3,19 -5,42 -5,68 0,26 2,49 5,69 3,19 9,35 17,48 8,13 19,22 34,29 14,6 32,9 54,9 22,0 40,-3 54,-9 14,-6 25,-16 34,-29 8,-13 14,-29 17,-48 3,-19 5,-42 5,-69zm-242 0c0,-26 2,-50 5,-72 4,-22 10,-40 20,-55 10,-15 23,-27 40,-35 17,-8 39,-13 67,-13 27,0 50,4 67,13 17,8 31,20 40,35 10,15 16,34 20,55 4,22 5,45 5,72 0,26 -2,50 -5,72 -4,21 -10,40 -20,55 -10,15 -23,27 -40,35 -17,8 -40,13 -67,13 -27,0 -50,-4 -67,-13 -17,-8 -31,-20 -40,-35 -10,-15 -16,-34 -20,-55 -4,-21 -5,-45 -5,-72z"/>
   <path id="123456789101112" class="fil0" d="M4965 2053c3,0 5,1 6,4 1,2 2,5 2,8 0,2 -1,5 -2,7 -1,2 -3,4 -6,4l-108 0c-3,0 -5,-1 -6,-4 -1,-2 -2,-5 -2,-7 0,-3 1,-5 2,-8 1,-3 3,-4 6,-4l108 0z"/>
   <path id="12345678910111213" class="fil0" d="M5089 2038c-4,0 -6,-1 -8,-3 -2,-2 -3,-4 -3,-7 0,-2 1,-5 3,-7 2,-2 4,-3 8,-3l43 0c19,0 35,-2 48,-6 13,-4 23,-9 31,-15 8,-6 13,-13 16,-21 3,-8 5,-16 5,-24 0,-8 -1,-15 -4,-23 -2,-8 -7,-15 -14,-21 -7,-6 -16,-11 -28,-15 -12,-4 -28,-6 -47,-6 -11,0 -22,1 -33,2 -11,2 -21,3 -29,5 -9,2 -16,4 -21,5 -5,1 -8,2 -8,3 -4,1 -6,1 -8,1 -3,0 -6,-1 -8,-2 -2,-1 -3,-3 -3,-6 0,-4 3,-8 10,-11 7,-4 16,-7 26,-10 11,-3 22,-5 35,-7 12,-2 24,-2 36,-2 24,0 44,2 59,8 15,5 27,12 36,20 9,8 15,17 18,28 3,10 5,21 5,31 0,7 -1,15 -4,23 -2,8 -7,15 -13,23 -6,7 -14,13 -25,19 -10,5 -24,9 -39,10 16,2 30,6 41,11 11,5 20,12 27,19 7,8 12,17 15,27 3,10 5,21 5,33 0,14 -2,27 -6,39 -4,12 -11,23 -21,32 -10,9 -22,16 -39,21 -16,5 -36,8 -60,8 -12,0 -24,-1 -37,-3 -13,-2 -24,-4 -35,-7 -10,-3 -19,-6 -26,-10 -7,-4 -10,-7 -10,-11 0,-2 1,-4 3,-6 2,-2 5,-2 8,-2 2,0 4,0 7,1 3,1 6,2 9,3 3,1 7,2 10,3 3,1 7,2 10,2 8,2 18,4 28,5 10,2 21,2 32,2 21,0 38,-2 51,-6 14,-4 24,-9 32,-16 8,-7 14,-15 17,-25 3,-10 5,-21 5,-32 0,-10 -2,-20 -5,-29 -3,-9 -9,-18 -17,-25 -8,-7 -19,-13 -34,-17 -14,-4 -32,-7 -53,-7l-43 0z"/>
   <path id="1234567891011121314" class="fil0" d="M5557 2042c0,-26 -2,-49 -5,-68 -3,-19 -9,-36 -17,-48 -8,-13 -19,-22 -34,-29 -14,-6 -32,-9 -54,-9 -22,0 -40,3 -54,9 -14,6 -25,16 -34,29 -8,13 -14,29 -17,48 -3,19 -5,42 -5,68 0,26 2,49 5,69 3,19 9,35 17,48 8,13 19,22 34,29 14,6 32,9 54,9 22,0 40,-3 54,-9 14,-6 25,-16 34,-29 8,-13 14,-29 17,-48 3,-19 5,-42 5,-69zm-242 0c0,-26 2,-50 5,-72 4,-22 10,-40 20,-55 10,-15 23,-27 40,-35 17,-8 39,-13 67,-13 27,0 50,4 67,13 17,8 31,20 40,35 10,15 16,34 20,55 4,22 5,45 5,72 0,26 -2,50 -5,72 -4,21 -10,40 -20,55 -10,15 -23,27 -40,35 -17,8 -40,13 -67,13 -27,0 -50,-4 -67,-13 -17,-8 -31,-20 -40,-35 -10,-15 -16,-34 -20,-55 -4,-21 -5,-45 -5,-72z"/>
   <path id="123456789101112131415" class="fil1 str0" d="M1701 1983c3,0 5,1 7,2 2,2 2,3 2,5 0,2 -1,4 -2,5 -2,2 -4,2 -7,2l-100 0 0 128c0,15 2,27 5,36 3,9 7,16 12,21 5,5 11,8 18,10 7,2 14,3 22,3 10,0 19,-2 28,-5 9,-3 20,-8 32,-15 2,-1 5,-2 7,-2 3,0 5,1 6,2 2,2 2,3 2,6 0,4 -2,7 -7,10 -8,5 -16,8 -22,11 -7,3 -13,5 -18,7 -6,2 -11,3 -16,3 -5,1 -11,1 -17,1 -11,0 -21,-2 -30,-5 -9,-3 -18,-8 -25,-15 -7,-7 -12,-16 -16,-27 -4,-11 -6,-25 -6,-41l0 -128 -27 0c-3,0 -5,-1 -6,-2 -1,-2 -2,-3 -2,-5 0,-2 1,-3 2,-5 1,-2 4,-2 6,-2l27 0 0 -75c0,-6 1,-11 4,-12 3,-2 5,-3 8,-3 3,0 6,1 9,3 2,2 3,6 3,12l0 75 100 0z"/>
   <path id="12345678910111213141516" class="fil1 str0" d="M1917 1990c-19,0 -35,2 -50,5 -14,3 -27,8 -37,16 -10,7 -18,16 -24,28 -6,11 -9,25 -10,41l228 0 0 -16c0,-10 -2,-20 -6,-28 -4,-9 -10,-17 -18,-23 -8,-7 -19,-12 -33,-16 -14,-4 -31,-6 -50,-6zm-16 205c19,0 36,-1 50,-4 14,-2 27,-5 37,-9 10,-3 19,-7 25,-11 7,-4 12,-7 15,-9 1,0 2,-1 2,-1 2,0 4,1 6,3 2,2 3,4 3,7 0,2 -1,4 -3,5 -2,2 -6,5 -12,8 -6,4 -14,8 -26,12 -11,4 -25,7 -41,10 -16,3 -36,5 -58,5 -23,0 -43,-3 -60,-9 -16,-6 -30,-14 -40,-24 -10,-11 -18,-23 -22,-38 -5,-15 -7,-31 -7,-48 0,-23 4,-43 11,-58 7,-15 18,-28 31,-37 13,-9 28,-16 46,-20 18,-4 37,-6 57,-6 42,0 73,8 94,24 21,16 31,38 31,68 0,3 0,6 -1,9 0,3 -1,7 -2,10 -1,3 -2,6 -2,8 -1,2 -2,3 -3,3l-89 0 -150 0c0,18 3,34 7,47 5,13 11,23 20,31 9,8 20,14 32,18 13,4 28,5 45,5z"/>
   <path id="1234567891011121314151617" class="fil1 str0" d="M2150 2189c0,6 -1,11 -2,15 -1,4 -5,6 -10,6 -3,0 -5,-1 -7,-2 -2,-1 -3,-3 -4,-5 -1,-2 -1,-4 -1,-6 0,-2 0,-5 0,-8l0 -294c0,-3 0,-6 0,-8 0,-3 1,-5 2,-7 1,-2 2,-4 4,-5 2,-1 4,-2 7,-2 2,0 4,1 6,2 2,1 3,3 4,5 1,2 1,4 1,7 0,3 0,5 0,8l0 294z"/>
   <path id="123456789101112131415161718" class="fil1 str0" d="M2226 2194c0,-6 2,-11 5,-14 4,-4 8,-5 14,-5 5,0 10,2 14,5 4,4 6,8 6,14 0,6 -2,10 -6,14 -4,3 -9,5 -14,5 -6,0 -11,-2 -14,-5 -4,-3 -5,-8 -5,-14z"/>
   <path id="12345678910111213141516171819" class="fil1 str0" d="M2747 2095c0,4 -2,7 -7,8 -5,1 -11,2 -18,2 -3,0 -6,0 -9,0 -3,0 -7,0 -10,0l-44 0 0 84c0,3 0,5 0,8 0,2 -1,5 -1,7 -1,2 -2,4 -3,5 -1,1 -3,2 -6,2 -3,0 -5,-1 -7,-2 -2,-1 -3,-3 -3,-5 -1,-2 -1,-4 -1,-7 0,-3 0,-5 0,-8l0 -84 -153 0c-5,0 -10,-1 -13,-2 -3,-1 -5,-3 -7,-5 -1,-2 -2,-4 -2,-7 0,-3 0,-5 0,-8l0 -190c0,-2 0,-5 0,-7 0,-2 1,-5 1,-7 1,-2 2,-4 3,-5 2,-1 4,-2 7,-2 3,0 5,1 6,2 1,1 2,3 3,5 1,2 1,4 1,6 0,2 0,5 0,7l0 190 153 0 0 -189c0,-3 0,-5 0,-8 0,-2 0,-5 1,-7 1,-2 2,-4 3,-5 1,-1 4,-2 7,-2 3,0 5,1 6,2 1,1 2,3 3,5 1,2 1,4 1,7 0,3 0,5 0,8l0 189 66 0c3,0 6,0 9,0 3,0 5,0 7,1 2,1 3,2 4,3 1,1 2,4 2,7z"/>
   <path id="1234567891011121314151617181920" class="fil1 str0" d="M2886 1888c-18,0 -34,2 -49,5 -15,3 -28,7 -39,10 -4,1 -6,2 -8,2 -3,0 -6,-1 -8,-2 -2,-1 -3,-3 -3,-6 0,-4 4,-8 11,-11 7,-4 16,-7 26,-10 11,-3 22,-5 35,-7 12,-2 24,-2 36,-2 22,0 41,2 57,7 16,4 29,11 39,19 10,8 17,18 22,30 5,12 7,24 7,38 0,17 -3,32 -9,44 -6,12 -14,23 -24,31 -10,9 -21,17 -34,23 -13,6 -26,13 -39,18 -13,6 -26,12 -39,18 -13,6 -24,13 -34,22 -10,8 -18,18 -24,30 -6,11 -9,25 -9,41l181 0c5,0 8,1 10,3 2,2 3,5 3,8 0,3 -1,5 -3,8 -2,2 -6,3 -10,3l-191 0c-6,0 -9,-2 -10,-5 -1,-3 -2,-9 -2,-17 0,-18 3,-33 9,-46 6,-13 14,-24 24,-34 10,-10 21,-18 34,-25 13,-7 26,-14 39,-20 13,-6 26,-12 39,-19 13,-6 24,-13 34,-21 10,-8 18,-17 24,-27 6,-10 9,-22 9,-37 0,-13 -2,-24 -7,-34 -5,-9 -11,-17 -20,-23 -9,-6 -19,-10 -32,-13 -12,-3 -27,-4 -42,-4z"/>
   <path id="123456789101112131415161718192021" class="fil1 str0" d="M3304 1888c-18,0 -34,2 -49,5 -15,3 -28,7 -39,10 -4,1 -6,2 -8,2 -3,0 -6,-1 -8,-2 -2,-1 -3,-3 -3,-6 0,-4 4,-8 11,-11 7,-4 16,-7 26,-10 11,-3 22,-5 35,-7 12,-2 24,-2 36,-2 22,0 41,2 57,7 16,4 29,11 39,19 10,8 17,18 22,30 5,12 7,24 7,38 0,17 -3,32 -9,44 -6,12 -14,23 -24,31 -10,9 -21,17 -34,23 -13,6 -26,13 -39,18 -13,6 -26,12 -39,18 -13,6 -24,13 -34,22 -10,8 -18,18 -24,30 -6,11 -9,25 -9,41l181 0c5,0 8,1 10,3 2,2 3,5 3,8 0,3 -1,5 -3,8 -2,2 -6,3 -10,3l-191 0c-6,0 -9,-2 -10,-5 -1,-3 -2,-9 -2,-17 0,-18 3,-33 9,-46 6,-13 14,-24 24,-34 10,-10 21,-18 34,-25 13,-7 26,-14 39,-20 13,-6 26,-12 39,-19 13,-6 24,-13 34,-21 10,-8 18,-17 24,-27 6,-10 9,-22 9,-37 0,-13 -2,-24 -7,-34 -5,-9 -11,-17 -20,-23 -9,-6 -19,-10 -32,-13 -12,-3 -27,-4 -42,-4z"/>
   <path id="12345678910111213141516171819202122" class="fil1 str0" d="M3581 2201c17,0 30,-2 42,-7 11,-4 20,-11 27,-18 7,-8 12,-18 15,-29 3,-11 4,-23 4,-37 0,-11 -1,-21 -4,-29 -3,-8 -8,-15 -14,-20 -7,-5 -16,-9 -27,-11 -11,-2 -25,-4 -42,-4l-75 0c-3,0 -6,0 -9,0 -3,0 -6,-1 -8,-2 -2,-1 -4,-3 -6,-5 -2,-2 -2,-6 -2,-10 0,-3 0,-4 0,-5l12 -126c0,-2 0,-5 1,-7 0,-2 1,-5 2,-7 1,-2 4,-4 6,-5 3,-1 7,-2 13,-2l132 0c4,0 7,1 9,3 2,2 3,5 3,7 0,3 -1,5 -3,7 -2,2 -5,3 -9,3l-132 0 -12 126 78 0c17,0 32,1 45,4 14,3 25,8 35,14 10,7 17,15 22,26 5,11 8,24 8,40 0,21 -3,38 -8,52 -5,14 -13,25 -22,34 -10,9 -21,15 -35,19 -14,4 -29,6 -45,6 -12,0 -24,-1 -37,-3 -13,-2 -24,-4 -35,-7 -10,-3 -19,-6 -25,-10 -7,-4 -10,-7 -10,-11 0,-2 1,-4 3,-6 2,-2 5,-2 8,-2 2,0 4,0 7,1 3,1 6,2 9,3 3,1 6,2 10,3 3,1 7,2 9,2 8,2 18,4 28,5 10,2 21,2 32,2z"/>
   <path id="1234567891011121314151617181920212223" class="fil1 str0" d="M3799 2038c-4,0 -6,-1 -8,-3 -2,-2 -3,-4 -3,-7 0,-2 1,-5 3,-7 2,-2 4,-3 8,-3l43 0c19,0 35,-2 48,-6 13,-4 23,-9 31,-15 8,-6 13,-13 16,-21 3,-8 5,-16 5,-24 0,-8 -1,-15 -4,-23 -2,-8 -7,-15 -14,-21 -7,-6 -16,-11 -28,-15 -12,-4 -28,-6 -47,-6 -11,0 -22,1 -33,2 -11,2 -21,3 -29,5 -9,2 -16,4 -21,5 -5,1 -8,2 -8,3 -4,1 -6,1 -8,1 -3,0 -6,-1 -8,-2 -2,-1 -3,-3 -3,-6 0,-4 3,-8 10,-11 7,-4 16,-7 26,-10 11,-3 22,-5 35,-7 12,-2 24,-2 36,-2 24,0 44,2 59,8 15,5 27,12 36,20 9,8 15,17 18,28 3,10 5,21 5,31 0,7 -1,15 -4,23 -2,8 -7,15 -13,23 -6,7 -14,13 -25,19 -10,5 -24,9 -39,10 16,2 30,6 41,11 11,5 20,12 27,19 7,8 12,17 15,27 3,10 5,21 5,33 0,14 -2,27 -6,39 -4,12 -11,23 -21,32 -10,9 -22,16 -39,21 -16,5 -36,8 -60,8 -12,0 -24,-1 -37,-3 -13,-2 -24,-4 -35,-7 -10,-3 -19,-6 -26,-10 -7,-4 -10,-7 -10,-11 0,-2 1,-4 3,-6 2,-2 5,-2 8,-2 2,0 4,0 7,1 3,1 6,2 9,3 3,1 7,2 10,3 3,1 7,2 10,2 8,2 18,4 28,5 10,2 21,2 32,2 21,0 38,-2 51,-6 14,-4 24,-9 32,-16 8,-7 14,-15 17,-25 3,-10 5,-21 5,-32 0,-10 -2,-20 -5,-29 -3,-9 -9,-18 -17,-25 -8,-7 -19,-13 -34,-17 -14,-4 -32,-7 -53,-7l-43 0z"/>
   <path id="123456789101112131415161718192021222324" class="fil1 str0" d="M4142 2053c3,0 5,1 6,4 1,2 2,5 2,8 0,2 -1,5 -2,7 -1,2 -3,4 -6,4l-108 0c-3,0 -5,-1 -6,-4 -1,-2 -2,-5 -2,-7 0,-3 1,-5 2,-8 1,-3 3,-4 6,-4l108 0z"/>
   <path id="12345678910111213141516171819202122232425" class="fil1 str0" d="M4449 2042c0,-26 -2,-49 -5,-68 -3,-19 -9,-36 -17,-48 -8,-13 -19,-22 -34,-29 -14,-6 -32,-9 -54,-9 -22,0 -40,3 -54,9 -14,6 -25,16 -34,29 -8,13 -14,29 -17,48 -3,19 -5,42 -5,68 0,26 2,49 5,69 3,19 9,35 17,48 8,13 19,22 34,29 14,6 32,9 54,9 22,0 40,-3 54,-9 14,-6 25,-16 34,-29 8,-13 14,-29 17,-48 3,-19 5,-42 5,-69zm-242 0c0,-26 2,-50 5,-72 4,-22 10,-40 20,-55 10,-15 23,-27 40,-35 17,-8 39,-13 67,-13 27,0 50,4 67,13 17,8 31,20 40,35 10,15 16,34 20,55 4,22 5,45 5,72 0,26 -2,50 -5,72 -4,21 -10,40 -20,55 -10,15 -23,27 -40,35 -17,8 -40,13 -67,13 -27,0 -50,-4 -67,-13 -17,-8 -31,-20 -40,-35 -10,-15 -16,-34 -20,-55 -4,-21 -5,-45 -5,-72z"/>
   <path id="1234567891011121314151617181920212223242526" class="fil1 str0" d="M4769 2042c0,-26 -2,-49 -5,-68 -3,-19 -9,-36 -17,-48 -8,-13 -19,-22 -34,-29 -14,-6 -32,-9 -54,-9 -22,0 -40,3 -54,9 -14,6 -25,16 -34,29 -8,13 -14,29 -17,48 -3,19 -5,42 -5,68 0,26 2,49 5,69 3,19 9,35 17,48 8,13 19,22 34,29 14,6 32,9 54,9 22,0 40,-3 54,-9 14,-6 25,-16 34,-29 8,-13 14,-29 17,-48 3,-19 5,-42 5,-69zm-242 0c0,-26 2,-50 5,-72 4,-22 10,-40 20,-55 10,-15 23,-27 40,-35 17,-8 39,-13 67,-13 27,0 50,4 67,13 17,8 31,20 40,35 10,15 16,34 20,55 4,22 5,45 5,72 0,26 -2,50 -5,72 -4,21 -10,40 -20,55 -10,15 -23,27 -40,35 -17,8 -40,13 -67,13 -27,0 -50,-4 -67,-13 -17,-8 -31,-20 -40,-35 -10,-15 -16,-34 -20,-55 -4,-21 -5,-45 -5,-72z"/>
   <path id="123456789101112131415161718192021222324252627" class="fil1 str0" d="M4965 2053c3,0 5,1 6,4 1,2 2,5 2,8 0,2 -1,5 -2,7 -1,2 -3,4 -6,4l-108 0c-3,0 -5,-1 -6,-4 -1,-2 -2,-5 -2,-7 0,-3 1,-5 2,-8 1,-3 3,-4 6,-4l108 0z"/>
   <path id="12345678910111213141516171819202122232425262728" class="fil1 str0" d="M5089 2038c-4,0 -6,-1 -8,-3 -2,-2 -3,-4 -3,-7 0,-2 1,-5 3,-7 2,-2 4,-3 8,-3l43 0c19,0 35,-2 48,-6 13,-4 23,-9 31,-15 8,-6 13,-13 16,-21 3,-8 5,-16 5,-24 0,-8 -1,-15 -4,-23 -2,-8 -7,-15 -14,-21 -7,-6 -16,-11 -28,-15 -12,-4 -28,-6 -47,-6 -11,0 -22,1 -33,2 -11,2 -21,3 -29,5 -9,2 -16,4 -21,5 -5,1 -8,2 -8,3 -4,1 -6,1 -8,1 -3,0 -6,-1 -8,-2 -2,-1 -3,-3 -3,-6 0,-4 3,-8 10,-11 7,-4 16,-7 26,-10 11,-3 22,-5 35,-7 12,-2 24,-2 36,-2 24,0 44,2 59,8 15,5 27,12 36,20 9,8 15,17 18,28 3,10 5,21 5,31 0,7 -1,15 -4,23 -2,8 -7,15 -13,23 -6,7 -14,13 -25,19 -10,5 -24,9 -39,10 16,2 30,6 41,11 11,5 20,12 27,19 7,8 12,17 15,27 3,10 5,21 5,33 0,14 -2,27 -6,39 -4,12 -11,23 -21,32 -10,9 -22,16 -39,21 -16,5 -36,8 -60,8 -12,0 -24,-1 -37,-3 -13,-2 -24,-4 -35,-7 -10,-3 -19,-6 -26,-10 -7,-4 -10,-7 -10,-11 0,-2 1,-4 3,-6 2,-2 5,-2 8,-2 2,0 4,0 7,1 3,1 6,2 9,3 3,1 7,2 10,3 3,1 7,2 10,2 8,2 18,4 28,5 10,2 21,2 32,2 21,0 38,-2 51,-6 14,-4 24,-9 32,-16 8,-7 14,-15 17,-25 3,-10 5,-21 5,-32 0,-10 -2,-20 -5,-29 -3,-9 -9,-18 -17,-25 -8,-7 -19,-13 -34,-17 -14,-4 -32,-7 -53,-7l-43 0z"/>
   <path id="1234567891011121314151617181920212223242526272829" class="fil1 str0" d="M5557 2042c0,-26 -2,-49 -5,-68 -3,-19 -9,-36 -17,-48 -8,-13 -19,-22 -34,-29 -14,-6 -32,-9 -54,-9 -22,0 -40,3 -54,9 -14,6 -25,16 -34,29 -8,13 -14,29 -17,48 -3,19 -5,42 -5,68 0,26 2,49 5,69 3,19 9,35 17,48 8,13 19,22 34,29 14,6 32,9 54,9 22,0 40,-3 54,-9 14,-6 25,-16 34,-29 8,-13 14,-29 17,-48 3,-19 5,-42 5,-69zm-242 0c0,-26 2,-50 5,-72 4,-22 10,-40 20,-55 10,-15 23,-27 40,-35 17,-8 39,-13 67,-13 27,0 50,4 67,13 17,8 31,20 40,35 10,15 16,34 20,55 4,22 5,45 5,72 0,26 -2,50 -5,72 -4,21 -10,40 -20,55 -10,15 -23,27 -40,35 -17,8 -40,13 -67,13 -27,0 -50,-4 -67,-13 -17,-8 -31,-20 -40,-35 -10,-15 -16,-34 -20,-55 -4,-21 -5,-45 -5,-72z"/>
   <path class="fil2" d="M3874 1129l-114 -13c-27,-3 -54,6 -74,26l-83 83c-127,-65 -231,-168 -296,-296l83 -83c19,-19 29,-47 26,-74l-13 -113c-5,-45 -44,-80 -89,-80l-78 0c-51,0 -93,42 -90,93 24,384 331,690 714,714 51,3 93,-39 93,-90l0 -78c0,-45 -34,-84 -80,-88z"/>
  </g>
  <rect class="fil3" width="7100" height="2800"/>
 </g>
</svg>
