<?xml version="1.0" encoding="UTF-8"?>
<!DOCTYPE svg PUBLIC "-//W3C//DTD SVG 1.1//EN" "http://www.w3.org/Graphics/SVG/1.1/DTD/svg11.dtd">
<!-- Creator: CorelDRAW X5 -->
<svg xmlns="http://www.w3.org/2000/svg" xml:space="preserve" width="40.7mm" height="40.34mm" style="shape-rendering:geometricPrecision; text-rendering:geometricPrecision; image-rendering:optimizeQuality; fill-rule:evenodd; clip-rule:evenodd"
viewBox="0 0 464 460"
 xmlns:xlink="http://www.w3.org/1999/xlink">
 <defs>
  <style type="text/css">
   <![CDATA[
    .str0 {stroke:#EBECEC;stroke-width:2.00969}
    .fil1 {fill:none}
    .fil0 {fill:#EBECEC;fill-rule:nonzero}
   ]]>
  </style>
 </defs>
 <g id="Layer_x0020_1">
  <metadata id="CorelCorpID_0Corel-Layer"/>
  <path class="fil0 str0" d="M40 367l21 0 -10 -21 -10 21zm-14 15l21 -41 7 0 21 41 -7 0 -5 -10 -26 0 -5 10 -6 0zm94 -10l0 -3c0,-2 0,-3 -1,-4 -1,-1 -2,-1 -3,-1l-22 0 0 13 22 0c2,0 3,0 3,-1 1,-1 1,-2 1,-4zm0 -17l0 -4c0,-1 0,-2 -1,-3 -1,-1 -2,-1 -3,-1l-22 0 0 11 22 0c1,0 2,0 3,-1 1,-1 1,-1 1,-3zm-32 28l0 -41 31 0c3,0 5,1 6,2 1,1 2,3 2,6l0 5c0,2 -1,4 -2,5 -1,1 -3,2 -5,2 2,0 4,1 5,2 1,1 2,3 2,6l0 5c0,3 -1,5 -3,6 -2,1 -4,2 -8,2l-29 0zm63 -6l32 0 0 -30 -32 0 0 30zm-6 -26c0,-4 1,-6 2,-8 1,-1 4,-2 7,-2l27 0c3,0 6,1 7,2 1,1 2,4 2,8l0 22c0,4 -1,6 -2,8 -1,1 -4,2 -7,2l-27 0c-4,0 -6,-1 -7,-2 -1,-1 -2,-4 -2,-8l0 -22zm70 -10l0 35 28 0 0 -35 6 0 0 31c0,4 -1,6 -2,8 -1,1 -4,2 -7,2l-23 0c-3,0 -6,-1 -7,-2 -1,-1 -2,-4 -2,-8l0 -31 6 0zm69 6l0 35 -6 0 0 -35 -18 0 0 -6 42 0 0 6 -18 0zm63 -6l0 35 28 0 0 -35 6 0 0 31c0,4 -1,6 -2,8 -1,1 -4,2 -7,2l-23 0c-3,0 -6,-1 -7,-2 -1,-1 -2,-4 -2,-8l0 -31 6 0zm87 6l-27 0 0 11 24 0c3,0 6,1 7,2 1,1 2,4 2,8l0 5c0,4 -1,6 -2,8 -1,1 -4,2 -7,2l-22 0c-3,0 -6,-1 -7,-2 -1,-1 -2,-4 -2,-8l0 -1 6 -1 0 7 29 0 0 -12 -24 0c-3,0 -6,-1 -7,-2 -1,-1 -2,-4 -2,-8l0 -4c0,-4 1,-6 2,-8 1,-1 4,-2 7,-2l20 0c3,0 6,1 7,2 1,1 2,4 2,7l0 1 -5 2 0 -6zm-135 -266l-134 0c-8,0 -16,3 -22,9 -6,6 -9,13 -9,22l0 134c0,8 3,16 9,22 6,6 13,9 22,9l134 0c8,0 16,-3 22,-9 6,-6 9,-13 9,-22l0 -134c0,-8 -3,-16 -9,-22 -6,-6 -13,-9 -22,-9zm-133 -7l132 0c11,0 21,4 28,12 7,7 12,17 12,28l0 132c0,11 -4,21 -12,28 -7,7 -17,12 -28,12l-132 0c-11,0 -21,-4 -28,-12 -7,-7 -12,-17 -12,-28l0 -132c0,-11 4,-21 12,-28 7,-7 17,-12 28,-12zm81 86l0 56c0,5 1,8 2,10 1,1 4,2 9,2l0 3 -48 0 0 -3c4,0 7,-1 9,-3 1,-1 2,-4 2,-9l0 -41c0,-5 -1,-8 -2,-10 -1,-1 -4,-2 -8,-2l0 -3 37 0zm-13 -40c4,0 7,1 10,4 3,3 4,6 4,10 0,4 -1,7 -4,10 -3,3 -6,4 -10,4 -4,0 -7,-1 -10,-4 -3,-3 -4,-6 -4,-10 0,-4 1,-7 4,-10 3,-3 6,-4 10,-4z"/>
  <polygon class="fil1" points="464,0 0,0 0,460 464,460 "/>
 </g>
</svg>
