<?xml version="1.0" encoding="UTF-8"?>
<!DOCTYPE svg PUBLIC "-//W3C//DTD SVG 1.1//EN" "http://www.w3.org/Graphics/SVG/1.1/DTD/svg11.dtd">
<!-- Creator: CorelDRAW X5 -->
<svg xmlns="http://www.w3.org/2000/svg" xml:space="preserve" width="41mm" height="41mm" style="shape-rendering:geometricPrecision; text-rendering:geometricPrecision; image-rendering:optimizeQuality; fill-rule:evenodd; clip-rule:evenodd"
viewBox="0 0 4100 4100"
 xmlns:xlink="http://www.w3.org/1999/xlink">
 <defs>
  <style type="text/css">
   <![CDATA[
    .fil0 {fill:none}
    .fil2 {fill:#0087EB}
    .fil1 {fill:#EBECEC}
   ]]>
  </style>
 </defs>
 <g id="Layer_x0020_1">
  <metadata id="CorelCorpID_0Corel-Layer"/>
  <polygon class="fil0" points="4085,33 15,33 15,4067 4085,4067 "/>
  <path class="fil1" d="M2044 1480c-2,-1 -1,-1 -2,-1 -2,0 -1,0 -2,1l-1 0 -1 0 -1 0 -1 0 -1 0 -1 0 -1 0 -1 0 -1 0 -1 0 -1 0 -1 0 -1 0 -1 0 -1 0 -1 0 -1 0 -1 0 -1 0 -1 0c-3,1 -1,1 -3,0l-1 0c-3,1 -1,1 -3,0l-1 0c-3,1 -1,1 -3,0l-1 0c-2,1 -1,1 -2,1 -2,0 -1,0 -2,-1 -2,1 0,1 -2,1 -2,0 -1,0 -2,-1 -4,3 -1,1 -5,2 -3,0 -3,0 -5,0 -3,0 -6,-1 -9,1l-1 0c-2,-1 -6,-1 -8,0l-1 0c-3,-1 -1,-1 -3,0l-1 0 -1 0 -1 0 -1 0 -1 0c-3,1 -1,1 -3,0l-1 0c-3,1 -1,1 -3,0l-1 0c-3,1 -1,1 -3,0l-1 0c-2,1 -1,1 -2,1 -2,0 -1,0 -2,-1 -2,1 -1,1 -2,1 -2,0 -1,0 -2,-1 -5,2 -14,1 -19,2 -2,0 -1,0 -2,1 -3,-1 -1,-1 -3,0l-1 0 -1 0 -1 0 -1 0 -1 0 -1 0 -1 0 -1 0 -1 0 -1 0 -1 0 -1 0 -1 0 -1 0 -1 0 -1 0 -1 0 -1 0 -1 0 -1 0 -1 0 -1 0 -1 0 -1 0 -1 0 -1 0c0,0 -1,0 -1,0 0,0 -1,0 -1,0 -2,0 -1,0 -2,-1 -5,3 -17,0 -21,2 -3,-1 -1,-1 -3,0l-1 0c-3,-1 -1,-1 -3,0l-1 0c-3,-1 -1,-1 -3,0l-1 0 -1 0 -1 0 -1 0 -1 0 -1 0 -1 0 -1 0 -1 0 -1 0 -1 0 -1 0 -1 0c-3,1 -1,1 -3,0l-1 0c-3,1 -1,1 -3,0l-1 0c-3,1 -6,0 -10,1 -1,0 -4,0 -6,0 -4,0 -3,-1 -5,2 -2,-1 -1,-1 -2,-1 -2,0 -1,0 -2,1 -2,-1 -1,-1 -2,-1 -2,0 -1,0 -2,1 -3,-1 -1,-1 -3,0l-1 0 -1 0 -1 0 -1 0 -1 0 -1 0 -1 0 -1 0 -1 0 -1 0 -1 0 -1 0 -1 0 -1 0 -1 0 -1 0 -1 0 -1 0 -1 0 -1 0 -1 0 -1 0 -1 0 -1 0 -1 0 -1 0 -1 0 -1 0 -1 0c-3,1 -1,1 -3,0l-1 0 -3 2 -2 -2c-4,3 -1,2 -6,2 -2,0 -5,0 -7,0 -3,0 -8,-1 -11,1l-1 0c-3,2 -2,6 -2,13 0,8 -1,40 1,43l1 0 1 0c3,1 1,1 3,0l1 0c3,1 1,1 3,0l1 0c3,1 1,1 3,0l1 0 1 0 1 0 1 0 1 0 1 0 1 0 1 0 1 0 1 0 1 0c3,-1 1,-1 3,0l1 0c3,-1 1,-1 3,0l1 0c3,-1 1,-1 3,0l1 0c3,-1 1,-1 3,0l1 0c3,-1 1,-1 3,0l1 0c3,-1 1,-1 3,0l1 0c3,-1 1,-1 3,0l1 0 1 0 1 0 1 0 1 0 1 0 1 0c3,1 1,1 3,0l1 0c4,2 5,1 8,2l1 0 1 0 1 0c1,0 2,1 2,1 2,1 1,1 2,1l1 0 1 0c5,2 5,0 11,5l1 0 2 2 1 0 6 5 5 6 0 1 1 2 1 0c2,5 -1,0 1,5l1 1 0 1c2,5 -1,7 1,11l0 1 0 1 0 1c-1,3 -1,1 0,3l0 1 0 1 0 1 0 1 0 1c-1,3 -1,1 0,3l0 1 0 1 0 1 0 1 0 1c-1,3 -1,1 0,3l0 1 0 1 0 1 0 1 0 1c-1,3 -1,1 0,3l0 1 0 1 0 1 0 1 0 1c-1,3 -1,1 0,3l0 1 0 1 0 1 0 1 0 1c-1,3 -1,1 0,3l0 1 0 1 0 1 0 1 0 1c-1,3 -1,1 0,3l0 1 0 1 0 1 0 1 0 1c-1,3 -1,1 0,3l0 1 0 1 0 1 0 1 0 1c-1,3 -1,1 0,3l0 1 0 1 0 1 0 1 0 1c-1,3 -1,1 0,3l0 1 0 1 0 1 0 1 0 1c-1,3 -1,1 0,3l0 1 0 1 0 1 0 1 0 1c-1,3 -1,1 0,3l0 1 0 1 0 1 0 1 0 1c-1,3 -1,1 0,3l0 1 0 1 0 1 0 1 0 1c-1,3 -1,1 0,3l0 1 0 1 0 1 0 1 0 1c-1,3 -1,1 0,3l0 1 0 1 0 1 0 1 0 1c-1,3 -1,1 0,3l0 1 0 1 0 1 0 1 0 1c-1,3 -1,1 0,3l0 1 0 1 0 1 0 1 0 1c-1,3 -1,1 0,3l0 1 0 1 0 1 0 1 0 1c-1,3 -1,1 0,3l0 1 0 1 0 1 0 1 0 1c-1,3 -1,1 0,3l0 1 0 1 0 1 0 1 0 1c-1,3 -1,1 0,3l0 1 0 1 0 1 0 1 0 1c-1,3 -1,1 0,3l0 1 0 1 0 1 0 1 0 1c-1,3 -1,1 0,3l0 1 0 1 0 1 0 1 0 1c-1,3 -1,1 0,3l0 1 0 1 0 1 0 1 0 1c-1,3 -1,1 0,3l0 1 0 1 0 1 0 1 0 1c-1,3 -1,1 0,3l0 1 0 1 0 1 0 1 0 1c-1,3 -1,1 0,3l0 1 0 1 0 1 0 1 0 1c-1,3 -1,1 0,3l0 1 0 1 0 1 0 1 0 1c-1,3 -1,1 0,3l0 1 0 1 0 1 0 1 0 1c-1,3 -1,1 0,3l0 1 0 1 0 1 0 1 0 1c-1,3 -1,1 0,3l0 1 0 1 0 1 0 1 0 1c-1,3 -1,1 0,3l0 1 0 1 0 1 0 1 0 1c-1,3 -1,1 0,3l0 1 0 1 0 1 0 1 0 1c-1,3 -1,1 0,3l0 1 0 1 0 1 0 1 0 1c-1,3 -1,1 0,3l0 1 0 1 0 1 0 1 0 1c-1,3 -1,1 0,3l0 1 0 1 0 1 0 1 0 1c-1,3 -1,1 0,3l0 1 0 1 0 1 0 1 0 1c-1,3 -1,1 0,3l0 1 0 1 0 1 0 1 0 1c-2,5 1,7 -1,12 -4,3 -1,3 -2,7 -5,3 1,3 -3,7l-1 2 -2 2 -2 2 -2 2 -2 2 -1 0 -1 0 -1 0 -3 2 -1 0 -1 0 -1 0 -1 0 -2 2 -1 0 -1 0 -1 0 -1 0c-3,1 -1,1 -3,0l-1 0c-2,1 -2,0 -4,1l-2 1c0,0 -1,0 -1,0 0,0 -1,0 -1,0 -2,-1 -1,-1 -4,-1 -1,0 -3,0 -4,1l-1 0c-2,-1 -6,-1 -8,0l-1 0c-3,-1 -1,-1 -3,0l-1 0c-3,-1 -1,-1 -3,0l-1 0c-3,-1 -1,-1 -3,0l-1 0c-3,-1 -1,-1 -3,0l-1 0c-3,-1 -1,-1 -3,0l-1 0c-3,-1 -1,-1 -3,0l-1 0c-3,-1 -1,-1 -3,0l-1 0 -1 0 -1 0 -1 0 -1 0 -1 0 -1 0 -1 0 -1 0 -1 0 -1 0 -1 0c-1,2 -1,56 0,57 1,1 0,0 1,0 1,0 1,0 2,0 2,0 2,-1 4,1l1 0c2,-1 6,-1 8,0l1 0c2,-1 6,-1 8,0l1 0c2,-1 6,-1 8,0l1 0c2,-1 6,-1 8,0l1 0c2,-1 6,-1 8,0l1 0c2,-1 6,-1 8,0l1 0c2,-1 6,-1 8,0l1 0c2,-1 6,-1 8,0l1 0c2,-1 6,-1 8,0l1 0c2,-1 6,-1 8,0l1 0c2,-1 6,-1 8,0l1 0c2,-1 6,-1 8,0l1 0c2,-1 6,-1 8,0l1 0c2,-1 6,-1 8,0l1 0c2,-1 6,-1 8,0l1 0c2,-1 6,-1 8,0l1 0c2,-1 6,-1 8,0l1 0c2,-1 6,-1 8,0l1 0c2,-1 6,-1 8,0l1 0c2,-1 6,-1 8,0l1 0c2,-1 6,-1 8,0l1 0c2,-1 6,-1 8,0l1 0c2,-1 6,-1 8,0l1 0c2,-1 6,-1 8,0l1 0c2,-1 6,-1 8,0l1 0c2,-1 6,-1 8,0l1 0c2,-1 6,-1 8,0l1 0c2,-1 6,-1 8,0l1 0c2,-1 6,-1 8,0l1 0c2,-1 6,-1 8,0l1 0c2,-1 6,-1 8,0l1 0c2,-1 6,-1 8,0l1 0c2,-1 6,-1 8,0l1 0c2,-1 6,-1 8,0l1 0c2,-1 6,-1 8,0l1 0c2,-1 6,-1 8,0l1 0c2,-1 6,-1 8,0l1 0c2,-1 6,-1 8,0l1 0c2,-1 6,-1 8,0l1 0c2,-1 6,-1 8,0l1 0c2,-1 6,-1 8,0l1 0c2,-1 6,-1 8,0l1 0c2,-1 6,-1 8,0l1 0c2,-1 6,-1 8,0l1 0c2,-1 6,-1 8,0l1 0c2,-1 6,-1 8,0l1 0c2,-1 6,-1 8,0l1 0c3,-2 2,-7 2,-14l0 -37c0,-5 1,-5 -2,-7l-1 0 -1 0 -1 0 -1 0 -1 0 -1 0 -1 0 -1 0 -1 0c-3,-1 -1,-1 -3,0l-1 0c-3,-1 -1,-1 -3,0l-1 0c-3,-1 -1,-1 -3,0l-1 0c-3,-1 -1,-1 -3,0l-1 0c-3,-1 -1,-1 -3,0l-1 0c-3,-1 -1,-1 -3,0l-1 0c-2,-1 -6,-1 -8,0l-1 0c-2,-1 -6,-1 -8,0l-1 0 -2 -2c-3,1 -1,1 -3,0l-1 0 -1 0 -1 0 -1 0 -1 0 -1 0 -3 -1c0,0 -1,0 -1,0 0,0 -1,0 -1,0 0,0 -1,0 -1,0l-1 0 -1 0 -1 0 -1 0 -2 -2 -1 0 -1 0 -1 0 -3 -2 -3 -2 -2 -2 -1 0c-7,-5 3,0 -3,-5l-1 -2c-5,-3 -1,0 -2,-4l-1 -3c0,0 0,0 0,-1 -2,-4 1,-6 -1,-11l0 -1c1,-3 1,-1 0,-3l0 -1c1,-3 1,-1 0,-3l0 -1c1,-3 1,-1 0,-3l0 -1c1,-3 1,-1 0,-3l0 -1c1,-3 1,-1 0,-3l0 -1c1,-3 1,-1 0,-3l0 -1c1,-3 1,-1 0,-3l0 -1c1,-3 1,-1 0,-3l0 -1c1,-3 1,-1 0,-3l0 -1c1,-3 1,-1 0,-3l0 -1c1,-3 1,-1 0,-3l0 -1c1,-3 1,-1 0,-3l0 -1c1,-3 1,-1 0,-3l0 -1c1,-3 1,-1 0,-3l0 -1c1,-3 1,-1 0,-3l0 -1c1,-3 1,-1 0,-3l0 -1c1,-3 1,-1 0,-3l0 -1c1,-3 1,-1 0,-3l0 -1c1,-3 1,-1 0,-3l0 -1c1,-3 1,-1 0,-3l0 -1c1,-3 1,-1 0,-3l0 -1c1,-3 1,-1 0,-3l0 -1c1,-3 1,-1 0,-3l0 -1c1,-3 1,-1 0,-3l0 -1c1,-3 1,-1 0,-3l0 -1c1,-3 1,-1 0,-3l0 -1c1,-3 1,-1 0,-3l0 -1c1,-3 1,-1 0,-3l0 -1c1,-3 1,-1 0,-3l0 -1c1,-3 1,-1 0,-3l0 -1c1,-3 1,-1 0,-3l0 -1c1,-3 1,-1 0,-3l0 -1c1,-3 1,-1 0,-3l0 -1c1,-3 1,-1 0,-3l0 -1c1,-3 1,-1 0,-3l0 -1c1,-3 1,-1 0,-3l0 -1c1,-3 1,-1 0,-3l0 -1c1,-3 1,-1 0,-3l0 -1c1,-3 1,-1 0,-3l0 -1c1,-3 1,-1 0,-3l0 -1c1,-3 1,-1 0,-3l0 -1c1,-3 1,-1 0,-3l0 -1c1,-3 1,-1 0,-3l0 -1c1,-3 1,-1 0,-3l0 -1c1,-3 1,-1 0,-3l0 -1c1,-3 1,-1 0,-3l0 -1c1,-3 1,-1 0,-3l0 -1c1,-3 1,-1 0,-3l0 -1c1,-3 1,-1 0,-3l0 -1c1,-3 1,-1 0,-3l0 -1c1,-3 1,-1 0,-3l0 -1c1,-3 1,-1 0,-3l0 -1c1,-3 1,-1 0,-3l0 -1c1,-3 1,-1 0,-3l0 -1c1,-3 1,-1 0,-3l0 -1c1,-3 1,-1 0,-3l0 -1c1,-3 1,-1 0,-3l0 -1c1,-3 1,-1 0,-3l0 -1c1,-3 1,-1 0,-3l0 -1c1,-3 1,-1 0,-3l0 -1c1,-3 1,-1 0,-3l0 -1c1,-3 1,-1 0,-3l0 -1c1,-3 1,-1 0,-3l0 -1c1,-3 1,-1 0,-3l0 -1c1,-3 1,-1 0,-3l0 -1c1,-3 1,-1 0,-3l0 -1c1,-3 1,-1 0,-3l0 -1c1,-3 1,-1 0,-3l0 -1c1,-3 1,-1 0,-3l0 -1c1,-3 1,-1 0,-3l0 -1c1,-3 1,-1 0,-3l0 -1c1,-3 1,-1 0,-3l0 -1c1,-3 1,-1 0,-3l0 -1c1,-3 1,-1 0,-3l0 -1c1,-3 1,-1 0,-3l0 -1c1,-3 1,-1 0,-3l0 -1c1,-3 1,-1 0,-3l0 -1c1,-3 1,-1 0,-3l0 -1c1,-3 1,-1 0,-3l0 -1c1,-3 1,-1 0,-3l0 -1c1,-3 1,-1 0,-3l0 -1c1,-3 1,-1 0,-3l0 -1c1,-3 1,-1 0,-3l0 -1c1,-3 1,-1 0,-3l0 -1c1,-3 1,-1 0,-3l0 -1c1,-3 1,-1 0,-3l0 -1c1,-3 1,-1 0,-3l0 -1c1,-3 1,-1 0,-3l0 -1c1,-3 1,-1 0,-3l0 -1c1,-3 1,-1 0,-3l0 -1c1,-3 1,-1 0,-3l0 -1c1,-3 1,-1 0,-3l0 -1c1,-3 1,-1 0,-3l0 -1c1,-3 1,-1 0,-3l0 -1c1,-3 1,-1 0,-3l0 -1c1,-3 1,-1 0,-3l0 -1c1,-3 1,-1 0,-3l0 -1c1,-3 1,-1 0,-3l0 -1c1,-3 1,-1 0,-3l0 -1c1,-3 1,-1 0,-3l0 -1c1,-3 1,-1 0,-3l0 -1c1,-3 1,-1 0,-3 -5,-3 -17,-1 -18,0l-25 -16zm-133 -340c-3,-1 -1,-1 -3,0l-1 0 -1 0 -1 0 -1 0 -1 0c-5,3 -2,1 -6,2l-1 0 -1 0 -1 0c-1,0 -2,1 -2,1 -2,1 -1,1 -2,1l-1 0 -1 0 -1 0 -3 2c-4,2 -1,-1 -6,2l-1 0 -3 2 -1 0 -3 2 -1 0 -3 2 -3 2 -1 0 -2 2 -1 0 -2 2 -2 2 -2 2 -1 0 -2 2 -2 2 -2 2 -3 2c0,0 0,1 -2,2l-2 2 -3 5 -2 2 -2 2c-7,5 3,0 -3,5 -2,5 1,0 -1,5l-1 0 -1 2c-2,2 -3,5 -4,8l-1 2c0,0 0,0 0,1l-2 3c0,0 0,0 0,1l-2 4 0 1 -1 1 0 1 0 1 -1 2 0 1 -1 2 1 1 -1 0c-2,4 0,3 -1,7 -3,2 -2,2 -2,5 0,3 1,3 -1,6l0 1 -1 1 1 2c-3,2 -2,2 -2,5 0,2 0,3 0,6 0,3 -1,8 1,11l1 1 0 1 0 1 0 1c1,3 1,3 1,6 0,4 -1,3 2,7l0 1c2,5 -1,0 1,5l1 1 0 1c2,5 -1,0 1,5l1 1 0 1c2,4 -1,4 2,7 0,1 1,2 1,3 0,0 0,0 0,1 0,0 0,0 0,1l1 1c2,4 0,2 3,4 2,5 -2,1 2,5l1 2c5,3 0,0 2,5l1 0c1,1 0,1 1,2l6 8c2,2 2,2 4,4l2 2 1 1 1 1 2 2 1 1 1 1 8 7 2 2 3 2 1 0 1 2 1 0 1 0 6 5 1 0 1 0 2 2 1 0c1,0 2,1 2,1 2,1 1,1 2,1l1 0c3,5 0,0 5,2l1 0 1 0 1 2 1 0 1 0c3,2 5,1 8,2l1 0 1 0 1 0c1,0 2,1 2,1 2,1 1,1 2,1l1 0 1 0c3,1 1,1 3,0l1 0c5,3 25,2 31,1 3,-1 3,0 5,-1l1 0c3,1 1,1 3,0l1 0 1 0 1 -1 1 0 2 -1 1 0 1 0 1 0c2,-1 4,-1 6,-2l1 0c1,0 2,-1 2,-1 2,-1 1,-1 2,-1l1 0 1 0c1,0 2,-1 2,-1 2,-1 1,-1 2,-1l1 0 1 -2 1 0 1 0c1,0 2,-1 2,-1 2,-1 1,-1 2,-1l1 0 1 -1 1 -1 1 0 3 -2 3 -2 3 -2 1 -1 0 -1 1 0 1 0 2 -2 2 -2 14 -14 2 -2 0 -1 0 -1 1 0 2 -2 1 -2c3,-2 6,-9 7,-12l1 0 2 -4c0,0 0,0 0,-1 0,0 0,0 0,-1 0,0 0,0 0,-1l1 -3 1 0c2,-4 -1,-1 2,-6l0 -1c1,-3 0,-1 1,-3 2,-3 0,0 2,-3 1,-4 -1,-2 2,-7l-1 -1 1 0c2,-4 0,-3 1,-7l0 -1c2,-3 2,-2 2,-6 0,-2 -1,-4 1,-7l0 -1 0 -10c0,0 0,0 0,-1l0 -9c0,0 0,0 0,-1 -1,-7 2,-7 -2,-13l0 -1c-2,-4 0,-3 -1,-7l-1 -1 0 -1c-2,-4 1,-4 -2,-7 -2,-5 1,0 -1,-5l-1 -1 0 -1c-2,-5 1,0 -1,-5 -5,-3 0,0 -2,-5l-1 0c-2,-5 1,0 -1,-5 -7,-5 3,0 -3,-5 -2,-5 -2,-4 -6,-9l-2 -2c-7,-5 3,0 -3,-5l-2 -2 -3 -5 -1 0 -1 -2 -2 -2 -1 0 -2 -2 -2 -2 -2 -2 -1 0 -2 -2 -5 -5 -1 0c-1,-1 0,0 -2,-1 0,0 -2,-1 -2,-1l-1 0 -2 -2c-5,-3 -2,-1 -6,-2l-3 -2c-2,-1 -4,-1 -6,-2l-1 0 -2 -2 -1 0 -1 0 -1 0 -1 0c-5,-3 -2,-1 -6,-2l-1 0c-2,-1 -2,0 -4,-1l-3 -1 -1 0 -1 0 -1 0 -1 0c-2,-1 -1,-1 -2,-1 -2,0 -1,0 -2,1 -4,-3 -3,-2 -7,-2 -3,0 -5,1 -8,-1l-1 0c-2,1 -6,1 -8,0l-1 0c-4,2 -4,-1 -7,2l-4 5zm620 -389l-1178 0c-74,0 -142,30 -191,79 -49,49 -79,116 -79,191l0 1178c0,74 30,142 79,191 49,49 116,79 191,79l1178 0c74,0 142,-30 191,-79 49,-49 79,-116 79,-191l0 -1178c0,-74 -30,-142 -79,-191 -49,-49 -116,-79 -191,-79zm-1168 -63l1158 0c94,0 180,39 243,101 62,62 101,148 101,243l0 1158c0,94 -39,180 -101,243 -62,62 -148,101 -243,101l-1158 0c-94,0 -180,-39 -243,-101 -62,-62 -101,-148 -101,-243l0 -1158c0,-94 39,-180 101,-243 62,-62 148,-101 243,-101zm-561 2426c0,-34 6,-57 19,-70 13,-12 37,-19 73,-19l274 0c36,0 61,6 73,19 13,13 19,36 19,70l0 196c0,34 -6,57 -19,70 -13,12 -37,19 -73,19l-274 0c-36,0 -61,-6 -73,-19 -13,-12 -19,-36 -19,-70l0 -196zm87 214l286 0 0 -236 -286 0 0 236zm834 70l0 -373 59 0 262 220c9,7 17,14 24,21 7,7 13,13 19,20 -1,-21 -2,-36 -3,-44 0,-9 -1,-15 -1,-20l0 -196 78 0 0 373 -59 0 -274 -230c-7,-6 -12,-11 -17,-16 -5,-5 -10,-10 -14,-14 1,11 2,22 3,33 1,10 1,19 1,27l0 201 -78 0 0 -2zm724 -149l163 0 -80 -152 -83 152zm-167 149l211 -373 84 0 214 373 -97 0 -45 -81 -236 0 -43 81 -86 0 -2 0zm938 -307l-244 0 0 80 232 0c36,0 61,6 74,19 13,13 19,36 19,70l0 51c0,34 -6,57 -19,69 -13,12 -37,19 -74,19l-230 0c-36,0 -61,-6 -74,-19 -13,-13 -19,-36 -19,-69l0 -10 77 -16 0 44 263 0 0 -85 -232 0c-36,0 -61,-6 -73,-19 -13,-13 -19,-36 -19,-70l0 -41c0,-34 6,-57 19,-70 13,-12 37,-19 73,-19l211 0c35,0 59,6 72,18 13,12 20,33 20,64l0 8 -77 18 0 -42 1 0zm-1363 -1103l0 0zm309 -2l0 0zm-3 0l0 0c0,0 0,0 0,0zm-290 0l0 0zm7 -2l0 0zm270 -2l0 0zm-263 0l0 0zm2 -2l0 0zm254 -2l0 0zm-3 0l0 0c0,0 0,0 0,0zm-248 0l0 0zm2 -2l0 0zm2 -2l0 0zm240 -2l0 0zm-6 -7l0 0c0,0 0,0 0,0zm-230 0l0 0zm2 -7l0 0zm-2 -383l0 0zm-7 -9l0 0zm-9 -7l0 0zm-2 -3l0 0c0,0 0,0 0,0zm-46 -9l0 0c0,0 0,0 0,0zm-9 0l0 0c0,0 0,0 0,0zm-9 0l0 0c0,0 0,0 0,0zm-9 0l0 0c0,0 0,0 0,0zm74 -55l0 0c0,0 0,0 0,0zm-9 0l0 0c0,0 0,0 0,0zm-5 0l0 0c0,0 0,0 0,0zm-5 0l0 0zm-5 0l0 0zm-5 0l0 0zm67 -2l0 0zm57 -2l0 0zm142 -5l0 0c0,0 0,0 0,0zm-5 0l0 0c0,0 0,0 0,0zm-5 0l0 0zm-5 0l0 0zm-68 -95l0 0zm-88 0l0 0zm95 -2l0 0zm-102 0l0 0zm105 -2l0 0zm7 -2l0 0zm-121 0l0 0zm132 -7l0 0zm-144 0l0 0zm-5 -2l0 0zm153 -2l0 0zm-155 0l0 0zm160 -2l0 0zm2 -2l0 0zm-3 -1l0 0c0,0 0,0 0,0zm17 -13l0 0zm2 -5l0 0zm5 -5l0 0zm-210 -2l0 0zm-5 -7l0 0zm222 -2l0 0zm-224 -2l0 0zm229 -7l0 0zm-233 -2l0 0zm240 -18l0 0zm-245 -1l0 0c0,0 0,0 0,0zm-5 -23l0 0c0,0 0,0 0,0zm0 -14l0 0c0,0 0,0 0,0zm0 -5l0 0zm2 -16l0 0zm2 -7l0 0zm242 -7l0 0zm-3 -2l0 0c0,0 0,0 0,0zm-234 -5l0 0c0,0 0,0 0,0zm231 -9l0 0zm-224 -7l0 0zm219 -2l0 0zm-217 0l0 0zm5 -9l0 0zm2 -2l0 0zm2 -2l0 0zm196 -2l0 0zm-2 -2l0 0zm-5 -5l0 0zm-5 -5l0 0zm-2 -2l0 0zm-2 -2l0 0zm-162 0l0 0zm2 -2l0 0zm2 -2l0 0zm146 -5l0 0zm-137 0l0 0c0,0 0,0 0,0zm-2 0l0 0zm125 -7l0 0zm-105 -2l0 0c0,0 0,0 0,0zm2 -2l0 0zm7 -2l0 0zm55 -5l0 0zm-5 0l0 0c0,0 0,0 0,0zm-5 0l0 0c0,0 0,0 0,0zm-9 0l0 0c0,0 0,0 0,0zm-9 0l0 0c0,0 0,0 0,0zm-5 0l0 0z"/>
 </g>
 <g id="Layer_x0020_1_0">
  <metadata id="CorelCorpID_1Corel-Layer"/>
  <polygon class="fil0" points="10969,264 6899,264 6899,4298 10969,4298 "/>
  <path class="fil1" d="M8306 917l1158 0c94,0 180,39 243,101 62,62 101,148 101,243l0 1158c0,94 -39,180 -101,243 -62,62 -148,101 -243,101l-1158 0c-94,0 -180,-39 -243,-101 -62,-62 -101,-148 -101,-243l0 -1158c0,-94 39,-180 101,-243 62,-62 148,-101 243,-101zm1168 63l-1178 0c-74,0 -142,30 -191,79 -49,49 -79,116 -79,191l0 1178c0,74 30,142 79,191 49,49 116,79 191,79l1178 0c74,0 142,-30 191,-79 49,-49 79,-116 79,-191l0 -1178c0,-74 -30,-142 -79,-191 -49,-49 -116,-79 -191,-79zm-213 1028l-132 -15c-32,-4 -63,7 -85,30l-96 96c-147,-75 -267,-195 -342,-342l96 -96c22,-22 33,-54 30,-85l-15 -131c-6,-52 -50,-92 -103,-92l-90 0c-59,0 -107,49 -104,107 28,443 382,797 825,825 59,4 107,-45 107,-104l0 -90c1,-52 -39,-97 -92,-102l1 -1zm1332 1331l0 306 -87 0 0 -306 -171 0 0 -67 430 0 0 67 -172 0zm-721 306l0 -373 87 0 0 155 207 -155 126 0 -247 176 277 197 -139 0 -223 -164 0 164 -87 0 -1 0zm-628 0l211 -373 84 0 214 373 -97 0 -45 -81 -236 0 -43 81 -86 0 -2 0zm167 -149l163 0 -80 -152 -83 152zm-324 -157l0 306 -87 0 0 -306 -171 0 0 -67 430 0 0 67 -172 0zm-802 306l0 -373 59 0 262 220c9,7 17,14 24,21 7,7 13,13 19,20 -1,-21 -2,-36 -3,-44 0,-9 -1,-15 -1,-20l0 -196 78 0 0 373 -59 0 -274 -230c-7,-6 -12,-11 -17,-16 -5,-5 -10,-10 -14,-14 1,11 2,22 3,33 1,10 1,19 1,27l0 201 -78 0 0 -2zm-554 -70l286 0 0 -236 -286 0 0 236zm-87 -214c0,-34 6,-57 19,-70 13,-12 37,-19 73,-19l274 0c36,0 61,6 73,19 13,13 19,36 19,70l0 196c0,34 -6,57 -19,70 -13,12 -37,19 -73,19l-274 0c-36,0 -61,-6 -73,-19 -13,-12 -19,-36 -19,-70l0 -196zm-540 284l0 -373 87 0 0 155 207 -155 126 0 -247 176 277 197 -139 0 -223 -164 0 164 -87 0 -1 0z"/>
 </g>
 <g id="Layer_x0020_1_1">
  <metadata id="CorelCorpID_2Corel-Layer"/>
  <polygon class="fil0" points="5931,-6870 1861,-6870 1861,-2836 5931,-2836 "/>
  <path class="fil2" d="M2471 -3961c0,-33 6,-56 19,-68 12,-12 36,-18 72,-18l268 0c35,0 59,6 72,18 12,12 19,35 19,68l0 192c0,33 -6,56 -19,68 -12,12 -36,18 -72,18l-268 0c-35,0 -59,-6 -72,-18 -12,-12 -19,-35 -19,-68l0 -192zm85 210l280 0 0 -231 -280 0 0 231zm820 -237l-193 0 0 87 193 0c15,0 25,-2 30,-6 6,-4 8,-11 8,-20l0 -34c0,-9 -3,-16 -8,-20 -6,-4 -16,-6 -30,-6l0 -1zm0 147l-193 0 0 93 193 0c16,0 27,-2 32,-7 6,-5 8,-13 8,-25l0 -28c0,-12 -3,-21 -8,-25 -6,-5 -16,-7 -32,-7l0 -1zm-277 158l0 -364 312 0c29,0 50,6 62,17 13,11 19,29 19,54l0 44c0,18 -5,32 -16,42 -11,10 -26,17 -47,20 21,3 37,10 48,22 11,12 17,28 17,48l0 46c0,24 -9,42 -26,54 -18,12 -45,18 -81,18l-290 0 2 -1zm561 0l0 -364 85 0 0 296 273 0 0 69 -358 0 0 -1zm482 0l0 -364 85 0 0 364 -85 0zm577 -299l-229 0 0 231 229 0 0 -78 85 18 0 43c0,33 -6,56 -19,68 -12,12 -36,18 -72,18l-217 0c-35,0 -59,-6 -72,-18 -12,-12 -19,-35 -19,-68l0 -192c0,-33 6,-56 19,-68 12,-12 36,-18 72,-18l217 0c35,0 59,6 72,18 13,12 19,35 19,68l0 34 -85 13 0 -69zm210 299l0 -40 255 -260 -229 0 0 -65 366 0 0 36 -259 260 259 0 0 69 -391 0 -1 0zm-2284 739l0 -364 86 0 0 152 202 -152 123 0 -241 172 271 193 -136 0 -218 -160 0 160 -86 0 -1 -1zm528 -278c0,-33 6,-56 19,-68 12,-12 36,-18 72,-18l268 0c35,0 59,6 72,18 12,12 19,35 19,68l0 192c0,33 -6,56 -19,68 -12,12 -36,18 -72,18l-268 0c-35,0 -59,-6 -72,-18 -12,-12 -19,-35 -19,-68l0 -192zm85 210l280 0 0 -231 -280 0 0 231zm858 -232l-239 0 0 78 227 0c36,0 60,6 72,18 13,12 19,35 19,68l0 50c0,33 -6,56 -19,68 -12,12 -37,18 -72,18l-225 0c-36,0 -60,-6 -72,-18 -13,-12 -19,-35 -19,-68l0 -10 75 -16 0 43 258 0 0 -83 -227 0c-35,0 -59,-6 -72,-18 -12,-12 -19,-35 -19,-68l0 -40c0,-33 6,-56 19,-68 12,-12 36,-18 72,-18l207 0c34,0 58,6 71,18 13,12 20,33 20,63l0 8 -75 18 0 -41 -1 -2zm205 301l0 -40 255 -260 -229 0 0 -65 366 0 0 36 -259 260 259 0 0 69 -391 0 -1 0zm701 -299l0 299 -85 0 0 -299 -167 0 0 -65 420 0 0 65 -168 0zm-1923 -3515c-5,1 -9,0 -14,2l-24 8c-32,16 -49,29 -68,58 -5,7 -8,14 -10,21 -5,17 -4,1 -9,38 -5,34 -2,88 -2,125l0 1834c0,19 -1,45 1,62 1,9 2,19 4,28 4,19 19,48 32,62 10,11 22,20 35,28 46,29 108,19 170,19l1329 0c19,0 47,2 64,0 16,-2 35,-8 49,-14l19 -12c5,-3 5,-3 9,-7 18,-16 12,-13 23,-25 6,-7 14,-21 17,-30 3,-8 9,-29 10,-38 2,-20 0,-100 0,-126l0 -1645c0,-84 0,-168 0,-253 0,-56 -37,-102 -82,-123 -36,-17 -55,-13 -97,-13l-1392 0c-19,0 -46,-2 -63,1l-1 0zm-81 136l0 2012c0,15 3,20 7,28 1,3 2,6 3,9 1,2 7,12 9,15 5,7 16,17 24,22 16,10 33,18 53,18l1483 0c4,0 14,-3 19,-4 13,-2 21,-8 31,-14 18,-11 23,-23 33,-37 3,-5 10,-27 10,-36l0 -2013c0,-9 -3,-16 -5,-23 -2,-8 -5,-13 -9,-20 -6,-12 -18,-22 -28,-30 -5,-4 -2,-2 -9,-5 -15,-7 0,-4 -32,-11 -12,-3 -262,-1 -288,-1l-1158 0c-47,0 -78,-5 -114,30 -3,3 -4,5 -6,8 -3,4 -3,4 -6,8 -10,17 -3,6 -9,20 -3,8 -5,16 -5,25l-3 -1zm1180 1689l0 190c0,4 1,8 3,11l0 0c2,4 6,7 9,8 6,3 137,2 196,1l26 0 0 0c3,0 6,-1 8,-2l0 0c3,-1 5,-3 7,-5l0 0c1,-1 3,-4 4,-7 1,-3 2,-5 2,-8l0 -186c0,-7 -2,-12 -6,-16 -4,-4 -10,-6 -17,-6l-210 0c-5,0 -9,1 -12,2 -3,1 -5,3 -8,6l0 0 -1 1 0 0c-1,1 -1,1 -1,2l0 0c0,1 -1,2 -1,3 0,2 -1,3 -1,5l2 1zm-24 190l0 -190c0,-3 0,-7 1,-10 1,-3 2,-7 3,-9l0 0c1,-3 3,-4 4,-6l0 0 1 -1 0 0c5,-6 10,-10 16,-13 6,-3 13,-4 21,-4l210 0c13,0 25,5 33,13 8,8 13,20 13,33l0 186c0,6 -2,12 -4,17 -3,6 -6,12 -10,15l0 0c-4,4 -9,7 -15,10l0 0c-5,2 -11,3 -17,3l0 0 -26 0c-61,0 -196,1 -206,-3 -7,-3 -14,-9 -19,-17l0 0c-4,-7 -7,-15 -7,-24l2 0zm-438 20l210 0c5,0 8,-1 11,-3 3,-2 6,-6 8,-10 0,-1 1,-2 1,-3l0 0c0,-1 1,-3 1,-4l0 -191c0,-4 -2,-9 -7,-13l0 0c-4,-3 -10,-6 -16,-6l0 0 -34 0c-57,0 -162,0 -176,0l0 0c-1,0 -4,0 -7,1 -2,0 -4,1 -4,1 0,0 -1,1 -1,1l0 0 -1 1 0 0c-8,7 -8,14 -8,26l0 3 0 161 0 4 0 0c0,11 0,21 7,26 3,2 5,3 7,4 2,1 5,1 11,1l-2 1zm210 24l-210 0c-8,0 -13,-1 -18,-2 -5,-2 -9,-4 -14,-7 -17,-12 -17,-28 -17,-45l0 0 0 -3 0 -161 0 0 0 -4c0,-20 0,-31 17,-44l0 0 1 -1 0 0c2,-2 4,-3 7,-5 2,-1 6,-2 10,-3 4,-1 9,-1 11,-1l0 0 1 0c3,0 115,0 174,0l34 0 0 0c13,0 24,5 32,12l0 0c10,8 15,20 15,30l0 191c0,3 -1,7 -1,10l0 0c-1,3 -2,7 -4,9 -4,7 -9,12 -15,17 -7,5 -14,7 -24,7l1 0zm-700 -24l213 0c2,0 4,0 5,0l0 0c1,0 2,-1 3,-1 1,0 1,-1 1,-1l0 0c1,0 1,-1 3,-2 3,-2 5,-4 7,-7l0 0c1,-3 2,-6 2,-10l0 -187c0,-4 -1,-7 -2,-9l0 0c-2,-3 -4,-5 -7,-8 -2,-2 -4,-2 -8,-3 -4,-1 -10,-1 -15,-1 -9,0 -27,0 -48,0 -63,0 -160,-1 -166,2l0 0c-2,1 -4,3 -7,6 -2,2 -3,5 -4,7 -1,5 -1,49 -1,95 0,49 0,100 1,104 1,3 2,6 3,8 2,2 5,5 8,7l0 0c1,0 2,1 3,1 2,0 4,0 7,0l2 -1zm213 24l-213 0c-3,0 -7,0 -11,-1 -4,-1 -8,-2 -12,-4l0 0c-6,-4 -10,-8 -14,-12 -4,-5 -6,-11 -8,-18 -1,-6 -2,-58 -2,-108 0,-47 1,-93 2,-99 1,-6 4,-12 8,-17 4,-5 9,-10 14,-12l0 0c11,-6 111,-5 177,-4 21,0 39,0 48,0 6,0 12,0 19,1 8,1 15,4 20,9 4,4 8,8 11,13l0 0c3,6 5,12 5,21l0 187c0,8 -2,15 -5,21l0 0c-4,7 -9,12 -15,16l-1 1 0 0c-1,1 -2,2 -4,3 -3,1 -6,3 -9,3l0 0c-3,1 -7,1 -10,1l0 -1zm-217 -655c-9,4 -14,6 -16,10l0 0c-2,4 -3,10 -3,21l0 0 0 133c0,7 0,15 0,23 -1,26 -1,35 17,44 4,2 58,1 83,1l0 0 12 0 0 0 21 0c36,0 101,1 107,-1 7,-3 11,-6 13,-10l0 0c2,-5 3,-13 3,-22l0 -99c0,-1 0,-4 0,-6 0,-4 -1,-7 0,-12l0 0 1 -7 0 0c2,-19 5,-55 0,-61l0 0c-2,-2 -3,-3 -4,-4l0 0 -3 -2 0 0c-7,-6 -18,-6 -30,-6l-4 0 0 0 -31 0 0 0c-57,0 -164,-1 -166,0l0 -2zm-36 -2c5,-9 13,-14 27,-20 6,-3 116,-2 175,-2l30 0 4 0c17,0 31,0 45,12l0 0 3 2c2,2 4,3 7,6l0 0c12,13 9,56 7,79l-1 7 0 0c0,3 0,5 0,8l0 0c0,2 0,4 0,8l0 0 0 99c0,13 -1,23 -5,32l0 0c-5,10 -13,17 -26,22 -10,4 -78,3 -115,2 -7,0 -13,0 -21,0l0 0 -12 0c-27,0 -85,1 -93,-3 -32,-15 -32,-28 -31,-65 0,-6 0,-12 0,-22l0 -133 0 0c0,-15 1,-25 6,-33l0 0 0 1zm527 0l-2 0 0 0c-9,1 -12,2 -20,10 -1,1 -1,2 -2,3l0 0c-1,3 -2,6 -2,8l0 0c0,3 -1,16 -1,30 0,15 0,29 1,32l0 0c1,4 1,6 1,8l0 0c1,7 2,12 1,25 -1,8 -1,32 -1,55 0,21 1,41 1,44l0 0c1,7 5,11 9,13 6,3 13,3 22,3l0 0c8,0 24,0 45,0 59,0 151,1 161,0 6,-1 11,-3 14,-7 4,-5 6,-11 6,-18l0 -52 0 0 0 -17c0,-6 0,-11 0,-16 0,-5 0,-11 0,-17 0,-6 1,-11 1,-16 1,-5 1,-10 1,-16 0,-6 0,-11 0,-16 0,-22 1,-37 -10,-49 -1,-1 -2,-2 -2,-3l-3 -1 0 0c-6,-2 -9,-2 -14,-2l0 0c-3,0 -6,0 -11,0l0 0c-6,0 -11,0 -17,0l0 0c-5,0 -10,0 -16,1 -7,0 -16,-1 -24,-2 -3,0 -7,-1 -9,-1l-128 0 -1 1zm-5 -23l3 0 1 0 1 0 130 0 1 0 0 0c3,0 7,1 10,1 7,1 16,2 20,2 6,0 11,-1 17,-1l0 0c6,0 11,0 17,0l0 0c3,0 7,0 9,0 8,-1 13,-1 25,3l0 0 3 1 0 0c3,1 4,2 6,3l0 0c2,2 3,3 4,4l0 0c0,0 0,1 2,2 17,20 17,38 16,65 0,5 0,10 0,16 0,8 -1,13 -1,19 -1,4 -1,9 -1,13 0,5 0,10 0,16 0,6 0,12 0,17l0 17 0 0 0 52c0,13 -4,24 -11,33 -7,9 -18,15 -30,16 -11,1 -104,1 -163,0l-45 0 0 0c-11,0 -22,-1 -32,-6 -11,-5 -19,-14 -22,-29l0 0c-1,-4 -1,-26 -2,-48 0,-24 0,-49 1,-57 1,-10 0,-14 -1,-19l0 0c-1,-3 -1,-6 -2,-9l0 0c-1,-4 -1,-20 -1,-36 0,-15 0,-29 1,-33l0 0c1,-4 2,-9 4,-13l0 0c2,-4 4,-8 7,-11 13,-13 19,-14 33,-16l0 0 0 -2zm496 23c-1,0 -4,0 -6,0 -2,0 -5,0 -6,1l-8 3 0 0 -1 0 -6 7c-4,6 -4,24 -3,34l0 0 0 2c0,6 0,12 0,18 0,5 0,11 0,15 0,4 1,7 2,10 1,6 3,11 2,20 0,3 -1,17 -1,34 0,27 0,59 0,64 0,5 0,9 1,11l0 0c1,2 2,4 4,6 2,2 5,4 8,6l0 0c2,1 5,2 7,2l0 0c14,0 29,0 44,0l0 0c10,0 19,0 23,0l0 0 46 0 91 0 0 0 1 0 0 0c10,0 18,0 24,-6 2,-2 3,-3 4,-5l0 0c1,-2 2,-4 3,-6 2,-5 1,-78 1,-114l0 -17 0 0 0 -16c0,-18 1,-42 -1,-51l0 0c0,-2 -2,-4 -4,-7l0 0c-2,-3 -4,-5 -5,-6 -2,-2 -5,-3 -8,-3 -4,-1 -8,-1 -13,-1l-184 1 -1 0 0 0c-2,0 -5,-1 -7,-1l0 0 -5 -1 -2 0zm-6 -23c1,0 2,0 4,0l0 0c4,0 8,1 12,2l0 0c2,0 3,1 4,1l184 -1c6,0 12,0 17,1 6,1 12,3 18,7 4,3 8,7 12,12l0 0c3,5 6,10 7,15l0 0c2,10 2,37 1,56 0,5 0,9 0,15l0 0 0 17c0,37 1,112 -2,121 -1,4 -3,8 -5,11l0 0c-2,3 -5,6 -8,9 -13,12 -24,12 -40,12l0 0 -1 0 0 0 -91 0 -46 0 0 0c-11,0 -17,0 -23,0l0 0c-15,0 -30,0 -45,0l0 0c-6,0 -11,-2 -16,-4l0 0c-6,-3 -11,-7 -15,-10 -5,-5 -8,-10 -10,-16l0 0c-2,-5 -2,-11 -2,-18l0 0c0,-5 0,-38 0,-65 0,-17 0,-32 1,-36 0,-5 0,-8 -1,-11 -1,-4 -2,-9 -2,-16 0,-6 0,-11 0,-16 0,-6 1,-11 0,-16l0 0 0 -2c0,-13 -1,-36 8,-48l0 0 1 -1 8 -9 1 -1 1 -1c1,-1 3,-2 5,-3l0 0 8 -4 0 0c6,-2 10,-2 15,-2l0 1zm-24 -349l0 28c-1,50 -2,147 1,156l0 0 0 1 0 0c1,5 2,7 2,8l0 0c0,0 1,1 2,2l0 0 3 3 0 0c8,8 20,6 28,4l0 0c4,-1 8,-2 12,-2 36,1 70,1 104,1 27,0 54,0 81,0 6,0 11,-1 14,-2l0 0c3,-2 6,-5 10,-10l0 0c0,0 0,-1 1,-2l0 0c0,-2 1,-4 1,-7l0 -185c0,-6 -2,-11 -6,-15 -4,-4 -9,-7 -12,-7l-209 0c-5,0 -11,0 -16,1 -4,1 -7,2 -8,3 -3,3 -5,6 -6,9 -1,3 -1,7 -1,12l-1 2zm-24 28c0,-11 0,-20 0,-28 0,-8 1,-14 3,-20 2,-6 5,-12 11,-17 5,-6 13,-9 21,-11 7,-1 14,-2 21,-2l209 0c10,0 21,6 30,15 7,8 12,19 12,31l0 185c0,3 0,8 -1,11l0 0c-1,4 -2,7 -4,10l0 0c-5,8 -11,14 -18,18l0 0c-7,4 -15,6 -26,5l0 0c-27,-1 -53,0 -80,0 -35,0 -69,0 -105,-1 -1,0 -4,0 -7,1l0 0c-13,3 -32,6 -49,-11l-3 -3c-3,-3 -5,-4 -6,-7l0 0c-2,-3 -3,-6 -5,-13l0 0 0 -1 0 0c-3,-12 -2,-111 -1,-163l-2 1zm-914 175l196 0c1,0 3,0 5,-1 3,-1 7,-1 9,-2l0 0c2,-1 3,-1 3,-1l0 0c1,-1 2,-2 5,-4 3,-2 5,-4 6,-6 1,-2 1,-5 1,-11l0 -181c0,-5 -3,-12 -8,-17l0 0c-4,-4 -9,-7 -14,-7l-219 0c-2,0 -5,1 -7,3 -4,2 -7,5 -8,8 -2,4 -2,17 -2,26l0 0 0 5 0 0 0 164c0,11 3,14 9,19l0 0 0 0 0 0c4,4 13,4 22,4l0 0 1 0 1 1zm196 24l-196 0 -1 0 0 0c-14,0 -28,0 -38,-10l0 0 0 0 0 0c-11,-10 -16,-15 -16,-36l0 0 0 -164 0 -5c0,-12 0,-29 5,-39 3,-5 9,-11 16,-15 6,-4 13,-7 20,-7l219 0c12,0 23,6 31,14 9,9 14,22 14,33l0 181c0,9 -1,15 -3,21 -3,6 -7,10 -14,15 -1,1 -2,1 -2,2 -3,3 -5,5 -14,7l0 0c-2,1 -7,1 -11,2 -3,1 -7,1 -9,1l-1 0zm270 -252c-2,1 -4,1 -5,2l0 0c-1,0 -1,1 -1,1l0 0 -1 1 0 0c-1,1 -1,2 -3,3l-1 1 0 0 0 0 0 0c-3,8 -3,10 -3,15l0 0c0,3 0,6 0,10 0,6 0,11 0,15l0 0c0,4 1,8 2,14 1,5 2,23 2,41l0 0c0,20 0,41 -1,47 0,4 -1,7 -2,10 0,2 -1,4 -1,5l0 0c0,1 0,14 0,26 0,9 0,16 1,17l0 0c2,6 3,10 5,13l0 0c2,3 5,5 10,6 3,1 12,2 21,2 16,1 35,0 43,0 4,0 5,-1 6,-1 4,-2 9,-3 25,-3 7,0 12,1 17,3l0 0c4,1 7,2 12,1l0 0 0 0c1,0 0,1 1,0l0 0c3,-2 6,-4 32,-4l0 0c6,0 11,0 16,1l0 0c5,0 11,1 16,1 2,0 4,0 5,-1 3,0 6,-1 10,-1l0 0c2,0 5,0 7,0l0 0c7,0 16,0 20,-2 1,-1 3,-3 5,-5l0 0c2,-3 4,-5 4,-7l0 0c0,-1 1,-3 1,-5l0 0c0,-2 0,-5 0,-8l0 0c0,-12 0,-24 0,-36l0 0c0,-16 -1,-32 0,-47 0,-5 1,-8 1,-11l0 0c0,-1 1,-3 1,-4 0,-4 0,-10 -1,-17 -1,-11 -2,-23 -1,-32l0 0c1,-3 1,-5 1,-7 0,-2 0,-4 0,-7l0 0 0 -3c0,-8 0,-21 -2,-24l0 0c-6,-12 -18,-12 -33,-12l0 0 -7 0 0 0 -36 0c-59,0 -159,-1 -168,1l0 0 2 1zm-15 -20c3,-1 5,-2 8,-3l0 0c12,-4 115,-3 175,-2 12,0 22,0 36,0l0 0 7 0c23,0 42,-1 55,25l0 0c4,9 4,25 4,35l0 0 0 3c0,4 0,7 -1,10l0 0c0,3 -1,6 -2,9l0 0c-1,6 0,16 1,25 1,8 2,16 1,22 0,3 -1,5 -1,7l0 0c0,2 -1,3 -1,6 0,15 0,31 0,46 0,12 0,25 0,37l0 0c0,3 0,6 0,9 0,4 -1,7 -2,11l0 0c-1,4 -5,10 -9,15l0 0c-4,4 -8,8 -13,11 -9,5 -21,4 -31,4 -2,0 -5,0 -7,0l0 0c-2,0 -5,0 -7,1 -2,0 -5,1 -7,1l0 0c-6,0 -13,0 -19,-1 -5,0 -9,-1 -14,-1l0 0c-19,0 -19,0 -19,0l0 0c-2,1 -4,3 -11,3l0 0c-10,1 -15,-1 -21,-2l0 0c-3,-1 -6,-2 -10,-2 -12,0 -15,1 -17,2 -3,1 -6,2 -14,2 -9,0 -28,1 -45,0 -11,0 -21,-1 -27,-3 -11,-3 -18,-8 -23,-15l0 0c-5,-6 -7,-13 -9,-21l0 0c-1,-3 -1,-13 -2,-23 0,-13 0,-28 0,-30l0 0c1,-3 1,-6 2,-8 1,-2 1,-4 1,-6 1,-6 1,-26 1,-44 0,-17 -1,-34 -1,-37 -1,-7 -2,-12 -2,-17 0,-5 0,-10 0,-17 0,-4 0,-7 0,-9 0,-8 0,-11 5,-24l0 0 0 0 0 0c1,-2 1,-3 2,-5l0 0c1,-2 2,-2 3,-3l0 0 0 0c0,0 1,-1 1,-2l0 0c1,-1 2,-2 3,-4l0 0c3,-3 6,-5 9,-6l0 0 1 1zm-512 -666l1 10 0 1 0 1 0 380 0 1c-1,9 0,10 0,11l0 0c0,2 0,3 0,10 0,9 1,18 3,26 2,6 6,12 12,15l2 1 0 0c3,1 6,3 7,4l0 0c8,3 92,2 131,2l0 0 17 0 0 0 1047 0 13 0c15,0 34,1 44,-2l0 0c2,0 2,-1 3,-1l0 0c1,-1 2,-1 4,-2l0 0 1 -1 0 0 1 -1 1 -1 2 -2c5,-5 8,-7 10,-15 4,-13 4,-27 4,-42l0 0 0 -12 0 -370 0 0 0 -4c0,-17 0,-31 -7,-40 -2,-2 -4,-5 -6,-7l0 0c-2,-2 -4,-4 -6,-5 -2,-1 -6,-2 -10,-3 -4,-1 -8,-2 -10,-2l-1209 0 0 0 -5 0c-17,0 -28,0 -41,14l0 0c-4,4 -6,8 -7,14 -1,6 -2,14 -2,22l0 -2zm-23 11l-1 -10 0 -1 0 0c0,-10 0,-19 2,-27 2,-9 6,-17 12,-25l0 0c20,-22 35,-22 59,-22l5 0 0 0 1209 0c4,0 10,1 16,3 6,1 12,4 15,5 4,2 8,5 11,9l0 0c3,3 6,6 8,9 12,16 12,33 12,55l0 4 0 0 0 370c0,8 0,9 0,12 0,17 1,34 -5,50 -1,3 -2,5 -3,7l8 0 -25 21 0 0 0 0 0 0c-15,14 -21,15 -23,10 -12,2 -30,2 -45,1 -3,0 -6,0 -13,0l-1047 0 0 0 -17 0c-40,0 -128,1 -139,-3l0 0c-2,-1 -7,-3 -10,-5l0 0 -2 -1c-12,-6 -19,-16 -23,-27 -4,-10 -5,-22 -5,-34 0,-5 0,-6 0,-7 0,-2 0,-4 0,-15l0 -378 1 -1z"/>
 </g>
</svg>
