<?xml version="1.0" encoding="UTF-8"?>
<!DOCTYPE svg PUBLIC "-//W3C//DTD SVG 1.1//EN" "http://www.w3.org/Graphics/SVG/1.1/DTD/svg11.dtd">
<!-- Creator: CorelDRAW X5 -->
<svg xmlns="http://www.w3.org/2000/svg" xml:space="preserve" width="40.7mm" height="40.34mm" style="shape-rendering:geometricPrecision; text-rendering:geometricPrecision; image-rendering:optimizeQuality; fill-rule:evenodd; clip-rule:evenodd"
viewBox="0 0 25447 25221"
 xmlns:xlink="http://www.w3.org/1999/xlink">
 <defs>
  <style type="text/css">
   <![CDATA[
    .fil2 {fill:none}
    .fil1 {fill:#FEFEFE}
    .fil0 {fill:#FEFEFE;fill-rule:nonzero}
   ]]>
  </style>
 </defs>
 <g id="Layer_x0020_1">
  <metadata id="CorelCorpID_0Corel-Layer"/>
  <path class="fil0" d="M7671 19106l-1269 0 0 570 1269 0c96,0 163,-13 200,-39 37,-25 56,-70 56,-133l0 -225c0,-62 -19,-107 -56,-133 -37,-26 -103,-39 -200,-39zm0 963l-1269 0 0 608 1269 0c105,0 177,-16 213,-48 37,-32 56,-87 56,-167l0 -181c0,-80 -19,-135 -56,-166 -36,-31 -108,-46 -213,-46zm-1816 1038l0 -2390 2049 0c188,0 325,37 409,111 84,73 127,191 127,353l0 291c0,115 -36,207 -107,275 -71,69 -173,111 -306,128 137,18 243,67 318,147 75,80 112,184 112,313l0 305c0,158 -58,276 -174,353 -116,77 -292,116 -529,116l-1899 0zm4289 -954l1046 0 -515 -972 -531 972zm-1070 954l1352 -2390 536 0 1371 2390 -624 0 -287 -522 -1515 0 -278 522 -554 0zm5951 -1963l-1499 0 0 1513 1499 0 0 -513 556 115 0 283c0,218 -41,367 -123,446 -82,79 -238,119 -469,119l-1426 0c-232,0 -389,-39 -471,-119 -81,-79 -122,-228 -122,-446l0 -1259c0,-218 41,-366 122,-446 82,-79 238,-120 471,-120l1426 0c231,0 387,40 469,120 83,80 123,228 123,446l0 226 -556 88 0 -452zm1702 1963l0 -2390 561 0 0 997 1325 -997 805 0 -1583 1126 1777 1264 -893 0 -1432 -1051 0 1051 -561 0z"/>
 </g>
 <g id="Layer_x0020_1_0">
  <metadata id="CorelCorpID_1Corel-Layer"/>
  <path class="fil1" d="M12148 12342c163,0 288,-113 288,-275 0,-163 -69,-200 -163,-294l-1369 -1369c-38,-38 -81,-63 -81,-138 0,-81 56,-106 138,-100 2113,6 1857,-6 3951,-6 75,0 138,-38 188,-88 25,-25 31,-56 50,-88 50,-100 13,-244 -50,-319 -13,-13 -25,-19 -38,-31 -13,-13 0,-6 -19,-13 -44,-25 -81,-38 -144,-38 -1826,0 -1851,-19 -3870,-6 -69,6 -119,25 -181,-25 -119,-106 81,-250 150,-313l1263 -1263c113,-113 169,-138 169,-319 0,-88 -50,-163 -119,-206 -31,-25 -75,-38 -113,-50 -88,-25 -175,25 -231,75 -19,13 -25,19 -44,38 -6,6 -13,13 -19,25 -13,13 -13,13 -19,25l-488 481c0,0 0,0 -6,6l-156 156c-194,194 -381,388 -575,575l-56 56c0,0 -6,6 -6,6l-344 344c-19,19 -25,19 -38,38l-81 81c-13,13 -13,13 -19,19l-306 306c-50,50 -75,69 -106,144 -69,156 44,281 144,375l175 175c81,88 163,163 250,250l231 231c6,6 13,13 19,25l144 144c0,0 0,0 6,6l163 163c0,0 0,6 6,6 0,0 0,6 6,6l606 600c88,88 475,494 575,563 25,19 94,44 131,44l-13 -25zm-3339 -8247l7240 0c588,0 1125,244 1519,631 388,388 631,925 631,1519l0 7240c0,588 -244,1125 -631,1519 -388,388 -925,631 -1519,631l-7240 0c-588,0 -1125,-244 -1519,-631 -388,-388 -631,-925 -631,-1519l0 -7240c0,-588 244,-1125 631,-1519 388,-388 925,-631 1519,-631zm7303 394l-7365 0c-463,0 -888,188 -1194,494 -306,306 -494,725 -494,1194l0 7365c0,463 188,888 494,1194 306,306 725,494 1194,494l7365 0c463,0 888,-188 1194,-494 306,-306 494,-725 494,-1194l0 -7365c0,-463 -188,-888 -494,-1194 -306,-306 -725,-494 -1194,-494z"/>
  <polygon class="fil2" points="25447,0 0,0 0,25221 25447,25221 "/>
 </g>
</svg>
