<?xml version="1.0" encoding="UTF-8"?>
<!DOCTYPE svg PUBLIC "-//W3C//DTD SVG 1.1//EN" "http://www.w3.org/Graphics/SVG/1.1/DTD/svg11.dtd">
<!-- Creator: CorelDRAW X5 -->
<svg xmlns="http://www.w3.org/2000/svg" xml:space="preserve" width="40.7mm" height="40.34mm" style="shape-rendering:geometricPrecision; text-rendering:geometricPrecision; image-rendering:optimizeQuality; fill-rule:evenodd; clip-rule:evenodd"
viewBox="0 0 227 225"
 xmlns:xlink="http://www.w3.org/1999/xlink">
 <defs>
  <style type="text/css">
   <![CDATA[
    .fil2 {fill:none}
    .fil1 {fill:#FEFEFE}
    .fil0 {fill:#FEFEFE;fill-rule:nonzero}
   ]]>
  </style>
 </defs>
 <g id="Layer_x0020_1">
  <metadata id="CorelCorpID_0Corel-Layer"/>
  <path class="fil0" d="M69 171l-11 0 0 5 11 0c1,0 1,0 2,0 0,0 0,-1 0,-1l0 -2c0,-1 0,-1 0,-1 0,0 -1,0 -2,0zm0 9l-11 0 0 5 11 0c1,0 2,0 2,0 0,0 0,-1 0,-1l0 -2c0,-1 0,-1 0,-1 0,0 -1,0 -2,0zm-16 9l0 -21 18 0c2,0 3,0 4,1 1,1 1,2 1,3l0 3c0,1 0,2 -1,2 -1,1 -2,1 -3,1 1,0 2,1 3,1 1,1 1,2 1,3l0 3c0,1 -1,2 -2,3 -1,1 -3,1 -5,1l-17 0z"/>
  <path id="1" class="fil0" d="M91 180l9 0 -5 -9 -5 9zm-10 9l12 -21 5 0 12 21 -6 0 -3 -5 -14 0 -2 5 -5 0z"/>
  <path id="12" class="fil0" d="M134 171l-13 0 0 14 13 0 0 -5 5 1 0 3c0,2 0,3 -1,4 -1,1 -2,1 -4,1l-13 0c-2,0 -3,0 -4,-1 -1,-1 -1,-2 -1,-4l0 -11c0,-2 0,-3 1,-4 1,-1 2,-1 4,-1l13 0c2,0 3,0 4,1 1,1 1,2 1,4l0 2 -5 1 0 -4z"/>
  <polygon id="123" class="fil0" points="150,189 150,167 155,167 155,176 166,167 174,167 159,177 175,189 167,189 155,179 155,189 "/>
 </g>
 <g id="Layer_x0020_1_0">
  <metadata id="CorelCorpID_1Corel-Layer"/>
  <path class="fil1" d="M109 110c1,0 3,-1 3,-2 0,-1 -1,-2 -1,-3l-12 -12c0,0 -1,-1 -1,-1 0,-1 1,-1 1,-1 19,0 17,0 35,0 1,0 1,0 2,-1 0,0 0,-1 0,-1 0,-1 0,-2 0,-3 0,0 0,0 0,0 0,0 0,0 0,0 0,0 -1,0 -1,0 -16,0 -17,0 -35,0 -1,0 -1,0 -2,0 -1,-1 1,-2 1,-3l11 -11c1,-1 2,-1 2,-3 0,-1 0,-1 -1,-2 0,0 -1,0 -1,0 -1,0 -2,0 -2,1 0,0 0,0 0,0 0,0 0,0 0,0 0,0 0,0 0,0l-4 4c0,0 0,0 0,0l-1 1c-2,2 -3,3 -5,5l-1 1c0,0 0,0 0,0l-3 3c0,0 0,0 0,0l-1 1c0,0 0,0 0,0l-3 3c0,0 -1,1 -1,1 -1,1 0,3 1,3l2 2c1,1 1,1 2,2l2 2c0,0 0,0 0,0l1 1c0,0 0,0 0,0l1 1c0,0 0,0 0,0 0,0 0,0 0,0l5 5c1,1 4,4 5,5 0,0 1,0 1,0l0 0zm-30 -74l65 0c5,0 10,2 14,6 3,3 6,8 6,14l0 65c0,5 -2,10 -6,14 -3,3 -8,6 -14,6l-65 0c-5,0 -10,-2 -14,-6 -3,-3 -6,-8 -6,-14l0 -65c0,-5 2,-10 6,-14 3,-3 8,-6 14,-6zm65 4l-66 0c-4,0 -8,2 -11,4 -3,3 -4,6 -4,11l0 66c0,4 2,8 4,11 3,3 6,4 11,4l66 0c4,0 8,-2 11,-4 3,-3 4,-6 4,-11l0 -66c0,-4 -2,-8 -4,-11 -3,-3 -6,-4 -11,-4z"/>
  <polygon class="fil2" points="227,0 0,0 0,225 227,225 "/>
 </g>
</svg>
