<?xml version="1.0" encoding="UTF-8"?>
<!DOCTYPE svg PUBLIC "-//W3C//DTD SVG 1.1//EN" "http://www.w3.org/Graphics/SVG/1.1/DTD/svg11.dtd">
<!-- Creator: CorelDRAW X5 -->
<svg xmlns="http://www.w3.org/2000/svg" xml:space="preserve" width="40.7mm" height="40.34mm" style="shape-rendering:geometricPrecision; text-rendering:geometricPrecision; image-rendering:optimizeQuality; fill-rule:evenodd; clip-rule:evenodd"
viewBox="0 0 15833 15693"
 xmlns:xlink="http://www.w3.org/1999/xlink">
 <defs>
  <style type="text/css">
   <![CDATA[
    .str0 {stroke:#EBECEC;stroke-width:68.6245}
    .fil1 {fill:none}
    .fil2 {fill:#EBECEC}
    .fil0 {fill:#EBECEC;fill-rule:nonzero}
   ]]>
  </style>
 </defs>
 <g id="Layer_x0020_1">
  <metadata id="CorelCorpID_0Corel-Layer"/>
  <g id="_222780784">
   <path class="fil0 str0" d="M3023 11932l-908 0 0 1015 908 0 0 -351 220 49 0 166c0,129 -21,217 -63,263 -42,46 -123,69 -242,69l-734 0c-119,0 -200,-23 -243,-70 -43,-46 -64,-133 -64,-262l0 -738c0,-128 22,-215 64,-261 43,-47 124,-70 243,-70l734 0c119,0 200,23 242,69 42,46 63,133 63,262l0 133 -220 44 0 -317zm995 1015l1084 0 0 -1015 -1084 0 0 1015zm-218 -874c0,-128 21,-214 64,-261 43,-47 124,-70 244,-70l906 0c118,0 198,23 241,70 43,46 64,133 64,262l0 738c0,129 -21,217 -64,263 -43,46 -123,69 -241,69l-906 0c-120,0 -201,-24 -244,-70 -43,-47 -64,-134 -64,-261l0 -738zm2182 1069l0 -1401 137 0 980 937c22,21 46,47 72,77 25,30 51,63 77,100 -7,-45 -11,-92 -15,-141 -3,-49 -5,-117 -5,-204l0 -769 201 0 0 1401 -123 0 -1006 -974c-5,-4 -12,-11 -22,-21 -50,-48 -87,-94 -110,-137 5,43 8,88 11,136 3,48 4,105 4,171l0 826 -201 0zm2635 -1210l0 1210 -218 0 0 -1210 -599 0 0 -191 1418 0 0 191 -601 0zm1003 687l705 0 -353 -717 -352 717zm-475 523l715 -1401 234 0 728 1401 -240 0 -168 -344 -886 0 -167 344 -216 0zm3210 -1210l-908 0 0 1015 908 0 0 -351 220 49 0 166c0,129 -21,217 -63,263 -42,46 -123,69 -242,69l-734 0c-119,0 -200,-23 -243,-70 -43,-46 -64,-133 -64,-262l0 -738c0,-128 22,-215 64,-261 43,-47 124,-70 243,-70l734 0c119,0 200,23 242,69 42,46 63,133 63,262l0 133 -220 44 0 -317zm1303 0l0 1210 -218 0 0 -1210 -599 0 0 -191 1418 0 0 191 -601 0z"/>
   <polygon class="fil1" points="15833,0 0,0 0,15693 15833,15693 "/>
   <path class="fil2" d="M5474 2540l4505 0c366,0 700,152 945,393 241,241 393,576 393,945l0 4505c0,366 -152,700 -393,945 -241,241 -576,393 -945,393l-4505 0c-366,0 -700,-152 -945,-393 -241,-241 -393,-576 -393,-945l0 -4505c0,-366 152,-700 393,-945 241,-241 576,-393 945,-393zm4544 245l-4583 0c-288,0 -552,117 -743,307 -191,191 -307,451 -307,743l0 4583c0,288 117,552 307,743 191,191 451,307 743,307l4583 0c288,0 552,-117 743,-307 191,-191 307,-451 307,-743l0 -4583c0,-288 -117,-552 -307,-743 -191,-191 -451,-307 -743,-307zm-829 3999l-514 -58c-124,-16 -245,27 -331,117l-373 373c-572,-292 -1039,-759 -1330,-1330l373 -373c86,-86 128,-210 117,-331l-58 -510c-23,-202 -195,-358 -401,-358l-350 0c-230,0 -416,191 -405,416 109,1723 1486,3101 3209,3209 230,16 416,-175 416,-405l0 -350c4,-202 -152,-377 -358,-397l4 -4z"/>
  </g>
 </g>
</svg>
