<?xml version="1.0" encoding="UTF-8"?>
<!DOCTYPE svg PUBLIC "-//W3C//DTD SVG 1.1//EN" "http://www.w3.org/Graphics/SVG/1.1/DTD/svg11.dtd">
<!-- Creator: CorelDRAW X5 -->
<svg xmlns="http://www.w3.org/2000/svg" xml:space="preserve" width="151.7mm" height="63.62mm" style="shape-rendering:geometricPrecision; text-rendering:geometricPrecision; image-rendering:optimizeQuality; fill-rule:evenodd; clip-rule:evenodd"
viewBox="0 0 22309 9356"
 xmlns:xlink="http://www.w3.org/1999/xlink">
 <defs>
  <style type="text/css">
   <![CDATA[
    .fil2 {fill:none}
    .fil1 {fill:#9D9E9E}
    .fil0 {fill:#9D9E9E;fill-rule:nonzero}
   ]]>
  </style>
 </defs>
 <g id="Layer_x0020_1">
  <metadata id="CorelCorpID_0Corel-Layer"/>
  <g id="_533834312">
   <path class="fil0" d="M11042 3611l-437 0 0 441 437 0 0 -150 162 34 0 83c0,64 -12,107 -36,130 -24,23 -69,35 -137,35l-415 0c-68,0 -113,-11 -137,-35 -24,-23 -36,-66 -36,-130l0 -367c0,-63 12,-107 36,-130 24,-23 69,-35 137,-35l415 0c67,0 113,12 137,35 24,23 36,67 36,130l0 66 -162 26 0 -132zm482 40c0,-63 12,-107 36,-130 24,-23 69,-35 137,-35l512 0c68,0 113,12 137,35 24,23 36,67 36,130l0 367c0,64 -12,107 -36,130 -24,23 -69,35 -137,35l-512 0c-68,0 -113,-11 -137,-35 -24,-23 -36,-66 -36,-130l0 -367zm162 400l534 0 0 -441 -534 0 0 441zm1035 131l0 -696 111 0 490 410c17,14 31,27 44,39 13,12 24,25 35,37 -2,-39 -4,-67 -5,-83 -1,-16 -1,-29 -1,-38l0 -366 145 0 0 696 -111 0 -511 -430c-12,-11 -23,-21 -32,-30 -9,-9 -18,-18 -26,-27 2,21 4,42 5,61 1,19 2,36 2,50l0 376 -145 0zm1498 -572l0 572 -162 0 0 -572 -319 0 0 -125 802 0 0 125 -321 0zm1043 -4l-364 0 0 194 364 0c28,0 47,-4 58,-12 10,-8 16,-22 16,-43l0 -84c0,-20 -5,-34 -16,-43 -10,-8 -29,-12 -58,-12zm-524 576l0 -696 596 0c55,0 95,11 120,32 25,21 37,56 37,103l0 164c0,47 -12,81 -37,103 -25,22 -65,32 -120,32l-91 0 321 263 -232 0 -281 -263 -154 0 0 263 -159 0zm1067 -531c0,-63 12,-107 36,-130 24,-23 69,-35 137,-35l512 0c68,0 113,12 137,35 24,23 36,67 36,130l0 367c0,64 -12,107 -36,130 -24,23 -69,35 -137,35l-512 0c-68,0 -113,-11 -137,-35 -24,-23 -36,-66 -36,-130l0 -367zm162 400l534 0 0 -441 -534 0 0 441zm1037 131l0 -696 162 0 0 565 522 0 0 131 -684 0zm-6022 836l-364 0 0 185 364 0c28,0 47,-4 58,-12 10,-8 16,-22 16,-43l0 -75c0,-20 -5,-34 -16,-43 -10,-8 -29,-12 -58,-12zm-524 576l0 -696 596 0c55,0 95,11 120,32 25,21 37,56 37,103l0 156c0,47 -12,81 -37,103 -25,21 -65,32 -120,32l-436 0 0 271 -159 0zm1107 -278l305 0 -150 -283 -155 283zm-312 278l394 -696 156 0 399 696 -182 0 -84 -152 -441 0 -81 152 -161 0zm1172 0l0 -696 111 0 490 410c17,14 31,27 44,39 13,12 24,25 35,37 -2,-39 -4,-67 -5,-83 -1,-16 -1,-29 -1,-38l0 -366 145 0 0 696 -111 0 -511 -430c-12,-11 -23,-21 -32,-30 -9,-9 -18,-18 -26,-27 2,21 4,42 5,61 1,19 2,36 2,50l0 376 -145 0zm1174 0l0 -696 713 0 0 118 -551 0 0 156 321 0 0 118 -321 0 0 173 557 0 0 131 -719 0zm1018 0l0 -696 162 0 0 565 522 0 0 131 -684 0zm1525 -574l-456 0 0 150 434 0c68,0 114,12 138,35 24,23 36,67 36,130l0 96c0,63 -12,106 -36,130 -24,23 -70,35 -138,35l-430 0c-68,0 -114,-12 -138,-35 -24,-23 -36,-67 -36,-130l0 -19 143 -30 0 82 492 0 0 -159 -434 0c-68,0 -113,-12 -137,-35 -24,-23 -36,-67 -36,-130l0 -77c0,-63 12,-107 36,-130 24,-23 69,-35 137,-35l395 0c65,0 111,11 135,34 25,22 37,62 37,119l0 14 -143 34 0 -79z"/>
   <path class="fil1" d="M7981 2769l-1599 0 0 535 1599 0 0 -535zm-1646 -71l1693 0 24 0 0 24 0 629 0 24 -24 0 -1693 0 -24 0 0 -24 0 -629 0 -24 24 0zm-459 160c-46,-46 -109,-74 -178,-74 -69,0 -132,28 -178,74 -46,46 -74,109 -74,178 0,69 28,132 74,178 46,46 109,74 178,74 69,0 132,-28 178,-74l0 0c46,-46 74,-109 74,-178 0,-69 -28,-132 -74,-178zm-178 -140c88,0 168,35 225,93 57,57 93,137 93,225 0,88 -35,168 -93,225l0 0c-57,57 -137,93 -225,93 -88,0 -168,-35 -225,-93 -57,-57 -93,-137 -93,-225 0,-88 35,-168 93,-225 57,-57 137,-93 225,-93zm178 1090c-46,-46 -109,-74 -178,-74 -69,0 -132,28 -178,74 -46,46 -74,109 -74,178 0,69 28,132 74,178 46,46 109,74 178,74 69,0 132,-28 178,-74 46,-46 74,-109 74,-178 0,-69 -28,-132 -74,-178zm-178 -140c88,0 168,35 225,93 57,57 93,137 93,225 0,88 -35,168 -93,225 -57,57 -137,93 -225,93 -88,0 -168,-35 -225,-93 -57,-57 -93,-137 -93,-225 0,-88 35,-168 93,-225 57,-57 137,-93 225,-93zm2282 50l-1599 0 0 535 1599 0 0 -535zm-1646 -71l1693 0 24 0 0 24 0 629 0 24 -24 0 -1693 0 -24 0 0 -24 0 -629 0 -24 24 0zm1693 2540l-1693 0 -24 0 0 -24 0 -1503 0 -24 24 0 1693 0 24 0 0 24 0 1503 0 24 -24 0zm-1646 -69l1599 0 0 -1415 -1599 0 0 1415zm-504 -1360c-46,-46 -109,-74 -178,-74 -69,0 -132,28 -178,74 -46,46 -74,109 -74,178 0,69 28,132 74,178 46,46 109,74 178,74 69,0 132,-28 178,-74 46,-46 74,-109 74,-178 0,-69 -28,-132 -74,-178l0 0zm-178 -140c88,0 168,35 225,93l0 0 0 0c57,57 93,137 93,225 0,88 -35,168 -93,225 -57,57 -137,93 -225,93 -88,0 -168,-35 -225,-93 -57,-57 -93,-137 -93,-225 0,-88 35,-168 93,-225 57,-57 137,-93 225,-93zm178 1090c-46,-46 -109,-74 -178,-74 -69,0 -132,28 -178,74 -46,46 -74,109 -74,178 0,69 28,132 74,178 46,46 109,74 178,74 69,0 132,-28 178,-74l0 0c46,-46 74,-109 74,-178 0,-69 -28,-132 -74,-178zm-178 -140c88,0 168,35 225,93 57,57 93,137 93,225 0,88 -35,168 -93,225l0 0c-57,57 -137,93 -225,93 -88,0 -168,-35 -225,-93 -57,-57 -93,-137 -93,-225 0,-88 35,-168 93,-225 57,-57 137,-93 225,-93zm2859 1075l0 -4385c0,-90 -37,-171 -96,-229 -59,-59 -140,-96 -229,-96l-3031 0c-90,0 -171,37 -229,96 -59,59 -96,140 -96,229l0 4385c0,90 37,171 96,229 59,59 140,96 229,96l3031 0c90,0 171,-37 229,-96 59,-59 96,-140 96,-229zm121 -4385l0 4385c0,124 -50,234 -131,315 -81,81 -193,131 -315,131l-3031 0c-124,0 -234,-50 -315,-131 -81,-81 -131,-193 -131,-315l0 -4385c0,-124 50,-234 131,-315 81,-81 193,-131 315,-131l3031 0c124,0 234,50 315,131 81,81 131,193 131,315z"/>
   <polygon class="fil2" points="22309,9356 0,9356 0,0 22309,0 "/>
  </g>
 </g>
</svg>
