<?xml version="1.0" encoding="UTF-8"?>
<!DOCTYPE svg PUBLIC "-//W3C//DTD SVG 1.1//EN" "http://www.w3.org/Graphics/SVG/1.1/DTD/svg11.dtd">
<!-- Creator: CorelDRAW X5 -->
<svg xmlns="http://www.w3.org/2000/svg" xml:space="preserve" width="151.7mm" height="63.62mm" style="shape-rendering:geometricPrecision; text-rendering:geometricPrecision; image-rendering:optimizeQuality; fill-rule:evenodd; clip-rule:evenodd"
viewBox="0 0 20845 8742"
 xmlns:xlink="http://www.w3.org/1999/xlink">
 <defs>
  <style type="text/css">
   <![CDATA[
    .fil2 {fill:none}
    .fil1 {fill:#9D9E9E}
    .fil0 {fill:#9D9E9E;fill-rule:nonzero}
   ]]>
  </style>
 </defs>
 <g id="Layer_x0020_1">
  <metadata id="CorelCorpID_0Corel-Layer"/>
  <g id="_533816904">
   <path class="fil0" d="M9691 4696l0 -651 103 0 458 383c16,13 29,25 41,36 12,11 23,23 33,35 -2,-37 -4,-62 -5,-78 -1,-15 -1,-27 -1,-35l0 -342 136 0 0 651 -103 0 -478 -402c-12,-10 -22,-20 -30,-28 -9,-8 -17,-17 -24,-25 2,20 4,39 5,57 1,18 1,33 1,46l0 351 -136 0zm1263 -260l285 0 -140 -265 -145 265zm-291 260l368 -651 146 0 373 651 -170 0 -78 -142 -412 0 -76 142 -151 0zm1095 0l0 -651 122 0 306 393 300 -393 121 0 0 651 -140 0 0 -402c0,-8 0,-18 1,-30 1,-12 3,-25 4,-40 -8,17 -15,31 -21,41 -6,11 -12,20 -17,27l-244 325 -30 0 -245 -326c-9,-12 -17,-24 -23,-35 -6,-11 -12,-21 -16,-32 1,13 2,26 3,37 1,11 1,22 1,32l0 402 -122 0zm1168 0l0 -651 666 0 0 111 -515 0 0 145 300 0 0 111 -300 0 0 161 521 0 0 122 -672 0zm1441 -538l-341 0 0 172 341 0c26,0 44,-4 54,-11 10,-8 14,-21 14,-40l0 -70c0,-19 -5,-32 -14,-40 -10,-8 -28,-11 -54,-11zm-489 538l0 -651 556 0c52,0 89,10 112,30 23,20 35,52 35,96l0 145c0,44 -12,76 -35,96 -23,20 -61,30 -112,30l-408 0 0 254 -149 0zm937 0l0 -651 151 0 0 528 488 0 0 122 -639 0zm1006 -260l285 0 -140 -265 -145 265zm-291 260l368 -651 146 0 373 651 -170 0 -78 -142 -412 0 -76 142 -151 0zm1313 -534l0 534 -151 0 0 -534 -298 0 0 -116 750 0 0 116 -300 0zm485 534l0 -651 666 0 0 111 -515 0 0 145 300 0 0 111 -300 0 0 161 521 0 0 122 -672 0zm1515 -537l-426 0 0 140 405 0c64,0 107,11 129,33 22,22 34,62 34,121l0 89c0,59 -11,99 -34,121 -22,22 -65,33 -129,33l-402 0c-64,0 -107,-11 -129,-33 -22,-22 -34,-62 -34,-121l0 -18 134 -28 0 77 460 0 0 -148 -405 0c-63,0 -106,-11 -128,-33 -22,-22 -33,-62 -33,-121l0 -72c0,-59 11,-100 33,-121 22,-22 65,-33 128,-33l369 0c61,0 103,11 126,31 23,21 35,58 35,112l0 13 -134 32 0 -74z"/>
   <path class="fil0" d="M3267 3652l0 -253 40 0 178 149c6,5 11,10 16,14 5,4 9,9 13,13 -1,-14 -2,-24 -2,-30 0,-6 0,-10 0,-14l0 -133 53 0 0 253 -40 0 -185 -156c-4,-4 -8,-8 -12,-11 -3,-3 -6,-6 -9,-10 1,8 1,15 2,22 0,7 1,13 1,18l0 136 -53 0zm491 -101l111 0 -54 -103 -56 103zm-113 101l143 -253 57 0 145 253 -66 0 -30 -55 -160 0 -29 55 -59 0zm425 0l0 -253 48 0 119 153 116 -153 47 0 0 253 -54 0 0 -156c0,-3 0,-7 1,-11 0,-5 1,-10 2,-15 -3,7 -6,12 -8,16 -2,4 -5,8 -6,10l-95 126 -12 0 -95 -127c-4,-5 -7,-9 -9,-14 -2,-4 -4,-8 -6,-12 0,5 1,10 1,14 0,4 0,8 0,12l0 156 -48 0zm454 0l0 -253 259 0 0 43 -200 0 0 56 117 0 0 43 -117 0 0 63 202 0 0 48 -261 0zm559 -209l-132 0 0 67 132 0c10,0 17,-1 21,-4 4,-3 6,-8 6,-16l0 -27c0,-7 -2,-12 -6,-15 -4,-3 -11,-4 -21,-4zm-190 209l0 -253 216 0c20,0 35,4 44,12 9,8 13,20 13,37l0 56c0,17 -4,29 -13,37 -9,8 -24,12 -44,12l-158 0 0 98 -58 0zm364 0l0 -253 59 0 0 205 189 0 0 48 -248 0zm390 -101l111 0 -54 -103 -56 103zm-113 101l143 -253 57 0 145 253 -66 0 -30 -55 -160 0 -29 55 -59 0zm510 -207l0 207 -59 0 0 -207 -116 0 0 -45 291 0 0 45 -116 0zm188 207l0 -253 259 0 0 43 -200 0 0 56 117 0 0 43 -117 0 0 63 202 0 0 48 -261 0zm588 -208l-165 0 0 54 157 0c25,0 41,4 50,13 9,8 13,24 13,47l0 35c0,23 -4,39 -13,47 -9,8 -25,13 -50,13l-156 0c-25,0 -41,-4 -50,-13 -9,-8 -13,-24 -13,-47l0 -7 52 -11 0 30 178 0 0 -58 -157 0c-25,0 -41,-4 -50,-13 -9,-8 -13,-24 -13,-47l0 -28c0,-23 4,-39 13,-47 9,-8 25,-13 50,-13l143 0c24,0 40,4 49,12 9,8 14,23 14,43l0 5 -52 12 0 -29z"/>
   <path class="fil1" d="M7781 5505c36,0 65,29 65,65 0,36 -29,65 -65,65 -36,0 -65,-29 -65,-65 0,-36 29,-65 65,-65zm-5400 0c36,0 65,29 65,65 0,36 -29,65 -65,65 -36,0 -65,-29 -65,-65 0,-36 29,-65 65,-65zm5400 -2111c36,0 65,29 65,65 0,36 -29,65 -65,65 -36,0 -65,-29 -65,-65 0,-36 29,-65 65,-65zm-5400 0c36,0 65,29 65,65 0,36 -29,65 -65,65 -36,0 -65,-29 -65,-65 0,-36 29,-65 65,-65zm5051 1729l-1204 0 0 441 1204 0 0 -441zm0 -572l-1204 0 0 440 1204 0 0 -440zm0 -572l-1204 0 0 441 1204 0 0 -441zm-1443 1143l-3290 0 0 441 3290 0 0 -441zm0 -572l-3290 0 0 440 3290 0 0 -440zm0 -572l-3290 0 0 441 3290 0 0 -441zm1774 -830l-5430 0c-62,0 -117,25 -158,66l0 0c-40,40 -66,96 -66,158l0 2226c0,62 25,117 66,158l0 0c40,40 96,66 158,66l5430 0c62,0 117,-25 158,-66l0 0c40,-40 66,-96 66,-158l0 -2226c0,-62 -25,-117 -66,-158l0 0c-40,-40 -96,-66 -158,-66zm-5430 -120l5430 0c93,0 180,38 242,100l0 0 0 0c62,62 100,148 100,242l0 2226c0,93 -38,180 -100,242l0 0 0 0c-62,62 -148,100 -242,100l-5430 0c-93,0 -180,-38 -242,-100l0 0 0 0c-62,-62 -100,-148 -100,-242l0 -2226c0,-93 38,-180 100,-242l0 0 0 0c62,-62 148,-100 242,-100z"/>
  </g>
 </g>
 <g id="Layer_x0020_1_0">
  <metadata id="CorelCorpID_1Corel-Layer"/>
  <polygon class="fil2" points="20845,0 0,0 0,8742 20845,8742 "/>
 </g>
</svg>
