<?xml version="1.0" encoding="UTF-8"?>
<!DOCTYPE svg PUBLIC "-//W3C//DTD SVG 1.1//EN" "http://www.w3.org/Graphics/SVG/1.1/DTD/svg11.dtd">
<!-- Creator: CorelDRAW X5 -->
<svg xmlns="http://www.w3.org/2000/svg" xml:space="preserve" width="151.697mm" height="61.0588mm" style="shape-rendering:geometricPrecision; text-rendering:geometricPrecision; image-rendering:optimizeQuality; fill-rule:evenodd; clip-rule:evenodd"
viewBox="0 0 21780 8766"
 xmlns:xlink="http://www.w3.org/1999/xlink">
 <defs>
  <style type="text/css">
   <![CDATA[
    .fil1 {fill:none;fill-rule:nonzero}
    .fil0 {fill:#9D9E9E;fill-rule:nonzero}
   ]]>
  </style>
 </defs>
 <g id="Layer_x0020_1">
  <metadata id="CorelCorpID_0Corel-Layer"/>
  <g id="_533816376">
   <path class="fil0" d="M10719 4380l-445 0 0 146 424 0c67,0 112,11 135,34 23,23 35,65 35,127l0 93c0,62 -12,104 -35,127 -23,23 -68,34 -135,34l-420 0c-67,0 -111,-11 -135,-34 -23,-23 -35,-65 -35,-127l0 -19 140 -29 0 80 480 0 0 -155 -424 0c-66,0 -111,-11 -134,-34 -23,-23 -35,-65 -35,-127l0 -75c0,-62 12,-104 35,-127 23,-23 68,-34 134,-34l386 0c64,0 108,11 132,33 24,22 36,61 36,117l0 14 -140 33 0 -77zm476 561l0 -680 696 0 0 116 -538 0 0 152 314 0 0 116 -314 0 0 169 544 0 0 128 -702 0zm1505 -562l-356 0 0 189 356 0c27,0 46,-4 56,-12 10,-8 15,-22 15,-42l0 -82c0,-20 -5,-34 -15,-41 -10,-8 -29,-12 -56,-12zm-511 562l0 -680 581 0c54,0 93,10 117,31 24,21 36,54 36,101l0 160c0,46 -12,79 -36,100 -24,21 -63,32 -117,32l-89 0 314 257 -227 0 -274 -257 -150 0 0 257 -156 0zm1286 0l-393 -680 181 0 275 491 262 -491 158 0 -374 680 -109 0zm667 0l0 -680 158 0 0 680 -158 0zm1076 -558l-426 0 0 430 426 0 0 -146 158 33 0 81c0,62 -12,104 -35,127 -23,23 -68,34 -133,34l-406 0c-66,0 -111,-11 -134,-34 -23,-22 -35,-65 -35,-127l0 -358c0,-62 12,-104 35,-127 23,-23 68,-34 134,-34l406 0c66,0 110,11 133,34 23,23 35,65 35,127l0 64 -158 25 0 -129zm484 558l0 -680 696 0 0 116 -538 0 0 152 314 0 0 116 -314 0 0 169 544 0 0 128 -702 0zm1583 -561l-445 0 0 146 424 0c67,0 112,11 135,34 23,23 35,65 35,127l0 93c0,62 -12,104 -35,127 -23,23 -68,34 -135,34l-420 0c-67,0 -111,-11 -135,-34 -23,-23 -35,-65 -35,-127l0 -19 140 -29 0 80 480 0 0 -155 -424 0c-66,0 -111,-11 -134,-34 -23,-23 -35,-65 -35,-127l0 -75c0,-62 12,-104 35,-127 23,-23 68,-34 134,-34l386 0c64,0 108,11 132,33 24,22 36,61 36,117l0 14 -140 33 0 -77z"/>
   <path class="fil0" d="M5215 2579l2530 0c200,0 382,82 514,214 132,132 214,313 214,514l0 2531c0,200 -82,382 -214,514 -132,132 -313,214 -514,214l-2530 0c-200,0 -382,-82 -514,-214 -132,-132 -214,-313 -214,-514l0 -2531c0,-200 82,-382 214,-514 132,-132 313,-214 514,-214zm2530 125l-2530 0c-165,0 -316,67 -425,177 -109,109 -177,260 -177,425l0 2531c0,165 67,316 177,425 109,109 260,177 425,177l2530 0c165,0 316,-67 425,-177 109,-109 177,-260 177,-425l0 -2531c0,-165 -67,-316 -177,-425 -109,-109 -260,-177 -425,-177zm-586 -53l-19 0 0 10c-16,1 -4,-3 -11,4 -7,7 -3,-4 -4,11l-10 0 0 19 -9 0 0 24 -10 0c0,14 -6,22 -6,43l-10 0 0 16 -9 0 0 24 -10 0c0,11 0,20 -4,30l-3 13 -10 0 0 24 -10 0 0 27 -9 0c0,4 0,4 -1,9l-1 4c-4,13 3,-9 -1,4 -3,10 -3,11 -3,23l-10 0 0 19 -10 0 0 24 -9 0c0,11 1,13 -3,23 0,1 -4,11 -4,20l-10 0 0 24 -9 0 0 24 -10 0c0,20 -6,23 -6,43l-10 0 0 19 -9 0 0 24 -10 0c0,22 -6,23 -6,43l-10 0 0 24 -9 0 0 24 -9 0c0,4 0,7 0,11 -3,13 -6,14 -6,32l-10 0 0 16 -9 0 0 27 -10 0c0,9 0,14 -3,23 -3,7 -4,10 -4,17l-10 0 0 27 -10 0 0 24 -9 0c0,14 -6,22 -6,43l-9 0 0 16 -9 0 0 24 -10 0c0,9 1,16 -1,23 -1,7 -4,11 -4,20l-9 0 0 24 -10 0 0 27 -9 0c0,4 0,4 -1,9l-3 9c-3,10 -3,11 -3,23l-9 0 0 19 -9 0 0 24 -9 0c0,22 -6,23 -6,43l-9 0 0 24 -10 0 0 19 -9 0 -3 24c-1,6 -1,-6 -3,10 0,4 0,11 0,16l-9 0 0 19 -10 0 0 24 -9 0c0,22 -6,23 -6,43l-9 0 0 24 -10 0 0 24 -9 0c0,9 -3,19 -4,20 -3,10 -3,11 -3,23l-9 0 0 16 -10 0 0 27 -10 0c0,11 -1,19 -4,29 -1,6 -1,4 -1,11l-9 0 0 27 -10 0 0 24 -10 0 -3 13c-3,10 -4,19 -4,30l-10 0 0 16 -9 0 0 24 -10 0c0,13 -1,22 -4,33 -1,6 -1,4 -1,11l-10 0 0 24 -9 0 0 19 -10 0c0,22 -6,26 -6,50l-9 0 0 19 -10 0 0 24 -10 0c0,11 1,13 -3,23 -3,9 0,-6 -3,9 -1,4 0,7 0,11l-9 0 0 24 -10 0 0 24 -9 0c0,20 -6,23 -6,43l-9 0 0 19 -10 0 0 24 -10 0c0,22 -6,23 -6,43l-10 0 0 24 -9 0 0 24 -9 0c0,4 0,7 0,11 -3,13 -6,14 -6,32l-10 0 0 16 -9 0 0 27 -10 0c0,7 1,13 -1,20 0,1 0,1 -1,3 -3,7 -4,10 -4,17l-10 0 0 29 -9 0 0 16 -9 0c0,3 0,10 0,13l-4 14c0,1 0,1 -1,3 -1,7 -1,16 -1,23l-10 0 0 16 -9 0 0 24 -10 0c0,10 0,19 -3,29l-1 4c-1,6 -1,4 -1,11l-10 0 0 24 -9 0 0 27 -10 0 -1 11c0,1 0,1 -1,3 0,1 -4,10 -4,27l-9 0 0 19 -9 0 0 24 -10 0c0,17 -3,20 -6,32 -1,4 0,7 0,11l-10 0 0 24 -9 0 0 24 -10 0c0,20 -6,23 -6,43l-9 0 0 19 -9 0 0 24 -10 0c0,22 -6,23 -6,43l-10 0 0 24 -10 0 0 16 -9 0c0,11 1,16 -3,26 -1,4 -4,14 -4,27l-9 0 0 16 -10 0 0 29 -9 0c0,9 0,14 -3,23 -3,7 -4,10 -4,17l-9 0 0 27 -10 0 0 24 -9 0c0,7 0,6 -1,11l-1 4c0,0 0,1 -1,3 -3,9 -3,17 -3,26l-9 0 0 16 -10 0 0 24 -9 0 0 19 -34 0 0 10c-4,0 -4,0 -9,1 -10,3 -13,6 -26,6 -3,23 -4,-4 -6,19l-10 0 0 9c-23,3 4,4 -19,6 -1,19 -6,-1 -6,27l-9 0 0 16 -10 0 0 24 -10 0 0 78 10 0 0 19 -1566 0c-26,0 -66,-3 -86,4 -7,3 -3,3 -13,3l0 10 -9 0 0 9 -10 0 -3 13c-13,40 3,46 3,70l10 0 0 9 9 0 0 10 16 0 0 10 3810 0 0 -10 16 0 0 -10 10 0 0 -9 9 0 0 -16 10 0 0 -53 -10 0 0 -16 -9 0 0 -9 -10 0 0 -10 -13 -3c-1,0 -1,0 -3,-1 -23,-9 -375,-3 -401,-3l-1486 0 0 -9 9 0 0 -93 -9 0 0 -27 -10 0c0,-4 0,-4 -1,-9 0,-1 0,-1 0,-3 -1,-6 -9,-29 -1,-47l3 -16 10 0 0 -27 9 0 0 -16 9 0c0,-3 0,-10 0,-13 1,-10 6,-14 6,-24 0,-4 0,-11 0,-16l10 0 0 -16 9 0 0 -24 10 0c0,-11 0,-20 4,-30 0,-1 0,-1 1,-3 1,-6 1,-4 1,-11l10 0 0 -24 9 0 0 -19 9 0c0,-22 6,-26 6,-50l10 0 0 -19 9 0 0 -24 10 0c0,-17 3,-20 6,-32 1,-4 0,-7 0,-11l10 0 0 -24 9 0 0 -19 10 0c0,-3 0,-10 0,-13 0,-7 0,0 1,-6 1,-10 1,-4 3,-7l3 -24 9 0 0 -19 9 0 0 -24 10 0c0,-17 3,-20 6,-32 1,-4 0,-7 0,-11l10 0 0 -24 9 0 0 -16 10 0c0,-11 -1,-16 3,-26 3,-9 1,6 4,-11 0,-4 0,-11 0,-16l9 0 0 -16 9 0 0 -27 10 0c0,-7 -1,-13 1,-20l3 -7c0,-1 0,-1 1,-3 1,-6 1,-4 1,-11l10 0 0 -27 10 0 0 -16 9 0c0,-11 3,-20 4,-29 1,-4 1,-3 1,-9 0,-4 0,-11 0,-16l9 0 0 -16 10 0 0 -24 9 0c0,-13 1,-22 4,-33 1,-6 1,-4 1,-11l10 0 0 -24 10 0 0 -19 9 0 6 -50 10 0 0 -19 9 0 0 -24 10 0c0,-17 3,-20 6,-32 1,-4 0,-7 0,-11l10 0 0 -24 9 0 0 -19 10 0 6 -50 10 0 0 -19 10 0 0 -24 9 0c0,-22 6,-23 6,-43l10 0 0 -24 10 0 0 -16 9 0c0,-22 3,-20 6,-37 0,-4 0,-11 0,-16l9 0 0 -16 10 0 0 -29 9 0c0,-17 6,-26 6,-40l9 0 0 -29 10 0 0 -16 9 0 4 -29c1,-7 1,-16 1,-23l9 0 0 -16 10 0 0 -24 9 0c0,-10 0,-19 3,-29l1 -4c1,-6 1,-4 1,-11l9 0 0 -24 9 0 0 -19 9 0 0 -19c1,-10 1,-4 3,-7l3 -24 9 0 0 -19 10 0 0 -24 9 0c0,-17 3,-20 6,-32 1,-4 0,-7 0,-11l10 0 0 -24 9 0 0 -19 9 0 0 -19c1,-10 1,-4 3,-7l3 -24 9 0 0 -19 10 0 0 -24 10 0c0,-17 3,-20 6,-32 1,-4 0,-7 0,-11l10 0 0 -24 9 0 0 -16 10 0c0,-22 3,-20 6,-37 0,-4 0,-11 0,-16l9 0 0 -16 9 0 0 -27 10 0c0,-9 0,-14 1,-23l4 -17 10 0 0 -27 9 0 0 -16 10 0c0,-3 0,-10 0,-13 0,-7 0,0 1,-6 3,-10 4,-9 6,-19 0,-4 0,-11 0,-16l10 0 0 -16 9 0 0 -24 10 0c0,-11 0,-20 4,-30 0,-1 0,-1 1,-3 1,-6 1,-4 1,-11l9 0 0 -24 10 0 0 -19 10 0c0,-22 6,-26 6,-50l9 0 0 -19 10 0 0 -24 10 0c0,-11 -1,-13 3,-23 3,-9 0,6 3,-9 1,-4 0,-7 0,-11l10 0 0 -24 9 0 0 -19 10 0 6 -50 10 0 0 -19 9 0 0 -24 10 0c0,-22 6,-23 6,-43l10 0 0 -24 9 0 0 -16 10 0c0,-11 -1,-16 3,-26 1,-4 4,-14 4,-27l10 0 0 -16 9 0 0 -27 9 0c0,-10 0,-16 3,-24l3 -16 10 0 0 -27 9 0 0 -16 10 0 0 -19c3,-16 6,-16 6,-34l10 0 0 -50 -10 0c0,-7 1,-13 -3,-19 -4,-6 -4,-6 -13,-6l0 -10 -24 0 0 -9 -34 0 0 9 7 19zm-2060 795l-10 0 0 16 -10 0 0 19 10 0 0 24 10 0 0 24 9 0 0 34c10,4 6,6 6,24l10 0 0 34 9 0 0 27 9 0c0,3 0,14 0,16 3,13 -4,6 6,9l0 34 10 0 0 24 10 0 0 24 9 0 0 34c10,4 4,-3 6,9 0,3 0,16 0,19l9 0 0 24 10 0 0 34 10 0c0,3 0,10 0,13 1,16 6,11 6,37l9 0 0 34 9 0 0 27 9 0c0,19 -4,20 6,24l0 34 10 0 0 24 9 0 0 24 9 0 0 34c10,4 6,6 6,27l9 0 0 24 10 0 0 34 10 0c0,19 -4,20 6,24l0 34 9 0 0 24 10 0 0 29 10 0 0 34c10,4 4,-3 6,9 0,1 0,13 0,16l9 0 0 24 10 0 0 34 9 0c0,20 6,23 6,37 0,4 0,11 0,16l10 0 0 34 9 0 0 24 10 0c0,19 -4,20 6,24l0 34 9 0 0 24 10 0 0 27 10 0 0 34c10,4 6,6 6,24l10 0 0 24 9 0 0 34 10 0c0,20 6,23 6,37 0,4 0,11 0,16l10 0 0 34 9 0 0 24 10 0 0 34c10,4 4,-3 6,9 0,1 0,13 0,16l10 0 0 24 9 0 0 34 10 0c0,23 6,29 6,53l10 0 0 34 9 0 0 24 9 0c0,19 -4,20 6,24l0 34 10 0 0 27 9 0 0 24 10 0 0 34c10,4 6,6 6,24l10 0 0 24 10 0 0 34 9 0c0,11 -1,16 3,26 1,4 4,14 4,27l9 0 0 34 9 0 0 24 10 0c0,3 0,14 0,16 3,13 -4,6 6,9l0 34 9 0 0 27 10 0 0 24 9 0 0 10 40 0 0 -10 9 0 0 -19 10 0 0 -16 -10 0 0 -24 -9 0c0,-32 4,-24 -6,-27l0 -34 -9 0 0 -24 -9 0 0 -34 -9 0c0,-22 -6,-26 -6,-50l-9 0 0 -34 -10 0 0 -27 -9 0c0,-19 4,-20 -6,-24l0 -34 -10 0 0 -24 -9 0 0 -24 -9 0 0 -34c-10,-4 -6,-6 -6,-27l-9 0 0 -24 -10 0 0 -34 -10 0 0 -19c-3,-13 -6,-9 -6,-32l-10 0 0 -34 -9 0 0 -27 -10 0c0,-19 4,-20 -6,-24l0 -34 -9 0 0 -24 -9 0 0 -24 -10 0 0 -34c-10,-4 -6,-6 -6,-27l-10 0 0 -34 -9 0 0 -24 -10 0c0,-3 0,-14 0,-16 -3,-13 4,-6 -6,-9l0 -34 -10 0 0 -24 -9 0 0 -27 -10 0 0 -34c-10,-4 -6,-6 -6,-24l-10 0 0 -24 -9 0 0 -34 -10 0c0,-20 -6,-32 -6,-53l-10 0 0 -34 -10 0 0 -24 -9 0c0,-19 4,-20 -6,-24l0 -34 -10 0 0 -24 -9 0 0 -29 -10 0 0 -34c-10,-4 -6,-6 -6,-24l-9 0 0 -24 -10 0 0 -34 -9 0c0,-3 0,-14 0,-16 -3,-13 4,-6 -6,-9l0 -34 -10 0 0 -27 -10 0 0 -24 -9 0 0 -34c-10,-4 -4,3 -6,-9 0,-1 0,-13 0,-16l-10 0 0 -24 -10 0 0 -34 -9 0c0,-23 -6,-29 -6,-53l-9 0 0 -34 -9 0 0 -24 -10 0c0,-3 0,-14 0,-16 -3,-13 4,-6 -6,-9l0 -34 -9 0 0 -29 -9 0 0 -24 -9 0 0 -34c-10,-4 -6,-6 -6,-24l-10 0 0 -24 -10 0 0 -34 -9 0c0,-11 1,-16 -3,-26 -1,-4 -4,-14 -4,-27l-9 0 0 -34 -10 0 0 -24 -10 0c0,-24 -4,-19 -6,-34l-43 0 0 9 -1 3zm2350 1144l-9 0c-3,23 -4,-4 -6,19 -23,3 4,4 -19,6l0 9 -9 0c-3,23 -4,-4 -6,19 -23,3 4,4 -19,6l0 10 -9 0c-3,23 -4,-4 -6,19 -23,3 4,4 -19,6l0 10 -9 0 0 9 -16 0 0 10c-23,3 4,4 -19,6 -3,23 -4,-4 -6,19l-10 0 0 10c-23,3 4,4 -19,6 -3,23 -4,-4 -6,19l-9 0 0 9c-23,3 4,4 -19,6 -3,23 -4,-4 -6,19l-10 0 0 10c-23,3 4,4 -19,6 -3,23 -4,-4 -6,19l-9 0 0 9c-23,3 4,4 -19,6 -3,23 -4,-4 -6,19l-10 0 0 9c-23,3 4,4 -19,6 -3,23 -4,-4 -6,19l-10 0 0 10c-23,3 4,4 -19,6 -3,23 -4,-4 -6,19l-10 0 0 10c-23,3 4,4 -19,6 -3,23 -4,-4 -6,19l-10 0 0 9c-23,3 4,4 -19,6 -3,23 -4,-4 -6,19l-19 0 0 10c-16,1 -4,-3 -11,4 -7,7 -3,-4 -4,11l-10 0 0 10 -9 0 0 9c-16,1 -4,-3 -11,4 -7,7 -3,-4 -4,11l-10 0 0 9 -9 0 0 9c-16,1 -4,-3 -11,4 -7,7 -3,-4 -4,11l-10 0 0 10 -9 0 0 9c-16,1 -4,-3 -11,4 -7,7 -3,-4 -4,11l-10 0 0 10 -9 0 0 9c-16,1 -4,-3 -11,4 -7,7 -3,-4 -4,11l-10 0 0 10 -10 0 0 9c-16,1 -4,-3 -11,4 -7,7 -3,-4 -4,11l-9 0 0 10 -9 0 0 10c-16,1 -4,-3 -11,4 -7,7 -3,-4 -4,11l-9 0 0 10 -10 0 0 9c-16,1 -4,-3 -11,4 -7,7 -3,-4 -4,11l-9 0 0 9 -9 0 0 10c-16,1 -4,-3 -11,4 -7,7 -3,-4 -4,11l-9 0 0 9 -10 0 0 10c-29,0 -4,4 -24,6l0 10 -10 0 0 9 -9 0c-1,16 3,4 -4,11 -7,7 4,3 -11,4l0 10 -10 0 0 9 -9 0c-1,16 3,4 -4,11 -7,7 4,3 -11,4l0 10 -10 0 0 9 -10 0c-1,16 3,4 -4,11 -7,7 4,3 -11,4l0 10 -10 0 0 10 -10 0c-1,16 3,4 -4,11 -7,7 4,3 -11,4l0 9 -9 0 0 10 -10 0c-1,16 3,4 -4,11 -7,7 4,3 -11,4l0 10 -9 0 0 9 -10 0c-1,16 3,4 -4,11 -7,7 4,3 -11,4l0 10 -10 0 0 9 -10 0c-1,16 3,4 -4,11 -7,7 4,3 -11,4l0 10 -10 0 0 9 -9 0c-1,16 3,4 -4,11 -7,7 4,3 -11,4l0 9 -10 0 0 9 -10 0 0 10c-29,0 -4,4 -24,6l0 10 -9 0c-3,23 -4,-4 -6,19 -23,3 4,4 -19,6l0 10 -10 0c-3,23 -4,-4 -6,19 -23,3 4,4 -19,6l0 10 -9 0c-3,23 -4,-4 -6,19l-10 0 0 40 10 0 0 10 40 0 0 -10c19,-1 0,-6 27,-6 3,-23 4,4 6,-19l9 0 0 -9c23,-3 -4,-4 19,-6 3,-23 4,4 6,-19l10 0 0 -10c23,-3 -4,-4 19,-6 3,-23 4,4 6,-19l9 0 0 -10c23,-3 -4,-4 19,-6 3,-23 4,4 6,-19l10 0 0 -10c23,-3 -4,-4 19,-6 3,-23 4,4 6,-19l10 0 0 -9c23,-3 -4,-4 19,-6 3,-23 4,4 6,-19l10 0 0 -10c23,-3 -4,-4 19,-6 3,-23 4,4 6,-19l10 0 0 -10c23,-3 -4,-4 19,-6 3,-23 4,4 6,-19l10 0 0 -10c23,-3 -4,-4 19,-6 3,-23 4,4 6,-19l9 0 0 -9c23,-3 -4,-4 19,-6l0 -10 16 0 0 -10 10 0 0 -10c16,-1 4,3 11,-4 7,-7 3,4 4,-11l9 0 0 -9 10 0 0 -10c16,-1 4,3 11,-4 7,-7 3,4 4,-11l9 0 0 -9 9 0 0 -10c16,-1 4,3 11,-4 7,-7 3,4 4,-11l9 0 0 -9 10 0 0 -10c16,-1 4,3 11,-4 7,-7 3,4 4,-11l10 0 0 -9 9 0 0 -10c16,-1 4,3 11,-4 7,-7 3,4 4,-11l9 0 0 -9 10 0 0 -10c16,-1 4,3 11,-4 7,-7 3,4 4,-11l10 0 0 -10 9 0 0 -9c16,-1 4,3 11,-4 7,-7 3,4 4,-11l9 0 0 -10 9 0 0 -9c16,-1 4,3 11,-4 7,-7 3,4 4,-11l10 0 0 -10 9 0 0 -9c16,-1 4,3 11,-4 7,-7 3,4 4,-11l10 0 0 -10 19 0c1,-16 -3,-4 4,-11 7,-7 -4,-3 11,-4l0 -9 10 0 0 -10 10 0c1,-16 -3,-4 4,-11 7,-7 -4,-3 11,-4l0 -9 10 0 0 -9 10 0c1,-16 -3,-4 4,-11 7,-7 -4,-3 11,-4l0 -9 9 0 0 -10 10 0c1,-16 -3,-4 4,-11 7,-7 -4,-3 11,-4l0 -10 9 0 0 -9 10 0c1,-16 -3,-4 4,-11 7,-7 -4,-3 11,-4l0 -9 9 0 0 -10 10 0c1,-16 -3,-4 4,-11 7,-7 -4,-3 11,-4l0 -10 9 0 0 -9 9 0c1,-16 -3,-4 4,-11 7,-7 -4,-3 11,-4l0 -10 9 0 0 -9 10 0c1,-16 -3,-4 4,-11 7,-7 -4,-3 11,-4l0 -9 10 0 0 -10 9 0c1,-16 -3,-4 4,-11 7,-7 -4,-3 11,-4l0 -9 9 0 0 -10 10 0 0 -10c29,0 4,-4 24,-6l0 -10 9 0c3,-23 4,4 6,-19 23,-3 -4,-4 19,-6l0 -9 9 0c3,-23 4,4 6,-19 23,-3 -4,-4 19,-6l0 -10 9 0c3,-23 4,4 6,-19 23,-3 -4,-4 19,-6l0 -10 9 0c3,-23 4,4 6,-19 23,-3 -4,-4 19,-6l0 -10 9 0c3,-23 4,4 6,-19 23,-3 -4,-4 19,-6l0 -10 10 0 0 -43 -10 0 0 -10 -43 0 0 10 4 3zm-2897 190c-23,3 4,4 -19,6l0 27 10 0 0 16 9 0 0 10 10 0c1,16 -3,4 4,11 7,7 -4,3 11,4l0 10 10 0 0 10 9 0 0 9c29,0 4,4 24,6l0 10 10 0c3,23 4,-4 6,19 23,3 -4,4 19,6l0 10 9 0c3,23 4,-4 6,19 23,3 -4,4 19,6l0 10 10 0c3,23 4,-4 6,19 23,3 -4,4 19,6l0 9 16 0 0 9 10 0 0 10c23,3 -4,4 19,6 3,23 4,-4 6,19l10 0 0 9c23,3 -4,4 19,6 3,23 4,-4 6,19l9 0 0 9c23,3 -4,4 19,6 3,23 4,-4 6,19l10 0 0 9c22,3 -4,6 24,6l0 9 10 0 0 10 9 0 0 9c16,1 4,-3 11,4 7,7 3,-4 4,11l10 0 0 10 9 0 0 9c16,1 4,-3 11,4 7,7 3,-4 4,11l9 0 0 10 10 0 0 10c16,1 4,-3 11,4 7,7 3,-4 4,11l10 0 0 10 10 0 0 9c29,0 4,4 24,6l0 10 10 0 0 9 9 0c1,16 -3,4 4,11 7,7 -4,3 11,4l0 10 10 0 0 9 9 0c1,16 -3,4 4,11 7,7 -4,3 11,4l0 10 10 0 0 9 9 0c1,16 -3,4 4,11 7,7 -4,3 11,4l0 10 19 0c3,23 4,-4 6,19 23,3 -4,4 19,6l0 10 9 0c3,23 4,-4 6,19 23,3 -4,4 19,6l0 10 10 0c3,23 4,-4 6,19 23,3 -4,4 19,6l0 9 9 0c3,23 4,-4 6,19 19,1 -1,6 27,6 3,23 4,-4 6,19l9 0 0 9c23,3 -4,4 19,6 3,23 4,-4 6,19l9 0 0 10c23,3 -4,4 19,6 3,23 4,-4 6,19l9 0 0 10c23,3 -4,4 19,6 3,23 4,-4 6,19l10 0 0 10c7,0 11,-1 17,1 6,3 7,6 9,14l9 0 0 9 10 0 0 10c16,1 4,-3 11,4 7,7 3,-4 4,11l10 0 0 9 9 0 0 10c16,1 4,-3 11,4 7,7 3,-4 4,11l10 0 0 10 9 0 0 9c16,1 4,-3 11,4 7,7 3,-4 4,11l10 0 0 10 19 0c1,16 -3,4 4,11 7,7 -4,3 11,4l0 10 43 0 0 -10 10 0 0 -40 -10 0 0 -9 -9 0 0 -10 -10 0c-1,-16 3,-4 -4,-11 -7,-7 4,-3 -11,-4l0 -10 -9 0 0 -9 -10 0 0 -10c-29,0 -4,-4 -24,-6l0 -10 -10 0c-3,-23 -4,4 -6,-19 -23,-3 4,-4 -19,-6l0 -10 -10 0c-3,-23 -4,4 -6,-19 -23,-3 4,-4 -19,-6l0 -10 -10 0c-3,-23 -4,4 -6,-19 -23,-3 4,-4 -19,-6l0 -10 -9 0 0 -9 -16 0 0 -10c-23,-3 4,-4 -19,-6 -3,-23 -4,4 -6,-19l-9 0 0 -10c-23,-3 4,-4 -19,-6 -3,-23 -4,4 -6,-19l-10 0 0 -9c-23,-3 4,-4 -19,-6 -3,-23 -4,4 -6,-19l-10 0 0 -10c-22,-3 4,-6 -24,-6l0 -10 -9 0 0 -9 -9 0 0 -10c-16,-1 -4,3 -11,-4 -7,-7 -3,4 -4,-11l-9 0 0 -9 -9 0 0 -10c-16,-1 -4,3 -11,-4 -7,-7 -3,4 -4,-11l-10 0 0 -9 -10 0 0 -10c-16,-1 -4,3 -11,-4 -7,-7 -3,4 -4,-11l-9 0 0 -9 -10 0 0 -10c-29,0 -4,-4 -24,-6l0 -10 -9 0 0 -9 -10 0c-1,-16 3,-4 -4,-11 -7,-7 4,-3 -11,-4l0 -9 -10 0 0 -10 -10 0c-1,-16 3,-4 -4,-11 -7,-7 4,-3 -11,-4l0 -10 -10 0 0 -10 -9 0c-1,-16 3,-4 -4,-11 -7,-7 4,-3 -11,-4l0 -9 -19 0c-3,-23 -4,4 -6,-19 -23,-3 4,-4 -19,-6l0 -9 -10 0c-3,-23 -4,4 -6,-19 -23,-3 4,-4 -19,-6l0 -9 -9 0c-3,-23 -4,4 -6,-19 -23,-3 4,-4 -19,-6l0 -9 -10 0c-3,-23 -4,4 -6,-19 -19,-1 0,-6 -27,-6 -3,-23 -4,4 -6,-19l-10 0 0 -10c-23,-3 4,-4 -19,-6 -3,-23 -4,4 -6,-19l-10 0 0 -9c-23,-3 4,-4 -19,-6 -3,-23 -4,4 -6,-19l-10 0 0 -10c-23,-3 4,-4 -19,-6 -3,-23 -4,4 -6,-19l-10 0 0 -10c-14,0 -23,0 -24,-16l-9 0 0 -9 -9 0 0 -10c-16,-1 -4,3 -11,-4 -7,-7 -3,4 -4,-11l-10 0 0 -10 -10 0 0 -10c-16,-1 -4,3 -11,-4 -7,-7 -3,4 -4,-11l-9 0 0 -10 -9 0 0 -10c-16,-1 -4,3 -11,-4 -7,-7 -3,4 -4,-11l-10 0 0 -9 -19 0c-1,-16 3,-4 -4,-11 -7,-7 4,-3 -11,-4l0 -9 -34 0 0 9 1 3zm1246 -200l0 96 10 0 0 83 10 0 0 93 9 0 0 96 6 0 0 93 10 0 0 102 10 0 0 83 9 0 0 96 6 0 0 69c23,3 -4,4 19,6l0 10 34 0 0 -10c11,-1 1,0 7,-1 6,-3 -3,0 9,-4l0 -62 -6 0 0 -93 -10 0 0 -93 -10 0 0 -93 -10 0 0 -96 -6 0 0 -93 -10 0 0 -93 -10 0 0 -93 -9 0 0 -96 -6 0 0 -75 -9 0 0 -9 -10 0 0 -10 -43 0c-3,26 -6,-16 -6,46l0 37c3,13 -4,6 6,9l0 3zm1806 547l0 9 -19 0 0 10 -16 0 0 9c-11,0 -16,-1 -26,3l-4 1c-1,0 -1,0 -3,1 -6,1 -4,1 -11,1l0 9 -19 0 0 10 -16 0 0 9c-30,0 -6,6 -43,6l0 9 -16 0 0 10 -19 0 0 10c-4,0 -4,0 -9,0 -13,3 -4,6 -26,6l0 9 -24 0 0 10 -19 0 0 9c-10,0 -10,1 -16,3 -3,1 3,0 -7,3 -4,1 -7,0 -11,0l0 10 -16 0 0 9 -24 0 0 10c-16,0 -9,0 -22,4l-13 3 0 10 -19 0 0 9 -24 0 0 10c-16,0 -9,0 -22,4l-13 3 0 10 -19 0 0 9 -16 0 0 10c-30,0 -6,6 -43,6l0 10 -16 0 0 9 -19 0 0 9c-22,0 -9,6 -34,6l0 10 -24 0 0 9 -19 0 0 10c-22,0 -9,6 -34,6l0 10 -24 0 0 10 -16 0 0 10c-29,0 -10,4 -27,6 -1,11 -14,14 -3,46 3,7 1,-6 3,7l10 0 0 9 34 0 0 -9 19 0 0 -9 16 0 0 -10c4,0 7,0 11,0 14,-3 0,0 9,-3 10,-3 11,-3 23,-3l0 -10 16 0 0 -10 19 0 0 -9c22,0 9,-6 34,-6l0 -10 24 0 0 -10 19 0 0 -10c22,0 9,-6 34,-6l0 -10 16 0 0 -9 24 0 0 -10c24,0 14,-6 34,-6l0 -9 19 0 0 -9 16 0 0 -10c11,0 16,1 26,-3l7 -3c6,-1 4,-1 11,-1l0 -10 19 0 0 -9 16 0 0 -10c30,0 6,-6 43,-6l0 -10 16 0 0 -9 19 0 0 -10c10,0 10,-1 16,-3 10,-3 6,-3 19,-3l0 -10 24 0 0 -9 19 0 0 -10c4,0 4,0 9,-1 7,-1 6,-1 7,-3 10,-3 6,-3 19,-3l0 -9 16 0 0 -10 24 0 0 -9c13,0 9,0 19,-3 7,-3 6,-3 16,-3l0 -10 19 0 0 -10 16 0 0 -9c23,0 13,1 30,-4 1,0 1,0 3,-1 6,-1 4,-1 11,-1l0 -9 10 0 0 -10 10 0 0 -34 -10 0 0 -9c-19,-1 -3,-1 -11,-4 -6,-1 -9,-3 -17,-3 -27,1 -3,7 -32,7l-3 1zm-728 609l-43 0 0 6 -43 0 0 9 -40 0 0 10 -43 0 0 9 -43 0 0 6 -34 0 0 10 -43 0 0 10 -40 0 0 9 -43 0 0 6 -43 0 0 9 -24 0 0 10 -10 0 0 9 -9 0 0 24 9 0 0 16 19 0 0 9 16 0 0 -9 43 0 0 -6 43 0 0 -9 40 0 0 -10 43 0 0 -9 43 0 0 -6 43 0 0 -9 40 0 0 -10 43 0 0 -9 43 0 0 -6 43 0 0 -9 34 0 0 -10 24 0 0 -10 10 0 0 -40 -10 0 0 -9 -69 0 0 9 1 0z"/>
  </g>
 </g>
 <g id="Layer_x0020_1_0">
  <metadata id="CorelCorpID_1Corel-Layer"/>
  <polygon class="fil1" points="21780,0 0,0 0,8766 21780,8766 "/>
 </g>
</svg>
