<?xml version="1.0" encoding="UTF-8"?>
<!DOCTYPE svg PUBLIC "-//W3C//DTD SVG 1.1//EN" "http://www.w3.org/Graphics/SVG/1.1/DTD/svg11.dtd">
<!-- Creator: CorelDRAW X5 -->
<svg xmlns="http://www.w3.org/2000/svg" xml:space="preserve" width="58.4342mm" height="15.2735mm" style="shape-rendering:geometricPrecision; text-rendering:geometricPrecision; image-rendering:optimizeQuality; fill-rule:evenodd; clip-rule:evenodd"
viewBox="0 0 33877 8855"
 xmlns:xlink="http://www.w3.org/1999/xlink">
 <defs>
  <style type="text/css">
   <![CDATA[
    .fil1 {fill:#FEFEFE}
    .fil0 {fill:#FEFEFE;fill-rule:nonzero}
   ]]>
  </style>
 </defs>
 <g id="Layer_x0020_1">
  <metadata id="CorelCorpID_0Corel-Layer"/>
  <g id="_87687744">
   <path class="fil0" d="M13685 1886l-1127 0 0 1196 1127 0 0 -407 422 95 0 226c0,174 -31,293 -93,357 -62,64 -180,96 -356,96l-1071 0c-173,0 -291,-32 -352,-95 -62,-63 -93,-183 -93,-358l0 -1011c0,-174 30,-293 92,-356 62,-63 179,-95 353,-95l1071 0c177,0 296,32 357,95 62,63 92,182 92,356l0 186 -422 69 0 -354zm776 1563l1018 -1915 402 0 1033 1915 -469 0 -216 -420 -1134 0 -216 420 -418 0zm812 -770l786 0 -399 -798 -387 798zm2069 770l0 -1915 422 0 0 1556 1344 0 0 358 -1766 0zm3740 -1563l-1127 0 0 1196 1127 0 0 -407 422 95 0 226c0,174 -31,293 -93,357 -62,64 -180,96 -356,96l-1071 0c-173,0 -291,-32 -352,-95 -62,-63 -93,-183 -93,-358l0 -1011c0,-174 30,-293 92,-356 62,-63 179,-95 353,-95l1071 0c177,0 296,32 357,95 61,63 92,182 92,356l0 186 -422 69 0 -354zm1524 -352l0 1556 1194 0 0 -1556 422 0 0 1461c0,174 -31,293 -94,357 -63,64 -182,97 -357,97l-1135 0c-174,0 -292,-32 -353,-95 -61,-63 -92,-183 -92,-358l0 -1461 416 0zm2378 1915l0 -1915 422 0 0 1556 1344 0 0 358 -1766 0zm1977 0l1018 -1915 402 0 1033 1915 -469 0 -216 -420 -1134 0 -216 420 -418 0zm812 -770l786 0 -399 -798 -387 798zm2869 -802l0 1572 -418 0 0 -1572 -828 0 0 -343 2075 0 0 343 -830 0zm1370 1572l0 -1915 1839 0 0 338 -1418 0 0 417 826 0 0 330 -826 0 0 471 1439 0 0 358 -1861 0z"/>
   <path class="fil0" d="M13368 5807l0 1572 -466 0 0 -1572 -924 0 0 -343 2318 0 0 343 -927 0zm1530 1572l0 -1915 471 0 0 728 1457 0 0 -728 466 0 0 1915 -466 0 0 -807 -1457 0 0 807 -471 0zm3250 0l0 -1915 2054 0 0 338 -1583 0 0 417 922 0 0 330 -922 0 0 471 1607 0 0 358 -2078 0zm6184 -1563l-1258 0 0 1196 1258 0 0 -407 471 95 0 226c0,174 -35,293 -104,357 -69,64 -202,96 -398,96l-1196 0c-193,0 -324,-32 -393,-95 -69,-63 -104,-183 -104,-358l0 -1011c0,-174 34,-293 103,-356 69,-63 200,-95 395,-95l1196 0c198,0 331,32 399,95 69,63 103,182 103,356l0 186 -471 69 0 -354zm1658 1196l1543 0 0 -1196 -1543 0 0 1196zm-466 -1097c0,-174 34,-293 102,-356 68,-63 199,-95 395,-95l1481 0c198,0 330,32 397,95 67,63 100,182 100,356l0 1011c0,175 -34,294 -103,358 -69,63 -200,95 -395,95l-1481 0c-196,0 -328,-32 -395,-95 -68,-63 -102,-183 -102,-358l0 -1011zm5053 -109l-1318 0 0 404 1248 0c196,0 328,31 395,94 68,63 102,182 102,357l0 263c0,176 -35,295 -104,358 -69,63 -200,95 -393,95l-1243 0c-198,0 -331,-32 -401,-95 -70,-63 -105,-183 -105,-358l0 -53 416 -78 0 226 1408 0 0 -438 -1241 0c-195,0 -328,-32 -398,-96 -69,-64 -104,-183 -104,-358l0 -214c0,-172 35,-291 104,-355 69,-64 202,-96 398,-96l1137 0c193,0 325,31 397,92 72,61 107,169 107,324l0 46 -405 86 0 -205zm2374 0l0 1572 -466 0 0 -1572 -924 0 0 -343 2318 0 0 343 -927 0z"/>
   <path class="fil1" d="M497 8c-17,6 -35,0 -58,6l-93 29c-128,64 -191,110 -261,226 -17,29 -29,52 -41,81 -23,70 -17,6 -35,145 -17,133 -6,342 -6,481l0 7096c0,75 -6,174 0,243 6,35 6,70 17,110 12,75 75,186 128,238 41,46 87,75 139,110 180,110 417,75 655,75l5142 0c70,0 180,6 249,0 64,-6 139,-35 186,-58l75 -46c17,-12 17,-12 35,-29 70,-64 46,-52 87,-93 23,-29 52,-81 70,-116 12,-29 35,-110 35,-145 6,-75 0,-388 0,-487l0 -6366c0,-325 0,-649 0,-980 0,-220 -145,-394 -319,-475 -139,-64 -215,-52 -377,-52l-5386 0c-75,0 -180,-6 -243,0l0 6zm-313 528l0 7786c0,58 12,75 23,110 6,12 6,23 12,35 6,12 29,46 35,58 23,29 58,70 93,87 64,41 128,70 209,70l5740 0c17,0 58,-12 70,-12 46,-6 81,-35 116,-52 70,-41 93,-87 128,-145 12,-23 41,-104 41,-139l0 -7786c0,-35 -12,-58 -23,-93 -6,-35 -17,-46 -35,-81 -23,-46 -70,-81 -110,-116 -17,-17 -6,-12 -35,-23 -58,-23 0,-12 -122,-46 -46,-12 -1015,-6 -1113,-6l-4481 0c-180,0 -301,-23 -441,116 -12,12 -17,17 -23,29 -12,12 -12,12 -23,35 -41,70 -12,23 -35,75 -12,29 -23,58 -23,99zm591 52c-104,17 -151,41 -209,110 -52,64 -23,35 -52,81 -35,58 -23,232 -23,307l0 1293c0,203 -35,452 75,568 35,35 58,64 110,81 87,29 52,23 174,23l4905 0c139,0 243,23 359,-29 52,-23 104,-75 133,-122 41,-75 12,-29 35,-99 23,-70 12,-406 12,-510 0,-342 0,-690 0,-1032 0,-128 17,-394 -29,-487 -64,-133 -174,-186 -330,-186l-4905 0c-70,0 -197,-6 -255,0zm-174 365l6 46 0 1600c-6,75 0,35 0,93 0,87 17,174 93,215 12,6 35,17 46,23 46,17 562,12 638,12l4406 0c70,0 191,6 249,-6 23,-6 23,-12 41,-17 6,0 12,-6 17,-12 12,-6 0,0 6,-6 35,-35 46,-46 64,-93 23,-75 17,-157 17,-243l0 -1560c0,-87 6,-162 -41,-220 -17,-23 -41,-46 -64,-64 -17,-12 -81,-29 -104,-29l-5090 0c-99,0 -157,-6 -232,75 -41,46 -46,104 -46,186l-6 0zm6 4638l0 829c0,104 87,191 151,215 93,29 93,17 191,17 75,0 812,6 852,-6 58,-17 93,-29 139,-75l35 -46c41,-75 29,-162 29,-261l6 -330c0,-35 -12,-81 -12,-128 0,-58 6,-220 -12,-261 -23,-58 -12,-46 -46,-93 -6,-6 -23,-23 -35,-35 -23,-17 -6,-6 -41,-29 -23,-17 -70,-29 -110,-29 -168,6 -899,-6 -957,6 -52,12 -58,17 -99,41 -17,12 -52,52 -70,70 -23,35 -35,58 -35,110l12 6zm4093 354l6 145c0,87 -12,371 17,417 12,29 35,58 64,87 87,87 255,64 377,64 139,0 475,6 586,0 75,-6 157,17 243,-41 23,-17 23,-12 41,-29 41,-41 70,-104 70,-157l0 -823c0,-116 -104,-220 -226,-232 -41,-6 -110,0 -151,0l-690 -6c-23,0 -29,6 -46,12 -58,17 -122,-17 -215,75l-29 29c-12,12 -6,23 -17,41 -29,52 -17,238 -17,325 0,75 -12,81 -12,104l0 -12zm-1820 2394l945 0c41,0 93,-23 122,-41 12,-12 17,-12 35,-23 29,-23 75,-99 75,-151l0 -846c0,-46 -17,-64 -29,-87 -6,-23 -35,-58 -46,-64 -46,-35 -93,-70 -162,-70l-939 0c-64,0 -133,41 -162,75 -87,104 -58,180 -58,342 0,122 -6,568 0,649 6,122 122,215 226,215l-6 0zm-2273 -1061l0 841c0,70 35,116 70,151 29,29 93,70 145,70l945 0c58,0 122,-29 162,-70 23,-23 70,-104 70,-157l0 -841c0,-99 -104,-220 -232,-220l-933 0c-116,0 -232,99 -232,220l6 6zm4099 0l0 846c0,58 35,110 70,145 35,35 99,70 145,70l962 0c46,0 122,-41 151,-70 29,-35 70,-104 70,-157l0 -841c0,-29 -17,-64 -29,-87 -35,-75 -128,-133 -209,-133l-933 0c-116,0 -232,104 -232,220l6 6zm-2052 -3096c0,81 6,209 -6,284 0,17 12,41 12,64 6,87 -17,220 23,290 23,35 0,6 29,52 12,17 0,12 17,17l23 17c23,17 12,6 52,29 46,29 284,12 354,17 46,6 70,23 139,12 35,-6 52,-17 110,-12 81,6 29,12 145,12 70,0 301,6 359,-23 99,-58 139,-110 139,-249 0,-70 6,-301 6,-354 0,-29 -12,-58 -12,-93 12,-93 12,-35 12,-151 0,-23 -12,-52 -12,-75 0,-104 6,-93 -17,-186 -23,-70 -46,-104 -122,-133 -35,-17 -58,-23 -104,-23l-852 0c-104,0 -180,6 -255,93 -17,17 -6,17 -12,41 -6,29 -23,29 -29,75 -6,52 6,157 0,203 0,17 -6,23 -12,41 -6,29 0,29 0,58l12 -6zm2047 429c0,122 -17,197 64,267 0,0 6,6 6,6 110,99 174,64 220,75 17,6 35,12 52,12 41,0 75,-6 110,-6 220,0 493,6 702,0 93,0 186,-46 220,-133 12,-29 29,-52 29,-93l0 -823c0,-122 -104,-232 -243,-232l-812 0c-133,0 -197,-12 -284,81 -41,41 0,6 -35,70 -23,41 -17,99 -17,151 0,70 6,504 -6,562 -6,23 -12,46 -12,70l6 -6zm-3855 354c122,0 945,6 991,-6 23,-6 23,-12 35,-23 17,-12 46,-35 70,-58 6,-12 17,-23 23,-35 29,-64 29,-93 29,-162 0,-81 6,-765 -6,-806 -6,-23 -23,-75 -35,-99 -29,-52 -116,-99 -168,-99l-980 0c-17,0 -58,17 -81,29 -58,23 -128,110 -128,203 0,52 -6,806 0,858 17,116 122,203 232,203l17 -6zm1815 1096l0 313c0,70 0,128 52,186 93,104 168,93 325,93 64,0 777,6 817,-6 133,-35 203,-116 203,-261 0,-87 0,-174 0,-267 0,-46 0,-87 6,-128 0,-81 -12,-93 -12,-128l0 -197c6,-64 29,-87 -12,-157 -17,-23 -23,-29 -41,-52 -17,-23 -6,-6 -23,-23 -41,-41 -110,-75 -174,-64 -75,17 -238,-12 -267,-12l-104 0c-23,0 -41,17 -70,17 -110,6 -487,-17 -557,17 -41,17 -87,64 -110,104 -6,17 -12,17 -17,29 -23,46 0,284 -12,359 -6,35 -12,35 -12,81 0,29 6,70 6,93zm249 -591c-58,12 -75,12 -122,58 -17,17 -29,52 -29,75 -6,29 -6,249 0,278 6,52 17,64 12,128 -6,64 -6,400 0,429 17,93 93,110 180,110 122,0 812,6 870,0 75,-6 128,-70 128,-157 0,-99 0,-191 0,-290 0,-46 -6,-93 -6,-139 0,-46 12,-81 12,-133 0,-139 17,-226 -58,-307 -23,-29 0,-17 -41,-29 -52,-23 -64,-12 -128,-12 -46,0 -93,0 -145,6 -35,0 -99,-12 -133,-17l-545 0 6 0zm1896 -1519c0,87 -12,730 6,788 17,58 12,46 46,81 70,70 162,23 203,29 267,12 522,0 777,6 70,0 104,-17 139,-75 12,-12 12,-41 12,-64l0 -777c0,-87 -75,-145 -128,-145l-881 0c-52,0 -110,6 -139,35 -35,41 -46,70 -46,122l12 0zm-1954 -151c-17,6 -41,12 -52,23 -6,6 -6,12 -17,17 -12,12 -6,0 -12,23 -23,58 -12,58 -17,122 0,58 0,81 6,133 6,35 12,307 6,359 0,23 -12,41 -12,64 0,17 0,180 6,203 17,58 35,99 99,116 46,12 226,12 284,12 58,0 29,-17 133,-17 52,0 70,23 128,17 52,-6 -17,-12 133,-12 46,0 93,12 139,6 23,0 41,-6 64,-6 41,0 99,6 139,-12 23,-12 58,-58 64,-75 6,-17 6,-46 6,-70 0,-116 -6,-238 -6,-354 0,-29 6,-35 12,-64 6,-46 -17,-151 -6,-203 6,-23 6,-41 6,-70 0,-35 0,-110 -12,-139 -46,-93 -122,-75 -215,-75 -151,0 -817,-12 -875,6l0 -6zm2122 1670c-23,0 -46,0 -64,6 -6,0 -46,17 -46,23l-35 35c-29,41 -23,133 -23,180 0,41 -6,93 -6,139 0,52 23,64 17,116 -6,41 -6,388 0,423 0,52 6,75 35,104 17,17 58,46 99,46 93,6 191,0 284,0 191,0 383,0 574,0 58,0 99,0 139,-41 17,-17 35,-41 41,-64 12,-35 6,-493 6,-568 0,-64 6,-238 -6,-290 -6,-29 -35,-70 -58,-81 -35,-23 -70,-23 -116,-23l-777 0c-17,0 -46,-12 -64,-12l0 6zm-4151 12c-93,41 -104,70 -104,174l0 562c0,209 -29,267 99,325 29,17 371,6 423,6 87,0 516,12 557,-6 87,-29 99,-87 99,-180l0 -417c0,-23 -6,-46 -6,-70 6,-70 29,-278 -12,-325 -12,-17 -23,-17 -35,-29 -52,-41 -104,-41 -174,-41 -122,0 -823,-6 -846,6l0 -6zm81 -626l823 0c17,0 52,-6 70,-12 35,-6 29,-17 52,-29 41,-29 52,-52 52,-110l0 -765c0,-64 -64,-151 -139,-151l-922 0c-41,0 -87,41 -104,70 -17,35 -17,110 -17,157l0 690c0,70 17,81 52,116 35,29 87,29 133,29l0 6zm-46 3380l899 0c23,0 41,-6 58,-12 12,-6 12,-6 23,-12 35,-23 64,-64 64,-116l0 -788c0,-52 -23,-81 -52,-110 -29,-29 -81,-29 -128,-29 -151,0 -875,-12 -922,12 -29,17 -64,58 -70,87 -12,46 -6,817 0,858 6,46 29,70 70,93 17,12 46,12 70,12l-12 6zm3954 -933l0 800c0,58 41,104 81,128 41,17 846,12 957,12 41,0 75,-17 99,-41 17,-17 41,-64 41,-99l0 -783c0,-81 -58,-145 -145,-145l-887 0c-58,0 -87,17 -122,52 -6,6 -12,12 -17,23 -6,17 -12,41 -12,58l6 -6zm-1896 933l887 0c58,0 93,-35 122,-75 6,-12 17,-41 17,-58l0 -806c0,-58 -58,-128 -145,-128 -93,0 -864,0 -887,0 -17,0 -58,6 -70,12 -12,6 -17,12 -23,17 -58,46 -52,87 -52,162l0 678c0,70 -6,128 52,168 35,23 46,29 104,29l-6 0z"/>
  </g>
 </g>
</svg>
