<?xml version="1.0" encoding="UTF-8"?>
<!DOCTYPE svg PUBLIC "-//W3C//DTD SVG 1.1//EN" "http://www.w3.org/Graphics/SVG/1.1/DTD/svg11.dtd">
<!-- Creator: CorelDRAW X5 -->
<svg xmlns="http://www.w3.org/2000/svg" xml:space="preserve" width="73.4763mm" height="13.8952mm" style="shape-rendering:geometricPrecision; text-rendering:geometricPrecision; image-rendering:optimizeQuality; fill-rule:evenodd; clip-rule:evenodd"
viewBox="0 0 66299 12538"
 xmlns:xlink="http://www.w3.org/1999/xlink">
 <defs>
  <style type="text/css">
   <![CDATA[
    .fil1 {fill:#FEFEFE;fill-rule:nonzero}
    .fil0 {fill:#018DEE;fill-rule:nonzero}
   ]]>
  </style>
 </defs>
 <g id="Layer_x0020_1">
  <metadata id="CorelCorpID_0Corel-Layer"/>
  <g id="_217085824">
   <path class="fil0" d="M0 4038l0 -4038 4285 0 0 723 -3291 0 0 1054 1771 0 0 751 -1771 0 0 1510 -993 0zm8469 -3342l-2249 0 0 1117 2249 0c170,0 288,-25 352,-75 64,-49 95,-134 95,-251l0 -465c0,-118 -32,-202 -95,-251 -64,-49 -181,-75 -352,-75zm-3218 3342l0 -4038 3637 0c333,0 575,62 723,185 150,123 224,323 224,600l0 949c0,274 -75,471 -224,594 -148,121 -390,181 -723,181l-554 0 1921 1530 -1413 0 -1693 -1530 -928 0 0 1530 -969 0zm6206 0l0 -4038 4332 0 0 713 -3339 0 0 880 1945 0 0 696 -1945 0 0 993 3390 0 0 756 -4383 0zm5804 0l0 -4038 4332 0 0 713 -3339 0 0 880 1945 0 0 696 -1945 0 0 993 3390 0 0 756 -4383 0zm10531 -2197l-1769 0 0 1682 1769 0 0 -572 662 134 0 317c0,244 -49,412 -146,502 -97,90 -283,135 -559,135l-1682 0c-272,0 -456,-45 -553,-134 -98,-89 -146,-257 -146,-503l0 -1421c0,-245 48,-412 144,-501 97,-89 281,-134 555,-134l1682 0c278,0 465,44 561,134 97,89 144,256 144,501l0 261 -662 97 0 -498zm1219 2197l1598 -2692 631 0 1622 2692 -736 0 -340 -591 -1780 0 -340 591 -656 0zm1274 -1082l1234 0 -627 -1121 -607 1121zm3248 1082l0 -2692 662 0 0 2188 2110 0 0 504 -2773 0zm5873 -2197l-1769 0 0 1682 1769 0 0 -572 662 134 0 317c0,244 -49,412 -146,502 -97,90 -283,135 -559,135l-1682 0c-272,0 -456,-45 -553,-134 -98,-89 -146,-257 -146,-503l0 -1421c0,-245 48,-412 144,-501 97,-89 281,-134 555,-134l1682 0c278,0 465,44 561,134 97,89 144,256 144,501l0 261 -662 97 0 -498zm2393 -494l0 2188 1875 0 0 -2188 662 0 0 2054c0,245 -49,412 -148,502 -99,90 -285,136 -561,136l-1782 0c-274,0 -458,-45 -555,-134 -97,-89 -144,-257 -144,-504l0 -2054 653 0zm3734 2692l0 -2692 662 0 0 2188 2110 0 0 504 -2773 0zm3104 0l1598 -2692 631 0 1622 2692 -736 0 -340 -591 -1780 0 -340 591 -656 0zm1274 -1082l1234 0 -627 -1121 -607 1121zm4504 -1128l0 2210 -656 0 0 -2210 -1300 0 0 -482 3259 0 0 482 -1303 0zm2151 2210l0 -2692 653 0 0 2692 -653 0zm2444 -516l2170 0 0 -1682 -2170 0 0 1682zm-656 -1542c0,-245 48,-412 143,-501 96,-89 280,-134 556,-134l2083 0c278,0 464,44 558,134 94,89 141,256 141,501l0 1421c0,246 -48,414 -144,503 -97,89 -281,134 -555,134l-2083 0c-276,0 -460,-45 -556,-134 -95,-89 -143,-257 -143,-503l0 -1421zm4616 2057l0 -2692 451 0 2284 1787 0 -1787 594 0 0 2692 -454 0 -2278 -1815 0 1815 -597 0z"/>
   <path class="fil1" d="M10680 12486l0 -2692 653 0 0 2692 -653 0zm1853 0l0 -2692 451 0 2284 1787 0 -1787 594 0 0 2692 -454 0 -2278 -1815 0 1815 -597 0zm9303 0l0 -3193 -839 0 0 -526 1670 -253 0 3973 -831 0zm4193 -1757l224 -2186 3406 0 -67 671 -2753 0 -89 765c337,-34 635,-60 893,-74 257,-15 493,-23 704,-23 651,0 1140,111 1466,334 326,223 489,556 489,1002 0,462 -171,798 -513,1007 -341,209 -895,313 -1658,313 -401,0 -763,-14 -1085,-41 -321,-28 -595,-67 -819,-120l-197 -761c386,70 749,121 1091,154 342,34 671,51 987,51 495,0 843,-50 1045,-148 201,-98 302,-262 302,-494 0,-219 -98,-376 -294,-470 -197,-94 -530,-141 -997,-141 -298,0 -626,14 -984,41 -359,28 -742,67 -1150,120zm8591 1757l0 -3230 630 0 1583 1918 1574 -1918 634 0 0 3230 -731 0 0 -2223 -1444 1835 -153 0 -1463 -1783 0 2171 -630 0zm5861 0l0 -3230 783 0 0 3230 -783 0zm2223 0l0 -3230 541 0 2741 2144 0 -2144 713 0 0 3230 -545 0 -2734 -2179 0 2179 -717 0zm6221 -3230l0 2625 2250 0 0 -2625 794 0 0 2465c0,294 -59,494 -177,602 -118,108 -343,163 -674,163l-2138 0c-329,0 -550,-54 -666,-160 -116,-107 -173,-308 -173,-605l0 -2465 783 0zm6406 578l0 2652 -787 0 0 -2652 -1560 0 0 -578 3910 0 0 578 -1564 0zm2581 2652l0 -3230 3466 0 0 570 -2671 0 0 704 1556 0 0 556 -1556 0 0 794 2712 0 0 605 -3506 0zm7629 -2652l-2224 0 0 682 2105 0c331,0 554,52 667,158 115,106 172,307 172,602l0 444c0,297 -59,498 -176,605 -116,107 -337,160 -663,160l-2097 0c-334,0 -559,-54 -677,-160 -118,-107 -177,-308 -177,-605l0 -89 702 -131 0 381 2376 0 0 -738 -2093 0c-330,0 -554,-54 -671,-162 -117,-108 -176,-309 -176,-604l0 -362c0,-290 59,-490 176,-599 117,-108 341,-162 671,-162l1919 0c326,0 549,52 670,155 121,103 181,285 181,546l0 78 -683 145 0 -346z"/>
  </g>
 </g>
</svg>
