<?xml version="1.0" encoding="UTF-8"?>
<!DOCTYPE svg PUBLIC "-//W3C//DTD SVG 1.1//EN" "http://www.w3.org/Graphics/SVG/1.1/DTD/svg11.dtd">
<!-- Creator: CorelDRAW X5 -->
<svg xmlns="http://www.w3.org/2000/svg" xml:space="preserve" width="83mm" height="15mm" style="shape-rendering:geometricPrecision; text-rendering:geometricPrecision; image-rendering:optimizeQuality; fill-rule:evenodd; clip-rule:evenodd"
viewBox="0 0 8300 1500"
 xmlns:xlink="http://www.w3.org/1999/xlink">
 <defs>
  <style type="text/css">
   <![CDATA[
    .fil1 {fill:#FEFEFE}
    .fil0 {fill:#018DEE}
   ]]>
  </style>
 </defs>
 <g id="Layer_x0020_1">
  <metadata id="CorelCorpID_0Corel-Layer"/>
  <g id="_545037592">
   <path class="fil0" d="M217 637l0 -512 412 0c38,0 66,8 83,23 17,16 25,41 25,76l0 59c0,27 -7,48 -20,61 -14,14 -35,22 -65,26 29,3 51,14 66,31 15,17 22,40 22,69l0 65c0,34 -12,59 -35,76 -23,16 -59,25 -107,25l-382 0zm433 -347l0 -51c0,-17 -4,-28 -11,-35 -7,-6 -21,-10 -41,-10l-295 0 0 141 295 0c20,0 33,-3 41,-10 8,-7 11,-19 11,-35zm291 347l0 -420 423 0 0 62 -344 0 0 108 207 0 0 62 -207 0 0 126 348 0 0 61 -427 0zm550 0l0 -38 318 -320 -288 0 0 -62 414 0 0 33 -321 323 321 0 0 63 -443 0zm638 0l0 -420 355 0c33,0 56,6 70,19 14,13 21,33 21,62l0 94c0,28 -7,49 -21,61 -14,13 -38,19 -70,19l-276 0 0 165 -79 0zm319 -359l-240 0 0 133 240 0c18,0 30,-3 37,-9 7,-6 10,-16 10,-31l0 -53c0,-15 -3,-25 -10,-31 -7,-6 -19,-9 -37,-9zm946 200l223 0 -112 -200 -111 200zm-167 159l243 -420 73 0 249 420 -86 0 -55 -98 -290 0 -54 98 -79 0zm838 -358l0 358 -79 0 0 -358 -198 0 0 -62 477 0 0 62 -199 0zm386 22c2,12 3,25 4,37 1,13 1,25 1,38l0 261 -73 0 0 -420 60 0 308 274c9,8 18,16 26,26 8,9 16,20 24,32 -2,-13 -4,-25 -5,-38 -1,-13 -2,-26 -2,-40l0 -254 73 0 0 420 -54 0 -315 -278c-11,-10 -20,-20 -28,-29 -8,-9 -15,-19 -21,-28zm711 177l223 0 -112 -200 -111 200zm-167 159l243 -420 73 0 249 420 -86 0 -55 -98 -290 0 -54 98 -79 0zm1397 0l0 -112 -133 -144 59 0 102 111 97 -111 56 0 -133 144 0 112 -48 0zm474 -218l-178 0 0 179 178 0 0 -61 48 9 0 30c0,23 -4,39 -13,48 -9,8 -25,13 -50,13l-150 0c-24,0 -41,-4 -49,-12 -9,-8 -13,-24 -13,-48l0 -134c0,-24 4,-40 13,-48 9,-8 25,-13 49,-13l150 0c24,0 41,4 50,13 9,9 13,25 13,48l0 24 -48 8 0 -55zm151 218l0 -256 257 0 0 38 -209 0 0 66 126 0 0 38 -126 0 0 77 211 0 0 37 -260 0zm391 -204c1,7 2,15 3,23 1,8 1,15 1,23l0 159 -44 0 0 -256 37 0 187 167c6,5 11,10 16,16 5,6 10,12 15,20 -1,-8 -2,-15 -3,-23 -1,-8 -1,-16 -1,-24l0 -154 44 0 0 256 -33 0 -191 -169c-7,-6 -12,-12 -17,-18 -5,-6 -9,-11 -13,-17zm432 108l136 0 -68 -122 -68 122zm-101 97l148 -256 44 0 151 256 -52 0 -33 -60 -177 0 -33 60 -48 0zm-4930 -209l149 -150 51 46 -115 116 0 0 -85 86 0 47 327 0 0 63 -406 0 0 -420 79 0 0 212zm3107 209l-99 -256 50 0 71 195 75 -195 32 0 74 195 71 -195 43 0 -98 256 -35 0 -72 -191 -75 191 -36 0zm-5261 -131l0 -43c0,-23 -4,-39 -12,-48 -8,-9 -23,-13 -44,-13l-295 0 0 165 295 0c22,0 37,-4 45,-13 8,-9 12,-25 12,-47z"/>
   <path class="fil1" d="M4563 1368l0 -348 -90 0 0 -41 153 -27 0 416 -63 0zm430 -79c37,9 74,15 109,20 35,4 68,7 99,7 50,0 86,-6 108,-19 22,-13 33,-33 33,-62 0,-30 -11,-51 -34,-65 -23,-13 -60,-20 -110,-20 -31,0 -63,2 -97,6 -34,4 -69,11 -106,19l21 -220 334 0 -5 55 -277 0 -15 100c26,-6 51,-10 77,-13 25,-3 51,-4 76,-4 70,0 122,11 156,35 34,23 51,59 51,107 0,49 -17,85 -52,106 -35,22 -92,33 -171,33 -25,0 -52,-1 -80,-5 -28,-3 -60,-8 -96,-15l-20 -66zm914 -197c0,5 0,12 1,20 1,14 1,23 1,27l0 229 -53 0 0 -339 53 0 169 220 155 -220 59 0 0 339 -59 0 0 -229c0,-8 0,-16 1,-24 1,-8 2,-15 3,-23 -4,11 -7,20 -11,28 -4,8 -7,14 -11,19l-130 175 -17 0 -135 -174c-5,-6 -9,-13 -13,-21 -4,-8 -8,-17 -11,-28zm604 276l-64 0 0 -338 64 0 0 338zm210 -271c2,10 3,20 3,30 1,10 1,20 1,31l0 210 -59 0 0 -339 49 0 249 221c7,6 14,13 21,21 7,8 13,16 20,26 -2,-10 -3,-21 -4,-31 -1,-10 -1,-21 -1,-32l0 -205 59 0 0 339 -44 0 -254 -224c-9,-8 -17,-16 -23,-24 -6,-7 -12,-15 -17,-23zm558 -68l0 288 248 0 0 -288 65 0 0 259c0,31 -6,52 -17,63 -12,11 -34,17 -66,17l-210 0c-32,0 -54,-6 -66,-17 -12,-11 -17,-32 -17,-63l0 -259 64 0zm632 50l0 288 -64 0 0 -288 -160 0 0 -50 385 0 0 50 -161 0zm-4366 288l-131 -339 66 0 94 259 100 -259 42 0 98 259 94 -259 57 0 -130 339 -47 0 -95 -253 -100 253 -48 0z"/>
  </g>
 </g>
</svg>
